G04 #@! TF.GenerationSoftware,KiCad,Pcbnew,5.1.5+dfsg1-2build2*
G04 #@! TF.CreationDate,2021-01-30T13:40:10-06:00*
G04 #@! TF.ProjectId,speaker-switcher-remote,73706561-6b65-4722-9d73-776974636865,rev?*
G04 #@! TF.SameCoordinates,Original*
G04 #@! TF.FileFunction,Copper,L2,Bot*
G04 #@! TF.FilePolarity,Positive*
%FSLAX46Y46*%
G04 Gerber Fmt 4.6, Leading zero omitted, Abs format (unit mm)*
G04 Created by KiCad (PCBNEW 5.1.5+dfsg1-2build2) date 2021-01-30 13:40:10*
%MOMM*%
%LPD*%
G04 APERTURE LIST*
%ADD10O,1.600000X1.600000*%
%ADD11C,1.600000*%
%ADD12R,1.600000X1.600000*%
%ADD13C,1.524000*%
%ADD14R,1.300000X1.300000*%
%ADD15C,1.300000*%
%ADD16O,2.200000X2.200000*%
%ADD17R,2.200000X2.200000*%
%ADD18O,2.400000X2.400000*%
%ADD19C,2.400000*%
%ADD20O,1.500000X2.500000*%
%ADD21O,1.905000X2.000000*%
%ADD22R,1.905000X2.000000*%
%ADD23O,1.700000X1.700000*%
%ADD24R,1.700000X1.700000*%
%ADD25C,1.000000*%
%ADD26C,0.500000*%
G04 APERTURE END LIST*
D10*
X133250000Y-74096000D03*
D11*
X133250000Y-76636000D03*
X162358000Y-88066000D03*
D12*
X159858000Y-88066000D03*
D13*
X153370000Y-105780000D03*
X153370000Y-103240000D03*
X153370000Y-100700000D03*
X153370000Y-98160000D03*
X153370000Y-95620000D03*
X153370000Y-93080000D03*
X153370000Y-90540000D03*
X153370000Y-88000000D03*
X153370000Y-85460000D03*
X153370000Y-82920000D03*
X153370000Y-80380000D03*
X153370000Y-77840000D03*
X153370000Y-75300000D03*
X153370000Y-72760000D03*
X153370000Y-70220000D03*
X138130000Y-105780000D03*
X138130000Y-103240000D03*
X138130000Y-100700000D03*
X138130000Y-98160000D03*
X138130000Y-95620000D03*
X138130000Y-93080000D03*
X138130000Y-90540000D03*
X138130000Y-88000000D03*
X138130000Y-85460000D03*
X138130000Y-82920000D03*
X138130000Y-80380000D03*
X138130000Y-77840000D03*
X138130000Y-75300000D03*
X138130000Y-72760000D03*
X138130000Y-70220000D03*
D10*
X129124000Y-76890000D03*
D11*
X126584000Y-76890000D03*
D10*
X133250000Y-70540000D03*
D11*
X133250000Y-68000000D03*
D10*
X126250000Y-80460000D03*
D11*
X126250000Y-83000000D03*
D10*
X164176000Y-103814000D03*
D11*
X164176000Y-101274000D03*
D10*
X164176000Y-94924000D03*
D11*
X164176000Y-97464000D03*
D10*
X159985000Y-97845000D03*
D11*
X159985000Y-100385000D03*
D14*
X133250000Y-83500000D03*
D15*
X133250000Y-80960000D03*
X131980000Y-82230000D03*
D16*
X162440000Y-117500000D03*
D17*
X166250000Y-117500000D03*
D11*
X163080000Y-76636000D03*
X158080000Y-76636000D03*
X131500000Y-113000000D03*
D12*
X129000000Y-113000000D03*
D11*
X131500000Y-100000000D03*
D12*
X129000000Y-100000000D03*
D18*
X136930000Y-116000000D03*
D19*
X157250000Y-116000000D03*
D20*
X149190000Y-127690000D03*
X149190000Y-122610000D03*
D21*
X133080000Y-90000000D03*
X130540000Y-90000000D03*
D22*
X128000000Y-90000000D03*
D21*
X159985000Y-108640000D03*
X162525000Y-108640000D03*
D22*
X165065000Y-108640000D03*
D20*
X144110000Y-127690000D03*
X144110000Y-122610000D03*
X136490000Y-127690000D03*
X136490000Y-122610000D03*
X131410000Y-122610000D03*
X131410000Y-127690000D03*
D23*
X160250000Y-70580000D03*
X160250000Y-68040000D03*
D24*
X160250000Y-65500000D03*
D20*
X155540000Y-127690000D03*
X155540000Y-122610000D03*
X160620000Y-127690000D03*
X160620000Y-122610000D03*
D25*
X131500000Y-122520000D02*
X131410000Y-122610000D01*
X131500000Y-113000000D02*
X131500000Y-122520000D01*
X131410000Y-127690000D02*
X131410000Y-122610000D01*
X131410000Y-122610000D02*
X131410000Y-121840000D01*
X131410000Y-121840000D02*
X133750000Y-119500000D01*
X139250000Y-119500000D02*
X133750000Y-119500000D01*
X142360000Y-122610000D02*
X139250000Y-119500000D01*
X144110000Y-122610000D02*
X142360000Y-122610000D01*
X144110000Y-122610000D02*
X144110000Y-127690000D01*
X162358000Y-98012000D02*
X159985000Y-100385000D01*
X162358000Y-88066000D02*
X162358000Y-98012000D01*
D26*
X149190000Y-102346238D02*
X149190000Y-122610000D01*
X138711761Y-91867999D02*
X149190000Y-102346238D01*
X136978947Y-91867999D02*
X138711761Y-91867999D01*
X128110948Y-83000000D02*
X136978947Y-91867999D01*
X126250000Y-83000000D02*
X128110948Y-83000000D01*
D25*
X149190000Y-124360000D02*
X149190000Y-127690000D01*
D26*
X149190000Y-122610000D02*
X149190000Y-124360000D01*
D25*
X127700000Y-113000000D02*
X129000000Y-113000000D01*
X123250000Y-108550000D02*
X127700000Y-113000000D01*
X134920000Y-105780000D02*
X138130000Y-105780000D01*
X129000000Y-111700000D02*
X134920000Y-105780000D01*
X129000000Y-113000000D02*
X129000000Y-111700000D01*
X129627500Y-86500000D02*
X123250000Y-86500000D01*
X133080000Y-89952500D02*
X129627500Y-86500000D01*
X133080000Y-90000000D02*
X133080000Y-89952500D01*
X123250000Y-86500000D02*
X123250000Y-108550000D01*
X126584000Y-76890000D02*
X123409000Y-80065000D01*
D26*
X123250000Y-80224000D02*
X123409000Y-80065000D01*
D25*
X123250000Y-86500000D02*
X123250000Y-80224000D01*
X136490000Y-122610000D02*
X136490000Y-127690000D01*
X160620000Y-122610000D02*
X160620000Y-127690000D01*
X157250000Y-119000000D02*
X160750000Y-122500000D01*
X157250000Y-116000000D02*
X157250000Y-119000000D01*
X155540000Y-122610000D02*
X155540000Y-127690000D01*
M02*
