G04 #@! TF.GenerationSoftware,KiCad,Pcbnew,5.1.5+dfsg1-2build2*
G04 #@! TF.CreationDate,2021-01-23T10:17:54-06:00*
G04 #@! TF.ProjectId,speaker-switcher-remote,73706561-6b65-4722-9d73-776974636865,rev?*
G04 #@! TF.SameCoordinates,Original*
G04 #@! TF.FileFunction,Soldermask,Top*
G04 #@! TF.FilePolarity,Negative*
%FSLAX46Y46*%
G04 Gerber Fmt 4.6, Leading zero omitted, Abs format (unit mm)*
G04 Created by KiCad (PCBNEW 5.1.5+dfsg1-2build2) date 2021-01-23 10:17:54*
%MOMM*%
%LPD*%
G04 APERTURE LIST*
%ADD10C,0.100000*%
G04 APERTURE END LIST*
D10*
G36*
X134625256Y-117891298D02*
G01*
X134731579Y-117912447D01*
X135032042Y-118036903D01*
X135302451Y-118217585D01*
X135532415Y-118447549D01*
X135627939Y-118590511D01*
X135713098Y-118717960D01*
X135717946Y-118729664D01*
X135825617Y-118989604D01*
X135837553Y-119018422D01*
X135901000Y-119337389D01*
X135901000Y-119662611D01*
X135858702Y-119875256D01*
X135837553Y-119981579D01*
X135713097Y-120282042D01*
X135532415Y-120552451D01*
X135302451Y-120782415D01*
X135032042Y-120963097D01*
X134731579Y-121087553D01*
X134625256Y-121108702D01*
X134412611Y-121151000D01*
X134087389Y-121151000D01*
X133874744Y-121108702D01*
X133768421Y-121087553D01*
X133467958Y-120963097D01*
X133197549Y-120782415D01*
X132967585Y-120552451D01*
X132786903Y-120282042D01*
X132662447Y-119981579D01*
X132641298Y-119875256D01*
X132599000Y-119662611D01*
X132599000Y-119337389D01*
X132662447Y-119018422D01*
X132674384Y-118989604D01*
X132782054Y-118729664D01*
X132786902Y-118717960D01*
X132872061Y-118590511D01*
X132967585Y-118447549D01*
X133197549Y-118217585D01*
X133467958Y-118036903D01*
X133768421Y-117912447D01*
X133874744Y-117891298D01*
X134087389Y-117849000D01*
X134412611Y-117849000D01*
X134625256Y-117891298D01*
G37*
G36*
X90625256Y-117891298D02*
G01*
X90731579Y-117912447D01*
X91032042Y-118036903D01*
X91302451Y-118217585D01*
X91532415Y-118447549D01*
X91627939Y-118590511D01*
X91713098Y-118717960D01*
X91717946Y-118729664D01*
X91825617Y-118989604D01*
X91837553Y-119018422D01*
X91901000Y-119337389D01*
X91901000Y-119662611D01*
X91858702Y-119875256D01*
X91837553Y-119981579D01*
X91713097Y-120282042D01*
X91532415Y-120552451D01*
X91302451Y-120782415D01*
X91032042Y-120963097D01*
X90731579Y-121087553D01*
X90625256Y-121108702D01*
X90412611Y-121151000D01*
X90087389Y-121151000D01*
X89874744Y-121108702D01*
X89768421Y-121087553D01*
X89467958Y-120963097D01*
X89197549Y-120782415D01*
X88967585Y-120552451D01*
X88786903Y-120282042D01*
X88662447Y-119981579D01*
X88641298Y-119875256D01*
X88599000Y-119662611D01*
X88599000Y-119337389D01*
X88662447Y-119018422D01*
X88674384Y-118989604D01*
X88782054Y-118729664D01*
X88786902Y-118717960D01*
X88872061Y-118590511D01*
X88967585Y-118447549D01*
X89197549Y-118217585D01*
X89467958Y-118036903D01*
X89768421Y-117912447D01*
X89874744Y-117891298D01*
X90087389Y-117849000D01*
X90412611Y-117849000D01*
X90625256Y-117891298D01*
G37*
G36*
X112488474Y-117493089D02*
G01*
X112639463Y-117538890D01*
X112709040Y-117576080D01*
X112778616Y-117613269D01*
X112821856Y-117648756D01*
X112900584Y-117713365D01*
X112965193Y-117792093D01*
X113000680Y-117835333D01*
X113037869Y-117904910D01*
X113075059Y-117974486D01*
X113120860Y-118125475D01*
X113136326Y-118282498D01*
X113120860Y-118439522D01*
X113075059Y-118590511D01*
X113045712Y-118645414D01*
X113000680Y-118729664D01*
X112925664Y-118821070D01*
X112162916Y-119583817D01*
X112071510Y-119658833D01*
X111980828Y-119707303D01*
X111932358Y-119733211D01*
X111856862Y-119756112D01*
X111781367Y-119779013D01*
X111624345Y-119794479D01*
X111467323Y-119779013D01*
X111391828Y-119756112D01*
X111316332Y-119733211D01*
X111267862Y-119707303D01*
X111177180Y-119658833D01*
X111133940Y-119623346D01*
X111055212Y-119558737D01*
X110990603Y-119480009D01*
X110955116Y-119436769D01*
X110901997Y-119337389D01*
X110880738Y-119297617D01*
X110834936Y-119146625D01*
X110819470Y-118989604D01*
X110834936Y-118832582D01*
X110869706Y-118717960D01*
X110880738Y-118681591D01*
X110906646Y-118633121D01*
X110955116Y-118542439D01*
X111030132Y-118451033D01*
X111792879Y-117688285D01*
X111884285Y-117613269D01*
X111968535Y-117568237D01*
X112023438Y-117538890D01*
X112174427Y-117493089D01*
X112331451Y-117477623D01*
X112488474Y-117493089D01*
G37*
G36*
X128254525Y-117493089D02*
G01*
X128405514Y-117538890D01*
X128475091Y-117576080D01*
X128544667Y-117613269D01*
X128587907Y-117648756D01*
X128666635Y-117713365D01*
X128731244Y-117792093D01*
X128766731Y-117835333D01*
X128803920Y-117904910D01*
X128841110Y-117974486D01*
X128886911Y-118125475D01*
X128902377Y-118282498D01*
X128886911Y-118439522D01*
X128841110Y-118590511D01*
X128811763Y-118645414D01*
X128766731Y-118729664D01*
X128691715Y-118821070D01*
X127928967Y-119583817D01*
X127837561Y-119658833D01*
X127746879Y-119707303D01*
X127698409Y-119733211D01*
X127622913Y-119756112D01*
X127547418Y-119779013D01*
X127390396Y-119794479D01*
X127233374Y-119779013D01*
X127157879Y-119756112D01*
X127082383Y-119733211D01*
X127033913Y-119707303D01*
X126943231Y-119658833D01*
X126899991Y-119623346D01*
X126821263Y-119558737D01*
X126756654Y-119480009D01*
X126721167Y-119436769D01*
X126668048Y-119337389D01*
X126646789Y-119297617D01*
X126600987Y-119146625D01*
X126585521Y-118989604D01*
X126600987Y-118832582D01*
X126635757Y-118717960D01*
X126646789Y-118681591D01*
X126672697Y-118633121D01*
X126721167Y-118542439D01*
X126796183Y-118451033D01*
X127558930Y-117688285D01*
X127650336Y-117613269D01*
X127734586Y-117568237D01*
X127789489Y-117538890D01*
X127940478Y-117493089D01*
X128097502Y-117477623D01*
X128254525Y-117493089D01*
G37*
G36*
X120108474Y-117493089D02*
G01*
X120259463Y-117538890D01*
X120329040Y-117576080D01*
X120398616Y-117613269D01*
X120441856Y-117648756D01*
X120520584Y-117713365D01*
X120585193Y-117792093D01*
X120620680Y-117835333D01*
X120657869Y-117904910D01*
X120695059Y-117974486D01*
X120740860Y-118125475D01*
X120756326Y-118282498D01*
X120740860Y-118439522D01*
X120695059Y-118590511D01*
X120665712Y-118645414D01*
X120620680Y-118729664D01*
X120545664Y-118821070D01*
X119782916Y-119583817D01*
X119691510Y-119658833D01*
X119600828Y-119707303D01*
X119552358Y-119733211D01*
X119476862Y-119756112D01*
X119401367Y-119779013D01*
X119244345Y-119794479D01*
X119087323Y-119779013D01*
X119011828Y-119756112D01*
X118936332Y-119733211D01*
X118887862Y-119707303D01*
X118797180Y-119658833D01*
X118753940Y-119623346D01*
X118675212Y-119558737D01*
X118610603Y-119480009D01*
X118575116Y-119436769D01*
X118521997Y-119337389D01*
X118500738Y-119297617D01*
X118454936Y-119146625D01*
X118439470Y-118989604D01*
X118454936Y-118832582D01*
X118489706Y-118717960D01*
X118500738Y-118681591D01*
X118526646Y-118633121D01*
X118575116Y-118542439D01*
X118650132Y-118451033D01*
X119412879Y-117688285D01*
X119504285Y-117613269D01*
X119588535Y-117568237D01*
X119643438Y-117538890D01*
X119794427Y-117493089D01*
X119951451Y-117477623D01*
X120108474Y-117493089D01*
G37*
G36*
X131846627Y-113900987D02*
G01*
X131997616Y-113946788D01*
X132067192Y-113983978D01*
X132136769Y-114021167D01*
X132180009Y-114056654D01*
X132258737Y-114121263D01*
X132323346Y-114199991D01*
X132358833Y-114243231D01*
X132396022Y-114312808D01*
X132433212Y-114382384D01*
X132479013Y-114533373D01*
X132494479Y-114690396D01*
X132479013Y-114847420D01*
X132433212Y-114998409D01*
X132403865Y-115053312D01*
X132358833Y-115137562D01*
X132283817Y-115228968D01*
X131521069Y-115991715D01*
X131429663Y-116066731D01*
X131338981Y-116115201D01*
X131290511Y-116141109D01*
X131215015Y-116164010D01*
X131139520Y-116186911D01*
X130982498Y-116202377D01*
X130825476Y-116186911D01*
X130749981Y-116164010D01*
X130674485Y-116141109D01*
X130626015Y-116115201D01*
X130535333Y-116066731D01*
X130492093Y-116031244D01*
X130413365Y-115966635D01*
X130348756Y-115887907D01*
X130313269Y-115844667D01*
X130264799Y-115753985D01*
X130238891Y-115705515D01*
X130193089Y-115554523D01*
X130177623Y-115397502D01*
X130193089Y-115240480D01*
X130238891Y-115089490D01*
X130238891Y-115089489D01*
X130264799Y-115041019D01*
X130313269Y-114950337D01*
X130388285Y-114858931D01*
X131151032Y-114096183D01*
X131242438Y-114021167D01*
X131326688Y-113976135D01*
X131381591Y-113946788D01*
X131532580Y-113900987D01*
X131689604Y-113885521D01*
X131846627Y-113900987D01*
G37*
G36*
X116080576Y-113900987D02*
G01*
X116231565Y-113946788D01*
X116301141Y-113983978D01*
X116370718Y-114021167D01*
X116413958Y-114056654D01*
X116492686Y-114121263D01*
X116557295Y-114199991D01*
X116592782Y-114243231D01*
X116629971Y-114312808D01*
X116667161Y-114382384D01*
X116712962Y-114533373D01*
X116728428Y-114690396D01*
X116712962Y-114847420D01*
X116667161Y-114998409D01*
X116637814Y-115053312D01*
X116592782Y-115137562D01*
X116517766Y-115228968D01*
X115755018Y-115991715D01*
X115663612Y-116066731D01*
X115572930Y-116115201D01*
X115524460Y-116141109D01*
X115448964Y-116164010D01*
X115373469Y-116186911D01*
X115216447Y-116202377D01*
X115059425Y-116186911D01*
X114983930Y-116164010D01*
X114908434Y-116141109D01*
X114859964Y-116115201D01*
X114769282Y-116066731D01*
X114726042Y-116031244D01*
X114647314Y-115966635D01*
X114582705Y-115887907D01*
X114547218Y-115844667D01*
X114498748Y-115753985D01*
X114472840Y-115705515D01*
X114427038Y-115554523D01*
X114411572Y-115397502D01*
X114427038Y-115240480D01*
X114472840Y-115089490D01*
X114472840Y-115089489D01*
X114498748Y-115041019D01*
X114547218Y-114950337D01*
X114622234Y-114858931D01*
X115384981Y-114096183D01*
X115476387Y-114021167D01*
X115560637Y-113976135D01*
X115615540Y-113946788D01*
X115766529Y-113900987D01*
X115923553Y-113885521D01*
X116080576Y-113900987D01*
G37*
G36*
X123700576Y-113900987D02*
G01*
X123851565Y-113946788D01*
X123921141Y-113983978D01*
X123990718Y-114021167D01*
X124033958Y-114056654D01*
X124112686Y-114121263D01*
X124177295Y-114199991D01*
X124212782Y-114243231D01*
X124249971Y-114312808D01*
X124287161Y-114382384D01*
X124332962Y-114533373D01*
X124348428Y-114690396D01*
X124332962Y-114847420D01*
X124287161Y-114998409D01*
X124257814Y-115053312D01*
X124212782Y-115137562D01*
X124137766Y-115228968D01*
X123375018Y-115991715D01*
X123283612Y-116066731D01*
X123192930Y-116115201D01*
X123144460Y-116141109D01*
X123068964Y-116164010D01*
X122993469Y-116186911D01*
X122836447Y-116202377D01*
X122679425Y-116186911D01*
X122603930Y-116164010D01*
X122528434Y-116141109D01*
X122479964Y-116115201D01*
X122389282Y-116066731D01*
X122346042Y-116031244D01*
X122267314Y-115966635D01*
X122202705Y-115887907D01*
X122167218Y-115844667D01*
X122118748Y-115753985D01*
X122092840Y-115705515D01*
X122047038Y-115554523D01*
X122031572Y-115397502D01*
X122047038Y-115240480D01*
X122092840Y-115089490D01*
X122092840Y-115089489D01*
X122118748Y-115041019D01*
X122167218Y-114950337D01*
X122242234Y-114858931D01*
X123004981Y-114096183D01*
X123096387Y-114021167D01*
X123180637Y-113976135D01*
X123235540Y-113946788D01*
X123386529Y-113900987D01*
X123543553Y-113885521D01*
X123700576Y-113900987D01*
G37*
G36*
X91677142Y-109708242D02*
G01*
X91825101Y-109769529D01*
X91958255Y-109858499D01*
X92071501Y-109971745D01*
X92160471Y-110104899D01*
X92221758Y-110252858D01*
X92253000Y-110409925D01*
X92253000Y-110570075D01*
X92221758Y-110727142D01*
X92160471Y-110875101D01*
X92071501Y-111008255D01*
X91958255Y-111121501D01*
X91825101Y-111210471D01*
X91677142Y-111271758D01*
X91520075Y-111303000D01*
X91359925Y-111303000D01*
X91202858Y-111271758D01*
X91054899Y-111210471D01*
X90921745Y-111121501D01*
X90808499Y-111008255D01*
X90719529Y-110875101D01*
X90658242Y-110727142D01*
X90627000Y-110570075D01*
X90627000Y-110409925D01*
X90658242Y-110252858D01*
X90719529Y-110104899D01*
X90808499Y-109971745D01*
X90921745Y-109858499D01*
X91054899Y-109769529D01*
X91202858Y-109708242D01*
X91359925Y-109677000D01*
X91520075Y-109677000D01*
X91677142Y-109708242D01*
G37*
G36*
X106917142Y-109708242D02*
G01*
X107065101Y-109769529D01*
X107198255Y-109858499D01*
X107311501Y-109971745D01*
X107400471Y-110104899D01*
X107461758Y-110252858D01*
X107493000Y-110409925D01*
X107493000Y-110570075D01*
X107461758Y-110727142D01*
X107400471Y-110875101D01*
X107311501Y-111008255D01*
X107198255Y-111121501D01*
X107065101Y-111210471D01*
X106917142Y-111271758D01*
X106760075Y-111303000D01*
X106599925Y-111303000D01*
X106442858Y-111271758D01*
X106294899Y-111210471D01*
X106161745Y-111121501D01*
X106048499Y-111008255D01*
X105959529Y-110875101D01*
X105898242Y-110727142D01*
X105867000Y-110570075D01*
X105867000Y-110409925D01*
X105898242Y-110252858D01*
X105959529Y-110104899D01*
X106048499Y-109971745D01*
X106161745Y-109858499D01*
X106294899Y-109769529D01*
X106442858Y-109708242D01*
X106599925Y-109677000D01*
X106760075Y-109677000D01*
X106917142Y-109708242D01*
G37*
G36*
X128780576Y-108603089D02*
G01*
X128931565Y-108648890D01*
X129001142Y-108686080D01*
X129070718Y-108723269D01*
X129113958Y-108758756D01*
X129192686Y-108823365D01*
X129257295Y-108902093D01*
X129292782Y-108945333D01*
X129329971Y-109014910D01*
X129367161Y-109084486D01*
X129412962Y-109235475D01*
X129428428Y-109392498D01*
X129412962Y-109549522D01*
X129367161Y-109700511D01*
X129337814Y-109755414D01*
X129292782Y-109839664D01*
X129217766Y-109931070D01*
X128455018Y-110693817D01*
X128363612Y-110768833D01*
X128272930Y-110817303D01*
X128224460Y-110843211D01*
X128148964Y-110866112D01*
X128073469Y-110889013D01*
X127916447Y-110904479D01*
X127759425Y-110889013D01*
X127683930Y-110866112D01*
X127608434Y-110843211D01*
X127559964Y-110817303D01*
X127469282Y-110768833D01*
X127418482Y-110727142D01*
X127347314Y-110668737D01*
X127266345Y-110570075D01*
X127247218Y-110546769D01*
X127198748Y-110456087D01*
X127172840Y-110407617D01*
X127127038Y-110256625D01*
X127126667Y-110252857D01*
X127111572Y-110099604D01*
X127127038Y-109942582D01*
X127149939Y-109867087D01*
X127172840Y-109791591D01*
X127198748Y-109743121D01*
X127247218Y-109652439D01*
X127322234Y-109561033D01*
X128084981Y-108798285D01*
X128176387Y-108723269D01*
X128275166Y-108670471D01*
X128315540Y-108648890D01*
X128466529Y-108603089D01*
X128623553Y-108587623D01*
X128780576Y-108603089D01*
G37*
G36*
X113014525Y-108603089D02*
G01*
X113165514Y-108648890D01*
X113235091Y-108686080D01*
X113304667Y-108723269D01*
X113347907Y-108758756D01*
X113426635Y-108823365D01*
X113491244Y-108902093D01*
X113526731Y-108945333D01*
X113563920Y-109014909D01*
X113601110Y-109084486D01*
X113646911Y-109235475D01*
X113662377Y-109392498D01*
X113646911Y-109549522D01*
X113601110Y-109700511D01*
X113571763Y-109755414D01*
X113526731Y-109839664D01*
X113451715Y-109931070D01*
X112688967Y-110693817D01*
X112597561Y-110768833D01*
X112506879Y-110817303D01*
X112458409Y-110843211D01*
X112382913Y-110866112D01*
X112307418Y-110889013D01*
X112150396Y-110904479D01*
X111993374Y-110889013D01*
X111917879Y-110866112D01*
X111842383Y-110843211D01*
X111793913Y-110817303D01*
X111703231Y-110768833D01*
X111652431Y-110727142D01*
X111581263Y-110668737D01*
X111500294Y-110570075D01*
X111481167Y-110546769D01*
X111432697Y-110456087D01*
X111406789Y-110407617D01*
X111360987Y-110256625D01*
X111360616Y-110252857D01*
X111345521Y-110099604D01*
X111360987Y-109942582D01*
X111383888Y-109867087D01*
X111406789Y-109791591D01*
X111432697Y-109743121D01*
X111481167Y-109652439D01*
X111556183Y-109561033D01*
X112318930Y-108798285D01*
X112410336Y-108723269D01*
X112509115Y-108670471D01*
X112549489Y-108648890D01*
X112700478Y-108603089D01*
X112857502Y-108587623D01*
X113014525Y-108603089D01*
G37*
G36*
X121160576Y-108603089D02*
G01*
X121311565Y-108648890D01*
X121381142Y-108686080D01*
X121450718Y-108723269D01*
X121493958Y-108758756D01*
X121572686Y-108823365D01*
X121637295Y-108902093D01*
X121672782Y-108945333D01*
X121709971Y-109014909D01*
X121747161Y-109084486D01*
X121792962Y-109235475D01*
X121808428Y-109392498D01*
X121792962Y-109549522D01*
X121747161Y-109700511D01*
X121717814Y-109755414D01*
X121672782Y-109839664D01*
X121597766Y-109931070D01*
X120835018Y-110693817D01*
X120743612Y-110768833D01*
X120652930Y-110817303D01*
X120604460Y-110843211D01*
X120528964Y-110866112D01*
X120453469Y-110889013D01*
X120296447Y-110904479D01*
X120139425Y-110889013D01*
X120063930Y-110866112D01*
X119988434Y-110843211D01*
X119939964Y-110817303D01*
X119849282Y-110768833D01*
X119798482Y-110727142D01*
X119727314Y-110668737D01*
X119646345Y-110570075D01*
X119627218Y-110546769D01*
X119578748Y-110456087D01*
X119552840Y-110407617D01*
X119507038Y-110256625D01*
X119506667Y-110252857D01*
X119491572Y-110099604D01*
X119507038Y-109942582D01*
X119529939Y-109867087D01*
X119552840Y-109791591D01*
X119578748Y-109743121D01*
X119627218Y-109652439D01*
X119702234Y-109561033D01*
X120464981Y-108798285D01*
X120556387Y-108723269D01*
X120655166Y-108670471D01*
X120695540Y-108648890D01*
X120846529Y-108603089D01*
X121003553Y-108587623D01*
X121160576Y-108603089D01*
G37*
G36*
X106917142Y-107168242D02*
G01*
X107065101Y-107229529D01*
X107198255Y-107318499D01*
X107311501Y-107431745D01*
X107400471Y-107564899D01*
X107461758Y-107712858D01*
X107493000Y-107869925D01*
X107493000Y-108030075D01*
X107461758Y-108187142D01*
X107400471Y-108335101D01*
X107311501Y-108468255D01*
X107198255Y-108581501D01*
X107065101Y-108670471D01*
X106917142Y-108731758D01*
X106760075Y-108763000D01*
X106599925Y-108763000D01*
X106442858Y-108731758D01*
X106294899Y-108670471D01*
X106161745Y-108581501D01*
X106048499Y-108468255D01*
X105959529Y-108335101D01*
X105898242Y-108187142D01*
X105867000Y-108030075D01*
X105867000Y-107869925D01*
X105898242Y-107712858D01*
X105959529Y-107564899D01*
X106048499Y-107431745D01*
X106161745Y-107318499D01*
X106294899Y-107229529D01*
X106442858Y-107168242D01*
X106599925Y-107137000D01*
X106760075Y-107137000D01*
X106917142Y-107168242D01*
G37*
G36*
X91677142Y-107168242D02*
G01*
X91825101Y-107229529D01*
X91958255Y-107318499D01*
X92071501Y-107431745D01*
X92160471Y-107564899D01*
X92221758Y-107712858D01*
X92253000Y-107869925D01*
X92253000Y-108030075D01*
X92221758Y-108187142D01*
X92160471Y-108335101D01*
X92071501Y-108468255D01*
X91958255Y-108581501D01*
X91825101Y-108670471D01*
X91677142Y-108731758D01*
X91520075Y-108763000D01*
X91359925Y-108763000D01*
X91202858Y-108731758D01*
X91054899Y-108670471D01*
X90921745Y-108581501D01*
X90808499Y-108468255D01*
X90719529Y-108335101D01*
X90658242Y-108187142D01*
X90627000Y-108030075D01*
X90627000Y-107869925D01*
X90658242Y-107712858D01*
X90719529Y-107564899D01*
X90808499Y-107431745D01*
X90921745Y-107318499D01*
X91054899Y-107229529D01*
X91202858Y-107168242D01*
X91359925Y-107137000D01*
X91520075Y-107137000D01*
X91677142Y-107168242D01*
G37*
G36*
X132372678Y-105010987D02*
G01*
X132523667Y-105056788D01*
X132593243Y-105093978D01*
X132662820Y-105131167D01*
X132706060Y-105166654D01*
X132784788Y-105231263D01*
X132849397Y-105309991D01*
X132884884Y-105353231D01*
X132922073Y-105422807D01*
X132959263Y-105492384D01*
X133005064Y-105643373D01*
X133020530Y-105800396D01*
X133005064Y-105957420D01*
X132959263Y-106108409D01*
X132947470Y-106130471D01*
X132884884Y-106247562D01*
X132809868Y-106338968D01*
X132047120Y-107101715D01*
X131955714Y-107176731D01*
X131865032Y-107225201D01*
X131816562Y-107251109D01*
X131741066Y-107274010D01*
X131665571Y-107296911D01*
X131508549Y-107312377D01*
X131351527Y-107296911D01*
X131276032Y-107274010D01*
X131200536Y-107251109D01*
X131152066Y-107225201D01*
X131061384Y-107176731D01*
X131012972Y-107137000D01*
X130939416Y-107076635D01*
X130874807Y-106997907D01*
X130839320Y-106954667D01*
X130790850Y-106863985D01*
X130764942Y-106815515D01*
X130719140Y-106664523D01*
X130703674Y-106507502D01*
X130719140Y-106350480D01*
X130764942Y-106199490D01*
X130764942Y-106199489D01*
X130801833Y-106130471D01*
X130839320Y-106060337D01*
X130914336Y-105968931D01*
X131677083Y-105206183D01*
X131768489Y-105131167D01*
X131852739Y-105086135D01*
X131907642Y-105056788D01*
X132058631Y-105010987D01*
X132215655Y-104995521D01*
X132372678Y-105010987D01*
G37*
G36*
X116606627Y-105010987D02*
G01*
X116757616Y-105056788D01*
X116827192Y-105093978D01*
X116896769Y-105131167D01*
X116940009Y-105166654D01*
X117018737Y-105231263D01*
X117083346Y-105309991D01*
X117118833Y-105353231D01*
X117156022Y-105422807D01*
X117193212Y-105492384D01*
X117239013Y-105643373D01*
X117254479Y-105800396D01*
X117239013Y-105957420D01*
X117193212Y-106108409D01*
X117181419Y-106130471D01*
X117118833Y-106247562D01*
X117043817Y-106338968D01*
X116281069Y-107101715D01*
X116189663Y-107176731D01*
X116098981Y-107225201D01*
X116050511Y-107251109D01*
X115975015Y-107274010D01*
X115899520Y-107296911D01*
X115742498Y-107312377D01*
X115585476Y-107296911D01*
X115509981Y-107274010D01*
X115434485Y-107251109D01*
X115386015Y-107225201D01*
X115295333Y-107176731D01*
X115246921Y-107137000D01*
X115173365Y-107076635D01*
X115108756Y-106997907D01*
X115073269Y-106954667D01*
X115024799Y-106863985D01*
X114998891Y-106815515D01*
X114953089Y-106664523D01*
X114937623Y-106507502D01*
X114953089Y-106350480D01*
X114998891Y-106199490D01*
X114998891Y-106199489D01*
X115035782Y-106130471D01*
X115073269Y-106060337D01*
X115148285Y-105968931D01*
X115911032Y-105206183D01*
X116002438Y-105131167D01*
X116086688Y-105086135D01*
X116141591Y-105056788D01*
X116292580Y-105010987D01*
X116449604Y-104995521D01*
X116606627Y-105010987D01*
G37*
G36*
X124752678Y-105010987D02*
G01*
X124903667Y-105056788D01*
X124973243Y-105093978D01*
X125042820Y-105131167D01*
X125086060Y-105166654D01*
X125164788Y-105231263D01*
X125229397Y-105309991D01*
X125264884Y-105353231D01*
X125302073Y-105422807D01*
X125339263Y-105492384D01*
X125385064Y-105643373D01*
X125400530Y-105800396D01*
X125385064Y-105957420D01*
X125339263Y-106108409D01*
X125327470Y-106130471D01*
X125264884Y-106247562D01*
X125189868Y-106338968D01*
X124427120Y-107101715D01*
X124335714Y-107176731D01*
X124245032Y-107225201D01*
X124196562Y-107251109D01*
X124121066Y-107274010D01*
X124045571Y-107296911D01*
X123888549Y-107312377D01*
X123731527Y-107296911D01*
X123656032Y-107274010D01*
X123580536Y-107251109D01*
X123532066Y-107225201D01*
X123441384Y-107176731D01*
X123392972Y-107137000D01*
X123319416Y-107076635D01*
X123254807Y-106997907D01*
X123219320Y-106954667D01*
X123170850Y-106863985D01*
X123144942Y-106815515D01*
X123099140Y-106664523D01*
X123083674Y-106507502D01*
X123099140Y-106350480D01*
X123144942Y-106199490D01*
X123144942Y-106199489D01*
X123181833Y-106130471D01*
X123219320Y-106060337D01*
X123294336Y-105968931D01*
X124057083Y-105206183D01*
X124148489Y-105131167D01*
X124232739Y-105086135D01*
X124287642Y-105056788D01*
X124438631Y-105010987D01*
X124595655Y-104995521D01*
X124752678Y-105010987D01*
G37*
G36*
X106917142Y-104628242D02*
G01*
X107065101Y-104689529D01*
X107198255Y-104778499D01*
X107311501Y-104891745D01*
X107400471Y-105024899D01*
X107461758Y-105172858D01*
X107493000Y-105329925D01*
X107493000Y-105490075D01*
X107461758Y-105647142D01*
X107400471Y-105795101D01*
X107311501Y-105928255D01*
X107198255Y-106041501D01*
X107065101Y-106130471D01*
X106917142Y-106191758D01*
X106760075Y-106223000D01*
X106599925Y-106223000D01*
X106442858Y-106191758D01*
X106294899Y-106130471D01*
X106161745Y-106041501D01*
X106048499Y-105928255D01*
X105959529Y-105795101D01*
X105898242Y-105647142D01*
X105867000Y-105490075D01*
X105867000Y-105329925D01*
X105898242Y-105172858D01*
X105959529Y-105024899D01*
X106048499Y-104891745D01*
X106161745Y-104778499D01*
X106294899Y-104689529D01*
X106442858Y-104628242D01*
X106599925Y-104597000D01*
X106760075Y-104597000D01*
X106917142Y-104628242D01*
G37*
G36*
X91677142Y-104628242D02*
G01*
X91825101Y-104689529D01*
X91958255Y-104778499D01*
X92071501Y-104891745D01*
X92160471Y-105024899D01*
X92221758Y-105172858D01*
X92253000Y-105329925D01*
X92253000Y-105490075D01*
X92221758Y-105647142D01*
X92160471Y-105795101D01*
X92071501Y-105928255D01*
X91958255Y-106041501D01*
X91825101Y-106130471D01*
X91677142Y-106191758D01*
X91520075Y-106223000D01*
X91359925Y-106223000D01*
X91202858Y-106191758D01*
X91054899Y-106130471D01*
X90921745Y-106041501D01*
X90808499Y-105928255D01*
X90719529Y-105795101D01*
X90658242Y-105647142D01*
X90627000Y-105490075D01*
X90627000Y-105329925D01*
X90658242Y-105172858D01*
X90719529Y-105024899D01*
X90808499Y-104891745D01*
X90921745Y-104778499D01*
X91054899Y-104689529D01*
X91202858Y-104628242D01*
X91359925Y-104597000D01*
X91520075Y-104597000D01*
X91677142Y-104628242D01*
G37*
G36*
X91677142Y-102088242D02*
G01*
X91825101Y-102149529D01*
X91958255Y-102238499D01*
X92071501Y-102351745D01*
X92160471Y-102484899D01*
X92221758Y-102632858D01*
X92253000Y-102789925D01*
X92253000Y-102950075D01*
X92221758Y-103107142D01*
X92160471Y-103255101D01*
X92071501Y-103388255D01*
X91958255Y-103501501D01*
X91825101Y-103590471D01*
X91677142Y-103651758D01*
X91520075Y-103683000D01*
X91359925Y-103683000D01*
X91202858Y-103651758D01*
X91054899Y-103590471D01*
X90921745Y-103501501D01*
X90808499Y-103388255D01*
X90719529Y-103255101D01*
X90658242Y-103107142D01*
X90627000Y-102950075D01*
X90627000Y-102789925D01*
X90658242Y-102632858D01*
X90719529Y-102484899D01*
X90808499Y-102351745D01*
X90921745Y-102238499D01*
X91054899Y-102149529D01*
X91202858Y-102088242D01*
X91359925Y-102057000D01*
X91520075Y-102057000D01*
X91677142Y-102088242D01*
G37*
G36*
X106917142Y-102088242D02*
G01*
X107065101Y-102149529D01*
X107198255Y-102238499D01*
X107311501Y-102351745D01*
X107400471Y-102484899D01*
X107461758Y-102632858D01*
X107493000Y-102789925D01*
X107493000Y-102950075D01*
X107461758Y-103107142D01*
X107400471Y-103255101D01*
X107311501Y-103388255D01*
X107198255Y-103501501D01*
X107065101Y-103590471D01*
X106917142Y-103651758D01*
X106760075Y-103683000D01*
X106599925Y-103683000D01*
X106442858Y-103651758D01*
X106294899Y-103590471D01*
X106161745Y-103501501D01*
X106048499Y-103388255D01*
X105959529Y-103255101D01*
X105898242Y-103107142D01*
X105867000Y-102950075D01*
X105867000Y-102789925D01*
X105898242Y-102632858D01*
X105959529Y-102484899D01*
X106048499Y-102351745D01*
X106161745Y-102238499D01*
X106294899Y-102149529D01*
X106442858Y-102088242D01*
X106599925Y-102057000D01*
X106760075Y-102057000D01*
X106917142Y-102088242D01*
G37*
G36*
X106917142Y-99548242D02*
G01*
X107065101Y-99609529D01*
X107198255Y-99698499D01*
X107311501Y-99811745D01*
X107400471Y-99944899D01*
X107461758Y-100092858D01*
X107493000Y-100249925D01*
X107493000Y-100410075D01*
X107461758Y-100567142D01*
X107400471Y-100715101D01*
X107311501Y-100848255D01*
X107198255Y-100961501D01*
X107065101Y-101050471D01*
X106917142Y-101111758D01*
X106760075Y-101143000D01*
X106599925Y-101143000D01*
X106442858Y-101111758D01*
X106294899Y-101050471D01*
X106161745Y-100961501D01*
X106048499Y-100848255D01*
X105959529Y-100715101D01*
X105898242Y-100567142D01*
X105867000Y-100410075D01*
X105867000Y-100249925D01*
X105898242Y-100092858D01*
X105959529Y-99944899D01*
X106048499Y-99811745D01*
X106161745Y-99698499D01*
X106294899Y-99609529D01*
X106442858Y-99548242D01*
X106599925Y-99517000D01*
X106760075Y-99517000D01*
X106917142Y-99548242D01*
G37*
G36*
X91677142Y-99548242D02*
G01*
X91825101Y-99609529D01*
X91958255Y-99698499D01*
X92071501Y-99811745D01*
X92160471Y-99944899D01*
X92221758Y-100092858D01*
X92253000Y-100249925D01*
X92253000Y-100410075D01*
X92221758Y-100567142D01*
X92160471Y-100715101D01*
X92071501Y-100848255D01*
X91958255Y-100961501D01*
X91825101Y-101050471D01*
X91677142Y-101111758D01*
X91520075Y-101143000D01*
X91359925Y-101143000D01*
X91202858Y-101111758D01*
X91054899Y-101050471D01*
X90921745Y-100961501D01*
X90808499Y-100848255D01*
X90719529Y-100715101D01*
X90658242Y-100567142D01*
X90627000Y-100410075D01*
X90627000Y-100249925D01*
X90658242Y-100092858D01*
X90719529Y-99944899D01*
X90808499Y-99811745D01*
X90921745Y-99698499D01*
X91054899Y-99609529D01*
X91202858Y-99548242D01*
X91359925Y-99517000D01*
X91520075Y-99517000D01*
X91677142Y-99548242D01*
G37*
G36*
X130276719Y-98343520D02*
G01*
X130465880Y-98400901D01*
X130465883Y-98400902D01*
X130558333Y-98450318D01*
X130640212Y-98494083D01*
X130793015Y-98619485D01*
X130918417Y-98772288D01*
X131011599Y-98946619D01*
X131068980Y-99135780D01*
X131083500Y-99283206D01*
X131083500Y-99476793D01*
X131068980Y-99624219D01*
X131012095Y-99811745D01*
X131011598Y-99813383D01*
X130962182Y-99905833D01*
X130918417Y-99987712D01*
X130793015Y-100140515D01*
X130640212Y-100265917D01*
X130465881Y-100359099D01*
X130276720Y-100416480D01*
X130080000Y-100435855D01*
X129883281Y-100416480D01*
X129694120Y-100359099D01*
X129519788Y-100265917D01*
X129366985Y-100140515D01*
X129241583Y-99987712D01*
X129148401Y-99813381D01*
X129091020Y-99624220D01*
X129076500Y-99476794D01*
X129076500Y-99283207D01*
X129091020Y-99135781D01*
X129148401Y-98946620D01*
X129148402Y-98946617D01*
X129197818Y-98854167D01*
X129241583Y-98772288D01*
X129366985Y-98619485D01*
X129519788Y-98494083D01*
X129694119Y-98400901D01*
X129883280Y-98343520D01*
X130080000Y-98324145D01*
X130276719Y-98343520D01*
G37*
G36*
X127736719Y-98343520D02*
G01*
X127925880Y-98400901D01*
X127925883Y-98400902D01*
X128018333Y-98450318D01*
X128100212Y-98494083D01*
X128253015Y-98619485D01*
X128378417Y-98772288D01*
X128471599Y-98946619D01*
X128528980Y-99135780D01*
X128543500Y-99283206D01*
X128543500Y-99476793D01*
X128528980Y-99624219D01*
X128472095Y-99811745D01*
X128471598Y-99813383D01*
X128422182Y-99905833D01*
X128378417Y-99987712D01*
X128253015Y-100140515D01*
X128100212Y-100265917D01*
X127925881Y-100359099D01*
X127736720Y-100416480D01*
X127540000Y-100435855D01*
X127343281Y-100416480D01*
X127154120Y-100359099D01*
X126979788Y-100265917D01*
X126826985Y-100140515D01*
X126701583Y-99987712D01*
X126608401Y-99813381D01*
X126551020Y-99624220D01*
X126536500Y-99476794D01*
X126536500Y-99283207D01*
X126551020Y-99135781D01*
X126608401Y-98946620D01*
X126608402Y-98946617D01*
X126657818Y-98854167D01*
X126701583Y-98772288D01*
X126826985Y-98619485D01*
X126979788Y-98494083D01*
X127154119Y-98400901D01*
X127343280Y-98343520D01*
X127540000Y-98324145D01*
X127736719Y-98343520D01*
G37*
G36*
X118276719Y-98343520D02*
G01*
X118465880Y-98400901D01*
X118465883Y-98400902D01*
X118558333Y-98450318D01*
X118640212Y-98494083D01*
X118793015Y-98619485D01*
X118918417Y-98772288D01*
X119011599Y-98946619D01*
X119068980Y-99135780D01*
X119083500Y-99283206D01*
X119083500Y-99476793D01*
X119068980Y-99624219D01*
X119012095Y-99811745D01*
X119011598Y-99813383D01*
X118962182Y-99905833D01*
X118918417Y-99987712D01*
X118793015Y-100140515D01*
X118640212Y-100265917D01*
X118465881Y-100359099D01*
X118276720Y-100416480D01*
X118080000Y-100435855D01*
X117883281Y-100416480D01*
X117694120Y-100359099D01*
X117519788Y-100265917D01*
X117366985Y-100140515D01*
X117241583Y-99987712D01*
X117148401Y-99813381D01*
X117091020Y-99624220D01*
X117076500Y-99476794D01*
X117076500Y-99283207D01*
X117091020Y-99135781D01*
X117148401Y-98946620D01*
X117148402Y-98946617D01*
X117197818Y-98854167D01*
X117241583Y-98772288D01*
X117366985Y-98619485D01*
X117519788Y-98494083D01*
X117694119Y-98400901D01*
X117883280Y-98343520D01*
X118080000Y-98324145D01*
X118276719Y-98343520D01*
G37*
G36*
X115736719Y-98343520D02*
G01*
X115925880Y-98400901D01*
X115925883Y-98400902D01*
X116018333Y-98450318D01*
X116100212Y-98494083D01*
X116253015Y-98619485D01*
X116378417Y-98772288D01*
X116471599Y-98946619D01*
X116528980Y-99135780D01*
X116543500Y-99283206D01*
X116543500Y-99476793D01*
X116528980Y-99624219D01*
X116472095Y-99811745D01*
X116471598Y-99813383D01*
X116422182Y-99905833D01*
X116378417Y-99987712D01*
X116253015Y-100140515D01*
X116100212Y-100265917D01*
X115925881Y-100359099D01*
X115736720Y-100416480D01*
X115540000Y-100435855D01*
X115343281Y-100416480D01*
X115154120Y-100359099D01*
X114979788Y-100265917D01*
X114826985Y-100140515D01*
X114701583Y-99987712D01*
X114608401Y-99813381D01*
X114551020Y-99624220D01*
X114536500Y-99476794D01*
X114536500Y-99283207D01*
X114551020Y-99135781D01*
X114608401Y-98946620D01*
X114608402Y-98946617D01*
X114657818Y-98854167D01*
X114701583Y-98772288D01*
X114826985Y-98619485D01*
X114979788Y-98494083D01*
X115154119Y-98400901D01*
X115343280Y-98343520D01*
X115540000Y-98324145D01*
X115736719Y-98343520D01*
G37*
G36*
X126003500Y-100431000D02*
G01*
X123996500Y-100431000D01*
X123996500Y-98329000D01*
X126003500Y-98329000D01*
X126003500Y-100431000D01*
G37*
G36*
X114003500Y-100431000D02*
G01*
X111996500Y-100431000D01*
X111996500Y-98329000D01*
X114003500Y-98329000D01*
X114003500Y-100431000D01*
G37*
G36*
X106917142Y-97008242D02*
G01*
X107065101Y-97069529D01*
X107198255Y-97158499D01*
X107311501Y-97271745D01*
X107400471Y-97404899D01*
X107461758Y-97552858D01*
X107493000Y-97709925D01*
X107493000Y-97870075D01*
X107461758Y-98027142D01*
X107400471Y-98175101D01*
X107311501Y-98308255D01*
X107198255Y-98421501D01*
X107065101Y-98510471D01*
X106917142Y-98571758D01*
X106760075Y-98603000D01*
X106599925Y-98603000D01*
X106442858Y-98571758D01*
X106294899Y-98510471D01*
X106161745Y-98421501D01*
X106048499Y-98308255D01*
X105959529Y-98175101D01*
X105898242Y-98027142D01*
X105867000Y-97870075D01*
X105867000Y-97709925D01*
X105898242Y-97552858D01*
X105959529Y-97404899D01*
X106048499Y-97271745D01*
X106161745Y-97158499D01*
X106294899Y-97069529D01*
X106442858Y-97008242D01*
X106599925Y-96977000D01*
X106760075Y-96977000D01*
X106917142Y-97008242D01*
G37*
G36*
X91677142Y-97008242D02*
G01*
X91825101Y-97069529D01*
X91958255Y-97158499D01*
X92071501Y-97271745D01*
X92160471Y-97404899D01*
X92221758Y-97552858D01*
X92253000Y-97709925D01*
X92253000Y-97870075D01*
X92221758Y-98027142D01*
X92160471Y-98175101D01*
X92071501Y-98308255D01*
X91958255Y-98421501D01*
X91825101Y-98510471D01*
X91677142Y-98571758D01*
X91520075Y-98603000D01*
X91359925Y-98603000D01*
X91202858Y-98571758D01*
X91054899Y-98510471D01*
X90921745Y-98421501D01*
X90808499Y-98308255D01*
X90719529Y-98175101D01*
X90658242Y-98027142D01*
X90627000Y-97870075D01*
X90627000Y-97709925D01*
X90658242Y-97552858D01*
X90719529Y-97404899D01*
X90808499Y-97271745D01*
X90921745Y-97158499D01*
X91054899Y-97069529D01*
X91202858Y-97008242D01*
X91359925Y-96977000D01*
X91520075Y-96977000D01*
X91677142Y-97008242D01*
G37*
G36*
X91677142Y-94468242D02*
G01*
X91825101Y-94529529D01*
X91958255Y-94618499D01*
X92071501Y-94731745D01*
X92160471Y-94864899D01*
X92221758Y-95012858D01*
X92253000Y-95169925D01*
X92253000Y-95330075D01*
X92221758Y-95487142D01*
X92160471Y-95635101D01*
X92071501Y-95768255D01*
X91958255Y-95881501D01*
X91825101Y-95970471D01*
X91677142Y-96031758D01*
X91520075Y-96063000D01*
X91359925Y-96063000D01*
X91202858Y-96031758D01*
X91054899Y-95970471D01*
X90921745Y-95881501D01*
X90808499Y-95768255D01*
X90719529Y-95635101D01*
X90658242Y-95487142D01*
X90627000Y-95330075D01*
X90627000Y-95169925D01*
X90658242Y-95012858D01*
X90719529Y-94864899D01*
X90808499Y-94731745D01*
X90921745Y-94618499D01*
X91054899Y-94529529D01*
X91202858Y-94468242D01*
X91359925Y-94437000D01*
X91520075Y-94437000D01*
X91677142Y-94468242D01*
G37*
G36*
X106917142Y-94468242D02*
G01*
X107065101Y-94529529D01*
X107198255Y-94618499D01*
X107311501Y-94731745D01*
X107400471Y-94864899D01*
X107461758Y-95012858D01*
X107493000Y-95169925D01*
X107493000Y-95330075D01*
X107461758Y-95487142D01*
X107400471Y-95635101D01*
X107311501Y-95768255D01*
X107198255Y-95881501D01*
X107065101Y-95970471D01*
X106917142Y-96031758D01*
X106760075Y-96063000D01*
X106599925Y-96063000D01*
X106442858Y-96031758D01*
X106294899Y-95970471D01*
X106161745Y-95881501D01*
X106048499Y-95768255D01*
X105959529Y-95635101D01*
X105898242Y-95487142D01*
X105867000Y-95330075D01*
X105867000Y-95169925D01*
X105898242Y-95012858D01*
X105959529Y-94864899D01*
X106048499Y-94731745D01*
X106161745Y-94618499D01*
X106294899Y-94529529D01*
X106442858Y-94468242D01*
X106599925Y-94437000D01*
X106760075Y-94437000D01*
X106917142Y-94468242D01*
G37*
G36*
X130614903Y-91447075D02*
G01*
X130842571Y-91541378D01*
X131047466Y-91678285D01*
X131221715Y-91852534D01*
X131272302Y-91928243D01*
X131358623Y-92057431D01*
X131452925Y-92285097D01*
X131501000Y-92526786D01*
X131501000Y-92773214D01*
X131466403Y-92947143D01*
X131452925Y-93014903D01*
X131358622Y-93242571D01*
X131221715Y-93447466D01*
X131047466Y-93621715D01*
X130842571Y-93758622D01*
X130842570Y-93758623D01*
X130842569Y-93758623D01*
X130614903Y-93852925D01*
X130373214Y-93901000D01*
X130126786Y-93901000D01*
X129885097Y-93852925D01*
X129657431Y-93758623D01*
X129657430Y-93758623D01*
X129657429Y-93758622D01*
X129452534Y-93621715D01*
X129278285Y-93447466D01*
X129141378Y-93242571D01*
X129047075Y-93014903D01*
X129033597Y-92947143D01*
X128999000Y-92773214D01*
X128999000Y-92526786D01*
X129047075Y-92285097D01*
X129141377Y-92057431D01*
X129227698Y-91928243D01*
X129278285Y-91852534D01*
X129452534Y-91678285D01*
X129657429Y-91541378D01*
X129885097Y-91447075D01*
X130126786Y-91399000D01*
X130373214Y-91399000D01*
X130614903Y-91447075D01*
G37*
G36*
X124748228Y-92081703D02*
G01*
X124903100Y-92145853D01*
X125042481Y-92238985D01*
X125161015Y-92357519D01*
X125254147Y-92496900D01*
X125318297Y-92651772D01*
X125351000Y-92816184D01*
X125351000Y-92983816D01*
X125318297Y-93148228D01*
X125254147Y-93303100D01*
X125161015Y-93442481D01*
X125042481Y-93561015D01*
X124903100Y-93654147D01*
X124748228Y-93718297D01*
X124583816Y-93751000D01*
X124416184Y-93751000D01*
X124251772Y-93718297D01*
X124096900Y-93654147D01*
X123957519Y-93561015D01*
X123838985Y-93442481D01*
X123745853Y-93303100D01*
X123681703Y-93148228D01*
X123649000Y-92983816D01*
X123649000Y-92816184D01*
X123681703Y-92651772D01*
X123745853Y-92496900D01*
X123838985Y-92357519D01*
X123957519Y-92238985D01*
X124096900Y-92145853D01*
X124251772Y-92081703D01*
X124416184Y-92049000D01*
X124583816Y-92049000D01*
X124748228Y-92081703D01*
G37*
G36*
X106917142Y-91928242D02*
G01*
X107065101Y-91989529D01*
X107198255Y-92078499D01*
X107311501Y-92191745D01*
X107400471Y-92324899D01*
X107461758Y-92472858D01*
X107493000Y-92629925D01*
X107493000Y-92790075D01*
X107461758Y-92947142D01*
X107400471Y-93095101D01*
X107311501Y-93228255D01*
X107198255Y-93341501D01*
X107065101Y-93430471D01*
X106917142Y-93491758D01*
X106760075Y-93523000D01*
X106599925Y-93523000D01*
X106442858Y-93491758D01*
X106294899Y-93430471D01*
X106161745Y-93341501D01*
X106048499Y-93228255D01*
X105959529Y-93095101D01*
X105898242Y-92947142D01*
X105867000Y-92790075D01*
X105867000Y-92629925D01*
X105898242Y-92472858D01*
X105959529Y-92324899D01*
X106048499Y-92191745D01*
X106161745Y-92078499D01*
X106294899Y-91989529D01*
X106442858Y-91928242D01*
X106599925Y-91897000D01*
X106760075Y-91897000D01*
X106917142Y-91928242D01*
G37*
G36*
X91677142Y-91928242D02*
G01*
X91825101Y-91989529D01*
X91958255Y-92078499D01*
X92071501Y-92191745D01*
X92160471Y-92324899D01*
X92221758Y-92472858D01*
X92253000Y-92629925D01*
X92253000Y-92790075D01*
X92221758Y-92947142D01*
X92160471Y-93095101D01*
X92071501Y-93228255D01*
X91958255Y-93341501D01*
X91825101Y-93430471D01*
X91677142Y-93491758D01*
X91520075Y-93523000D01*
X91359925Y-93523000D01*
X91202858Y-93491758D01*
X91054899Y-93430471D01*
X90921745Y-93341501D01*
X90808499Y-93228255D01*
X90719529Y-93095101D01*
X90658242Y-92947142D01*
X90627000Y-92790075D01*
X90627000Y-92629925D01*
X90658242Y-92472858D01*
X90719529Y-92324899D01*
X90808499Y-92191745D01*
X90921745Y-92078499D01*
X91054899Y-91989529D01*
X91202858Y-91928242D01*
X91359925Y-91897000D01*
X91520075Y-91897000D01*
X91677142Y-91928242D01*
G37*
G36*
X119628228Y-91831703D02*
G01*
X119783100Y-91895853D01*
X119922481Y-91988985D01*
X120041015Y-92107519D01*
X120134147Y-92246900D01*
X120198297Y-92401772D01*
X120231000Y-92566184D01*
X120231000Y-92733816D01*
X120198297Y-92898228D01*
X120134147Y-93053100D01*
X120041015Y-93192481D01*
X119922481Y-93311015D01*
X119783100Y-93404147D01*
X119628228Y-93468297D01*
X119463816Y-93501000D01*
X119296184Y-93501000D01*
X119131772Y-93468297D01*
X118976900Y-93404147D01*
X118837519Y-93311015D01*
X118718985Y-93192481D01*
X118625853Y-93053100D01*
X118561703Y-92898228D01*
X118529000Y-92733816D01*
X118529000Y-92566184D01*
X118561703Y-92401772D01*
X118625853Y-92246900D01*
X118718985Y-92107519D01*
X118837519Y-91988985D01*
X118976900Y-91895853D01*
X119131772Y-91831703D01*
X119296184Y-91799000D01*
X119463816Y-91799000D01*
X119628228Y-91831703D01*
G37*
G36*
X112008228Y-91831703D02*
G01*
X112163100Y-91895853D01*
X112302481Y-91988985D01*
X112421015Y-92107519D01*
X112514147Y-92246900D01*
X112578297Y-92401772D01*
X112611000Y-92566184D01*
X112611000Y-92733816D01*
X112578297Y-92898228D01*
X112514147Y-93053100D01*
X112421015Y-93192481D01*
X112302481Y-93311015D01*
X112163100Y-93404147D01*
X112008228Y-93468297D01*
X111843816Y-93501000D01*
X111676184Y-93501000D01*
X111511772Y-93468297D01*
X111356900Y-93404147D01*
X111217519Y-93311015D01*
X111098985Y-93192481D01*
X111005853Y-93053100D01*
X110941703Y-92898228D01*
X110909000Y-92733816D01*
X110909000Y-92566184D01*
X110941703Y-92401772D01*
X111005853Y-92246900D01*
X111098985Y-92107519D01*
X111217519Y-91988985D01*
X111356900Y-91895853D01*
X111511772Y-91831703D01*
X111676184Y-91799000D01*
X111843816Y-91799000D01*
X112008228Y-91831703D01*
G37*
G36*
X106917142Y-89388242D02*
G01*
X107065101Y-89449529D01*
X107198255Y-89538499D01*
X107311501Y-89651745D01*
X107400471Y-89784899D01*
X107461758Y-89932858D01*
X107493000Y-90089925D01*
X107493000Y-90250075D01*
X107461758Y-90407142D01*
X107400471Y-90555101D01*
X107311501Y-90688255D01*
X107198255Y-90801501D01*
X107065101Y-90890471D01*
X106917142Y-90951758D01*
X106760075Y-90983000D01*
X106599925Y-90983000D01*
X106442858Y-90951758D01*
X106294899Y-90890471D01*
X106161745Y-90801501D01*
X106048499Y-90688255D01*
X105959529Y-90555101D01*
X105898242Y-90407142D01*
X105867000Y-90250075D01*
X105867000Y-90089925D01*
X105898242Y-89932858D01*
X105959529Y-89784899D01*
X106048499Y-89651745D01*
X106161745Y-89538499D01*
X106294899Y-89449529D01*
X106442858Y-89388242D01*
X106599925Y-89357000D01*
X106760075Y-89357000D01*
X106917142Y-89388242D01*
G37*
G36*
X91677142Y-89388242D02*
G01*
X91825101Y-89449529D01*
X91958255Y-89538499D01*
X92071501Y-89651745D01*
X92160471Y-89784899D01*
X92221758Y-89932858D01*
X92253000Y-90089925D01*
X92253000Y-90250075D01*
X92221758Y-90407142D01*
X92160471Y-90555101D01*
X92071501Y-90688255D01*
X91958255Y-90801501D01*
X91825101Y-90890471D01*
X91677142Y-90951758D01*
X91520075Y-90983000D01*
X91359925Y-90983000D01*
X91202858Y-90951758D01*
X91054899Y-90890471D01*
X90921745Y-90801501D01*
X90808499Y-90688255D01*
X90719529Y-90555101D01*
X90658242Y-90407142D01*
X90627000Y-90250075D01*
X90627000Y-90089925D01*
X90658242Y-89932858D01*
X90719529Y-89784899D01*
X90808499Y-89651745D01*
X90921745Y-89538499D01*
X91054899Y-89449529D01*
X91202858Y-89388242D01*
X91359925Y-89357000D01*
X91520075Y-89357000D01*
X91677142Y-89388242D01*
G37*
G36*
X119628228Y-86811703D02*
G01*
X119783100Y-86875853D01*
X119922481Y-86968985D01*
X120041015Y-87087519D01*
X120134147Y-87226900D01*
X120198297Y-87381772D01*
X120231000Y-87546184D01*
X120231000Y-87713816D01*
X120198297Y-87878228D01*
X120134147Y-88033100D01*
X120041015Y-88172481D01*
X119922481Y-88291015D01*
X119783100Y-88384147D01*
X119628228Y-88448297D01*
X119463816Y-88481000D01*
X119296184Y-88481000D01*
X119131772Y-88448297D01*
X118976900Y-88384147D01*
X118837519Y-88291015D01*
X118718985Y-88172481D01*
X118625853Y-88033100D01*
X118561703Y-87878228D01*
X118529000Y-87713816D01*
X118529000Y-87546184D01*
X118561703Y-87381772D01*
X118625853Y-87226900D01*
X118718985Y-87087519D01*
X118837519Y-86968985D01*
X118976900Y-86875853D01*
X119131772Y-86811703D01*
X119296184Y-86779000D01*
X119463816Y-86779000D01*
X119628228Y-86811703D01*
G37*
G36*
X112008228Y-86811703D02*
G01*
X112163100Y-86875853D01*
X112302481Y-86968985D01*
X112421015Y-87087519D01*
X112514147Y-87226900D01*
X112578297Y-87381772D01*
X112611000Y-87546184D01*
X112611000Y-87713816D01*
X112578297Y-87878228D01*
X112514147Y-88033100D01*
X112421015Y-88172481D01*
X112302481Y-88291015D01*
X112163100Y-88384147D01*
X112008228Y-88448297D01*
X111843816Y-88481000D01*
X111676184Y-88481000D01*
X111511772Y-88448297D01*
X111356900Y-88384147D01*
X111217519Y-88291015D01*
X111098985Y-88172481D01*
X111005853Y-88033100D01*
X110941703Y-87878228D01*
X110909000Y-87713816D01*
X110909000Y-87546184D01*
X110941703Y-87381772D01*
X111005853Y-87226900D01*
X111098985Y-87087519D01*
X111217519Y-86968985D01*
X111356900Y-86875853D01*
X111511772Y-86811703D01*
X111676184Y-86779000D01*
X111843816Y-86779000D01*
X112008228Y-86811703D01*
G37*
G36*
X106917142Y-86848242D02*
G01*
X107065101Y-86909529D01*
X107198255Y-86998499D01*
X107311501Y-87111745D01*
X107400471Y-87244899D01*
X107461758Y-87392858D01*
X107493000Y-87549925D01*
X107493000Y-87710075D01*
X107461758Y-87867142D01*
X107400471Y-88015101D01*
X107311501Y-88148255D01*
X107198255Y-88261501D01*
X107065101Y-88350471D01*
X106917142Y-88411758D01*
X106760075Y-88443000D01*
X106599925Y-88443000D01*
X106442858Y-88411758D01*
X106294899Y-88350471D01*
X106161745Y-88261501D01*
X106048499Y-88148255D01*
X105959529Y-88015101D01*
X105898242Y-87867142D01*
X105867000Y-87710075D01*
X105867000Y-87549925D01*
X105898242Y-87392858D01*
X105959529Y-87244899D01*
X106048499Y-87111745D01*
X106161745Y-86998499D01*
X106294899Y-86909529D01*
X106442858Y-86848242D01*
X106599925Y-86817000D01*
X106760075Y-86817000D01*
X106917142Y-86848242D01*
G37*
G36*
X91677142Y-86848242D02*
G01*
X91825101Y-86909529D01*
X91958255Y-86998499D01*
X92071501Y-87111745D01*
X92160471Y-87244899D01*
X92221758Y-87392858D01*
X92253000Y-87549925D01*
X92253000Y-87710075D01*
X92221758Y-87867142D01*
X92160471Y-88015101D01*
X92071501Y-88148255D01*
X91958255Y-88261501D01*
X91825101Y-88350471D01*
X91677142Y-88411758D01*
X91520075Y-88443000D01*
X91359925Y-88443000D01*
X91202858Y-88411758D01*
X91054899Y-88350471D01*
X90921745Y-88261501D01*
X90808499Y-88148255D01*
X90719529Y-88015101D01*
X90658242Y-87867142D01*
X90627000Y-87710075D01*
X90627000Y-87549925D01*
X90658242Y-87392858D01*
X90719529Y-87244899D01*
X90808499Y-87111745D01*
X90921745Y-86998499D01*
X91054899Y-86909529D01*
X91202858Y-86848242D01*
X91359925Y-86817000D01*
X91520075Y-86817000D01*
X91677142Y-86848242D01*
G37*
G36*
X124748228Y-84461703D02*
G01*
X124903100Y-84525853D01*
X125042481Y-84618985D01*
X125161015Y-84737519D01*
X125254147Y-84876900D01*
X125318297Y-85031772D01*
X125351000Y-85196184D01*
X125351000Y-85363816D01*
X125318297Y-85528228D01*
X125254147Y-85683100D01*
X125161015Y-85822481D01*
X125042481Y-85941015D01*
X124903100Y-86034147D01*
X124748228Y-86098297D01*
X124583816Y-86131000D01*
X124416184Y-86131000D01*
X124251772Y-86098297D01*
X124096900Y-86034147D01*
X123957519Y-85941015D01*
X123838985Y-85822481D01*
X123745853Y-85683100D01*
X123681703Y-85528228D01*
X123649000Y-85363816D01*
X123649000Y-85196184D01*
X123681703Y-85031772D01*
X123745853Y-84876900D01*
X123838985Y-84737519D01*
X123957519Y-84618985D01*
X124096900Y-84525853D01*
X124251772Y-84461703D01*
X124416184Y-84429000D01*
X124583816Y-84429000D01*
X124748228Y-84461703D01*
G37*
G36*
X106917142Y-84308242D02*
G01*
X107065101Y-84369529D01*
X107198255Y-84458499D01*
X107311501Y-84571745D01*
X107400471Y-84704899D01*
X107461758Y-84852858D01*
X107493000Y-85009925D01*
X107493000Y-85170075D01*
X107461758Y-85327142D01*
X107400471Y-85475101D01*
X107311501Y-85608255D01*
X107198255Y-85721501D01*
X107065101Y-85810471D01*
X106917142Y-85871758D01*
X106760075Y-85903000D01*
X106599925Y-85903000D01*
X106442858Y-85871758D01*
X106294899Y-85810471D01*
X106161745Y-85721501D01*
X106048499Y-85608255D01*
X105959529Y-85475101D01*
X105898242Y-85327142D01*
X105867000Y-85170075D01*
X105867000Y-85009925D01*
X105898242Y-84852858D01*
X105959529Y-84704899D01*
X106048499Y-84571745D01*
X106161745Y-84458499D01*
X106294899Y-84369529D01*
X106442858Y-84308242D01*
X106599925Y-84277000D01*
X106760075Y-84277000D01*
X106917142Y-84308242D01*
G37*
G36*
X91677142Y-84308242D02*
G01*
X91825101Y-84369529D01*
X91958255Y-84458499D01*
X92071501Y-84571745D01*
X92160471Y-84704899D01*
X92221758Y-84852858D01*
X92253000Y-85009925D01*
X92253000Y-85170075D01*
X92221758Y-85327142D01*
X92160471Y-85475101D01*
X92071501Y-85608255D01*
X91958255Y-85721501D01*
X91825101Y-85810471D01*
X91677142Y-85871758D01*
X91520075Y-85903000D01*
X91359925Y-85903000D01*
X91202858Y-85871758D01*
X91054899Y-85810471D01*
X90921745Y-85721501D01*
X90808499Y-85608255D01*
X90719529Y-85475101D01*
X90658242Y-85327142D01*
X90627000Y-85170075D01*
X90627000Y-85009925D01*
X90658242Y-84852858D01*
X90719529Y-84704899D01*
X90808499Y-84571745D01*
X90921745Y-84458499D01*
X91054899Y-84369529D01*
X91202858Y-84308242D01*
X91359925Y-84277000D01*
X91520075Y-84277000D01*
X91677142Y-84308242D01*
G37*
G36*
X112008228Y-81731703D02*
G01*
X112163100Y-81795853D01*
X112302481Y-81888985D01*
X112421015Y-82007519D01*
X112514147Y-82146900D01*
X112578297Y-82301772D01*
X112611000Y-82466184D01*
X112611000Y-82633816D01*
X112578297Y-82798228D01*
X112514147Y-82953100D01*
X112421015Y-83092481D01*
X112302481Y-83211015D01*
X112163100Y-83304147D01*
X112008228Y-83368297D01*
X111843816Y-83401000D01*
X111676184Y-83401000D01*
X111511772Y-83368297D01*
X111356900Y-83304147D01*
X111217519Y-83211015D01*
X111098985Y-83092481D01*
X111005853Y-82953100D01*
X110941703Y-82798228D01*
X110909000Y-82633816D01*
X110909000Y-82466184D01*
X110941703Y-82301772D01*
X111005853Y-82146900D01*
X111098985Y-82007519D01*
X111217519Y-81888985D01*
X111356900Y-81795853D01*
X111511772Y-81731703D01*
X111676184Y-81699000D01*
X111843816Y-81699000D01*
X112008228Y-81731703D01*
G37*
G36*
X119628228Y-81731703D02*
G01*
X119783100Y-81795853D01*
X119922481Y-81888985D01*
X120041015Y-82007519D01*
X120134147Y-82146900D01*
X120198297Y-82301772D01*
X120231000Y-82466184D01*
X120231000Y-82633816D01*
X120198297Y-82798228D01*
X120134147Y-82953100D01*
X120041015Y-83092481D01*
X119922481Y-83211015D01*
X119783100Y-83304147D01*
X119628228Y-83368297D01*
X119463816Y-83401000D01*
X119296184Y-83401000D01*
X119131772Y-83368297D01*
X118976900Y-83304147D01*
X118837519Y-83211015D01*
X118718985Y-83092481D01*
X118625853Y-82953100D01*
X118561703Y-82798228D01*
X118529000Y-82633816D01*
X118529000Y-82466184D01*
X118561703Y-82301772D01*
X118625853Y-82146900D01*
X118718985Y-82007519D01*
X118837519Y-81888985D01*
X118976900Y-81795853D01*
X119131772Y-81731703D01*
X119296184Y-81699000D01*
X119463816Y-81699000D01*
X119628228Y-81731703D01*
G37*
G36*
X91677142Y-81768242D02*
G01*
X91825101Y-81829529D01*
X91958255Y-81918499D01*
X92071501Y-82031745D01*
X92160471Y-82164899D01*
X92221758Y-82312858D01*
X92253000Y-82469925D01*
X92253000Y-82630075D01*
X92221758Y-82787142D01*
X92160471Y-82935101D01*
X92071501Y-83068255D01*
X91958255Y-83181501D01*
X91825101Y-83270471D01*
X91677142Y-83331758D01*
X91520075Y-83363000D01*
X91359925Y-83363000D01*
X91202858Y-83331758D01*
X91054899Y-83270471D01*
X90921745Y-83181501D01*
X90808499Y-83068255D01*
X90719529Y-82935101D01*
X90658242Y-82787142D01*
X90627000Y-82630075D01*
X90627000Y-82469925D01*
X90658242Y-82312858D01*
X90719529Y-82164899D01*
X90808499Y-82031745D01*
X90921745Y-81918499D01*
X91054899Y-81829529D01*
X91202858Y-81768242D01*
X91359925Y-81737000D01*
X91520075Y-81737000D01*
X91677142Y-81768242D01*
G37*
G36*
X106917142Y-81768242D02*
G01*
X107065101Y-81829529D01*
X107198255Y-81918499D01*
X107311501Y-82031745D01*
X107400471Y-82164899D01*
X107461758Y-82312858D01*
X107493000Y-82469925D01*
X107493000Y-82630075D01*
X107461758Y-82787142D01*
X107400471Y-82935101D01*
X107311501Y-83068255D01*
X107198255Y-83181501D01*
X107065101Y-83270471D01*
X106917142Y-83331758D01*
X106760075Y-83363000D01*
X106599925Y-83363000D01*
X106442858Y-83331758D01*
X106294899Y-83270471D01*
X106161745Y-83181501D01*
X106048499Y-83068255D01*
X105959529Y-82935101D01*
X105898242Y-82787142D01*
X105867000Y-82630075D01*
X105867000Y-82469925D01*
X105898242Y-82312858D01*
X105959529Y-82164899D01*
X106048499Y-82031745D01*
X106161745Y-81918499D01*
X106294899Y-81829529D01*
X106442858Y-81768242D01*
X106599925Y-81737000D01*
X106760075Y-81737000D01*
X106917142Y-81768242D01*
G37*
G36*
X91677142Y-79228242D02*
G01*
X91825101Y-79289529D01*
X91958255Y-79378499D01*
X92071501Y-79491745D01*
X92160471Y-79624899D01*
X92221758Y-79772858D01*
X92253000Y-79929925D01*
X92253000Y-80090075D01*
X92221758Y-80247142D01*
X92160471Y-80395101D01*
X92071501Y-80528255D01*
X91958255Y-80641501D01*
X91825101Y-80730471D01*
X91677142Y-80791758D01*
X91520075Y-80823000D01*
X91359925Y-80823000D01*
X91202858Y-80791758D01*
X91054899Y-80730471D01*
X90921745Y-80641501D01*
X90808499Y-80528255D01*
X90719529Y-80395101D01*
X90658242Y-80247142D01*
X90627000Y-80090075D01*
X90627000Y-79929925D01*
X90658242Y-79772858D01*
X90719529Y-79624899D01*
X90808499Y-79491745D01*
X90921745Y-79378499D01*
X91054899Y-79289529D01*
X91202858Y-79228242D01*
X91359925Y-79197000D01*
X91520075Y-79197000D01*
X91677142Y-79228242D01*
G37*
G36*
X106917142Y-79228242D02*
G01*
X107065101Y-79289529D01*
X107198255Y-79378499D01*
X107311501Y-79491745D01*
X107400471Y-79624899D01*
X107461758Y-79772858D01*
X107493000Y-79929925D01*
X107493000Y-80090075D01*
X107461758Y-80247142D01*
X107400471Y-80395101D01*
X107311501Y-80528255D01*
X107198255Y-80641501D01*
X107065101Y-80730471D01*
X106917142Y-80791758D01*
X106760075Y-80823000D01*
X106599925Y-80823000D01*
X106442858Y-80791758D01*
X106294899Y-80730471D01*
X106161745Y-80641501D01*
X106048499Y-80528255D01*
X105959529Y-80395101D01*
X105898242Y-80247142D01*
X105867000Y-80090075D01*
X105867000Y-79929925D01*
X105898242Y-79772858D01*
X105959529Y-79624899D01*
X106048499Y-79491745D01*
X106161745Y-79378499D01*
X106294899Y-79289529D01*
X106442858Y-79228242D01*
X106599925Y-79197000D01*
X106760075Y-79197000D01*
X106917142Y-79228242D01*
G37*
G36*
X119628228Y-76831703D02*
G01*
X119783100Y-76895853D01*
X119922481Y-76988985D01*
X120041015Y-77107519D01*
X120134147Y-77246900D01*
X120198297Y-77401772D01*
X120231000Y-77566184D01*
X120231000Y-77733816D01*
X120198297Y-77898228D01*
X120134147Y-78053100D01*
X120041015Y-78192481D01*
X119922481Y-78311015D01*
X119783100Y-78404147D01*
X119628228Y-78468297D01*
X119463816Y-78501000D01*
X119296184Y-78501000D01*
X119131772Y-78468297D01*
X118976900Y-78404147D01*
X118837519Y-78311015D01*
X118718985Y-78192481D01*
X118625853Y-78053100D01*
X118561703Y-77898228D01*
X118529000Y-77733816D01*
X118529000Y-77566184D01*
X118561703Y-77401772D01*
X118625853Y-77246900D01*
X118718985Y-77107519D01*
X118837519Y-76988985D01*
X118976900Y-76895853D01*
X119131772Y-76831703D01*
X119296184Y-76799000D01*
X119463816Y-76799000D01*
X119628228Y-76831703D01*
G37*
G36*
X112008228Y-76831703D02*
G01*
X112163100Y-76895853D01*
X112302481Y-76988985D01*
X112421015Y-77107519D01*
X112514147Y-77246900D01*
X112578297Y-77401772D01*
X112611000Y-77566184D01*
X112611000Y-77733816D01*
X112578297Y-77898228D01*
X112514147Y-78053100D01*
X112421015Y-78192481D01*
X112302481Y-78311015D01*
X112163100Y-78404147D01*
X112008228Y-78468297D01*
X111843816Y-78501000D01*
X111676184Y-78501000D01*
X111511772Y-78468297D01*
X111356900Y-78404147D01*
X111217519Y-78311015D01*
X111098985Y-78192481D01*
X111005853Y-78053100D01*
X110941703Y-77898228D01*
X110909000Y-77733816D01*
X110909000Y-77566184D01*
X110941703Y-77401772D01*
X111005853Y-77246900D01*
X111098985Y-77107519D01*
X111217519Y-76988985D01*
X111356900Y-76895853D01*
X111511772Y-76831703D01*
X111676184Y-76799000D01*
X111843816Y-76799000D01*
X112008228Y-76831703D01*
G37*
G36*
X91677142Y-76688242D02*
G01*
X91825101Y-76749529D01*
X91958255Y-76838499D01*
X92071501Y-76951745D01*
X92160471Y-77084899D01*
X92221758Y-77232858D01*
X92253000Y-77389925D01*
X92253000Y-77550075D01*
X92221758Y-77707142D01*
X92160471Y-77855101D01*
X92071501Y-77988255D01*
X91958255Y-78101501D01*
X91825101Y-78190471D01*
X91677142Y-78251758D01*
X91520075Y-78283000D01*
X91359925Y-78283000D01*
X91202858Y-78251758D01*
X91054899Y-78190471D01*
X90921745Y-78101501D01*
X90808499Y-77988255D01*
X90719529Y-77855101D01*
X90658242Y-77707142D01*
X90627000Y-77550075D01*
X90627000Y-77389925D01*
X90658242Y-77232858D01*
X90719529Y-77084899D01*
X90808499Y-76951745D01*
X90921745Y-76838499D01*
X91054899Y-76749529D01*
X91202858Y-76688242D01*
X91359925Y-76657000D01*
X91520075Y-76657000D01*
X91677142Y-76688242D01*
G37*
G36*
X106917142Y-76688242D02*
G01*
X107065101Y-76749529D01*
X107198255Y-76838499D01*
X107311501Y-76951745D01*
X107400471Y-77084899D01*
X107461758Y-77232858D01*
X107493000Y-77389925D01*
X107493000Y-77550075D01*
X107461758Y-77707142D01*
X107400471Y-77855101D01*
X107311501Y-77988255D01*
X107198255Y-78101501D01*
X107065101Y-78190471D01*
X106917142Y-78251758D01*
X106760075Y-78283000D01*
X106599925Y-78283000D01*
X106442858Y-78251758D01*
X106294899Y-78190471D01*
X106161745Y-78101501D01*
X106048499Y-77988255D01*
X105959529Y-77855101D01*
X105898242Y-77707142D01*
X105867000Y-77550075D01*
X105867000Y-77389925D01*
X105898242Y-77232858D01*
X105959529Y-77084899D01*
X106048499Y-76951745D01*
X106161745Y-76838499D01*
X106294899Y-76749529D01*
X106442858Y-76688242D01*
X106599925Y-76657000D01*
X106760075Y-76657000D01*
X106917142Y-76688242D01*
G37*
G36*
X91677142Y-74148242D02*
G01*
X91825101Y-74209529D01*
X91958255Y-74298499D01*
X92071501Y-74411745D01*
X92160471Y-74544899D01*
X92221758Y-74692858D01*
X92253000Y-74849925D01*
X92253000Y-75010075D01*
X92221758Y-75167142D01*
X92160471Y-75315101D01*
X92071501Y-75448255D01*
X91958255Y-75561501D01*
X91825101Y-75650471D01*
X91677142Y-75711758D01*
X91520075Y-75743000D01*
X91359925Y-75743000D01*
X91202858Y-75711758D01*
X91054899Y-75650471D01*
X90921745Y-75561501D01*
X90808499Y-75448255D01*
X90719529Y-75315101D01*
X90658242Y-75167142D01*
X90627000Y-75010075D01*
X90627000Y-74849925D01*
X90658242Y-74692858D01*
X90719529Y-74544899D01*
X90808499Y-74411745D01*
X90921745Y-74298499D01*
X91054899Y-74209529D01*
X91202858Y-74148242D01*
X91359925Y-74117000D01*
X91520075Y-74117000D01*
X91677142Y-74148242D01*
G37*
G36*
X106917142Y-74148242D02*
G01*
X107065101Y-74209529D01*
X107198255Y-74298499D01*
X107311501Y-74411745D01*
X107400471Y-74544899D01*
X107461758Y-74692858D01*
X107493000Y-74849925D01*
X107493000Y-75010075D01*
X107461758Y-75167142D01*
X107400471Y-75315101D01*
X107311501Y-75448255D01*
X107198255Y-75561501D01*
X107065101Y-75650471D01*
X106917142Y-75711758D01*
X106760075Y-75743000D01*
X106599925Y-75743000D01*
X106442858Y-75711758D01*
X106294899Y-75650471D01*
X106161745Y-75561501D01*
X106048499Y-75448255D01*
X105959529Y-75315101D01*
X105898242Y-75167142D01*
X105867000Y-75010075D01*
X105867000Y-74849925D01*
X105898242Y-74692858D01*
X105959529Y-74544899D01*
X106048499Y-74411745D01*
X106161745Y-74298499D01*
X106294899Y-74209529D01*
X106442858Y-74148242D01*
X106599925Y-74117000D01*
X106760075Y-74117000D01*
X106917142Y-74148242D01*
G37*
G36*
X130614903Y-71127075D02*
G01*
X130842571Y-71221378D01*
X131047466Y-71358285D01*
X131221715Y-71532534D01*
X131271819Y-71607520D01*
X131358623Y-71737431D01*
X131452925Y-71965097D01*
X131501000Y-72206786D01*
X131501000Y-72453214D01*
X131452925Y-72694903D01*
X131366254Y-72904147D01*
X131358622Y-72922571D01*
X131221715Y-73127466D01*
X131047466Y-73301715D01*
X130842571Y-73438622D01*
X130842570Y-73438623D01*
X130842569Y-73438623D01*
X130614903Y-73532925D01*
X130373214Y-73581000D01*
X130126786Y-73581000D01*
X129885097Y-73532925D01*
X129657431Y-73438623D01*
X129657430Y-73438623D01*
X129657429Y-73438622D01*
X129452534Y-73301715D01*
X129278285Y-73127466D01*
X129141378Y-72922571D01*
X129133747Y-72904147D01*
X129047075Y-72694903D01*
X128999000Y-72453214D01*
X128999000Y-72206786D01*
X129047075Y-71965097D01*
X129141377Y-71737431D01*
X129228181Y-71607520D01*
X129278285Y-71532534D01*
X129452534Y-71358285D01*
X129657429Y-71221378D01*
X129885097Y-71127075D01*
X130126786Y-71079000D01*
X130373214Y-71079000D01*
X130614903Y-71127075D01*
G37*
G36*
X119498228Y-71331703D02*
G01*
X119653100Y-71395853D01*
X119792481Y-71488985D01*
X119911015Y-71607519D01*
X120004147Y-71746900D01*
X120068297Y-71901772D01*
X120101000Y-72066184D01*
X120101000Y-72233816D01*
X120068297Y-72398228D01*
X120004147Y-72553100D01*
X119911015Y-72692481D01*
X119792481Y-72811015D01*
X119653100Y-72904147D01*
X119498228Y-72968297D01*
X119333816Y-73001000D01*
X119166184Y-73001000D01*
X119001772Y-72968297D01*
X118846900Y-72904147D01*
X118707519Y-72811015D01*
X118588985Y-72692481D01*
X118495853Y-72553100D01*
X118431703Y-72398228D01*
X118399000Y-72233816D01*
X118399000Y-72066184D01*
X118431703Y-71901772D01*
X118495853Y-71746900D01*
X118588985Y-71607519D01*
X118707519Y-71488985D01*
X118846900Y-71395853D01*
X119001772Y-71331703D01*
X119166184Y-71299000D01*
X119333816Y-71299000D01*
X119498228Y-71331703D01*
G37*
G36*
X111878228Y-71331703D02*
G01*
X112033100Y-71395853D01*
X112172481Y-71488985D01*
X112291015Y-71607519D01*
X112384147Y-71746900D01*
X112448297Y-71901772D01*
X112481000Y-72066184D01*
X112481000Y-72233816D01*
X112448297Y-72398228D01*
X112384147Y-72553100D01*
X112291015Y-72692481D01*
X112172481Y-72811015D01*
X112033100Y-72904147D01*
X111878228Y-72968297D01*
X111713816Y-73001000D01*
X111546184Y-73001000D01*
X111381772Y-72968297D01*
X111226900Y-72904147D01*
X111087519Y-72811015D01*
X110968985Y-72692481D01*
X110875853Y-72553100D01*
X110811703Y-72398228D01*
X110779000Y-72233816D01*
X110779000Y-72066184D01*
X110811703Y-71901772D01*
X110875853Y-71746900D01*
X110968985Y-71607519D01*
X111087519Y-71488985D01*
X111226900Y-71395853D01*
X111381772Y-71331703D01*
X111546184Y-71299000D01*
X111713816Y-71299000D01*
X111878228Y-71331703D01*
G37*
G36*
X90625256Y-63891298D02*
G01*
X90731579Y-63912447D01*
X91032042Y-64036903D01*
X91302451Y-64217585D01*
X91532415Y-64447549D01*
X91713097Y-64717958D01*
X91837553Y-65018421D01*
X91901000Y-65337391D01*
X91901000Y-65662609D01*
X91837553Y-65981579D01*
X91713097Y-66282042D01*
X91532415Y-66552451D01*
X91302451Y-66782415D01*
X91032042Y-66963097D01*
X90731579Y-67087553D01*
X90625256Y-67108702D01*
X90412611Y-67151000D01*
X90087389Y-67151000D01*
X89874744Y-67108702D01*
X89768421Y-67087553D01*
X89467958Y-66963097D01*
X89197549Y-66782415D01*
X88967585Y-66552451D01*
X88786903Y-66282042D01*
X88662447Y-65981579D01*
X88599000Y-65662609D01*
X88599000Y-65337391D01*
X88662447Y-65018421D01*
X88786903Y-64717958D01*
X88967585Y-64447549D01*
X89197549Y-64217585D01*
X89467958Y-64036903D01*
X89768421Y-63912447D01*
X89874744Y-63891298D01*
X90087389Y-63849000D01*
X90412611Y-63849000D01*
X90625256Y-63891298D01*
G37*
G36*
X134625256Y-63891298D02*
G01*
X134731579Y-63912447D01*
X135032042Y-64036903D01*
X135302451Y-64217585D01*
X135532415Y-64447549D01*
X135713097Y-64717958D01*
X135837553Y-65018421D01*
X135901000Y-65337391D01*
X135901000Y-65662609D01*
X135837553Y-65981579D01*
X135713097Y-66282042D01*
X135532415Y-66552451D01*
X135302451Y-66782415D01*
X135032042Y-66963097D01*
X134731579Y-67087553D01*
X134625256Y-67108702D01*
X134412611Y-67151000D01*
X134087389Y-67151000D01*
X133874744Y-67108702D01*
X133768421Y-67087553D01*
X133467958Y-66963097D01*
X133197549Y-66782415D01*
X132967585Y-66552451D01*
X132786903Y-66282042D01*
X132662447Y-65981579D01*
X132599000Y-65662609D01*
X132599000Y-65337391D01*
X132662447Y-65018421D01*
X132786903Y-64717958D01*
X132967585Y-64447549D01*
X133197549Y-64217585D01*
X133467958Y-64036903D01*
X133768421Y-63912447D01*
X133874744Y-63891298D01*
X134087389Y-63849000D01*
X134412611Y-63849000D01*
X134625256Y-63891298D01*
G37*
G36*
X109333512Y-65143927D02*
G01*
X109482812Y-65173624D01*
X109646784Y-65241544D01*
X109794354Y-65340147D01*
X109919853Y-65465646D01*
X110018456Y-65613216D01*
X110086376Y-65777188D01*
X110121000Y-65951259D01*
X110121000Y-66128741D01*
X110086376Y-66302812D01*
X110018456Y-66466784D01*
X109919853Y-66614354D01*
X109794354Y-66739853D01*
X109646784Y-66838456D01*
X109482812Y-66906376D01*
X109333512Y-66936073D01*
X109308742Y-66941000D01*
X109131258Y-66941000D01*
X109106488Y-66936073D01*
X108957188Y-66906376D01*
X108793216Y-66838456D01*
X108645646Y-66739853D01*
X108520147Y-66614354D01*
X108421544Y-66466784D01*
X108353624Y-66302812D01*
X108319000Y-66128741D01*
X108319000Y-65951259D01*
X108353624Y-65777188D01*
X108421544Y-65613216D01*
X108520147Y-65465646D01*
X108645646Y-65340147D01*
X108793216Y-65241544D01*
X108957188Y-65173624D01*
X109106488Y-65143927D01*
X109131258Y-65139000D01*
X109308742Y-65139000D01*
X109333512Y-65143927D01*
G37*
G36*
X115201000Y-66941000D02*
G01*
X113399000Y-66941000D01*
X113399000Y-65139000D01*
X115201000Y-65139000D01*
X115201000Y-66941000D01*
G37*
G36*
X111873512Y-65143927D02*
G01*
X112022812Y-65173624D01*
X112186784Y-65241544D01*
X112334354Y-65340147D01*
X112459853Y-65465646D01*
X112558456Y-65613216D01*
X112626376Y-65777188D01*
X112661000Y-65951259D01*
X112661000Y-66128741D01*
X112626376Y-66302812D01*
X112558456Y-66466784D01*
X112459853Y-66614354D01*
X112334354Y-66739853D01*
X112186784Y-66838456D01*
X112022812Y-66906376D01*
X111873512Y-66936073D01*
X111848742Y-66941000D01*
X111671258Y-66941000D01*
X111646488Y-66936073D01*
X111497188Y-66906376D01*
X111333216Y-66838456D01*
X111185646Y-66739853D01*
X111060147Y-66614354D01*
X110961544Y-66466784D01*
X110893624Y-66302812D01*
X110859000Y-66128741D01*
X110859000Y-65951259D01*
X110893624Y-65777188D01*
X110961544Y-65613216D01*
X111060147Y-65465646D01*
X111185646Y-65340147D01*
X111333216Y-65241544D01*
X111497188Y-65173624D01*
X111646488Y-65143927D01*
X111671258Y-65139000D01*
X111848742Y-65139000D01*
X111873512Y-65143927D01*
G37*
M02*
