G04 #@! TF.GenerationSoftware,KiCad,Pcbnew,5.1.5+dfsg1-2build2*
G04 #@! TF.CreationDate,2021-03-07T12:40:01-06:00*
G04 #@! TF.ProjectId,speaker-switcher-remote,73706561-6b65-4722-9d73-776974636865,rev?*
G04 #@! TF.SameCoordinates,Original*
G04 #@! TF.FileFunction,Copper,L1,Top*
G04 #@! TF.FilePolarity,Positive*
%FSLAX46Y46*%
G04 Gerber Fmt 4.6, Leading zero omitted, Abs format (unit mm)*
G04 Created by KiCad (PCBNEW 5.1.5+dfsg1-2build2) date 2021-03-07 12:40:01*
%MOMM*%
%LPD*%
G04 APERTURE LIST*
%ADD10C,1.600000*%
%ADD11R,1.300000X1.300000*%
%ADD12C,1.300000*%
%ADD13O,1.600000X1.600000*%
%ADD14O,1.905000X2.000000*%
%ADD15R,1.905000X2.000000*%
%ADD16O,2.000000X1.700000*%
%ADD17C,0.100000*%
%ADD18O,2.200000X2.200000*%
%ADD19R,2.200000X2.200000*%
%ADD20O,2.500000X1.500000*%
%ADD21O,2.400000X2.400000*%
%ADD22C,2.400000*%
%ADD23C,1.524000*%
%ADD24O,1.700000X1.700000*%
%ADD25R,1.700000X1.700000*%
%ADD26R,1.600000X1.600000*%
%ADD27C,1.000000*%
%ADD28C,0.500000*%
G04 APERTURE END LIST*
D10*
X114125000Y-107235000D03*
X119125000Y-107235000D03*
X119000000Y-112315000D03*
X114000000Y-112315000D03*
D11*
X179200000Y-110410000D03*
D12*
X179450000Y-112950000D03*
X180720000Y-111680000D03*
D13*
X157860000Y-112950000D03*
D10*
X150240000Y-112950000D03*
D14*
X150240000Y-107235000D03*
X152780000Y-107235000D03*
D15*
X155320000Y-107235000D03*
D13*
X174870000Y-105500000D03*
D10*
X167250000Y-105500000D03*
D13*
X173658800Y-111222800D03*
D10*
X166038800Y-111222800D03*
D13*
X173100000Y-92880000D03*
D10*
X173100000Y-100500000D03*
D16*
X173100000Y-81160000D03*
G04 #@! TA.AperFunction,ComponentPad*
D17*
G36*
X173874504Y-77811204D02*
G01*
X173898773Y-77814804D01*
X173922571Y-77820765D01*
X173945671Y-77829030D01*
X173967849Y-77839520D01*
X173988893Y-77852133D01*
X174008598Y-77866747D01*
X174026777Y-77883223D01*
X174043253Y-77901402D01*
X174057867Y-77921107D01*
X174070480Y-77942151D01*
X174080970Y-77964329D01*
X174089235Y-77987429D01*
X174095196Y-78011227D01*
X174098796Y-78035496D01*
X174100000Y-78060000D01*
X174100000Y-79260000D01*
X174098796Y-79284504D01*
X174095196Y-79308773D01*
X174089235Y-79332571D01*
X174080970Y-79355671D01*
X174070480Y-79377849D01*
X174057867Y-79398893D01*
X174043253Y-79418598D01*
X174026777Y-79436777D01*
X174008598Y-79453253D01*
X173988893Y-79467867D01*
X173967849Y-79480480D01*
X173945671Y-79490970D01*
X173922571Y-79499235D01*
X173898773Y-79505196D01*
X173874504Y-79508796D01*
X173850000Y-79510000D01*
X172350000Y-79510000D01*
X172325496Y-79508796D01*
X172301227Y-79505196D01*
X172277429Y-79499235D01*
X172254329Y-79490970D01*
X172232151Y-79480480D01*
X172211107Y-79467867D01*
X172191402Y-79453253D01*
X172173223Y-79436777D01*
X172156747Y-79418598D01*
X172142133Y-79398893D01*
X172129520Y-79377849D01*
X172119030Y-79355671D01*
X172110765Y-79332571D01*
X172104804Y-79308773D01*
X172101204Y-79284504D01*
X172100000Y-79260000D01*
X172100000Y-78060000D01*
X172101204Y-78035496D01*
X172104804Y-78011227D01*
X172110765Y-77987429D01*
X172119030Y-77964329D01*
X172129520Y-77942151D01*
X172142133Y-77921107D01*
X172156747Y-77901402D01*
X172173223Y-77883223D01*
X172191402Y-77866747D01*
X172211107Y-77852133D01*
X172232151Y-77839520D01*
X172254329Y-77829030D01*
X172277429Y-77820765D01*
X172301227Y-77814804D01*
X172325496Y-77811204D01*
X172350000Y-77810000D01*
X173850000Y-77810000D01*
X173874504Y-77811204D01*
G37*
G04 #@! TD.AperFunction*
D18*
X173630000Y-118500000D03*
D19*
X181250000Y-118500000D03*
D13*
X162630000Y-87500000D03*
D10*
X170250000Y-87500000D03*
D13*
X155955000Y-102790000D03*
D10*
X148335000Y-102790000D03*
D13*
X117250000Y-76880000D03*
D10*
X117250000Y-84500000D03*
D13*
X145250000Y-86120000D03*
D10*
X145250000Y-78500000D03*
D13*
X163575000Y-92880000D03*
D10*
X163575000Y-100500000D03*
D13*
X168250000Y-92880000D03*
D10*
X168250000Y-100500000D03*
D14*
X119080000Y-120000000D03*
X116540000Y-120000000D03*
D15*
X114000000Y-120000000D03*
D20*
X140710000Y-125500000D03*
X145790000Y-125500000D03*
X152710000Y-125500000D03*
X157790000Y-125500000D03*
D21*
X146887200Y-118385600D03*
D22*
X167207200Y-118385600D03*
D11*
X155555000Y-95170000D03*
D12*
X155755000Y-97710000D03*
X157225000Y-96440000D03*
D20*
X115710000Y-125500000D03*
X120790000Y-125500000D03*
X127170000Y-125500000D03*
X132250000Y-125500000D03*
X165250000Y-125500000D03*
X170330000Y-125500000D03*
X177250000Y-125500000D03*
X182330000Y-125500000D03*
D23*
X139620000Y-117780000D03*
X139620000Y-115240000D03*
X139620000Y-112700000D03*
X139620000Y-110160000D03*
X139620000Y-107620000D03*
X139620000Y-105080000D03*
X139620000Y-102540000D03*
X139620000Y-100000000D03*
X139620000Y-97460000D03*
X139620000Y-94920000D03*
X139620000Y-92380000D03*
X139620000Y-89840000D03*
X139620000Y-87300000D03*
X139620000Y-84760000D03*
X139620000Y-82220000D03*
X124380000Y-117780000D03*
X124380000Y-115240000D03*
X124380000Y-112700000D03*
X124380000Y-110160000D03*
X124380000Y-107620000D03*
X124380000Y-105080000D03*
X124380000Y-102540000D03*
X124380000Y-100000000D03*
X124380000Y-97460000D03*
X124380000Y-94920000D03*
X124380000Y-92380000D03*
X124380000Y-89840000D03*
X124380000Y-87300000D03*
X124380000Y-84760000D03*
X124380000Y-82220000D03*
D24*
X145170000Y-71500000D03*
X147710000Y-71500000D03*
D25*
X150250000Y-71500000D03*
D10*
X167250000Y-81500000D03*
X162250000Y-81500000D03*
X167250000Y-76500000D03*
X162250000Y-76500000D03*
X151750000Y-86500000D03*
D26*
X154250000Y-86500000D03*
D27*
X116330000Y-120210000D02*
X116540000Y-120000000D01*
X169410000Y-78660000D02*
X167250000Y-76500000D01*
X173100000Y-78660000D02*
X169410000Y-78660000D01*
X173790000Y-118340000D02*
X173630000Y-118500000D01*
X172080000Y-125500000D02*
X170330000Y-125500000D01*
X173630000Y-123950000D02*
X172080000Y-125500000D01*
X173630000Y-118500000D02*
X173630000Y-123950000D01*
X165250000Y-125500000D02*
X170330000Y-125500000D01*
X116540000Y-109650000D02*
X114125000Y-107235000D01*
X117868630Y-112315000D02*
X116585000Y-113598630D01*
X116585000Y-113598630D02*
X116585000Y-116125000D01*
X119000000Y-112315000D02*
X117868630Y-112315000D01*
X116585000Y-116125000D02*
X116540000Y-109650000D01*
X116540000Y-120000000D02*
X116585000Y-116125000D01*
D28*
X134280000Y-76880000D02*
X139620000Y-82220000D01*
X117250000Y-76880000D02*
X134280000Y-76880000D01*
X150250000Y-71500000D02*
X150330000Y-71500000D01*
X150250000Y-71500000D02*
X150250000Y-71032002D01*
X150250000Y-72850000D02*
X150250000Y-71500000D01*
X146220000Y-76880000D02*
X150250000Y-72850000D01*
X134280000Y-76880000D02*
X146220000Y-76880000D01*
X144275000Y-97460000D02*
X148335000Y-101520000D01*
X139620000Y-97460000D02*
X144275000Y-97460000D01*
X148335000Y-101520000D02*
X148335000Y-102790000D01*
X139620000Y-92380000D02*
X141275000Y-90725000D01*
X166095000Y-90725000D02*
X168250000Y-92880000D01*
X141275000Y-90725000D02*
X166095000Y-90725000D01*
X139620000Y-89840000D02*
X169040000Y-89840000D01*
X169040000Y-89840000D02*
X170560000Y-91360000D01*
X170560000Y-97960000D02*
X173100000Y-100500000D01*
X170560000Y-91360000D02*
X170560000Y-97960000D01*
D27*
X152710000Y-125500000D02*
X157790000Y-125500000D01*
X114000000Y-120000000D02*
X114000000Y-120047500D01*
X114000000Y-122000000D02*
X115500000Y-123500000D01*
X114000000Y-120000000D02*
X114000000Y-122000000D01*
X125250000Y-123500000D02*
X127250000Y-125500000D01*
X115500000Y-123500000D02*
X125250000Y-123500000D01*
X127170000Y-125500000D02*
X132250000Y-125500000D01*
X134610000Y-125500000D02*
X132250000Y-125500000D01*
X150240000Y-109870000D02*
X134610000Y-125500000D01*
X150240000Y-107870000D02*
X150240000Y-109870000D01*
X150240000Y-109870000D02*
X150240000Y-112950000D01*
X114000000Y-120000000D02*
X114000000Y-112315000D01*
D28*
X145170000Y-78420000D02*
X145250000Y-78500000D01*
X145250000Y-78500000D02*
X160250000Y-78500000D01*
X154250000Y-84500000D02*
X162250000Y-76500000D01*
X154250000Y-86500000D02*
X154250000Y-84500000D01*
X124120000Y-84500000D02*
X124380000Y-84760000D01*
X117250000Y-84500000D02*
X124120000Y-84500000D01*
X144118630Y-86120000D02*
X145250000Y-86120000D01*
X144086629Y-86087999D02*
X144118630Y-86120000D01*
X125707999Y-86087999D02*
X144086629Y-86087999D01*
X124380000Y-84760000D02*
X125707999Y-86087999D01*
D27*
X181250000Y-118500000D02*
X182330000Y-119580000D01*
X182330000Y-125500000D02*
X177250000Y-125500000D01*
X182330000Y-119580000D02*
X182330000Y-125500000D01*
X181250000Y-116900000D02*
X181250000Y-118500000D01*
X179738400Y-115388400D02*
X181250000Y-116900000D01*
X170204400Y-115388400D02*
X179738400Y-115388400D01*
X167207200Y-118385600D02*
X170204400Y-115388400D01*
D28*
X155955000Y-97910000D02*
X155755000Y-97710000D01*
X155955000Y-102790000D02*
X155955000Y-97910000D01*
X162250000Y-87120000D02*
X162630000Y-87500000D01*
X162250000Y-81500000D02*
X162250000Y-87120000D01*
X160785000Y-92880000D02*
X157225000Y-96440000D01*
X163575000Y-92880000D02*
X160785000Y-92880000D01*
X122160000Y-120000000D02*
X124380000Y-117780000D01*
X119080000Y-120000000D02*
X122160000Y-120000000D01*
X119125000Y-108366370D02*
X121030000Y-110271370D01*
X119125000Y-107235000D02*
X119125000Y-108366370D01*
X120532500Y-120000000D02*
X119080000Y-120000000D01*
X121030000Y-119502500D02*
X120532500Y-120000000D01*
X121030000Y-110271370D02*
X121030000Y-119502500D01*
X121141370Y-110160000D02*
X121030000Y-110271370D01*
X124380000Y-110160000D02*
X121141370Y-110160000D01*
X173100000Y-92880000D02*
X173100000Y-81160000D01*
X168250000Y-100500000D02*
X168250000Y-101631370D01*
X168250000Y-100500000D02*
X168250000Y-104500000D01*
X168565001Y-104149999D02*
X168020000Y-104695000D01*
X175518001Y-104149999D02*
X168565001Y-104149999D01*
X180720000Y-109351998D02*
X175518001Y-104149999D01*
X180720000Y-111680000D02*
X180720000Y-109351998D01*
X168020000Y-104695000D02*
X167250000Y-105500000D01*
X168250000Y-104500000D02*
X168020000Y-104695000D01*
X148614400Y-118385600D02*
X146887200Y-118385600D01*
X152780000Y-114220000D02*
X148614400Y-118385600D01*
X152780000Y-107870000D02*
X152780000Y-114220000D01*
X162686000Y-107870000D02*
X166038800Y-111222800D01*
X157860000Y-112950000D02*
X157860000Y-107870000D01*
X157860000Y-107870000D02*
X162686000Y-107870000D01*
X155320000Y-107870000D02*
X157860000Y-107870000D01*
X173658800Y-111222800D02*
X175386000Y-112950000D01*
X175386000Y-112950000D02*
X179450000Y-112950000D01*
M02*
