M48
; DRILL file {KiCad 5.1.5+dfsg1-2build2} date Sat 23 Jan 2021 10:19:22 AM CST
; FORMAT={-:-/ absolute / inch / decimal}
; #@! TF.CreationDate,2021-01-23T10:19:22-06:00
; #@! TF.GenerationSoftware,Kicad,Pcbnew,5.1.5+dfsg1-2build2
FMAT,2
INCH
T1C0.0300
T2C0.0315
T3C0.0394
T4C0.0433
T5C0.0472
T6C0.1260
%
G90
G05
T1
X3.6Y-2.95
X3.6Y-3.05
X3.6Y-3.15
X3.6Y-3.25
X3.6Y-3.35
X3.6Y-3.45
X3.6Y-3.55
X3.6Y-3.65
X3.6Y-3.75
X3.6Y-3.85
X3.6Y-3.95
X3.6Y-4.05
X3.6Y-4.15
X3.6Y-4.25
X3.6Y-4.35
X4.2Y-2.95
X4.2Y-3.05
X4.2Y-3.15
X4.2Y-3.25
X4.2Y-3.35
X4.2Y-3.45
X4.2Y-3.55
X4.2Y-3.65
X4.2Y-3.75
X4.2Y-3.85
X4.2Y-3.95
X4.2Y-4.05
X4.2Y-4.15
X4.2Y-4.25
X4.2Y-4.35
T2
X4.4Y-3.0571
X4.7Y-3.0571
X4.4Y-3.6476
X4.7Y-3.6476
X4.4Y-3.25
X4.7Y-3.25
X4.9016Y-3.3575
X4.9016Y-3.6575
X4.4Y-3.45
X4.7Y-3.45
X4.3949Y-2.8406
X4.6949Y-2.8406
T3
X4.3Y-2.6
X4.4Y-2.6
X4.5Y-2.6
T4
X4.9213Y-3.9126
X5.0213Y-3.9126
X5.1213Y-3.9126
X4.4488Y-3.9126
X4.5488Y-3.9126
X4.6488Y-3.9126
T5
X5.128Y-2.8476
X5.128Y-3.6476
T6
X3.5531Y-2.5787
X3.5531Y-4.7047
X5.2854Y-2.5787
X5.2854Y-4.7047
T4
G00X4.7375Y-4.3332
M15
G01X4.7625Y-4.3082
M16
G05
G00X4.8789Y-4.1918
M15
G01X4.9039Y-4.1668
M16
G05
G00X4.6961Y-4.6832
M15
G01X4.7211Y-4.6582
M16
G05
G00X4.8375Y-4.5418
M15
G01X4.8625Y-4.5168
M16
G05
G00X5.0168Y-4.6832
M15
G01X5.0418Y-4.6582
M16
G05
G00X5.1582Y-4.5418
M15
G01X5.1832Y-4.5168
M16
G05
G00X5.0375Y-4.3332
M15
G01X5.0625Y-4.3082
M16
G05
G00X5.1789Y-4.1918
M15
G01X5.2039Y-4.1668
M16
G05
G00X4.4168Y-4.3332
M15
G01X4.4418Y-4.3082
M16
G05
G00X4.5582Y-4.1918
M15
G01X4.5832Y-4.1668
M16
G05
G00X4.3961Y-4.6832
M15
G01X4.4211Y-4.6582
M16
G05
G00X4.5375Y-4.5418
M15
G01X4.5625Y-4.5168
M16
G05
T0
M30
