M48
; DRILL file {KiCad 5.1.5+dfsg1-2build2} date Sat 30 Jan 2021 01:39:21 PM CST
; FORMAT={-:-/ absolute / inch / decimal}
; #@! TF.CreationDate,2021-01-30T13:39:21-06:00
; #@! TF.GenerationSoftware,Kicad,Pcbnew,5.1.5+dfsg1-2build2
FMAT,2
INCH
T1C0.0295
T2C0.0300
T3C0.0315
T4C0.0394
T5C0.0433
T6C0.0472
T7C0.1260
%
G90
G05
T1
X5.1961Y-3.2374
X5.2461Y-3.1874
X5.2461Y-3.2874
T2
X5.4382Y-2.7646
X5.4382Y-2.8646
X5.4382Y-2.9646
X5.4382Y-3.0646
X5.4382Y-3.1646
X5.4382Y-3.2646
X5.4382Y-3.3646
X5.4382Y-3.4646
X5.4382Y-3.5646
X5.4382Y-3.6646
X5.4382Y-3.7646
X5.4382Y-3.8646
X5.4382Y-3.9646
X5.4382Y-4.0646
X5.4382Y-4.1646
X6.0382Y-2.7646
X6.0382Y-2.8646
X6.0382Y-2.9646
X6.0382Y-3.0646
X6.0382Y-3.1646
X6.0382Y-3.2646
X6.0382Y-3.3646
X6.0382Y-3.4646
X6.0382Y-3.5646
X6.0382Y-3.6646
X6.0382Y-3.7646
X6.0382Y-3.8646
X6.0382Y-3.9646
X6.0382Y-4.0646
X6.0382Y-4.1646
T3
X6.2936Y-3.4672
X6.392Y-3.4672
X5.2461Y-2.9172
X5.2461Y-3.0172
X5.0787Y-3.937
X5.1772Y-3.937
X4.9705Y-3.1677
X4.9705Y-3.2677
X5.2461Y-2.6772
X5.2461Y-2.7772
X6.4636Y-3.7372
X6.4636Y-3.8372
X6.2986Y-3.8522
X6.2986Y-3.9522
X4.9836Y-3.0272
X5.0836Y-3.0272
X5.0787Y-4.4488
X5.1772Y-4.4488
X6.2236Y-3.0172
X6.4205Y-3.0172
X6.4636Y-3.9872
X6.4636Y-4.0872
T4
X6.3091Y-2.5787
X6.3091Y-2.6787
X6.3091Y-2.7787
T5
X6.3953Y-4.626
X6.5453Y-4.626
X6.2986Y-4.2772
X6.3986Y-4.2772
X6.4986Y-4.2772
X5.0394Y-3.5433
X5.1394Y-3.5433
X5.2394Y-3.5433
T6
X5.3909Y-4.5669
X6.1909Y-4.5669
T7
X4.9705Y-2.6181
X6.5453Y-2.6181
X6.5453Y-4.9803
X4.9705Y-4.9803
T5
G00X6.1236Y-4.8449
M15
G01X6.1236Y-4.8094
M16
G05
G00X6.1236Y-5.0449
M15
G01X6.1236Y-5.0094
M16
G05
G00X5.6736Y-4.8449
M15
G01X5.6736Y-4.8094
M16
G05
G00X5.6736Y-5.0449
M15
G01X5.6736Y-5.0094
M16
G05
G00X5.8736Y-4.8449
M15
G01X5.8736Y-4.8094
M16
G05
G00X5.8736Y-5.0449
M15
G01X5.8736Y-5.0094
M16
G05
G00X5.1736Y-4.8094
M15
G01X5.1736Y-4.8449
M16
G05
G00X5.1736Y-5.0094
M15
G01X5.1736Y-5.0449
M16
G05
G00X5.3736Y-4.8449
M15
G01X5.3736Y-4.8094
M16
G05
G00X5.3736Y-5.0449
M15
G01X5.3736Y-5.0094
M16
G05
G00X6.3236Y-4.8449
M15
G01X6.3236Y-4.8094
M16
G05
G00X6.3236Y-5.0449
M15
G01X6.3236Y-5.0094
M16
G05
T0
M30
