G04 #@! TF.GenerationSoftware,KiCad,Pcbnew,5.1.5+dfsg1-2build2*
G04 #@! TF.CreationDate,2021-02-13T16:31:57-06:00*
G04 #@! TF.ProjectId,speaker-switcher-remote,73706561-6b65-4722-9d73-776974636865,rev?*
G04 #@! TF.SameCoordinates,Original*
G04 #@! TF.FileFunction,Copper,L2,Bot*
G04 #@! TF.FilePolarity,Positive*
%FSLAX46Y46*%
G04 Gerber Fmt 4.6, Leading zero omitted, Abs format (unit mm)*
G04 Created by KiCad (PCBNEW 5.1.5+dfsg1-2build2) date 2021-02-13 16:31:57*
%MOMM*%
%LPD*%
G04 APERTURE LIST*
%ADD10O,1.600000X1.600000*%
%ADD11C,1.600000*%
%ADD12O,2.000000X1.700000*%
%ADD13C,0.100000*%
%ADD14O,2.200000X2.200000*%
%ADD15R,2.200000X2.200000*%
%ADD16O,1.905000X2.000000*%
%ADD17R,1.905000X2.000000*%
%ADD18O,2.500000X1.500000*%
%ADD19O,2.400000X2.400000*%
%ADD20C,2.400000*%
%ADD21R,1.300000X1.300000*%
%ADD22C,1.300000*%
%ADD23C,1.524000*%
%ADD24O,1.700000X1.700000*%
%ADD25R,1.700000X1.700000*%
%ADD26R,1.600000X1.600000*%
%ADD27C,1.000000*%
%ADD28C,0.500000*%
G04 APERTURE END LIST*
D10*
X173100000Y-92880000D03*
D11*
X173100000Y-100500000D03*
D12*
X173100000Y-81160000D03*
G04 #@! TA.AperFunction,ComponentPad*
D13*
G36*
X173874504Y-77811204D02*
G01*
X173898773Y-77814804D01*
X173922571Y-77820765D01*
X173945671Y-77829030D01*
X173967849Y-77839520D01*
X173988893Y-77852133D01*
X174008598Y-77866747D01*
X174026777Y-77883223D01*
X174043253Y-77901402D01*
X174057867Y-77921107D01*
X174070480Y-77942151D01*
X174080970Y-77964329D01*
X174089235Y-77987429D01*
X174095196Y-78011227D01*
X174098796Y-78035496D01*
X174100000Y-78060000D01*
X174100000Y-79260000D01*
X174098796Y-79284504D01*
X174095196Y-79308773D01*
X174089235Y-79332571D01*
X174080970Y-79355671D01*
X174070480Y-79377849D01*
X174057867Y-79398893D01*
X174043253Y-79418598D01*
X174026777Y-79436777D01*
X174008598Y-79453253D01*
X173988893Y-79467867D01*
X173967849Y-79480480D01*
X173945671Y-79490970D01*
X173922571Y-79499235D01*
X173898773Y-79505196D01*
X173874504Y-79508796D01*
X173850000Y-79510000D01*
X172350000Y-79510000D01*
X172325496Y-79508796D01*
X172301227Y-79505196D01*
X172277429Y-79499235D01*
X172254329Y-79490970D01*
X172232151Y-79480480D01*
X172211107Y-79467867D01*
X172191402Y-79453253D01*
X172173223Y-79436777D01*
X172156747Y-79418598D01*
X172142133Y-79398893D01*
X172129520Y-79377849D01*
X172119030Y-79355671D01*
X172110765Y-79332571D01*
X172104804Y-79308773D01*
X172101204Y-79284504D01*
X172100000Y-79260000D01*
X172100000Y-78060000D01*
X172101204Y-78035496D01*
X172104804Y-78011227D01*
X172110765Y-77987429D01*
X172119030Y-77964329D01*
X172129520Y-77942151D01*
X172142133Y-77921107D01*
X172156747Y-77901402D01*
X172173223Y-77883223D01*
X172191402Y-77866747D01*
X172211107Y-77852133D01*
X172232151Y-77839520D01*
X172254329Y-77829030D01*
X172277429Y-77820765D01*
X172301227Y-77814804D01*
X172325496Y-77811204D01*
X172350000Y-77810000D01*
X173850000Y-77810000D01*
X173874504Y-77811204D01*
G37*
G04 #@! TD.AperFunction*
D14*
X173630000Y-118500000D03*
D15*
X181250000Y-118500000D03*
D10*
X162630000Y-87500000D03*
D11*
X170250000Y-87500000D03*
D10*
X154870000Y-101500000D03*
D11*
X147250000Y-101500000D03*
D10*
X117250000Y-76880000D03*
D11*
X117250000Y-84500000D03*
D10*
X145250000Y-86120000D03*
D11*
X145250000Y-78500000D03*
D10*
X162250000Y-104880000D03*
D11*
X162250000Y-112500000D03*
D10*
X174870000Y-105500000D03*
D11*
X167250000Y-105500000D03*
D10*
X168250000Y-92880000D03*
D11*
X168250000Y-100500000D03*
D16*
X119080000Y-120000000D03*
X116540000Y-120000000D03*
D17*
X114000000Y-120000000D03*
D18*
X140710000Y-125500000D03*
X145790000Y-125500000D03*
X152710000Y-125500000D03*
X157790000Y-125500000D03*
D19*
X144930000Y-118500000D03*
D20*
X165250000Y-118500000D03*
D16*
X176330000Y-112500000D03*
X173790000Y-112500000D03*
D17*
X171250000Y-112500000D03*
D21*
X159850000Y-96500000D03*
D22*
X160050000Y-99040000D03*
X161520000Y-97770000D03*
D18*
X115710000Y-125500000D03*
X120790000Y-125500000D03*
X127170000Y-125500000D03*
X132250000Y-125500000D03*
X165250000Y-125500000D03*
X170330000Y-125500000D03*
X177250000Y-125500000D03*
X182330000Y-125500000D03*
D23*
X139620000Y-117780000D03*
X139620000Y-115240000D03*
X139620000Y-112700000D03*
X139620000Y-110160000D03*
X139620000Y-107620000D03*
X139620000Y-105080000D03*
X139620000Y-102540000D03*
X139620000Y-100000000D03*
X139620000Y-97460000D03*
X139620000Y-94920000D03*
X139620000Y-92380000D03*
X139620000Y-89840000D03*
X139620000Y-87300000D03*
X139620000Y-84760000D03*
X139620000Y-82220000D03*
X124380000Y-117780000D03*
X124380000Y-115240000D03*
X124380000Y-112700000D03*
X124380000Y-110160000D03*
X124380000Y-107620000D03*
X124380000Y-105080000D03*
X124380000Y-102540000D03*
X124380000Y-100000000D03*
X124380000Y-97460000D03*
X124380000Y-94920000D03*
X124380000Y-92380000D03*
X124380000Y-89840000D03*
X124380000Y-87300000D03*
X124380000Y-84760000D03*
X124380000Y-82220000D03*
D24*
X145170000Y-71500000D03*
X147710000Y-71500000D03*
D25*
X150250000Y-71500000D03*
D11*
X167250000Y-81500000D03*
X162250000Y-81500000D03*
X167250000Y-76500000D03*
X162250000Y-76500000D03*
X151750000Y-86500000D03*
D26*
X154250000Y-86500000D03*
D11*
X114750000Y-94500000D03*
D26*
X117250000Y-94500000D03*
D11*
X116500000Y-109000000D03*
D26*
X114000000Y-109000000D03*
D27*
X176330000Y-112500000D02*
X176330000Y-112547500D01*
X167250000Y-76500000D02*
X167250000Y-81500000D01*
X167250000Y-84500000D02*
X170250000Y-87500000D01*
X167250000Y-81500000D02*
X167250000Y-84500000D01*
X174870000Y-92120000D02*
X174870000Y-105500000D01*
X170250000Y-87500000D02*
X174870000Y-92120000D01*
X174870000Y-105500000D02*
X176330000Y-106960000D01*
X176330000Y-106960000D02*
X176330000Y-112500000D01*
X164250000Y-73500000D02*
X167250000Y-76500000D01*
X155250000Y-73500000D02*
X164250000Y-73500000D01*
X151750000Y-77000000D02*
X155250000Y-73500000D01*
X151750000Y-86500000D02*
X151750000Y-77000000D01*
X147710000Y-72960000D02*
X147710000Y-71500000D01*
X151750000Y-77000000D02*
X147710000Y-72960000D01*
X116540000Y-124670000D02*
X115710000Y-125500000D01*
X116540000Y-120000000D02*
X116540000Y-124670000D01*
X115710000Y-125500000D02*
X120790000Y-125500000D01*
X120790000Y-125500000D02*
X123040000Y-125500000D01*
X138460000Y-125500000D02*
X140710000Y-125500000D01*
X134355000Y-121395000D02*
X138460000Y-125500000D01*
X127145000Y-121395000D02*
X134355000Y-121395000D01*
X123040000Y-125500000D02*
X127145000Y-121395000D01*
X127145000Y-118005000D02*
X127145000Y-121395000D01*
X124380000Y-115240000D02*
X127145000Y-118005000D01*
X148040000Y-125500000D02*
X145790000Y-125500000D01*
X151750000Y-121790000D02*
X148040000Y-125500000D01*
X151750000Y-86500000D02*
X151750000Y-96000000D01*
X151750000Y-96000000D02*
X152250000Y-96500000D01*
X151750000Y-96000000D02*
X151750000Y-121790000D01*
X152250000Y-96500000D02*
X159850000Y-96500000D01*
X114000000Y-120047500D02*
X114000000Y-120000000D01*
D28*
X145170000Y-78420000D02*
X145250000Y-78500000D01*
X145170000Y-71500000D02*
X145170000Y-78420000D01*
D27*
X178250000Y-115500000D02*
X181250000Y-118500000D01*
X168250000Y-115500000D02*
X178250000Y-115500000D01*
X165250000Y-118500000D02*
X168250000Y-115500000D01*
D28*
X162250000Y-87880000D02*
X162630000Y-87500000D01*
X161520000Y-97770000D02*
X161980000Y-97770000D01*
X161520000Y-97770000D02*
X162250000Y-98500000D01*
X162250000Y-98500000D02*
X162250000Y-87880000D01*
X162250000Y-104880000D02*
X162250000Y-98500000D01*
M02*
