G04 #@! TF.GenerationSoftware,KiCad,Pcbnew,5.1.5+dfsg1-2build2*
G04 #@! TF.CreationDate,2021-02-13T16:31:57-06:00*
G04 #@! TF.ProjectId,speaker-switcher-remote,73706561-6b65-4722-9d73-776974636865,rev?*
G04 #@! TF.SameCoordinates,Original*
G04 #@! TF.FileFunction,Soldermask,Top*
G04 #@! TF.FilePolarity,Negative*
%FSLAX46Y46*%
G04 Gerber Fmt 4.6, Leading zero omitted, Abs format (unit mm)*
G04 Created by KiCad (PCBNEW 5.1.5+dfsg1-2build2) date 2021-02-13 16:31:57*
%MOMM*%
%LPD*%
G04 APERTURE LIST*
%ADD10C,0.100000*%
G04 APERTURE END LIST*
D10*
G36*
X191625256Y-123891298D02*
G01*
X191731579Y-123912447D01*
X192032042Y-124036903D01*
X192302451Y-124217585D01*
X192532415Y-124447549D01*
X192708174Y-124710590D01*
X192713098Y-124717960D01*
X192837553Y-125018422D01*
X192901000Y-125337389D01*
X192901000Y-125662611D01*
X192858702Y-125875256D01*
X192837553Y-125981579D01*
X192713097Y-126282042D01*
X192532415Y-126552451D01*
X192302451Y-126782415D01*
X192032042Y-126963097D01*
X191731579Y-127087553D01*
X191625256Y-127108702D01*
X191412611Y-127151000D01*
X191087389Y-127151000D01*
X190874744Y-127108702D01*
X190768421Y-127087553D01*
X190467958Y-126963097D01*
X190197549Y-126782415D01*
X189967585Y-126552451D01*
X189786903Y-126282042D01*
X189662447Y-125981579D01*
X189641298Y-125875256D01*
X189599000Y-125662611D01*
X189599000Y-125337389D01*
X189662447Y-125018422D01*
X189786902Y-124717960D01*
X189791826Y-124710590D01*
X189967585Y-124447549D01*
X190197549Y-124217585D01*
X190467958Y-124036903D01*
X190768421Y-123912447D01*
X190874744Y-123891298D01*
X191087389Y-123849000D01*
X191412611Y-123849000D01*
X191625256Y-123891298D01*
G37*
G36*
X105625256Y-123891298D02*
G01*
X105731579Y-123912447D01*
X106032042Y-124036903D01*
X106302451Y-124217585D01*
X106532415Y-124447549D01*
X106708174Y-124710590D01*
X106713098Y-124717960D01*
X106837553Y-125018422D01*
X106901000Y-125337389D01*
X106901000Y-125662611D01*
X106858702Y-125875256D01*
X106837553Y-125981579D01*
X106713097Y-126282042D01*
X106532415Y-126552451D01*
X106302451Y-126782415D01*
X106032042Y-126963097D01*
X105731579Y-127087553D01*
X105625256Y-127108702D01*
X105412611Y-127151000D01*
X105087389Y-127151000D01*
X104874744Y-127108702D01*
X104768421Y-127087553D01*
X104467958Y-126963097D01*
X104197549Y-126782415D01*
X103967585Y-126552451D01*
X103786903Y-126282042D01*
X103662447Y-125981579D01*
X103641298Y-125875256D01*
X103599000Y-125662611D01*
X103599000Y-125337389D01*
X103662447Y-125018422D01*
X103786902Y-124717960D01*
X103791826Y-124710590D01*
X103967585Y-124447549D01*
X104197549Y-124217585D01*
X104467958Y-124036903D01*
X104768421Y-123912447D01*
X104874744Y-123891298D01*
X105087389Y-123849000D01*
X105412611Y-123849000D01*
X105625256Y-123891298D01*
G37*
G36*
X141288571Y-124702863D02*
G01*
X141367023Y-124710590D01*
X141467682Y-124741125D01*
X141518013Y-124756392D01*
X141657165Y-124830771D01*
X141779133Y-124930867D01*
X141879229Y-125052835D01*
X141953608Y-125191987D01*
X141953608Y-125191988D01*
X141999410Y-125342977D01*
X142014875Y-125500000D01*
X141999410Y-125657023D01*
X141968875Y-125757682D01*
X141953608Y-125808013D01*
X141879229Y-125947165D01*
X141779133Y-126069133D01*
X141657165Y-126169229D01*
X141518013Y-126243608D01*
X141467682Y-126258875D01*
X141367023Y-126289410D01*
X141288571Y-126297137D01*
X141249346Y-126301000D01*
X140170654Y-126301000D01*
X140131429Y-126297137D01*
X140052977Y-126289410D01*
X139952318Y-126258875D01*
X139901987Y-126243608D01*
X139762835Y-126169229D01*
X139640867Y-126069133D01*
X139540771Y-125947165D01*
X139466392Y-125808013D01*
X139451125Y-125757682D01*
X139420590Y-125657023D01*
X139405125Y-125500000D01*
X139420590Y-125342977D01*
X139466392Y-125191988D01*
X139466392Y-125191987D01*
X139540771Y-125052835D01*
X139640867Y-124930867D01*
X139762835Y-124830771D01*
X139901987Y-124756392D01*
X139952318Y-124741125D01*
X140052977Y-124710590D01*
X140131429Y-124702863D01*
X140170654Y-124699000D01*
X141249346Y-124699000D01*
X141288571Y-124702863D01*
G37*
G36*
X165828571Y-124702863D02*
G01*
X165907023Y-124710590D01*
X166007682Y-124741125D01*
X166058013Y-124756392D01*
X166197165Y-124830771D01*
X166319133Y-124930867D01*
X166419229Y-125052835D01*
X166493608Y-125191987D01*
X166493608Y-125191988D01*
X166539410Y-125342977D01*
X166554875Y-125500000D01*
X166539410Y-125657023D01*
X166508875Y-125757682D01*
X166493608Y-125808013D01*
X166419229Y-125947165D01*
X166319133Y-126069133D01*
X166197165Y-126169229D01*
X166058013Y-126243608D01*
X166007682Y-126258875D01*
X165907023Y-126289410D01*
X165828571Y-126297137D01*
X165789346Y-126301000D01*
X164710654Y-126301000D01*
X164671429Y-126297137D01*
X164592977Y-126289410D01*
X164492318Y-126258875D01*
X164441987Y-126243608D01*
X164302835Y-126169229D01*
X164180867Y-126069133D01*
X164080771Y-125947165D01*
X164006392Y-125808013D01*
X163991125Y-125757682D01*
X163960590Y-125657023D01*
X163945125Y-125500000D01*
X163960590Y-125342977D01*
X164006392Y-125191988D01*
X164006392Y-125191987D01*
X164080771Y-125052835D01*
X164180867Y-124930867D01*
X164302835Y-124830771D01*
X164441987Y-124756392D01*
X164492318Y-124741125D01*
X164592977Y-124710590D01*
X164671429Y-124702863D01*
X164710654Y-124699000D01*
X165789346Y-124699000D01*
X165828571Y-124702863D01*
G37*
G36*
X146368571Y-124702863D02*
G01*
X146447023Y-124710590D01*
X146547682Y-124741125D01*
X146598013Y-124756392D01*
X146737165Y-124830771D01*
X146859133Y-124930867D01*
X146959229Y-125052835D01*
X147033608Y-125191987D01*
X147033608Y-125191988D01*
X147079410Y-125342977D01*
X147094875Y-125500000D01*
X147079410Y-125657023D01*
X147048875Y-125757682D01*
X147033608Y-125808013D01*
X146959229Y-125947165D01*
X146859133Y-126069133D01*
X146737165Y-126169229D01*
X146598013Y-126243608D01*
X146547682Y-126258875D01*
X146447023Y-126289410D01*
X146368571Y-126297137D01*
X146329346Y-126301000D01*
X145250654Y-126301000D01*
X145211429Y-126297137D01*
X145132977Y-126289410D01*
X145032318Y-126258875D01*
X144981987Y-126243608D01*
X144842835Y-126169229D01*
X144720867Y-126069133D01*
X144620771Y-125947165D01*
X144546392Y-125808013D01*
X144531125Y-125757682D01*
X144500590Y-125657023D01*
X144485125Y-125500000D01*
X144500590Y-125342977D01*
X144546392Y-125191988D01*
X144546392Y-125191987D01*
X144620771Y-125052835D01*
X144720867Y-124930867D01*
X144842835Y-124830771D01*
X144981987Y-124756392D01*
X145032318Y-124741125D01*
X145132977Y-124710590D01*
X145211429Y-124702863D01*
X145250654Y-124699000D01*
X146329346Y-124699000D01*
X146368571Y-124702863D01*
G37*
G36*
X153288571Y-124702863D02*
G01*
X153367023Y-124710590D01*
X153467682Y-124741125D01*
X153518013Y-124756392D01*
X153657165Y-124830771D01*
X153779133Y-124930867D01*
X153879229Y-125052835D01*
X153953608Y-125191987D01*
X153953608Y-125191988D01*
X153999410Y-125342977D01*
X154014875Y-125500000D01*
X153999410Y-125657023D01*
X153968875Y-125757682D01*
X153953608Y-125808013D01*
X153879229Y-125947165D01*
X153779133Y-126069133D01*
X153657165Y-126169229D01*
X153518013Y-126243608D01*
X153467682Y-126258875D01*
X153367023Y-126289410D01*
X153288571Y-126297137D01*
X153249346Y-126301000D01*
X152170654Y-126301000D01*
X152131429Y-126297137D01*
X152052977Y-126289410D01*
X151952318Y-126258875D01*
X151901987Y-126243608D01*
X151762835Y-126169229D01*
X151640867Y-126069133D01*
X151540771Y-125947165D01*
X151466392Y-125808013D01*
X151451125Y-125757682D01*
X151420590Y-125657023D01*
X151405125Y-125500000D01*
X151420590Y-125342977D01*
X151466392Y-125191988D01*
X151466392Y-125191987D01*
X151540771Y-125052835D01*
X151640867Y-124930867D01*
X151762835Y-124830771D01*
X151901987Y-124756392D01*
X151952318Y-124741125D01*
X152052977Y-124710590D01*
X152131429Y-124702863D01*
X152170654Y-124699000D01*
X153249346Y-124699000D01*
X153288571Y-124702863D01*
G37*
G36*
X182908571Y-124702863D02*
G01*
X182987023Y-124710590D01*
X183087682Y-124741125D01*
X183138013Y-124756392D01*
X183277165Y-124830771D01*
X183399133Y-124930867D01*
X183499229Y-125052835D01*
X183573608Y-125191987D01*
X183573608Y-125191988D01*
X183619410Y-125342977D01*
X183634875Y-125500000D01*
X183619410Y-125657023D01*
X183588875Y-125757682D01*
X183573608Y-125808013D01*
X183499229Y-125947165D01*
X183399133Y-126069133D01*
X183277165Y-126169229D01*
X183138013Y-126243608D01*
X183087682Y-126258875D01*
X182987023Y-126289410D01*
X182908571Y-126297137D01*
X182869346Y-126301000D01*
X181790654Y-126301000D01*
X181751429Y-126297137D01*
X181672977Y-126289410D01*
X181572318Y-126258875D01*
X181521987Y-126243608D01*
X181382835Y-126169229D01*
X181260867Y-126069133D01*
X181160771Y-125947165D01*
X181086392Y-125808013D01*
X181071125Y-125757682D01*
X181040590Y-125657023D01*
X181025125Y-125500000D01*
X181040590Y-125342977D01*
X181086392Y-125191988D01*
X181086392Y-125191987D01*
X181160771Y-125052835D01*
X181260867Y-124930867D01*
X181382835Y-124830771D01*
X181521987Y-124756392D01*
X181572318Y-124741125D01*
X181672977Y-124710590D01*
X181751429Y-124702863D01*
X181790654Y-124699000D01*
X182869346Y-124699000D01*
X182908571Y-124702863D01*
G37*
G36*
X177828571Y-124702863D02*
G01*
X177907023Y-124710590D01*
X178007682Y-124741125D01*
X178058013Y-124756392D01*
X178197165Y-124830771D01*
X178319133Y-124930867D01*
X178419229Y-125052835D01*
X178493608Y-125191987D01*
X178493608Y-125191988D01*
X178539410Y-125342977D01*
X178554875Y-125500000D01*
X178539410Y-125657023D01*
X178508875Y-125757682D01*
X178493608Y-125808013D01*
X178419229Y-125947165D01*
X178319133Y-126069133D01*
X178197165Y-126169229D01*
X178058013Y-126243608D01*
X178007682Y-126258875D01*
X177907023Y-126289410D01*
X177828571Y-126297137D01*
X177789346Y-126301000D01*
X176710654Y-126301000D01*
X176671429Y-126297137D01*
X176592977Y-126289410D01*
X176492318Y-126258875D01*
X176441987Y-126243608D01*
X176302835Y-126169229D01*
X176180867Y-126069133D01*
X176080771Y-125947165D01*
X176006392Y-125808013D01*
X175991125Y-125757682D01*
X175960590Y-125657023D01*
X175945125Y-125500000D01*
X175960590Y-125342977D01*
X176006392Y-125191988D01*
X176006392Y-125191987D01*
X176080771Y-125052835D01*
X176180867Y-124930867D01*
X176302835Y-124830771D01*
X176441987Y-124756392D01*
X176492318Y-124741125D01*
X176592977Y-124710590D01*
X176671429Y-124702863D01*
X176710654Y-124699000D01*
X177789346Y-124699000D01*
X177828571Y-124702863D01*
G37*
G36*
X170908571Y-124702863D02*
G01*
X170987023Y-124710590D01*
X171087682Y-124741125D01*
X171138013Y-124756392D01*
X171277165Y-124830771D01*
X171399133Y-124930867D01*
X171499229Y-125052835D01*
X171573608Y-125191987D01*
X171573608Y-125191988D01*
X171619410Y-125342977D01*
X171634875Y-125500000D01*
X171619410Y-125657023D01*
X171588875Y-125757682D01*
X171573608Y-125808013D01*
X171499229Y-125947165D01*
X171399133Y-126069133D01*
X171277165Y-126169229D01*
X171138013Y-126243608D01*
X171087682Y-126258875D01*
X170987023Y-126289410D01*
X170908571Y-126297137D01*
X170869346Y-126301000D01*
X169790654Y-126301000D01*
X169751429Y-126297137D01*
X169672977Y-126289410D01*
X169572318Y-126258875D01*
X169521987Y-126243608D01*
X169382835Y-126169229D01*
X169260867Y-126069133D01*
X169160771Y-125947165D01*
X169086392Y-125808013D01*
X169071125Y-125757682D01*
X169040590Y-125657023D01*
X169025125Y-125500000D01*
X169040590Y-125342977D01*
X169086392Y-125191988D01*
X169086392Y-125191987D01*
X169160771Y-125052835D01*
X169260867Y-124930867D01*
X169382835Y-124830771D01*
X169521987Y-124756392D01*
X169572318Y-124741125D01*
X169672977Y-124710590D01*
X169751429Y-124702863D01*
X169790654Y-124699000D01*
X170869346Y-124699000D01*
X170908571Y-124702863D01*
G37*
G36*
X132828571Y-124702863D02*
G01*
X132907023Y-124710590D01*
X133007682Y-124741125D01*
X133058013Y-124756392D01*
X133197165Y-124830771D01*
X133319133Y-124930867D01*
X133419229Y-125052835D01*
X133493608Y-125191987D01*
X133493608Y-125191988D01*
X133539410Y-125342977D01*
X133554875Y-125500000D01*
X133539410Y-125657023D01*
X133508875Y-125757682D01*
X133493608Y-125808013D01*
X133419229Y-125947165D01*
X133319133Y-126069133D01*
X133197165Y-126169229D01*
X133058013Y-126243608D01*
X133007682Y-126258875D01*
X132907023Y-126289410D01*
X132828571Y-126297137D01*
X132789346Y-126301000D01*
X131710654Y-126301000D01*
X131671429Y-126297137D01*
X131592977Y-126289410D01*
X131492318Y-126258875D01*
X131441987Y-126243608D01*
X131302835Y-126169229D01*
X131180867Y-126069133D01*
X131080771Y-125947165D01*
X131006392Y-125808013D01*
X130991125Y-125757682D01*
X130960590Y-125657023D01*
X130945125Y-125500000D01*
X130960590Y-125342977D01*
X131006392Y-125191988D01*
X131006392Y-125191987D01*
X131080771Y-125052835D01*
X131180867Y-124930867D01*
X131302835Y-124830771D01*
X131441987Y-124756392D01*
X131492318Y-124741125D01*
X131592977Y-124710590D01*
X131671429Y-124702863D01*
X131710654Y-124699000D01*
X132789346Y-124699000D01*
X132828571Y-124702863D01*
G37*
G36*
X127748571Y-124702863D02*
G01*
X127827023Y-124710590D01*
X127927682Y-124741125D01*
X127978013Y-124756392D01*
X128117165Y-124830771D01*
X128239133Y-124930867D01*
X128339229Y-125052835D01*
X128413608Y-125191987D01*
X128413608Y-125191988D01*
X128459410Y-125342977D01*
X128474875Y-125500000D01*
X128459410Y-125657023D01*
X128428875Y-125757682D01*
X128413608Y-125808013D01*
X128339229Y-125947165D01*
X128239133Y-126069133D01*
X128117165Y-126169229D01*
X127978013Y-126243608D01*
X127927682Y-126258875D01*
X127827023Y-126289410D01*
X127748571Y-126297137D01*
X127709346Y-126301000D01*
X126630654Y-126301000D01*
X126591429Y-126297137D01*
X126512977Y-126289410D01*
X126412318Y-126258875D01*
X126361987Y-126243608D01*
X126222835Y-126169229D01*
X126100867Y-126069133D01*
X126000771Y-125947165D01*
X125926392Y-125808013D01*
X125911125Y-125757682D01*
X125880590Y-125657023D01*
X125865125Y-125500000D01*
X125880590Y-125342977D01*
X125926392Y-125191988D01*
X125926392Y-125191987D01*
X126000771Y-125052835D01*
X126100867Y-124930867D01*
X126222835Y-124830771D01*
X126361987Y-124756392D01*
X126412318Y-124741125D01*
X126512977Y-124710590D01*
X126591429Y-124702863D01*
X126630654Y-124699000D01*
X127709346Y-124699000D01*
X127748571Y-124702863D01*
G37*
G36*
X121368571Y-124702863D02*
G01*
X121447023Y-124710590D01*
X121547682Y-124741125D01*
X121598013Y-124756392D01*
X121737165Y-124830771D01*
X121859133Y-124930867D01*
X121959229Y-125052835D01*
X122033608Y-125191987D01*
X122033608Y-125191988D01*
X122079410Y-125342977D01*
X122094875Y-125500000D01*
X122079410Y-125657023D01*
X122048875Y-125757682D01*
X122033608Y-125808013D01*
X121959229Y-125947165D01*
X121859133Y-126069133D01*
X121737165Y-126169229D01*
X121598013Y-126243608D01*
X121547682Y-126258875D01*
X121447023Y-126289410D01*
X121368571Y-126297137D01*
X121329346Y-126301000D01*
X120250654Y-126301000D01*
X120211429Y-126297137D01*
X120132977Y-126289410D01*
X120032318Y-126258875D01*
X119981987Y-126243608D01*
X119842835Y-126169229D01*
X119720867Y-126069133D01*
X119620771Y-125947165D01*
X119546392Y-125808013D01*
X119531125Y-125757682D01*
X119500590Y-125657023D01*
X119485125Y-125500000D01*
X119500590Y-125342977D01*
X119546392Y-125191988D01*
X119546392Y-125191987D01*
X119620771Y-125052835D01*
X119720867Y-124930867D01*
X119842835Y-124830771D01*
X119981987Y-124756392D01*
X120032318Y-124741125D01*
X120132977Y-124710590D01*
X120211429Y-124702863D01*
X120250654Y-124699000D01*
X121329346Y-124699000D01*
X121368571Y-124702863D01*
G37*
G36*
X116288571Y-124702863D02*
G01*
X116367023Y-124710590D01*
X116467682Y-124741125D01*
X116518013Y-124756392D01*
X116657165Y-124830771D01*
X116779133Y-124930867D01*
X116879229Y-125052835D01*
X116953608Y-125191987D01*
X116953608Y-125191988D01*
X116999410Y-125342977D01*
X117014875Y-125500000D01*
X116999410Y-125657023D01*
X116968875Y-125757682D01*
X116953608Y-125808013D01*
X116879229Y-125947165D01*
X116779133Y-126069133D01*
X116657165Y-126169229D01*
X116518013Y-126243608D01*
X116467682Y-126258875D01*
X116367023Y-126289410D01*
X116288571Y-126297137D01*
X116249346Y-126301000D01*
X115170654Y-126301000D01*
X115131429Y-126297137D01*
X115052977Y-126289410D01*
X114952318Y-126258875D01*
X114901987Y-126243608D01*
X114762835Y-126169229D01*
X114640867Y-126069133D01*
X114540771Y-125947165D01*
X114466392Y-125808013D01*
X114451125Y-125757682D01*
X114420590Y-125657023D01*
X114405125Y-125500000D01*
X114420590Y-125342977D01*
X114466392Y-125191988D01*
X114466392Y-125191987D01*
X114540771Y-125052835D01*
X114640867Y-124930867D01*
X114762835Y-124830771D01*
X114901987Y-124756392D01*
X114952318Y-124741125D01*
X115052977Y-124710590D01*
X115131429Y-124702863D01*
X115170654Y-124699000D01*
X116249346Y-124699000D01*
X116288571Y-124702863D01*
G37*
G36*
X158368571Y-124702863D02*
G01*
X158447023Y-124710590D01*
X158547682Y-124741125D01*
X158598013Y-124756392D01*
X158737165Y-124830771D01*
X158859133Y-124930867D01*
X158959229Y-125052835D01*
X159033608Y-125191987D01*
X159033608Y-125191988D01*
X159079410Y-125342977D01*
X159094875Y-125500000D01*
X159079410Y-125657023D01*
X159048875Y-125757682D01*
X159033608Y-125808013D01*
X158959229Y-125947165D01*
X158859133Y-126069133D01*
X158737165Y-126169229D01*
X158598013Y-126243608D01*
X158547682Y-126258875D01*
X158447023Y-126289410D01*
X158368571Y-126297137D01*
X158329346Y-126301000D01*
X157250654Y-126301000D01*
X157211429Y-126297137D01*
X157132977Y-126289410D01*
X157032318Y-126258875D01*
X156981987Y-126243608D01*
X156842835Y-126169229D01*
X156720867Y-126069133D01*
X156620771Y-125947165D01*
X156546392Y-125808013D01*
X156531125Y-125757682D01*
X156500590Y-125657023D01*
X156485125Y-125500000D01*
X156500590Y-125342977D01*
X156546392Y-125191988D01*
X156546392Y-125191987D01*
X156620771Y-125052835D01*
X156720867Y-124930867D01*
X156842835Y-124830771D01*
X156981987Y-124756392D01*
X157032318Y-124741125D01*
X157132977Y-124710590D01*
X157211429Y-124702863D01*
X157250654Y-124699000D01*
X158329346Y-124699000D01*
X158368571Y-124702863D01*
G37*
G36*
X119276719Y-118963520D02*
G01*
X119465880Y-119020901D01*
X119465883Y-119020902D01*
X119558333Y-119070318D01*
X119640212Y-119114083D01*
X119793015Y-119239485D01*
X119918417Y-119392288D01*
X120011599Y-119566619D01*
X120068980Y-119755780D01*
X120083500Y-119903206D01*
X120083500Y-120096793D01*
X120068980Y-120244219D01*
X120011599Y-120433380D01*
X120011598Y-120433383D01*
X119962182Y-120525833D01*
X119918417Y-120607712D01*
X119793015Y-120760515D01*
X119640212Y-120885917D01*
X119465881Y-120979099D01*
X119276720Y-121036480D01*
X119080000Y-121055855D01*
X118883281Y-121036480D01*
X118694120Y-120979099D01*
X118519788Y-120885917D01*
X118366985Y-120760515D01*
X118241583Y-120607712D01*
X118148401Y-120433381D01*
X118091020Y-120244220D01*
X118076500Y-120096794D01*
X118076500Y-119903207D01*
X118091020Y-119755781D01*
X118148401Y-119566620D01*
X118148402Y-119566617D01*
X118240647Y-119394040D01*
X118241583Y-119392288D01*
X118366985Y-119239485D01*
X118519788Y-119114083D01*
X118694119Y-119020901D01*
X118883280Y-118963520D01*
X119080000Y-118944145D01*
X119276719Y-118963520D01*
G37*
G36*
X116736719Y-118963520D02*
G01*
X116925880Y-119020901D01*
X116925883Y-119020902D01*
X117018333Y-119070318D01*
X117100212Y-119114083D01*
X117253015Y-119239485D01*
X117378417Y-119392288D01*
X117471599Y-119566619D01*
X117528980Y-119755780D01*
X117543500Y-119903206D01*
X117543500Y-120096793D01*
X117528980Y-120244219D01*
X117471599Y-120433380D01*
X117471598Y-120433383D01*
X117422182Y-120525833D01*
X117378417Y-120607712D01*
X117253015Y-120760515D01*
X117100212Y-120885917D01*
X116925881Y-120979099D01*
X116736720Y-121036480D01*
X116540000Y-121055855D01*
X116343281Y-121036480D01*
X116154120Y-120979099D01*
X115979788Y-120885917D01*
X115826985Y-120760515D01*
X115701583Y-120607712D01*
X115608401Y-120433381D01*
X115551020Y-120244220D01*
X115536500Y-120096794D01*
X115536500Y-119903207D01*
X115551020Y-119755781D01*
X115608401Y-119566620D01*
X115608402Y-119566617D01*
X115700647Y-119394040D01*
X115701583Y-119392288D01*
X115826985Y-119239485D01*
X115979788Y-119114083D01*
X116154119Y-119020901D01*
X116343280Y-118963520D01*
X116540000Y-118944145D01*
X116736719Y-118963520D01*
G37*
G36*
X115003500Y-121051000D02*
G01*
X112996500Y-121051000D01*
X112996500Y-118949000D01*
X115003500Y-118949000D01*
X115003500Y-121051000D01*
G37*
G36*
X145117277Y-117261743D02*
G01*
X145294903Y-117297075D01*
X145522571Y-117391378D01*
X145727466Y-117528285D01*
X145901715Y-117702534D01*
X146006980Y-117860074D01*
X146038623Y-117907431D01*
X146132925Y-118135097D01*
X146181000Y-118376786D01*
X146181000Y-118623214D01*
X146132925Y-118864903D01*
X146058243Y-119045203D01*
X146038622Y-119092571D01*
X145901715Y-119297466D01*
X145727466Y-119471715D01*
X145522571Y-119608622D01*
X145522570Y-119608623D01*
X145522569Y-119608623D01*
X145294903Y-119702925D01*
X145053214Y-119751000D01*
X144806786Y-119751000D01*
X144565097Y-119702925D01*
X144337431Y-119608623D01*
X144337430Y-119608623D01*
X144337429Y-119608622D01*
X144132534Y-119471715D01*
X143958285Y-119297466D01*
X143821378Y-119092571D01*
X143801758Y-119045203D01*
X143727075Y-118864903D01*
X143679000Y-118623214D01*
X143679000Y-118376786D01*
X143727075Y-118135097D01*
X143821377Y-117907431D01*
X143853020Y-117860074D01*
X143958285Y-117702534D01*
X144132534Y-117528285D01*
X144337429Y-117391378D01*
X144565097Y-117297075D01*
X144742723Y-117261743D01*
X144806786Y-117249000D01*
X145053214Y-117249000D01*
X145117277Y-117261743D01*
G37*
G36*
X165437277Y-117261743D02*
G01*
X165614903Y-117297075D01*
X165842571Y-117391378D01*
X166047466Y-117528285D01*
X166221715Y-117702534D01*
X166326980Y-117860074D01*
X166358623Y-117907431D01*
X166452925Y-118135097D01*
X166501000Y-118376786D01*
X166501000Y-118623214D01*
X166452925Y-118864903D01*
X166378243Y-119045203D01*
X166358622Y-119092571D01*
X166221715Y-119297466D01*
X166047466Y-119471715D01*
X165842571Y-119608622D01*
X165842570Y-119608623D01*
X165842569Y-119608623D01*
X165614903Y-119702925D01*
X165373214Y-119751000D01*
X165126786Y-119751000D01*
X164885097Y-119702925D01*
X164657431Y-119608623D01*
X164657430Y-119608623D01*
X164657429Y-119608622D01*
X164452534Y-119471715D01*
X164278285Y-119297466D01*
X164141378Y-119092571D01*
X164121758Y-119045203D01*
X164047075Y-118864903D01*
X163999000Y-118623214D01*
X163999000Y-118376786D01*
X164047075Y-118135097D01*
X164141377Y-117907431D01*
X164173020Y-117860074D01*
X164278285Y-117702534D01*
X164452534Y-117528285D01*
X164657429Y-117391378D01*
X164885097Y-117297075D01*
X165062723Y-117261743D01*
X165126786Y-117249000D01*
X165373214Y-117249000D01*
X165437277Y-117261743D01*
G37*
G36*
X182401000Y-119651000D02*
G01*
X180099000Y-119651000D01*
X180099000Y-117349000D01*
X182401000Y-117349000D01*
X182401000Y-119651000D01*
G37*
G36*
X173854549Y-117371116D02*
G01*
X173965734Y-117393232D01*
X174175203Y-117479997D01*
X174363720Y-117605960D01*
X174524040Y-117766280D01*
X174650003Y-117954797D01*
X174736768Y-118164266D01*
X174781000Y-118386636D01*
X174781000Y-118613364D01*
X174736768Y-118835734D01*
X174650003Y-119045203D01*
X174524040Y-119233720D01*
X174363720Y-119394040D01*
X174175203Y-119520003D01*
X173965734Y-119606768D01*
X173854549Y-119628884D01*
X173743365Y-119651000D01*
X173516635Y-119651000D01*
X173405451Y-119628884D01*
X173294266Y-119606768D01*
X173084797Y-119520003D01*
X172896280Y-119394040D01*
X172735960Y-119233720D01*
X172609997Y-119045203D01*
X172523232Y-118835734D01*
X172479000Y-118613364D01*
X172479000Y-118386636D01*
X172523232Y-118164266D01*
X172609997Y-117954797D01*
X172735960Y-117766280D01*
X172896280Y-117605960D01*
X173084797Y-117479997D01*
X173294266Y-117393232D01*
X173405451Y-117371116D01*
X173516635Y-117349000D01*
X173743365Y-117349000D01*
X173854549Y-117371116D01*
G37*
G36*
X139857142Y-116998242D02*
G01*
X140005101Y-117059529D01*
X140138255Y-117148499D01*
X140251501Y-117261745D01*
X140340471Y-117394899D01*
X140401758Y-117542858D01*
X140433000Y-117699925D01*
X140433000Y-117860075D01*
X140401758Y-118017142D01*
X140340471Y-118165101D01*
X140251501Y-118298255D01*
X140138255Y-118411501D01*
X140005101Y-118500471D01*
X139857142Y-118561758D01*
X139700075Y-118593000D01*
X139539925Y-118593000D01*
X139382858Y-118561758D01*
X139234899Y-118500471D01*
X139101745Y-118411501D01*
X138988499Y-118298255D01*
X138899529Y-118165101D01*
X138838242Y-118017142D01*
X138807000Y-117860075D01*
X138807000Y-117699925D01*
X138838242Y-117542858D01*
X138899529Y-117394899D01*
X138988499Y-117261745D01*
X139101745Y-117148499D01*
X139234899Y-117059529D01*
X139382858Y-116998242D01*
X139539925Y-116967000D01*
X139700075Y-116967000D01*
X139857142Y-116998242D01*
G37*
G36*
X124617142Y-116998242D02*
G01*
X124765101Y-117059529D01*
X124898255Y-117148499D01*
X125011501Y-117261745D01*
X125100471Y-117394899D01*
X125161758Y-117542858D01*
X125193000Y-117699925D01*
X125193000Y-117860075D01*
X125161758Y-118017142D01*
X125100471Y-118165101D01*
X125011501Y-118298255D01*
X124898255Y-118411501D01*
X124765101Y-118500471D01*
X124617142Y-118561758D01*
X124460075Y-118593000D01*
X124299925Y-118593000D01*
X124142858Y-118561758D01*
X123994899Y-118500471D01*
X123861745Y-118411501D01*
X123748499Y-118298255D01*
X123659529Y-118165101D01*
X123598242Y-118017142D01*
X123567000Y-117860075D01*
X123567000Y-117699925D01*
X123598242Y-117542858D01*
X123659529Y-117394899D01*
X123748499Y-117261745D01*
X123861745Y-117148499D01*
X123994899Y-117059529D01*
X124142858Y-116998242D01*
X124299925Y-116967000D01*
X124460075Y-116967000D01*
X124617142Y-116998242D01*
G37*
G36*
X139857142Y-114458242D02*
G01*
X140005101Y-114519529D01*
X140138255Y-114608499D01*
X140251501Y-114721745D01*
X140340471Y-114854899D01*
X140401758Y-115002858D01*
X140433000Y-115159925D01*
X140433000Y-115320075D01*
X140401758Y-115477142D01*
X140340471Y-115625101D01*
X140251501Y-115758255D01*
X140138255Y-115871501D01*
X140005101Y-115960471D01*
X139857142Y-116021758D01*
X139700075Y-116053000D01*
X139539925Y-116053000D01*
X139382858Y-116021758D01*
X139234899Y-115960471D01*
X139101745Y-115871501D01*
X138988499Y-115758255D01*
X138899529Y-115625101D01*
X138838242Y-115477142D01*
X138807000Y-115320075D01*
X138807000Y-115159925D01*
X138838242Y-115002858D01*
X138899529Y-114854899D01*
X138988499Y-114721745D01*
X139101745Y-114608499D01*
X139234899Y-114519529D01*
X139382858Y-114458242D01*
X139539925Y-114427000D01*
X139700075Y-114427000D01*
X139857142Y-114458242D01*
G37*
G36*
X124617142Y-114458242D02*
G01*
X124765101Y-114519529D01*
X124898255Y-114608499D01*
X125011501Y-114721745D01*
X125100471Y-114854899D01*
X125161758Y-115002858D01*
X125193000Y-115159925D01*
X125193000Y-115320075D01*
X125161758Y-115477142D01*
X125100471Y-115625101D01*
X125011501Y-115758255D01*
X124898255Y-115871501D01*
X124765101Y-115960471D01*
X124617142Y-116021758D01*
X124460075Y-116053000D01*
X124299925Y-116053000D01*
X124142858Y-116021758D01*
X123994899Y-115960471D01*
X123861745Y-115871501D01*
X123748499Y-115758255D01*
X123659529Y-115625101D01*
X123598242Y-115477142D01*
X123567000Y-115320075D01*
X123567000Y-115159925D01*
X123598242Y-115002858D01*
X123659529Y-114854899D01*
X123748499Y-114721745D01*
X123861745Y-114608499D01*
X123994899Y-114519529D01*
X124142858Y-114458242D01*
X124299925Y-114427000D01*
X124460075Y-114427000D01*
X124617142Y-114458242D01*
G37*
G36*
X176526719Y-111463520D02*
G01*
X176715880Y-111520901D01*
X176715883Y-111520902D01*
X176808333Y-111570318D01*
X176890212Y-111614083D01*
X177043015Y-111739485D01*
X177168417Y-111892288D01*
X177261599Y-112066619D01*
X177318980Y-112255780D01*
X177333500Y-112403206D01*
X177333500Y-112596793D01*
X177318980Y-112744219D01*
X177308103Y-112780075D01*
X177261598Y-112933383D01*
X177259588Y-112937143D01*
X177168417Y-113107712D01*
X177043015Y-113260515D01*
X176890212Y-113385917D01*
X176715881Y-113479099D01*
X176526720Y-113536480D01*
X176330000Y-113555855D01*
X176133281Y-113536480D01*
X175944120Y-113479099D01*
X175769788Y-113385917D01*
X175616985Y-113260515D01*
X175491583Y-113107712D01*
X175398401Y-112933381D01*
X175341020Y-112744220D01*
X175326500Y-112596794D01*
X175326500Y-112403207D01*
X175341020Y-112255781D01*
X175398401Y-112066620D01*
X175398402Y-112066617D01*
X175456716Y-111957520D01*
X175491583Y-111892288D01*
X175616985Y-111739485D01*
X175769788Y-111614083D01*
X175944119Y-111520901D01*
X176133280Y-111463520D01*
X176330000Y-111444145D01*
X176526719Y-111463520D01*
G37*
G36*
X173986719Y-111463520D02*
G01*
X174175880Y-111520901D01*
X174175883Y-111520902D01*
X174268333Y-111570318D01*
X174350212Y-111614083D01*
X174503015Y-111739485D01*
X174628417Y-111892288D01*
X174721599Y-112066619D01*
X174778980Y-112255780D01*
X174793500Y-112403206D01*
X174793500Y-112596793D01*
X174778980Y-112744219D01*
X174768103Y-112780075D01*
X174721598Y-112933383D01*
X174719588Y-112937143D01*
X174628417Y-113107712D01*
X174503015Y-113260515D01*
X174350212Y-113385917D01*
X174175881Y-113479099D01*
X173986720Y-113536480D01*
X173790000Y-113555855D01*
X173593281Y-113536480D01*
X173404120Y-113479099D01*
X173229788Y-113385917D01*
X173076985Y-113260515D01*
X172951583Y-113107712D01*
X172858401Y-112933381D01*
X172801020Y-112744220D01*
X172786500Y-112596794D01*
X172786500Y-112403207D01*
X172801020Y-112255781D01*
X172858401Y-112066620D01*
X172858402Y-112066617D01*
X172916716Y-111957520D01*
X172951583Y-111892288D01*
X173076985Y-111739485D01*
X173229788Y-111614083D01*
X173404119Y-111520901D01*
X173593280Y-111463520D01*
X173790000Y-111444145D01*
X173986719Y-111463520D01*
G37*
G36*
X172253500Y-113551000D02*
G01*
X170246500Y-113551000D01*
X170246500Y-111449000D01*
X172253500Y-111449000D01*
X172253500Y-113551000D01*
G37*
G36*
X124617142Y-111918242D02*
G01*
X124765101Y-111979529D01*
X124898255Y-112068499D01*
X125011501Y-112181745D01*
X125100471Y-112314899D01*
X125161758Y-112462858D01*
X125193000Y-112619925D01*
X125193000Y-112780075D01*
X125161758Y-112937142D01*
X125100471Y-113085101D01*
X125011501Y-113218255D01*
X124898255Y-113331501D01*
X124765101Y-113420471D01*
X124617142Y-113481758D01*
X124460075Y-113513000D01*
X124299925Y-113513000D01*
X124142858Y-113481758D01*
X123994899Y-113420471D01*
X123861745Y-113331501D01*
X123748499Y-113218255D01*
X123659529Y-113085101D01*
X123598242Y-112937142D01*
X123567000Y-112780075D01*
X123567000Y-112619925D01*
X123598242Y-112462858D01*
X123659529Y-112314899D01*
X123748499Y-112181745D01*
X123861745Y-112068499D01*
X123994899Y-111979529D01*
X124142858Y-111918242D01*
X124299925Y-111887000D01*
X124460075Y-111887000D01*
X124617142Y-111918242D01*
G37*
G36*
X139857142Y-111918242D02*
G01*
X140005101Y-111979529D01*
X140138255Y-112068499D01*
X140251501Y-112181745D01*
X140340471Y-112314899D01*
X140401758Y-112462858D01*
X140433000Y-112619925D01*
X140433000Y-112780075D01*
X140401758Y-112937142D01*
X140340471Y-113085101D01*
X140251501Y-113218255D01*
X140138255Y-113331501D01*
X140005101Y-113420471D01*
X139857142Y-113481758D01*
X139700075Y-113513000D01*
X139539925Y-113513000D01*
X139382858Y-113481758D01*
X139234899Y-113420471D01*
X139101745Y-113331501D01*
X138988499Y-113218255D01*
X138899529Y-113085101D01*
X138838242Y-112937142D01*
X138807000Y-112780075D01*
X138807000Y-112619925D01*
X138838242Y-112462858D01*
X138899529Y-112314899D01*
X138988499Y-112181745D01*
X139101745Y-112068499D01*
X139234899Y-111979529D01*
X139382858Y-111918242D01*
X139539925Y-111887000D01*
X139700075Y-111887000D01*
X139857142Y-111918242D01*
G37*
G36*
X162498228Y-111681703D02*
G01*
X162653100Y-111745853D01*
X162792481Y-111838985D01*
X162911015Y-111957519D01*
X163004147Y-112096900D01*
X163068297Y-112251772D01*
X163101000Y-112416184D01*
X163101000Y-112583816D01*
X163068297Y-112748228D01*
X163004147Y-112903100D01*
X162911015Y-113042481D01*
X162792481Y-113161015D01*
X162653100Y-113254147D01*
X162498228Y-113318297D01*
X162333816Y-113351000D01*
X162166184Y-113351000D01*
X162001772Y-113318297D01*
X161846900Y-113254147D01*
X161707519Y-113161015D01*
X161588985Y-113042481D01*
X161495853Y-112903100D01*
X161431703Y-112748228D01*
X161399000Y-112583816D01*
X161399000Y-112416184D01*
X161431703Y-112251772D01*
X161495853Y-112096900D01*
X161588985Y-111957519D01*
X161707519Y-111838985D01*
X161846900Y-111745853D01*
X162001772Y-111681703D01*
X162166184Y-111649000D01*
X162333816Y-111649000D01*
X162498228Y-111681703D01*
G37*
G36*
X139857142Y-109378242D02*
G01*
X140005101Y-109439529D01*
X140138255Y-109528499D01*
X140251501Y-109641745D01*
X140340471Y-109774899D01*
X140401758Y-109922858D01*
X140433000Y-110079925D01*
X140433000Y-110240075D01*
X140401758Y-110397142D01*
X140340471Y-110545101D01*
X140251501Y-110678255D01*
X140138255Y-110791501D01*
X140005101Y-110880471D01*
X139857142Y-110941758D01*
X139700075Y-110973000D01*
X139539925Y-110973000D01*
X139382858Y-110941758D01*
X139234899Y-110880471D01*
X139101745Y-110791501D01*
X138988499Y-110678255D01*
X138899529Y-110545101D01*
X138838242Y-110397142D01*
X138807000Y-110240075D01*
X138807000Y-110079925D01*
X138838242Y-109922858D01*
X138899529Y-109774899D01*
X138988499Y-109641745D01*
X139101745Y-109528499D01*
X139234899Y-109439529D01*
X139382858Y-109378242D01*
X139539925Y-109347000D01*
X139700075Y-109347000D01*
X139857142Y-109378242D01*
G37*
G36*
X124617142Y-109378242D02*
G01*
X124765101Y-109439529D01*
X124898255Y-109528499D01*
X125011501Y-109641745D01*
X125100471Y-109774899D01*
X125161758Y-109922858D01*
X125193000Y-110079925D01*
X125193000Y-110240075D01*
X125161758Y-110397142D01*
X125100471Y-110545101D01*
X125011501Y-110678255D01*
X124898255Y-110791501D01*
X124765101Y-110880471D01*
X124617142Y-110941758D01*
X124460075Y-110973000D01*
X124299925Y-110973000D01*
X124142858Y-110941758D01*
X123994899Y-110880471D01*
X123861745Y-110791501D01*
X123748499Y-110678255D01*
X123659529Y-110545101D01*
X123598242Y-110397142D01*
X123567000Y-110240075D01*
X123567000Y-110079925D01*
X123598242Y-109922858D01*
X123659529Y-109774899D01*
X123748499Y-109641745D01*
X123861745Y-109528499D01*
X123994899Y-109439529D01*
X124142858Y-109378242D01*
X124299925Y-109347000D01*
X124460075Y-109347000D01*
X124617142Y-109378242D01*
G37*
G36*
X114851000Y-109851000D02*
G01*
X113149000Y-109851000D01*
X113149000Y-108149000D01*
X114851000Y-108149000D01*
X114851000Y-109851000D01*
G37*
G36*
X116748228Y-108181703D02*
G01*
X116903100Y-108245853D01*
X117042481Y-108338985D01*
X117161015Y-108457519D01*
X117254147Y-108596900D01*
X117318297Y-108751772D01*
X117351000Y-108916184D01*
X117351000Y-109083816D01*
X117318297Y-109248228D01*
X117254147Y-109403100D01*
X117161015Y-109542481D01*
X117042481Y-109661015D01*
X116903100Y-109754147D01*
X116748228Y-109818297D01*
X116583816Y-109851000D01*
X116416184Y-109851000D01*
X116251772Y-109818297D01*
X116096900Y-109754147D01*
X115957519Y-109661015D01*
X115838985Y-109542481D01*
X115745853Y-109403100D01*
X115681703Y-109248228D01*
X115649000Y-109083816D01*
X115649000Y-108916184D01*
X115681703Y-108751772D01*
X115745853Y-108596900D01*
X115838985Y-108457519D01*
X115957519Y-108338985D01*
X116096900Y-108245853D01*
X116251772Y-108181703D01*
X116416184Y-108149000D01*
X116583816Y-108149000D01*
X116748228Y-108181703D01*
G37*
G36*
X124617142Y-106838242D02*
G01*
X124765101Y-106899529D01*
X124898255Y-106988499D01*
X125011501Y-107101745D01*
X125100471Y-107234899D01*
X125161758Y-107382858D01*
X125193000Y-107539925D01*
X125193000Y-107700075D01*
X125161758Y-107857142D01*
X125100471Y-108005101D01*
X125011501Y-108138255D01*
X124898255Y-108251501D01*
X124765101Y-108340471D01*
X124617142Y-108401758D01*
X124460075Y-108433000D01*
X124299925Y-108433000D01*
X124142858Y-108401758D01*
X123994899Y-108340471D01*
X123861745Y-108251501D01*
X123748499Y-108138255D01*
X123659529Y-108005101D01*
X123598242Y-107857142D01*
X123567000Y-107700075D01*
X123567000Y-107539925D01*
X123598242Y-107382858D01*
X123659529Y-107234899D01*
X123748499Y-107101745D01*
X123861745Y-106988499D01*
X123994899Y-106899529D01*
X124142858Y-106838242D01*
X124299925Y-106807000D01*
X124460075Y-106807000D01*
X124617142Y-106838242D01*
G37*
G36*
X139857142Y-106838242D02*
G01*
X140005101Y-106899529D01*
X140138255Y-106988499D01*
X140251501Y-107101745D01*
X140340471Y-107234899D01*
X140401758Y-107382858D01*
X140433000Y-107539925D01*
X140433000Y-107700075D01*
X140401758Y-107857142D01*
X140340471Y-108005101D01*
X140251501Y-108138255D01*
X140138255Y-108251501D01*
X140005101Y-108340471D01*
X139857142Y-108401758D01*
X139700075Y-108433000D01*
X139539925Y-108433000D01*
X139382858Y-108401758D01*
X139234899Y-108340471D01*
X139101745Y-108251501D01*
X138988499Y-108138255D01*
X138899529Y-108005101D01*
X138838242Y-107857142D01*
X138807000Y-107700075D01*
X138807000Y-107539925D01*
X138838242Y-107382858D01*
X138899529Y-107234899D01*
X138988499Y-107101745D01*
X139101745Y-106988499D01*
X139234899Y-106899529D01*
X139382858Y-106838242D01*
X139539925Y-106807000D01*
X139700075Y-106807000D01*
X139857142Y-106838242D01*
G37*
G36*
X175118228Y-104681703D02*
G01*
X175273100Y-104745853D01*
X175412481Y-104838985D01*
X175531015Y-104957519D01*
X175624147Y-105096900D01*
X175688297Y-105251772D01*
X175721000Y-105416184D01*
X175721000Y-105583816D01*
X175688297Y-105748228D01*
X175624147Y-105903100D01*
X175531015Y-106042481D01*
X175412481Y-106161015D01*
X175273100Y-106254147D01*
X175118228Y-106318297D01*
X174953816Y-106351000D01*
X174786184Y-106351000D01*
X174621772Y-106318297D01*
X174466900Y-106254147D01*
X174327519Y-106161015D01*
X174208985Y-106042481D01*
X174115853Y-105903100D01*
X174051703Y-105748228D01*
X174019000Y-105583816D01*
X174019000Y-105416184D01*
X174051703Y-105251772D01*
X174115853Y-105096900D01*
X174208985Y-104957519D01*
X174327519Y-104838985D01*
X174466900Y-104745853D01*
X174621772Y-104681703D01*
X174786184Y-104649000D01*
X174953816Y-104649000D01*
X175118228Y-104681703D01*
G37*
G36*
X167498228Y-104681703D02*
G01*
X167653100Y-104745853D01*
X167792481Y-104838985D01*
X167911015Y-104957519D01*
X168004147Y-105096900D01*
X168068297Y-105251772D01*
X168101000Y-105416184D01*
X168101000Y-105583816D01*
X168068297Y-105748228D01*
X168004147Y-105903100D01*
X167911015Y-106042481D01*
X167792481Y-106161015D01*
X167653100Y-106254147D01*
X167498228Y-106318297D01*
X167333816Y-106351000D01*
X167166184Y-106351000D01*
X167001772Y-106318297D01*
X166846900Y-106254147D01*
X166707519Y-106161015D01*
X166588985Y-106042481D01*
X166495853Y-105903100D01*
X166431703Y-105748228D01*
X166399000Y-105583816D01*
X166399000Y-105416184D01*
X166431703Y-105251772D01*
X166495853Y-105096900D01*
X166588985Y-104957519D01*
X166707519Y-104838985D01*
X166846900Y-104745853D01*
X167001772Y-104681703D01*
X167166184Y-104649000D01*
X167333816Y-104649000D01*
X167498228Y-104681703D01*
G37*
G36*
X124617142Y-104298242D02*
G01*
X124765101Y-104359529D01*
X124898255Y-104448499D01*
X125011501Y-104561745D01*
X125100471Y-104694899D01*
X125161758Y-104842858D01*
X125193000Y-104999925D01*
X125193000Y-105160075D01*
X125161758Y-105317142D01*
X125100471Y-105465101D01*
X125011501Y-105598255D01*
X124898255Y-105711501D01*
X124765101Y-105800471D01*
X124617142Y-105861758D01*
X124460075Y-105893000D01*
X124299925Y-105893000D01*
X124142858Y-105861758D01*
X123994899Y-105800471D01*
X123861745Y-105711501D01*
X123748499Y-105598255D01*
X123659529Y-105465101D01*
X123598242Y-105317142D01*
X123567000Y-105160075D01*
X123567000Y-104999925D01*
X123598242Y-104842858D01*
X123659529Y-104694899D01*
X123748499Y-104561745D01*
X123861745Y-104448499D01*
X123994899Y-104359529D01*
X124142858Y-104298242D01*
X124299925Y-104267000D01*
X124460075Y-104267000D01*
X124617142Y-104298242D01*
G37*
G36*
X139857142Y-104298242D02*
G01*
X140005101Y-104359529D01*
X140138255Y-104448499D01*
X140251501Y-104561745D01*
X140340471Y-104694899D01*
X140401758Y-104842858D01*
X140433000Y-104999925D01*
X140433000Y-105160075D01*
X140401758Y-105317142D01*
X140340471Y-105465101D01*
X140251501Y-105598255D01*
X140138255Y-105711501D01*
X140005101Y-105800471D01*
X139857142Y-105861758D01*
X139700075Y-105893000D01*
X139539925Y-105893000D01*
X139382858Y-105861758D01*
X139234899Y-105800471D01*
X139101745Y-105711501D01*
X138988499Y-105598255D01*
X138899529Y-105465101D01*
X138838242Y-105317142D01*
X138807000Y-105160075D01*
X138807000Y-104999925D01*
X138838242Y-104842858D01*
X138899529Y-104694899D01*
X138988499Y-104561745D01*
X139101745Y-104448499D01*
X139234899Y-104359529D01*
X139382858Y-104298242D01*
X139539925Y-104267000D01*
X139700075Y-104267000D01*
X139857142Y-104298242D01*
G37*
G36*
X162498228Y-104061703D02*
G01*
X162653100Y-104125853D01*
X162792481Y-104218985D01*
X162911015Y-104337519D01*
X163004147Y-104476900D01*
X163068297Y-104631772D01*
X163101000Y-104796184D01*
X163101000Y-104963816D01*
X163068297Y-105128228D01*
X163004147Y-105283100D01*
X162911015Y-105422481D01*
X162792481Y-105541015D01*
X162653100Y-105634147D01*
X162498228Y-105698297D01*
X162333816Y-105731000D01*
X162166184Y-105731000D01*
X162001772Y-105698297D01*
X161846900Y-105634147D01*
X161707519Y-105541015D01*
X161588985Y-105422481D01*
X161495853Y-105283100D01*
X161431703Y-105128228D01*
X161399000Y-104963816D01*
X161399000Y-104796184D01*
X161431703Y-104631772D01*
X161495853Y-104476900D01*
X161588985Y-104337519D01*
X161707519Y-104218985D01*
X161846900Y-104125853D01*
X162001772Y-104061703D01*
X162166184Y-104029000D01*
X162333816Y-104029000D01*
X162498228Y-104061703D01*
G37*
G36*
X139857142Y-101758242D02*
G01*
X140005101Y-101819529D01*
X140138255Y-101908499D01*
X140251501Y-102021745D01*
X140340471Y-102154899D01*
X140401758Y-102302858D01*
X140433000Y-102459925D01*
X140433000Y-102620075D01*
X140401758Y-102777142D01*
X140340471Y-102925101D01*
X140251501Y-103058255D01*
X140138255Y-103171501D01*
X140005101Y-103260471D01*
X139857142Y-103321758D01*
X139700075Y-103353000D01*
X139539925Y-103353000D01*
X139382858Y-103321758D01*
X139234899Y-103260471D01*
X139101745Y-103171501D01*
X138988499Y-103058255D01*
X138899529Y-102925101D01*
X138838242Y-102777142D01*
X138807000Y-102620075D01*
X138807000Y-102459925D01*
X138838242Y-102302858D01*
X138899529Y-102154899D01*
X138988499Y-102021745D01*
X139101745Y-101908499D01*
X139234899Y-101819529D01*
X139382858Y-101758242D01*
X139539925Y-101727000D01*
X139700075Y-101727000D01*
X139857142Y-101758242D01*
G37*
G36*
X124617142Y-101758242D02*
G01*
X124765101Y-101819529D01*
X124898255Y-101908499D01*
X125011501Y-102021745D01*
X125100471Y-102154899D01*
X125161758Y-102302858D01*
X125193000Y-102459925D01*
X125193000Y-102620075D01*
X125161758Y-102777142D01*
X125100471Y-102925101D01*
X125011501Y-103058255D01*
X124898255Y-103171501D01*
X124765101Y-103260471D01*
X124617142Y-103321758D01*
X124460075Y-103353000D01*
X124299925Y-103353000D01*
X124142858Y-103321758D01*
X123994899Y-103260471D01*
X123861745Y-103171501D01*
X123748499Y-103058255D01*
X123659529Y-102925101D01*
X123598242Y-102777142D01*
X123567000Y-102620075D01*
X123567000Y-102459925D01*
X123598242Y-102302858D01*
X123659529Y-102154899D01*
X123748499Y-102021745D01*
X123861745Y-101908499D01*
X123994899Y-101819529D01*
X124142858Y-101758242D01*
X124299925Y-101727000D01*
X124460075Y-101727000D01*
X124617142Y-101758242D01*
G37*
G36*
X147498228Y-100681703D02*
G01*
X147653100Y-100745853D01*
X147792481Y-100838985D01*
X147911015Y-100957519D01*
X148004147Y-101096900D01*
X148068297Y-101251772D01*
X148101000Y-101416184D01*
X148101000Y-101583816D01*
X148068297Y-101748228D01*
X148004147Y-101903100D01*
X147911015Y-102042481D01*
X147792481Y-102161015D01*
X147653100Y-102254147D01*
X147498228Y-102318297D01*
X147333816Y-102351000D01*
X147166184Y-102351000D01*
X147001772Y-102318297D01*
X146846900Y-102254147D01*
X146707519Y-102161015D01*
X146588985Y-102042481D01*
X146495853Y-101903100D01*
X146431703Y-101748228D01*
X146399000Y-101583816D01*
X146399000Y-101416184D01*
X146431703Y-101251772D01*
X146495853Y-101096900D01*
X146588985Y-100957519D01*
X146707519Y-100838985D01*
X146846900Y-100745853D01*
X147001772Y-100681703D01*
X147166184Y-100649000D01*
X147333816Y-100649000D01*
X147498228Y-100681703D01*
G37*
G36*
X155118228Y-100681703D02*
G01*
X155273100Y-100745853D01*
X155412481Y-100838985D01*
X155531015Y-100957519D01*
X155624147Y-101096900D01*
X155688297Y-101251772D01*
X155721000Y-101416184D01*
X155721000Y-101583816D01*
X155688297Y-101748228D01*
X155624147Y-101903100D01*
X155531015Y-102042481D01*
X155412481Y-102161015D01*
X155273100Y-102254147D01*
X155118228Y-102318297D01*
X154953816Y-102351000D01*
X154786184Y-102351000D01*
X154621772Y-102318297D01*
X154466900Y-102254147D01*
X154327519Y-102161015D01*
X154208985Y-102042481D01*
X154115853Y-101903100D01*
X154051703Y-101748228D01*
X154019000Y-101583816D01*
X154019000Y-101416184D01*
X154051703Y-101251772D01*
X154115853Y-101096900D01*
X154208985Y-100957519D01*
X154327519Y-100838985D01*
X154466900Y-100745853D01*
X154621772Y-100681703D01*
X154786184Y-100649000D01*
X154953816Y-100649000D01*
X155118228Y-100681703D01*
G37*
G36*
X173348228Y-99681703D02*
G01*
X173503100Y-99745853D01*
X173642481Y-99838985D01*
X173761015Y-99957519D01*
X173854147Y-100096900D01*
X173918297Y-100251772D01*
X173951000Y-100416184D01*
X173951000Y-100583816D01*
X173918297Y-100748228D01*
X173854147Y-100903100D01*
X173761015Y-101042481D01*
X173642481Y-101161015D01*
X173503100Y-101254147D01*
X173348228Y-101318297D01*
X173183816Y-101351000D01*
X173016184Y-101351000D01*
X172851772Y-101318297D01*
X172696900Y-101254147D01*
X172557519Y-101161015D01*
X172438985Y-101042481D01*
X172345853Y-100903100D01*
X172281703Y-100748228D01*
X172249000Y-100583816D01*
X172249000Y-100416184D01*
X172281703Y-100251772D01*
X172345853Y-100096900D01*
X172438985Y-99957519D01*
X172557519Y-99838985D01*
X172696900Y-99745853D01*
X172851772Y-99681703D01*
X173016184Y-99649000D01*
X173183816Y-99649000D01*
X173348228Y-99681703D01*
G37*
G36*
X168498228Y-99681703D02*
G01*
X168653100Y-99745853D01*
X168792481Y-99838985D01*
X168911015Y-99957519D01*
X169004147Y-100096900D01*
X169068297Y-100251772D01*
X169101000Y-100416184D01*
X169101000Y-100583816D01*
X169068297Y-100748228D01*
X169004147Y-100903100D01*
X168911015Y-101042481D01*
X168792481Y-101161015D01*
X168653100Y-101254147D01*
X168498228Y-101318297D01*
X168333816Y-101351000D01*
X168166184Y-101351000D01*
X168001772Y-101318297D01*
X167846900Y-101254147D01*
X167707519Y-101161015D01*
X167588985Y-101042481D01*
X167495853Y-100903100D01*
X167431703Y-100748228D01*
X167399000Y-100583816D01*
X167399000Y-100416184D01*
X167431703Y-100251772D01*
X167495853Y-100096900D01*
X167588985Y-99957519D01*
X167707519Y-99838985D01*
X167846900Y-99745853D01*
X168001772Y-99681703D01*
X168166184Y-99649000D01*
X168333816Y-99649000D01*
X168498228Y-99681703D01*
G37*
G36*
X139857142Y-99218242D02*
G01*
X140005101Y-99279529D01*
X140138255Y-99368499D01*
X140251501Y-99481745D01*
X140340471Y-99614899D01*
X140401758Y-99762858D01*
X140433000Y-99919925D01*
X140433000Y-100080075D01*
X140401758Y-100237142D01*
X140340471Y-100385101D01*
X140251501Y-100518255D01*
X140138255Y-100631501D01*
X140005101Y-100720471D01*
X139857142Y-100781758D01*
X139700075Y-100813000D01*
X139539925Y-100813000D01*
X139382858Y-100781758D01*
X139234899Y-100720471D01*
X139101745Y-100631501D01*
X138988499Y-100518255D01*
X138899529Y-100385101D01*
X138838242Y-100237142D01*
X138807000Y-100080075D01*
X138807000Y-99919925D01*
X138838242Y-99762858D01*
X138899529Y-99614899D01*
X138988499Y-99481745D01*
X139101745Y-99368499D01*
X139234899Y-99279529D01*
X139382858Y-99218242D01*
X139539925Y-99187000D01*
X139700075Y-99187000D01*
X139857142Y-99218242D01*
G37*
G36*
X124617142Y-99218242D02*
G01*
X124765101Y-99279529D01*
X124898255Y-99368499D01*
X125011501Y-99481745D01*
X125100471Y-99614899D01*
X125161758Y-99762858D01*
X125193000Y-99919925D01*
X125193000Y-100080075D01*
X125161758Y-100237142D01*
X125100471Y-100385101D01*
X125011501Y-100518255D01*
X124898255Y-100631501D01*
X124765101Y-100720471D01*
X124617142Y-100781758D01*
X124460075Y-100813000D01*
X124299925Y-100813000D01*
X124142858Y-100781758D01*
X123994899Y-100720471D01*
X123861745Y-100631501D01*
X123748499Y-100518255D01*
X123659529Y-100385101D01*
X123598242Y-100237142D01*
X123567000Y-100080075D01*
X123567000Y-99919925D01*
X123598242Y-99762858D01*
X123659529Y-99614899D01*
X123748499Y-99481745D01*
X123861745Y-99368499D01*
X123994899Y-99279529D01*
X124142858Y-99218242D01*
X124299925Y-99187000D01*
X124460075Y-99187000D01*
X124617142Y-99218242D01*
G37*
G36*
X160254473Y-98365938D02*
G01*
X160382049Y-98418782D01*
X160496859Y-98495495D01*
X160594505Y-98593141D01*
X160671218Y-98707951D01*
X160724062Y-98835527D01*
X160751000Y-98970956D01*
X160751000Y-99109044D01*
X160724062Y-99244473D01*
X160671218Y-99372049D01*
X160594505Y-99486859D01*
X160496859Y-99584505D01*
X160382049Y-99661218D01*
X160254473Y-99714062D01*
X160119044Y-99741000D01*
X159980956Y-99741000D01*
X159845527Y-99714062D01*
X159717951Y-99661218D01*
X159603141Y-99584505D01*
X159505495Y-99486859D01*
X159428782Y-99372049D01*
X159375938Y-99244473D01*
X159349000Y-99109044D01*
X159349000Y-98970956D01*
X159375938Y-98835527D01*
X159428782Y-98707951D01*
X159505495Y-98593141D01*
X159603141Y-98495495D01*
X159717951Y-98418782D01*
X159845527Y-98365938D01*
X159980956Y-98339000D01*
X160119044Y-98339000D01*
X160254473Y-98365938D01*
G37*
G36*
X161724473Y-97095938D02*
G01*
X161852049Y-97148782D01*
X161966859Y-97225495D01*
X162064505Y-97323141D01*
X162141218Y-97437951D01*
X162194062Y-97565527D01*
X162221000Y-97700956D01*
X162221000Y-97839044D01*
X162194062Y-97974473D01*
X162141218Y-98102049D01*
X162064505Y-98216859D01*
X161966859Y-98314505D01*
X161852049Y-98391218D01*
X161724473Y-98444062D01*
X161589044Y-98471000D01*
X161450956Y-98471000D01*
X161315527Y-98444062D01*
X161187951Y-98391218D01*
X161073141Y-98314505D01*
X160975495Y-98216859D01*
X160898782Y-98102049D01*
X160845938Y-97974473D01*
X160819000Y-97839044D01*
X160819000Y-97700956D01*
X160845938Y-97565527D01*
X160898782Y-97437951D01*
X160975495Y-97323141D01*
X161073141Y-97225495D01*
X161187951Y-97148782D01*
X161315527Y-97095938D01*
X161450956Y-97069000D01*
X161589044Y-97069000D01*
X161724473Y-97095938D01*
G37*
G36*
X124617142Y-96678242D02*
G01*
X124765101Y-96739529D01*
X124898255Y-96828499D01*
X125011501Y-96941745D01*
X125100471Y-97074899D01*
X125161758Y-97222858D01*
X125193000Y-97379925D01*
X125193000Y-97540075D01*
X125161758Y-97697142D01*
X125100471Y-97845101D01*
X125011501Y-97978255D01*
X124898255Y-98091501D01*
X124765101Y-98180471D01*
X124617142Y-98241758D01*
X124460075Y-98273000D01*
X124299925Y-98273000D01*
X124142858Y-98241758D01*
X123994899Y-98180471D01*
X123861745Y-98091501D01*
X123748499Y-97978255D01*
X123659529Y-97845101D01*
X123598242Y-97697142D01*
X123567000Y-97540075D01*
X123567000Y-97379925D01*
X123598242Y-97222858D01*
X123659529Y-97074899D01*
X123748499Y-96941745D01*
X123861745Y-96828499D01*
X123994899Y-96739529D01*
X124142858Y-96678242D01*
X124299925Y-96647000D01*
X124460075Y-96647000D01*
X124617142Y-96678242D01*
G37*
G36*
X139857142Y-96678242D02*
G01*
X140005101Y-96739529D01*
X140138255Y-96828499D01*
X140251501Y-96941745D01*
X140340471Y-97074899D01*
X140401758Y-97222858D01*
X140433000Y-97379925D01*
X140433000Y-97540075D01*
X140401758Y-97697142D01*
X140340471Y-97845101D01*
X140251501Y-97978255D01*
X140138255Y-98091501D01*
X140005101Y-98180471D01*
X139857142Y-98241758D01*
X139700075Y-98273000D01*
X139539925Y-98273000D01*
X139382858Y-98241758D01*
X139234899Y-98180471D01*
X139101745Y-98091501D01*
X138988499Y-97978255D01*
X138899529Y-97845101D01*
X138838242Y-97697142D01*
X138807000Y-97540075D01*
X138807000Y-97379925D01*
X138838242Y-97222858D01*
X138899529Y-97074899D01*
X138988499Y-96941745D01*
X139101745Y-96828499D01*
X139234899Y-96739529D01*
X139382858Y-96678242D01*
X139539925Y-96647000D01*
X139700075Y-96647000D01*
X139857142Y-96678242D01*
G37*
G36*
X160551000Y-97201000D02*
G01*
X159149000Y-97201000D01*
X159149000Y-95799000D01*
X160551000Y-95799000D01*
X160551000Y-97201000D01*
G37*
G36*
X139857142Y-94138242D02*
G01*
X140005101Y-94199529D01*
X140138255Y-94288499D01*
X140251501Y-94401745D01*
X140340471Y-94534899D01*
X140401758Y-94682858D01*
X140433000Y-94839925D01*
X140433000Y-95000075D01*
X140401758Y-95157142D01*
X140340471Y-95305101D01*
X140251501Y-95438255D01*
X140138255Y-95551501D01*
X140005101Y-95640471D01*
X139857142Y-95701758D01*
X139700075Y-95733000D01*
X139539925Y-95733000D01*
X139382858Y-95701758D01*
X139234899Y-95640471D01*
X139101745Y-95551501D01*
X138988499Y-95438255D01*
X138899529Y-95305101D01*
X138838242Y-95157142D01*
X138807000Y-95000075D01*
X138807000Y-94839925D01*
X138838242Y-94682858D01*
X138899529Y-94534899D01*
X138988499Y-94401745D01*
X139101745Y-94288499D01*
X139234899Y-94199529D01*
X139382858Y-94138242D01*
X139539925Y-94107000D01*
X139700075Y-94107000D01*
X139857142Y-94138242D01*
G37*
G36*
X124617142Y-94138242D02*
G01*
X124765101Y-94199529D01*
X124898255Y-94288499D01*
X125011501Y-94401745D01*
X125100471Y-94534899D01*
X125161758Y-94682858D01*
X125193000Y-94839925D01*
X125193000Y-95000075D01*
X125161758Y-95157142D01*
X125100471Y-95305101D01*
X125011501Y-95438255D01*
X124898255Y-95551501D01*
X124765101Y-95640471D01*
X124617142Y-95701758D01*
X124460075Y-95733000D01*
X124299925Y-95733000D01*
X124142858Y-95701758D01*
X123994899Y-95640471D01*
X123861745Y-95551501D01*
X123748499Y-95438255D01*
X123659529Y-95305101D01*
X123598242Y-95157142D01*
X123567000Y-95000075D01*
X123567000Y-94839925D01*
X123598242Y-94682858D01*
X123659529Y-94534899D01*
X123748499Y-94401745D01*
X123861745Y-94288499D01*
X123994899Y-94199529D01*
X124142858Y-94138242D01*
X124299925Y-94107000D01*
X124460075Y-94107000D01*
X124617142Y-94138242D01*
G37*
G36*
X114998228Y-93681703D02*
G01*
X115153100Y-93745853D01*
X115292481Y-93838985D01*
X115411015Y-93957519D01*
X115504147Y-94096900D01*
X115568297Y-94251772D01*
X115601000Y-94416184D01*
X115601000Y-94583816D01*
X115568297Y-94748228D01*
X115504147Y-94903100D01*
X115411015Y-95042481D01*
X115292481Y-95161015D01*
X115153100Y-95254147D01*
X114998228Y-95318297D01*
X114833816Y-95351000D01*
X114666184Y-95351000D01*
X114501772Y-95318297D01*
X114346900Y-95254147D01*
X114207519Y-95161015D01*
X114088985Y-95042481D01*
X113995853Y-94903100D01*
X113931703Y-94748228D01*
X113899000Y-94583816D01*
X113899000Y-94416184D01*
X113931703Y-94251772D01*
X113995853Y-94096900D01*
X114088985Y-93957519D01*
X114207519Y-93838985D01*
X114346900Y-93745853D01*
X114501772Y-93681703D01*
X114666184Y-93649000D01*
X114833816Y-93649000D01*
X114998228Y-93681703D01*
G37*
G36*
X118101000Y-95351000D02*
G01*
X116399000Y-95351000D01*
X116399000Y-93649000D01*
X118101000Y-93649000D01*
X118101000Y-95351000D01*
G37*
G36*
X168498228Y-92061703D02*
G01*
X168653100Y-92125853D01*
X168792481Y-92218985D01*
X168911015Y-92337519D01*
X169004147Y-92476900D01*
X169068297Y-92631772D01*
X169101000Y-92796184D01*
X169101000Y-92963816D01*
X169068297Y-93128228D01*
X169004147Y-93283100D01*
X168911015Y-93422481D01*
X168792481Y-93541015D01*
X168653100Y-93634147D01*
X168498228Y-93698297D01*
X168333816Y-93731000D01*
X168166184Y-93731000D01*
X168001772Y-93698297D01*
X167846900Y-93634147D01*
X167707519Y-93541015D01*
X167588985Y-93422481D01*
X167495853Y-93283100D01*
X167431703Y-93128228D01*
X167399000Y-92963816D01*
X167399000Y-92796184D01*
X167431703Y-92631772D01*
X167495853Y-92476900D01*
X167588985Y-92337519D01*
X167707519Y-92218985D01*
X167846900Y-92125853D01*
X168001772Y-92061703D01*
X168166184Y-92029000D01*
X168333816Y-92029000D01*
X168498228Y-92061703D01*
G37*
G36*
X173348228Y-92061703D02*
G01*
X173503100Y-92125853D01*
X173642481Y-92218985D01*
X173761015Y-92337519D01*
X173854147Y-92476900D01*
X173918297Y-92631772D01*
X173951000Y-92796184D01*
X173951000Y-92963816D01*
X173918297Y-93128228D01*
X173854147Y-93283100D01*
X173761015Y-93422481D01*
X173642481Y-93541015D01*
X173503100Y-93634147D01*
X173348228Y-93698297D01*
X173183816Y-93731000D01*
X173016184Y-93731000D01*
X172851772Y-93698297D01*
X172696900Y-93634147D01*
X172557519Y-93541015D01*
X172438985Y-93422481D01*
X172345853Y-93283100D01*
X172281703Y-93128228D01*
X172249000Y-92963816D01*
X172249000Y-92796184D01*
X172281703Y-92631772D01*
X172345853Y-92476900D01*
X172438985Y-92337519D01*
X172557519Y-92218985D01*
X172696900Y-92125853D01*
X172851772Y-92061703D01*
X173016184Y-92029000D01*
X173183816Y-92029000D01*
X173348228Y-92061703D01*
G37*
G36*
X139857142Y-91598242D02*
G01*
X140005101Y-91659529D01*
X140138255Y-91748499D01*
X140251501Y-91861745D01*
X140340471Y-91994899D01*
X140401758Y-92142858D01*
X140433000Y-92299925D01*
X140433000Y-92460075D01*
X140401758Y-92617142D01*
X140340471Y-92765101D01*
X140251501Y-92898255D01*
X140138255Y-93011501D01*
X140005101Y-93100471D01*
X139857142Y-93161758D01*
X139700075Y-93193000D01*
X139539925Y-93193000D01*
X139382858Y-93161758D01*
X139234899Y-93100471D01*
X139101745Y-93011501D01*
X138988499Y-92898255D01*
X138899529Y-92765101D01*
X138838242Y-92617142D01*
X138807000Y-92460075D01*
X138807000Y-92299925D01*
X138838242Y-92142858D01*
X138899529Y-91994899D01*
X138988499Y-91861745D01*
X139101745Y-91748499D01*
X139234899Y-91659529D01*
X139382858Y-91598242D01*
X139539925Y-91567000D01*
X139700075Y-91567000D01*
X139857142Y-91598242D01*
G37*
G36*
X124617142Y-91598242D02*
G01*
X124765101Y-91659529D01*
X124898255Y-91748499D01*
X125011501Y-91861745D01*
X125100471Y-91994899D01*
X125161758Y-92142858D01*
X125193000Y-92299925D01*
X125193000Y-92460075D01*
X125161758Y-92617142D01*
X125100471Y-92765101D01*
X125011501Y-92898255D01*
X124898255Y-93011501D01*
X124765101Y-93100471D01*
X124617142Y-93161758D01*
X124460075Y-93193000D01*
X124299925Y-93193000D01*
X124142858Y-93161758D01*
X123994899Y-93100471D01*
X123861745Y-93011501D01*
X123748499Y-92898255D01*
X123659529Y-92765101D01*
X123598242Y-92617142D01*
X123567000Y-92460075D01*
X123567000Y-92299925D01*
X123598242Y-92142858D01*
X123659529Y-91994899D01*
X123748499Y-91861745D01*
X123861745Y-91748499D01*
X123994899Y-91659529D01*
X124142858Y-91598242D01*
X124299925Y-91567000D01*
X124460075Y-91567000D01*
X124617142Y-91598242D01*
G37*
G36*
X139857142Y-89058242D02*
G01*
X140005101Y-89119529D01*
X140138255Y-89208499D01*
X140251501Y-89321745D01*
X140340471Y-89454899D01*
X140401758Y-89602858D01*
X140433000Y-89759925D01*
X140433000Y-89920075D01*
X140401758Y-90077142D01*
X140340471Y-90225101D01*
X140251501Y-90358255D01*
X140138255Y-90471501D01*
X140005101Y-90560471D01*
X139857142Y-90621758D01*
X139700075Y-90653000D01*
X139539925Y-90653000D01*
X139382858Y-90621758D01*
X139234899Y-90560471D01*
X139101745Y-90471501D01*
X138988499Y-90358255D01*
X138899529Y-90225101D01*
X138838242Y-90077142D01*
X138807000Y-89920075D01*
X138807000Y-89759925D01*
X138838242Y-89602858D01*
X138899529Y-89454899D01*
X138988499Y-89321745D01*
X139101745Y-89208499D01*
X139234899Y-89119529D01*
X139382858Y-89058242D01*
X139539925Y-89027000D01*
X139700075Y-89027000D01*
X139857142Y-89058242D01*
G37*
G36*
X124617142Y-89058242D02*
G01*
X124765101Y-89119529D01*
X124898255Y-89208499D01*
X125011501Y-89321745D01*
X125100471Y-89454899D01*
X125161758Y-89602858D01*
X125193000Y-89759925D01*
X125193000Y-89920075D01*
X125161758Y-90077142D01*
X125100471Y-90225101D01*
X125011501Y-90358255D01*
X124898255Y-90471501D01*
X124765101Y-90560471D01*
X124617142Y-90621758D01*
X124460075Y-90653000D01*
X124299925Y-90653000D01*
X124142858Y-90621758D01*
X123994899Y-90560471D01*
X123861745Y-90471501D01*
X123748499Y-90358255D01*
X123659529Y-90225101D01*
X123598242Y-90077142D01*
X123567000Y-89920075D01*
X123567000Y-89759925D01*
X123598242Y-89602858D01*
X123659529Y-89454899D01*
X123748499Y-89321745D01*
X123861745Y-89208499D01*
X123994899Y-89119529D01*
X124142858Y-89058242D01*
X124299925Y-89027000D01*
X124460075Y-89027000D01*
X124617142Y-89058242D01*
G37*
G36*
X162878228Y-86681703D02*
G01*
X163033100Y-86745853D01*
X163172481Y-86838985D01*
X163291015Y-86957519D01*
X163384147Y-87096900D01*
X163448297Y-87251772D01*
X163481000Y-87416184D01*
X163481000Y-87583816D01*
X163448297Y-87748228D01*
X163384147Y-87903100D01*
X163291015Y-88042481D01*
X163172481Y-88161015D01*
X163033100Y-88254147D01*
X162878228Y-88318297D01*
X162713816Y-88351000D01*
X162546184Y-88351000D01*
X162381772Y-88318297D01*
X162226900Y-88254147D01*
X162087519Y-88161015D01*
X161968985Y-88042481D01*
X161875853Y-87903100D01*
X161811703Y-87748228D01*
X161779000Y-87583816D01*
X161779000Y-87416184D01*
X161811703Y-87251772D01*
X161875853Y-87096900D01*
X161968985Y-86957519D01*
X162087519Y-86838985D01*
X162226900Y-86745853D01*
X162381772Y-86681703D01*
X162546184Y-86649000D01*
X162713816Y-86649000D01*
X162878228Y-86681703D01*
G37*
G36*
X170498228Y-86681703D02*
G01*
X170653100Y-86745853D01*
X170792481Y-86838985D01*
X170911015Y-86957519D01*
X171004147Y-87096900D01*
X171068297Y-87251772D01*
X171101000Y-87416184D01*
X171101000Y-87583816D01*
X171068297Y-87748228D01*
X171004147Y-87903100D01*
X170911015Y-88042481D01*
X170792481Y-88161015D01*
X170653100Y-88254147D01*
X170498228Y-88318297D01*
X170333816Y-88351000D01*
X170166184Y-88351000D01*
X170001772Y-88318297D01*
X169846900Y-88254147D01*
X169707519Y-88161015D01*
X169588985Y-88042481D01*
X169495853Y-87903100D01*
X169431703Y-87748228D01*
X169399000Y-87583816D01*
X169399000Y-87416184D01*
X169431703Y-87251772D01*
X169495853Y-87096900D01*
X169588985Y-86957519D01*
X169707519Y-86838985D01*
X169846900Y-86745853D01*
X170001772Y-86681703D01*
X170166184Y-86649000D01*
X170333816Y-86649000D01*
X170498228Y-86681703D01*
G37*
G36*
X139857142Y-86518242D02*
G01*
X140005101Y-86579529D01*
X140138255Y-86668499D01*
X140251501Y-86781745D01*
X140340471Y-86914899D01*
X140401758Y-87062858D01*
X140433000Y-87219925D01*
X140433000Y-87380075D01*
X140401758Y-87537142D01*
X140340471Y-87685101D01*
X140251501Y-87818255D01*
X140138255Y-87931501D01*
X140005101Y-88020471D01*
X139857142Y-88081758D01*
X139700075Y-88113000D01*
X139539925Y-88113000D01*
X139382858Y-88081758D01*
X139234899Y-88020471D01*
X139101745Y-87931501D01*
X138988499Y-87818255D01*
X138899529Y-87685101D01*
X138838242Y-87537142D01*
X138807000Y-87380075D01*
X138807000Y-87219925D01*
X138838242Y-87062858D01*
X138899529Y-86914899D01*
X138988499Y-86781745D01*
X139101745Y-86668499D01*
X139234899Y-86579529D01*
X139382858Y-86518242D01*
X139539925Y-86487000D01*
X139700075Y-86487000D01*
X139857142Y-86518242D01*
G37*
G36*
X124617142Y-86518242D02*
G01*
X124765101Y-86579529D01*
X124898255Y-86668499D01*
X125011501Y-86781745D01*
X125100471Y-86914899D01*
X125161758Y-87062858D01*
X125193000Y-87219925D01*
X125193000Y-87380075D01*
X125161758Y-87537142D01*
X125100471Y-87685101D01*
X125011501Y-87818255D01*
X124898255Y-87931501D01*
X124765101Y-88020471D01*
X124617142Y-88081758D01*
X124460075Y-88113000D01*
X124299925Y-88113000D01*
X124142858Y-88081758D01*
X123994899Y-88020471D01*
X123861745Y-87931501D01*
X123748499Y-87818255D01*
X123659529Y-87685101D01*
X123598242Y-87537142D01*
X123567000Y-87380075D01*
X123567000Y-87219925D01*
X123598242Y-87062858D01*
X123659529Y-86914899D01*
X123748499Y-86781745D01*
X123861745Y-86668499D01*
X123994899Y-86579529D01*
X124142858Y-86518242D01*
X124299925Y-86487000D01*
X124460075Y-86487000D01*
X124617142Y-86518242D01*
G37*
G36*
X155101000Y-87351000D02*
G01*
X153399000Y-87351000D01*
X153399000Y-85649000D01*
X155101000Y-85649000D01*
X155101000Y-87351000D01*
G37*
G36*
X151998228Y-85681703D02*
G01*
X152153100Y-85745853D01*
X152292481Y-85838985D01*
X152411015Y-85957519D01*
X152504147Y-86096900D01*
X152568297Y-86251772D01*
X152601000Y-86416184D01*
X152601000Y-86583816D01*
X152568297Y-86748228D01*
X152504147Y-86903100D01*
X152411015Y-87042481D01*
X152292481Y-87161015D01*
X152153100Y-87254147D01*
X151998228Y-87318297D01*
X151833816Y-87351000D01*
X151666184Y-87351000D01*
X151501772Y-87318297D01*
X151346900Y-87254147D01*
X151207519Y-87161015D01*
X151088985Y-87042481D01*
X150995853Y-86903100D01*
X150931703Y-86748228D01*
X150899000Y-86583816D01*
X150899000Y-86416184D01*
X150931703Y-86251772D01*
X150995853Y-86096900D01*
X151088985Y-85957519D01*
X151207519Y-85838985D01*
X151346900Y-85745853D01*
X151501772Y-85681703D01*
X151666184Y-85649000D01*
X151833816Y-85649000D01*
X151998228Y-85681703D01*
G37*
G36*
X145498228Y-85301703D02*
G01*
X145653100Y-85365853D01*
X145792481Y-85458985D01*
X145911015Y-85577519D01*
X146004147Y-85716900D01*
X146068297Y-85871772D01*
X146101000Y-86036184D01*
X146101000Y-86203816D01*
X146068297Y-86368228D01*
X146004147Y-86523100D01*
X145911015Y-86662481D01*
X145792481Y-86781015D01*
X145653100Y-86874147D01*
X145498228Y-86938297D01*
X145333816Y-86971000D01*
X145166184Y-86971000D01*
X145001772Y-86938297D01*
X144846900Y-86874147D01*
X144707519Y-86781015D01*
X144588985Y-86662481D01*
X144495853Y-86523100D01*
X144431703Y-86368228D01*
X144399000Y-86203816D01*
X144399000Y-86036184D01*
X144431703Y-85871772D01*
X144495853Y-85716900D01*
X144588985Y-85577519D01*
X144707519Y-85458985D01*
X144846900Y-85365853D01*
X145001772Y-85301703D01*
X145166184Y-85269000D01*
X145333816Y-85269000D01*
X145498228Y-85301703D01*
G37*
G36*
X124617142Y-83978242D02*
G01*
X124765101Y-84039529D01*
X124898255Y-84128499D01*
X125011501Y-84241745D01*
X125100471Y-84374899D01*
X125161758Y-84522858D01*
X125193000Y-84679925D01*
X125193000Y-84840075D01*
X125161758Y-84997142D01*
X125100471Y-85145101D01*
X125011501Y-85278255D01*
X124898255Y-85391501D01*
X124765101Y-85480471D01*
X124617142Y-85541758D01*
X124460075Y-85573000D01*
X124299925Y-85573000D01*
X124142858Y-85541758D01*
X123994899Y-85480471D01*
X123861745Y-85391501D01*
X123748499Y-85278255D01*
X123659529Y-85145101D01*
X123598242Y-84997142D01*
X123567000Y-84840075D01*
X123567000Y-84679925D01*
X123598242Y-84522858D01*
X123659529Y-84374899D01*
X123748499Y-84241745D01*
X123861745Y-84128499D01*
X123994899Y-84039529D01*
X124142858Y-83978242D01*
X124299925Y-83947000D01*
X124460075Y-83947000D01*
X124617142Y-83978242D01*
G37*
G36*
X139857142Y-83978242D02*
G01*
X140005101Y-84039529D01*
X140138255Y-84128499D01*
X140251501Y-84241745D01*
X140340471Y-84374899D01*
X140401758Y-84522858D01*
X140433000Y-84679925D01*
X140433000Y-84840075D01*
X140401758Y-84997142D01*
X140340471Y-85145101D01*
X140251501Y-85278255D01*
X140138255Y-85391501D01*
X140005101Y-85480471D01*
X139857142Y-85541758D01*
X139700075Y-85573000D01*
X139539925Y-85573000D01*
X139382858Y-85541758D01*
X139234899Y-85480471D01*
X139101745Y-85391501D01*
X138988499Y-85278255D01*
X138899529Y-85145101D01*
X138838242Y-84997142D01*
X138807000Y-84840075D01*
X138807000Y-84679925D01*
X138838242Y-84522858D01*
X138899529Y-84374899D01*
X138988499Y-84241745D01*
X139101745Y-84128499D01*
X139234899Y-84039529D01*
X139382858Y-83978242D01*
X139539925Y-83947000D01*
X139700075Y-83947000D01*
X139857142Y-83978242D01*
G37*
G36*
X117498228Y-83681703D02*
G01*
X117653100Y-83745853D01*
X117792481Y-83838985D01*
X117911015Y-83957519D01*
X118004147Y-84096900D01*
X118068297Y-84251772D01*
X118101000Y-84416184D01*
X118101000Y-84583816D01*
X118068297Y-84748228D01*
X118004147Y-84903100D01*
X117911015Y-85042481D01*
X117792481Y-85161015D01*
X117653100Y-85254147D01*
X117498228Y-85318297D01*
X117333816Y-85351000D01*
X117166184Y-85351000D01*
X117001772Y-85318297D01*
X116846900Y-85254147D01*
X116707519Y-85161015D01*
X116588985Y-85042481D01*
X116495853Y-84903100D01*
X116431703Y-84748228D01*
X116399000Y-84583816D01*
X116399000Y-84416184D01*
X116431703Y-84251772D01*
X116495853Y-84096900D01*
X116588985Y-83957519D01*
X116707519Y-83838985D01*
X116846900Y-83745853D01*
X117001772Y-83681703D01*
X117166184Y-83649000D01*
X117333816Y-83649000D01*
X117498228Y-83681703D01*
G37*
G36*
X124617142Y-81438242D02*
G01*
X124765101Y-81499529D01*
X124898255Y-81588499D01*
X125011501Y-81701745D01*
X125100471Y-81834899D01*
X125161758Y-81982858D01*
X125193000Y-82139925D01*
X125193000Y-82300075D01*
X125161758Y-82457142D01*
X125100471Y-82605101D01*
X125011501Y-82738255D01*
X124898255Y-82851501D01*
X124765101Y-82940471D01*
X124617142Y-83001758D01*
X124460075Y-83033000D01*
X124299925Y-83033000D01*
X124142858Y-83001758D01*
X123994899Y-82940471D01*
X123861745Y-82851501D01*
X123748499Y-82738255D01*
X123659529Y-82605101D01*
X123598242Y-82457142D01*
X123567000Y-82300075D01*
X123567000Y-82139925D01*
X123598242Y-81982858D01*
X123659529Y-81834899D01*
X123748499Y-81701745D01*
X123861745Y-81588499D01*
X123994899Y-81499529D01*
X124142858Y-81438242D01*
X124299925Y-81407000D01*
X124460075Y-81407000D01*
X124617142Y-81438242D01*
G37*
G36*
X139857142Y-81438242D02*
G01*
X140005101Y-81499529D01*
X140138255Y-81588499D01*
X140251501Y-81701745D01*
X140340471Y-81834899D01*
X140401758Y-81982858D01*
X140433000Y-82139925D01*
X140433000Y-82300075D01*
X140401758Y-82457142D01*
X140340471Y-82605101D01*
X140251501Y-82738255D01*
X140138255Y-82851501D01*
X140005101Y-82940471D01*
X139857142Y-83001758D01*
X139700075Y-83033000D01*
X139539925Y-83033000D01*
X139382858Y-83001758D01*
X139234899Y-82940471D01*
X139101745Y-82851501D01*
X138988499Y-82738255D01*
X138899529Y-82605101D01*
X138838242Y-82457142D01*
X138807000Y-82300075D01*
X138807000Y-82139925D01*
X138838242Y-81982858D01*
X138899529Y-81834899D01*
X138988499Y-81701745D01*
X139101745Y-81588499D01*
X139234899Y-81499529D01*
X139382858Y-81438242D01*
X139539925Y-81407000D01*
X139700075Y-81407000D01*
X139857142Y-81438242D01*
G37*
G36*
X167498228Y-80681703D02*
G01*
X167653100Y-80745853D01*
X167792481Y-80838985D01*
X167911015Y-80957519D01*
X168004147Y-81096900D01*
X168068297Y-81251772D01*
X168101000Y-81416184D01*
X168101000Y-81583816D01*
X168068297Y-81748228D01*
X168004147Y-81903100D01*
X167911015Y-82042481D01*
X167792481Y-82161015D01*
X167653100Y-82254147D01*
X167498228Y-82318297D01*
X167333816Y-82351000D01*
X167166184Y-82351000D01*
X167001772Y-82318297D01*
X166846900Y-82254147D01*
X166707519Y-82161015D01*
X166588985Y-82042481D01*
X166495853Y-81903100D01*
X166431703Y-81748228D01*
X166399000Y-81583816D01*
X166399000Y-81416184D01*
X166431703Y-81251772D01*
X166495853Y-81096900D01*
X166588985Y-80957519D01*
X166707519Y-80838985D01*
X166846900Y-80745853D01*
X167001772Y-80681703D01*
X167166184Y-80649000D01*
X167333816Y-80649000D01*
X167498228Y-80681703D01*
G37*
G36*
X162498228Y-80681703D02*
G01*
X162653100Y-80745853D01*
X162792481Y-80838985D01*
X162911015Y-80957519D01*
X163004147Y-81096900D01*
X163068297Y-81251772D01*
X163101000Y-81416184D01*
X163101000Y-81583816D01*
X163068297Y-81748228D01*
X163004147Y-81903100D01*
X162911015Y-82042481D01*
X162792481Y-82161015D01*
X162653100Y-82254147D01*
X162498228Y-82318297D01*
X162333816Y-82351000D01*
X162166184Y-82351000D01*
X162001772Y-82318297D01*
X161846900Y-82254147D01*
X161707519Y-82161015D01*
X161588985Y-82042481D01*
X161495853Y-81903100D01*
X161431703Y-81748228D01*
X161399000Y-81583816D01*
X161399000Y-81416184D01*
X161431703Y-81251772D01*
X161495853Y-81096900D01*
X161588985Y-80957519D01*
X161707519Y-80838985D01*
X161846900Y-80745853D01*
X162001772Y-80681703D01*
X162166184Y-80649000D01*
X162333816Y-80649000D01*
X162498228Y-80681703D01*
G37*
G36*
X173360442Y-80265518D02*
G01*
X173426627Y-80272037D01*
X173596466Y-80323557D01*
X173752991Y-80407222D01*
X173788729Y-80436552D01*
X173890186Y-80519814D01*
X173973448Y-80621271D01*
X174002778Y-80657009D01*
X174086443Y-80813534D01*
X174137963Y-80983373D01*
X174155359Y-81160000D01*
X174137963Y-81336627D01*
X174086443Y-81506466D01*
X174002778Y-81662991D01*
X173973448Y-81698729D01*
X173890186Y-81800186D01*
X173788729Y-81883448D01*
X173752991Y-81912778D01*
X173752989Y-81912779D01*
X173621884Y-81982857D01*
X173596466Y-81996443D01*
X173426627Y-82047963D01*
X173360443Y-82054481D01*
X173294260Y-82061000D01*
X172905740Y-82061000D01*
X172839557Y-82054481D01*
X172773373Y-82047963D01*
X172603534Y-81996443D01*
X172578117Y-81982857D01*
X172447011Y-81912779D01*
X172447009Y-81912778D01*
X172411271Y-81883448D01*
X172309814Y-81800186D01*
X172226552Y-81698729D01*
X172197222Y-81662991D01*
X172113557Y-81506466D01*
X172062037Y-81336627D01*
X172044641Y-81160000D01*
X172062037Y-80983373D01*
X172113557Y-80813534D01*
X172197222Y-80657009D01*
X172226552Y-80621271D01*
X172309814Y-80519814D01*
X172411271Y-80436552D01*
X172447009Y-80407222D01*
X172603534Y-80323557D01*
X172773373Y-80272037D01*
X172839558Y-80265518D01*
X172905740Y-80259000D01*
X173294260Y-80259000D01*
X173360442Y-80265518D01*
G37*
G36*
X174008600Y-77762989D02*
G01*
X174041652Y-77773015D01*
X174072103Y-77789292D01*
X174098799Y-77811201D01*
X174120708Y-77837897D01*
X174136985Y-77868348D01*
X174147011Y-77901400D01*
X174151000Y-77941903D01*
X174151000Y-79378097D01*
X174147011Y-79418600D01*
X174136985Y-79451652D01*
X174120708Y-79482103D01*
X174098799Y-79508799D01*
X174072103Y-79530708D01*
X174041652Y-79546985D01*
X174008600Y-79557011D01*
X173968097Y-79561000D01*
X172231903Y-79561000D01*
X172191400Y-79557011D01*
X172158348Y-79546985D01*
X172127897Y-79530708D01*
X172101201Y-79508799D01*
X172079292Y-79482103D01*
X172063015Y-79451652D01*
X172052989Y-79418600D01*
X172049000Y-79378097D01*
X172049000Y-77941903D01*
X172052989Y-77901400D01*
X172063015Y-77868348D01*
X172079292Y-77837897D01*
X172101201Y-77811201D01*
X172127897Y-77789292D01*
X172158348Y-77773015D01*
X172191400Y-77762989D01*
X172231903Y-77759000D01*
X173968097Y-77759000D01*
X174008600Y-77762989D01*
G37*
G36*
X145498228Y-77681703D02*
G01*
X145653100Y-77745853D01*
X145792481Y-77838985D01*
X145911015Y-77957519D01*
X146004147Y-78096900D01*
X146068297Y-78251772D01*
X146101000Y-78416184D01*
X146101000Y-78583816D01*
X146068297Y-78748228D01*
X146004147Y-78903100D01*
X145911015Y-79042481D01*
X145792481Y-79161015D01*
X145653100Y-79254147D01*
X145498228Y-79318297D01*
X145333816Y-79351000D01*
X145166184Y-79351000D01*
X145001772Y-79318297D01*
X144846900Y-79254147D01*
X144707519Y-79161015D01*
X144588985Y-79042481D01*
X144495853Y-78903100D01*
X144431703Y-78748228D01*
X144399000Y-78583816D01*
X144399000Y-78416184D01*
X144431703Y-78251772D01*
X144495853Y-78096900D01*
X144588985Y-77957519D01*
X144707519Y-77838985D01*
X144846900Y-77745853D01*
X145001772Y-77681703D01*
X145166184Y-77649000D01*
X145333816Y-77649000D01*
X145498228Y-77681703D01*
G37*
G36*
X117498228Y-76061703D02*
G01*
X117653100Y-76125853D01*
X117792481Y-76218985D01*
X117911015Y-76337519D01*
X118004147Y-76476900D01*
X118068297Y-76631772D01*
X118101000Y-76796184D01*
X118101000Y-76963816D01*
X118068297Y-77128228D01*
X118004147Y-77283100D01*
X117911015Y-77422481D01*
X117792481Y-77541015D01*
X117653100Y-77634147D01*
X117498228Y-77698297D01*
X117333816Y-77731000D01*
X117166184Y-77731000D01*
X117001772Y-77698297D01*
X116846900Y-77634147D01*
X116707519Y-77541015D01*
X116588985Y-77422481D01*
X116495853Y-77283100D01*
X116431703Y-77128228D01*
X116399000Y-76963816D01*
X116399000Y-76796184D01*
X116431703Y-76631772D01*
X116495853Y-76476900D01*
X116588985Y-76337519D01*
X116707519Y-76218985D01*
X116846900Y-76125853D01*
X117001772Y-76061703D01*
X117166184Y-76029000D01*
X117333816Y-76029000D01*
X117498228Y-76061703D01*
G37*
G36*
X167498228Y-75681703D02*
G01*
X167653100Y-75745853D01*
X167792481Y-75838985D01*
X167911015Y-75957519D01*
X168004147Y-76096900D01*
X168068297Y-76251772D01*
X168101000Y-76416184D01*
X168101000Y-76583816D01*
X168068297Y-76748228D01*
X168004147Y-76903100D01*
X167911015Y-77042481D01*
X167792481Y-77161015D01*
X167653100Y-77254147D01*
X167498228Y-77318297D01*
X167333816Y-77351000D01*
X167166184Y-77351000D01*
X167001772Y-77318297D01*
X166846900Y-77254147D01*
X166707519Y-77161015D01*
X166588985Y-77042481D01*
X166495853Y-76903100D01*
X166431703Y-76748228D01*
X166399000Y-76583816D01*
X166399000Y-76416184D01*
X166431703Y-76251772D01*
X166495853Y-76096900D01*
X166588985Y-75957519D01*
X166707519Y-75838985D01*
X166846900Y-75745853D01*
X167001772Y-75681703D01*
X167166184Y-75649000D01*
X167333816Y-75649000D01*
X167498228Y-75681703D01*
G37*
G36*
X162498228Y-75681703D02*
G01*
X162653100Y-75745853D01*
X162792481Y-75838985D01*
X162911015Y-75957519D01*
X163004147Y-76096900D01*
X163068297Y-76251772D01*
X163101000Y-76416184D01*
X163101000Y-76583816D01*
X163068297Y-76748228D01*
X163004147Y-76903100D01*
X162911015Y-77042481D01*
X162792481Y-77161015D01*
X162653100Y-77254147D01*
X162498228Y-77318297D01*
X162333816Y-77351000D01*
X162166184Y-77351000D01*
X162001772Y-77318297D01*
X161846900Y-77254147D01*
X161707519Y-77161015D01*
X161588985Y-77042481D01*
X161495853Y-76903100D01*
X161431703Y-76748228D01*
X161399000Y-76583816D01*
X161399000Y-76416184D01*
X161431703Y-76251772D01*
X161495853Y-76096900D01*
X161588985Y-75957519D01*
X161707519Y-75838985D01*
X161846900Y-75745853D01*
X162001772Y-75681703D01*
X162166184Y-75649000D01*
X162333816Y-75649000D01*
X162498228Y-75681703D01*
G37*
G36*
X191625256Y-69891298D02*
G01*
X191731579Y-69912447D01*
X192032042Y-70036903D01*
X192302451Y-70217585D01*
X192532415Y-70447549D01*
X192713097Y-70717958D01*
X192799125Y-70925647D01*
X192837553Y-71018422D01*
X192901000Y-71337389D01*
X192901000Y-71662611D01*
X192858702Y-71875256D01*
X192837553Y-71981579D01*
X192713097Y-72282042D01*
X192532415Y-72552451D01*
X192302451Y-72782415D01*
X192032042Y-72963097D01*
X191731579Y-73087553D01*
X191625256Y-73108702D01*
X191412611Y-73151000D01*
X191087389Y-73151000D01*
X190874744Y-73108702D01*
X190768421Y-73087553D01*
X190467958Y-72963097D01*
X190197549Y-72782415D01*
X189967585Y-72552451D01*
X189786903Y-72282042D01*
X189662447Y-71981579D01*
X189641298Y-71875256D01*
X189599000Y-71662611D01*
X189599000Y-71337389D01*
X189662447Y-71018422D01*
X189700876Y-70925647D01*
X189786903Y-70717958D01*
X189967585Y-70447549D01*
X190197549Y-70217585D01*
X190467958Y-70036903D01*
X190768421Y-69912447D01*
X190874744Y-69891298D01*
X191087389Y-69849000D01*
X191412611Y-69849000D01*
X191625256Y-69891298D01*
G37*
G36*
X105625256Y-69891298D02*
G01*
X105731579Y-69912447D01*
X106032042Y-70036903D01*
X106302451Y-70217585D01*
X106532415Y-70447549D01*
X106713097Y-70717958D01*
X106799125Y-70925647D01*
X106837553Y-71018422D01*
X106901000Y-71337389D01*
X106901000Y-71662611D01*
X106858702Y-71875256D01*
X106837553Y-71981579D01*
X106713097Y-72282042D01*
X106532415Y-72552451D01*
X106302451Y-72782415D01*
X106032042Y-72963097D01*
X105731579Y-73087553D01*
X105625256Y-73108702D01*
X105412611Y-73151000D01*
X105087389Y-73151000D01*
X104874744Y-73108702D01*
X104768421Y-73087553D01*
X104467958Y-72963097D01*
X104197549Y-72782415D01*
X103967585Y-72552451D01*
X103786903Y-72282042D01*
X103662447Y-71981579D01*
X103641298Y-71875256D01*
X103599000Y-71662611D01*
X103599000Y-71337389D01*
X103662447Y-71018422D01*
X103700876Y-70925647D01*
X103786903Y-70717958D01*
X103967585Y-70447549D01*
X104197549Y-70217585D01*
X104467958Y-70036903D01*
X104768421Y-69912447D01*
X104874744Y-69891298D01*
X105087389Y-69849000D01*
X105412611Y-69849000D01*
X105625256Y-69891298D01*
G37*
G36*
X145283512Y-70603927D02*
G01*
X145432812Y-70633624D01*
X145596784Y-70701544D01*
X145744354Y-70800147D01*
X145869853Y-70925646D01*
X145968456Y-71073216D01*
X146036376Y-71237188D01*
X146071000Y-71411259D01*
X146071000Y-71588741D01*
X146036376Y-71762812D01*
X145968456Y-71926784D01*
X145869853Y-72074354D01*
X145744354Y-72199853D01*
X145596784Y-72298456D01*
X145432812Y-72366376D01*
X145283512Y-72396073D01*
X145258742Y-72401000D01*
X145081258Y-72401000D01*
X145056488Y-72396073D01*
X144907188Y-72366376D01*
X144743216Y-72298456D01*
X144595646Y-72199853D01*
X144470147Y-72074354D01*
X144371544Y-71926784D01*
X144303624Y-71762812D01*
X144269000Y-71588741D01*
X144269000Y-71411259D01*
X144303624Y-71237188D01*
X144371544Y-71073216D01*
X144470147Y-70925646D01*
X144595646Y-70800147D01*
X144743216Y-70701544D01*
X144907188Y-70633624D01*
X145056488Y-70603927D01*
X145081258Y-70599000D01*
X145258742Y-70599000D01*
X145283512Y-70603927D01*
G37*
G36*
X147823512Y-70603927D02*
G01*
X147972812Y-70633624D01*
X148136784Y-70701544D01*
X148284354Y-70800147D01*
X148409853Y-70925646D01*
X148508456Y-71073216D01*
X148576376Y-71237188D01*
X148611000Y-71411259D01*
X148611000Y-71588741D01*
X148576376Y-71762812D01*
X148508456Y-71926784D01*
X148409853Y-72074354D01*
X148284354Y-72199853D01*
X148136784Y-72298456D01*
X147972812Y-72366376D01*
X147823512Y-72396073D01*
X147798742Y-72401000D01*
X147621258Y-72401000D01*
X147596488Y-72396073D01*
X147447188Y-72366376D01*
X147283216Y-72298456D01*
X147135646Y-72199853D01*
X147010147Y-72074354D01*
X146911544Y-71926784D01*
X146843624Y-71762812D01*
X146809000Y-71588741D01*
X146809000Y-71411259D01*
X146843624Y-71237188D01*
X146911544Y-71073216D01*
X147010147Y-70925646D01*
X147135646Y-70800147D01*
X147283216Y-70701544D01*
X147447188Y-70633624D01*
X147596488Y-70603927D01*
X147621258Y-70599000D01*
X147798742Y-70599000D01*
X147823512Y-70603927D01*
G37*
G36*
X151151000Y-72401000D02*
G01*
X149349000Y-72401000D01*
X149349000Y-70599000D01*
X151151000Y-70599000D01*
X151151000Y-72401000D01*
G37*
M02*
