G04 #@! TF.GenerationSoftware,KiCad,Pcbnew,5.1.5+dfsg1-2build2*
G04 #@! TF.CreationDate,2021-03-07T10:07:59-06:00*
G04 #@! TF.ProjectId,speaker-switcher-remote,73706561-6b65-4722-9d73-776974636865,rev?*
G04 #@! TF.SameCoordinates,Original*
G04 #@! TF.FileFunction,Legend,Top*
G04 #@! TF.FilePolarity,Positive*
%FSLAX46Y46*%
G04 Gerber Fmt 4.6, Leading zero omitted, Abs format (unit mm)*
G04 Created by KiCad (PCBNEW 5.1.5+dfsg1-2build2) date 2021-03-07 10:07:59*
%MOMM*%
%LPD*%
G04 APERTURE LIST*
%ADD10C,0.250000*%
%ADD11C,0.300000*%
%ADD12C,0.120000*%
%ADD13C,0.150000*%
G04 APERTURE END LIST*
D10*
X108702380Y-120738095D02*
X107702380Y-120738095D01*
X108702380Y-120309523D02*
X108178571Y-120309523D01*
X108083333Y-120357142D01*
X108035714Y-120452380D01*
X108035714Y-120595238D01*
X108083333Y-120690476D01*
X108130952Y-120738095D01*
X108035714Y-119976190D02*
X108035714Y-119595238D01*
X107702380Y-119833333D02*
X108559523Y-119833333D01*
X108654761Y-119785714D01*
X108702380Y-119690476D01*
X108702380Y-119595238D01*
X108035714Y-119404761D02*
X108035714Y-119023809D01*
X107702380Y-119261904D02*
X108559523Y-119261904D01*
X108654761Y-119214285D01*
X108702380Y-119119047D01*
X108702380Y-119023809D01*
X108035714Y-118690476D02*
X109035714Y-118690476D01*
X108083333Y-118690476D02*
X108035714Y-118595238D01*
X108035714Y-118404761D01*
X108083333Y-118309523D01*
X108130952Y-118261904D01*
X108226190Y-118214285D01*
X108511904Y-118214285D01*
X108607142Y-118261904D01*
X108654761Y-118309523D01*
X108702380Y-118404761D01*
X108702380Y-118595238D01*
X108654761Y-118690476D01*
X108654761Y-117833333D02*
X108702380Y-117738095D01*
X108702380Y-117547619D01*
X108654761Y-117452380D01*
X108559523Y-117404761D01*
X108511904Y-117404761D01*
X108416666Y-117452380D01*
X108369047Y-117547619D01*
X108369047Y-117690476D01*
X108321428Y-117785714D01*
X108226190Y-117833333D01*
X108178571Y-117833333D01*
X108083333Y-117785714D01*
X108035714Y-117690476D01*
X108035714Y-117547619D01*
X108083333Y-117452380D01*
X108607142Y-116976190D02*
X108654761Y-116928571D01*
X108702380Y-116976190D01*
X108654761Y-117023809D01*
X108607142Y-116976190D01*
X108702380Y-116976190D01*
X108083333Y-116976190D02*
X108130952Y-116928571D01*
X108178571Y-116976190D01*
X108130952Y-117023809D01*
X108083333Y-116976190D01*
X108178571Y-116976190D01*
X107654761Y-115785714D02*
X108940476Y-116642857D01*
X107654761Y-114738095D02*
X108940476Y-115595238D01*
X108035714Y-113976190D02*
X108845238Y-113976190D01*
X108940476Y-114023809D01*
X108988095Y-114071428D01*
X109035714Y-114166666D01*
X109035714Y-114309523D01*
X108988095Y-114404761D01*
X108654761Y-113976190D02*
X108702380Y-114071428D01*
X108702380Y-114261904D01*
X108654761Y-114357142D01*
X108607142Y-114404761D01*
X108511904Y-114452380D01*
X108226190Y-114452380D01*
X108130952Y-114404761D01*
X108083333Y-114357142D01*
X108035714Y-114261904D01*
X108035714Y-114071428D01*
X108083333Y-113976190D01*
X108702380Y-113500000D02*
X108035714Y-113500000D01*
X107702380Y-113500000D02*
X107750000Y-113547619D01*
X107797619Y-113500000D01*
X107750000Y-113452380D01*
X107702380Y-113500000D01*
X107797619Y-113500000D01*
X108035714Y-113166666D02*
X108035714Y-112785714D01*
X107702380Y-113023809D02*
X108559523Y-113023809D01*
X108654761Y-112976190D01*
X108702380Y-112880952D01*
X108702380Y-112785714D01*
X108702380Y-112452380D02*
X107702380Y-112452380D01*
X108702380Y-112023809D02*
X108178571Y-112023809D01*
X108083333Y-112071428D01*
X108035714Y-112166666D01*
X108035714Y-112309523D01*
X108083333Y-112404761D01*
X108130952Y-112452380D01*
X108035714Y-111119047D02*
X108702380Y-111119047D01*
X108035714Y-111547619D02*
X108559523Y-111547619D01*
X108654761Y-111500000D01*
X108702380Y-111404761D01*
X108702380Y-111261904D01*
X108654761Y-111166666D01*
X108607142Y-111119047D01*
X108702380Y-110642857D02*
X107702380Y-110642857D01*
X108083333Y-110642857D02*
X108035714Y-110547619D01*
X108035714Y-110357142D01*
X108083333Y-110261904D01*
X108130952Y-110214285D01*
X108226190Y-110166666D01*
X108511904Y-110166666D01*
X108607142Y-110214285D01*
X108654761Y-110261904D01*
X108702380Y-110357142D01*
X108702380Y-110547619D01*
X108654761Y-110642857D01*
X108607142Y-109738095D02*
X108654761Y-109690476D01*
X108702380Y-109738095D01*
X108654761Y-109785714D01*
X108607142Y-109738095D01*
X108702380Y-109738095D01*
X108654761Y-108833333D02*
X108702380Y-108928571D01*
X108702380Y-109119047D01*
X108654761Y-109214285D01*
X108607142Y-109261904D01*
X108511904Y-109309523D01*
X108226190Y-109309523D01*
X108130952Y-109261904D01*
X108083333Y-109214285D01*
X108035714Y-109119047D01*
X108035714Y-108928571D01*
X108083333Y-108833333D01*
X108702380Y-108261904D02*
X108654761Y-108357142D01*
X108607142Y-108404761D01*
X108511904Y-108452380D01*
X108226190Y-108452380D01*
X108130952Y-108404761D01*
X108083333Y-108357142D01*
X108035714Y-108261904D01*
X108035714Y-108119047D01*
X108083333Y-108023809D01*
X108130952Y-107976190D01*
X108226190Y-107928571D01*
X108511904Y-107928571D01*
X108607142Y-107976190D01*
X108654761Y-108023809D01*
X108702380Y-108119047D01*
X108702380Y-108261904D01*
X108702380Y-107500000D02*
X108035714Y-107500000D01*
X108130952Y-107500000D02*
X108083333Y-107452380D01*
X108035714Y-107357142D01*
X108035714Y-107214285D01*
X108083333Y-107119047D01*
X108178571Y-107071428D01*
X108702380Y-107071428D01*
X108178571Y-107071428D02*
X108083333Y-107023809D01*
X108035714Y-106928571D01*
X108035714Y-106785714D01*
X108083333Y-106690476D01*
X108178571Y-106642857D01*
X108702380Y-106642857D01*
X107654761Y-105452380D02*
X108940476Y-106309523D01*
X108702380Y-105119047D02*
X108035714Y-105119047D01*
X108226190Y-105119047D02*
X108130952Y-105071428D01*
X108083333Y-105023809D01*
X108035714Y-104928571D01*
X108035714Y-104833333D01*
X108654761Y-104119047D02*
X108702380Y-104214285D01*
X108702380Y-104404761D01*
X108654761Y-104500000D01*
X108559523Y-104547619D01*
X108178571Y-104547619D01*
X108083333Y-104500000D01*
X108035714Y-104404761D01*
X108035714Y-104214285D01*
X108083333Y-104119047D01*
X108178571Y-104071428D01*
X108273809Y-104071428D01*
X108369047Y-104547619D01*
X108702380Y-103214285D02*
X107702380Y-103214285D01*
X108654761Y-103214285D02*
X108702380Y-103309523D01*
X108702380Y-103500000D01*
X108654761Y-103595238D01*
X108607142Y-103642857D01*
X108511904Y-103690476D01*
X108226190Y-103690476D01*
X108130952Y-103642857D01*
X108083333Y-103595238D01*
X108035714Y-103500000D01*
X108035714Y-103309523D01*
X108083333Y-103214285D01*
X108702380Y-102309523D02*
X107702380Y-102309523D01*
X108654761Y-102309523D02*
X108702380Y-102404761D01*
X108702380Y-102595238D01*
X108654761Y-102690476D01*
X108607142Y-102738095D01*
X108511904Y-102785714D01*
X108226190Y-102785714D01*
X108130952Y-102738095D01*
X108083333Y-102690476D01*
X108035714Y-102595238D01*
X108035714Y-102404761D01*
X108083333Y-102309523D01*
X108654761Y-101452380D02*
X108702380Y-101547619D01*
X108702380Y-101738095D01*
X108654761Y-101833333D01*
X108559523Y-101880952D01*
X108178571Y-101880952D01*
X108083333Y-101833333D01*
X108035714Y-101738095D01*
X108035714Y-101547619D01*
X108083333Y-101452380D01*
X108178571Y-101404761D01*
X108273809Y-101404761D01*
X108369047Y-101880952D01*
X108035714Y-101071428D02*
X108702380Y-100833333D01*
X108035714Y-100595238D01*
X108702380Y-100214285D02*
X108035714Y-100214285D01*
X107702380Y-100214285D02*
X107750000Y-100261904D01*
X107797619Y-100214285D01*
X107750000Y-100166666D01*
X107702380Y-100214285D01*
X107797619Y-100214285D01*
X108702380Y-99595238D02*
X108654761Y-99690476D01*
X108559523Y-99738095D01*
X107702380Y-99738095D01*
X107702380Y-98738095D02*
X107702380Y-99214285D01*
X108178571Y-99261904D01*
X108130952Y-99214285D01*
X108083333Y-99119047D01*
X108083333Y-98880952D01*
X108130952Y-98785714D01*
X108178571Y-98738095D01*
X108273809Y-98690476D01*
X108511904Y-98690476D01*
X108607142Y-98738095D01*
X108654761Y-98785714D01*
X108702380Y-98880952D01*
X108702380Y-99119047D01*
X108654761Y-99214285D01*
X108607142Y-99261904D01*
X107702380Y-98357142D02*
X107702380Y-97690476D01*
X108702380Y-98119047D01*
X108130952Y-97166666D02*
X108083333Y-97261904D01*
X108035714Y-97309523D01*
X107940476Y-97357142D01*
X107892857Y-97357142D01*
X107797619Y-97309523D01*
X107750000Y-97261904D01*
X107702380Y-97166666D01*
X107702380Y-96976190D01*
X107750000Y-96880952D01*
X107797619Y-96833333D01*
X107892857Y-96785714D01*
X107940476Y-96785714D01*
X108035714Y-96833333D01*
X108083333Y-96880952D01*
X108130952Y-96976190D01*
X108130952Y-97166666D01*
X108178571Y-97261904D01*
X108226190Y-97309523D01*
X108321428Y-97357142D01*
X108511904Y-97357142D01*
X108607142Y-97309523D01*
X108654761Y-97261904D01*
X108702380Y-97166666D01*
X108702380Y-96976190D01*
X108654761Y-96880952D01*
X108607142Y-96833333D01*
X108511904Y-96785714D01*
X108321428Y-96785714D01*
X108226190Y-96833333D01*
X108178571Y-96880952D01*
X108130952Y-96976190D01*
X107654761Y-95642857D02*
X108940476Y-96500000D01*
X108654761Y-95357142D02*
X108702380Y-95261904D01*
X108702380Y-95071428D01*
X108654761Y-94976190D01*
X108559523Y-94928571D01*
X108511904Y-94928571D01*
X108416666Y-94976190D01*
X108369047Y-95071428D01*
X108369047Y-95214285D01*
X108321428Y-95309523D01*
X108226190Y-95357142D01*
X108178571Y-95357142D01*
X108083333Y-95309523D01*
X108035714Y-95214285D01*
X108035714Y-95071428D01*
X108083333Y-94976190D01*
X108035714Y-94500000D02*
X109035714Y-94500000D01*
X108083333Y-94500000D02*
X108035714Y-94404761D01*
X108035714Y-94214285D01*
X108083333Y-94119047D01*
X108130952Y-94071428D01*
X108226190Y-94023809D01*
X108511904Y-94023809D01*
X108607142Y-94071428D01*
X108654761Y-94119047D01*
X108702380Y-94214285D01*
X108702380Y-94404761D01*
X108654761Y-94500000D01*
X108654761Y-93214285D02*
X108702380Y-93309523D01*
X108702380Y-93500000D01*
X108654761Y-93595238D01*
X108559523Y-93642857D01*
X108178571Y-93642857D01*
X108083333Y-93595238D01*
X108035714Y-93500000D01*
X108035714Y-93309523D01*
X108083333Y-93214285D01*
X108178571Y-93166666D01*
X108273809Y-93166666D01*
X108369047Y-93642857D01*
X108702380Y-92309523D02*
X108178571Y-92309523D01*
X108083333Y-92357142D01*
X108035714Y-92452380D01*
X108035714Y-92642857D01*
X108083333Y-92738095D01*
X108654761Y-92309523D02*
X108702380Y-92404761D01*
X108702380Y-92642857D01*
X108654761Y-92738095D01*
X108559523Y-92785714D01*
X108464285Y-92785714D01*
X108369047Y-92738095D01*
X108321428Y-92642857D01*
X108321428Y-92404761D01*
X108273809Y-92309523D01*
X108702380Y-91833333D02*
X107702380Y-91833333D01*
X108321428Y-91738095D02*
X108702380Y-91452380D01*
X108035714Y-91452380D02*
X108416666Y-91833333D01*
X108654761Y-90642857D02*
X108702380Y-90738095D01*
X108702380Y-90928571D01*
X108654761Y-91023809D01*
X108559523Y-91071428D01*
X108178571Y-91071428D01*
X108083333Y-91023809D01*
X108035714Y-90928571D01*
X108035714Y-90738095D01*
X108083333Y-90642857D01*
X108178571Y-90595238D01*
X108273809Y-90595238D01*
X108369047Y-91071428D01*
X108702380Y-90166666D02*
X108035714Y-90166666D01*
X108226190Y-90166666D02*
X108130952Y-90119047D01*
X108083333Y-90071428D01*
X108035714Y-89976190D01*
X108035714Y-89880952D01*
X108321428Y-89547619D02*
X108321428Y-88785714D01*
X108654761Y-88357142D02*
X108702380Y-88261904D01*
X108702380Y-88071428D01*
X108654761Y-87976190D01*
X108559523Y-87928571D01*
X108511904Y-87928571D01*
X108416666Y-87976190D01*
X108369047Y-88071428D01*
X108369047Y-88214285D01*
X108321428Y-88309523D01*
X108226190Y-88357142D01*
X108178571Y-88357142D01*
X108083333Y-88309523D01*
X108035714Y-88214285D01*
X108035714Y-88071428D01*
X108083333Y-87976190D01*
X108035714Y-87595238D02*
X108702380Y-87404761D01*
X108226190Y-87214285D01*
X108702380Y-87023809D01*
X108035714Y-86833333D01*
X108702380Y-86452380D02*
X108035714Y-86452380D01*
X107702380Y-86452380D02*
X107750000Y-86500000D01*
X107797619Y-86452380D01*
X107750000Y-86404761D01*
X107702380Y-86452380D01*
X107797619Y-86452380D01*
X108035714Y-86119047D02*
X108035714Y-85738095D01*
X107702380Y-85976190D02*
X108559523Y-85976190D01*
X108654761Y-85928571D01*
X108702380Y-85833333D01*
X108702380Y-85738095D01*
X108654761Y-84976190D02*
X108702380Y-85071428D01*
X108702380Y-85261904D01*
X108654761Y-85357142D01*
X108607142Y-85404761D01*
X108511904Y-85452380D01*
X108226190Y-85452380D01*
X108130952Y-85404761D01*
X108083333Y-85357142D01*
X108035714Y-85261904D01*
X108035714Y-85071428D01*
X108083333Y-84976190D01*
X108702380Y-84547619D02*
X107702380Y-84547619D01*
X108702380Y-84119047D02*
X108178571Y-84119047D01*
X108083333Y-84166666D01*
X108035714Y-84261904D01*
X108035714Y-84404761D01*
X108083333Y-84500000D01*
X108130952Y-84547619D01*
X108654761Y-83261904D02*
X108702380Y-83357142D01*
X108702380Y-83547619D01*
X108654761Y-83642857D01*
X108559523Y-83690476D01*
X108178571Y-83690476D01*
X108083333Y-83642857D01*
X108035714Y-83547619D01*
X108035714Y-83357142D01*
X108083333Y-83261904D01*
X108178571Y-83214285D01*
X108273809Y-83214285D01*
X108369047Y-83690476D01*
X108702380Y-82785714D02*
X108035714Y-82785714D01*
X108226190Y-82785714D02*
X108130952Y-82738095D01*
X108083333Y-82690476D01*
X108035714Y-82595238D01*
X108035714Y-82500000D01*
X108321428Y-82166666D02*
X108321428Y-81404761D01*
X108702380Y-80928571D02*
X108035714Y-80928571D01*
X108226190Y-80928571D02*
X108130952Y-80880952D01*
X108083333Y-80833333D01*
X108035714Y-80738095D01*
X108035714Y-80642857D01*
X108654761Y-79928571D02*
X108702380Y-80023809D01*
X108702380Y-80214285D01*
X108654761Y-80309523D01*
X108559523Y-80357142D01*
X108178571Y-80357142D01*
X108083333Y-80309523D01*
X108035714Y-80214285D01*
X108035714Y-80023809D01*
X108083333Y-79928571D01*
X108178571Y-79880952D01*
X108273809Y-79880952D01*
X108369047Y-80357142D01*
X108702380Y-79452380D02*
X108035714Y-79452380D01*
X108130952Y-79452380D02*
X108083333Y-79404761D01*
X108035714Y-79309523D01*
X108035714Y-79166666D01*
X108083333Y-79071428D01*
X108178571Y-79023809D01*
X108702380Y-79023809D01*
X108178571Y-79023809D02*
X108083333Y-78976190D01*
X108035714Y-78880952D01*
X108035714Y-78738095D01*
X108083333Y-78642857D01*
X108178571Y-78595238D01*
X108702380Y-78595238D01*
X108702380Y-77976190D02*
X108654761Y-78071428D01*
X108607142Y-78119047D01*
X108511904Y-78166666D01*
X108226190Y-78166666D01*
X108130952Y-78119047D01*
X108083333Y-78071428D01*
X108035714Y-77976190D01*
X108035714Y-77833333D01*
X108083333Y-77738095D01*
X108130952Y-77690476D01*
X108226190Y-77642857D01*
X108511904Y-77642857D01*
X108607142Y-77690476D01*
X108654761Y-77738095D01*
X108702380Y-77833333D01*
X108702380Y-77976190D01*
X108035714Y-77357142D02*
X108035714Y-76976190D01*
X107702380Y-77214285D02*
X108559523Y-77214285D01*
X108654761Y-77166666D01*
X108702380Y-77071428D01*
X108702380Y-76976190D01*
X108654761Y-76261904D02*
X108702380Y-76357142D01*
X108702380Y-76547619D01*
X108654761Y-76642857D01*
X108559523Y-76690476D01*
X108178571Y-76690476D01*
X108083333Y-76642857D01*
X108035714Y-76547619D01*
X108035714Y-76357142D01*
X108083333Y-76261904D01*
X108178571Y-76214285D01*
X108273809Y-76214285D01*
X108369047Y-76690476D01*
D11*
X180032142Y-101535714D02*
X180103571Y-101321428D01*
X180103571Y-100964285D01*
X180032142Y-100821428D01*
X179960714Y-100750000D01*
X179817857Y-100678571D01*
X179675000Y-100678571D01*
X179532142Y-100750000D01*
X179460714Y-100821428D01*
X179389285Y-100964285D01*
X179317857Y-101250000D01*
X179246428Y-101392857D01*
X179175000Y-101464285D01*
X179032142Y-101535714D01*
X178889285Y-101535714D01*
X178746428Y-101464285D01*
X178675000Y-101392857D01*
X178603571Y-101250000D01*
X178603571Y-100892857D01*
X178675000Y-100678571D01*
X179103571Y-99392857D02*
X180103571Y-99392857D01*
X179103571Y-100035714D02*
X179889285Y-100035714D01*
X180032142Y-99964285D01*
X180103571Y-99821428D01*
X180103571Y-99607142D01*
X180032142Y-99464285D01*
X179960714Y-99392857D01*
X179103571Y-98678571D02*
X180603571Y-98678571D01*
X179175000Y-98678571D02*
X179103571Y-98535714D01*
X179103571Y-98250000D01*
X179175000Y-98107142D01*
X179246428Y-98035714D01*
X179389285Y-97964285D01*
X179817857Y-97964285D01*
X179960714Y-98035714D01*
X180032142Y-98107142D01*
X180103571Y-98250000D01*
X180103571Y-98535714D01*
X180032142Y-98678571D01*
X180032142Y-96750000D02*
X180103571Y-96892857D01*
X180103571Y-97178571D01*
X180032142Y-97321428D01*
X179889285Y-97392857D01*
X179317857Y-97392857D01*
X179175000Y-97321428D01*
X179103571Y-97178571D01*
X179103571Y-96892857D01*
X179175000Y-96750000D01*
X179317857Y-96678571D01*
X179460714Y-96678571D01*
X179603571Y-97392857D01*
X180103571Y-96035714D02*
X179103571Y-96035714D01*
X179389285Y-96035714D02*
X179246428Y-95964285D01*
X179175000Y-95892857D01*
X179103571Y-95750000D01*
X179103571Y-95607142D01*
X180032142Y-95178571D02*
X180103571Y-94964285D01*
X180103571Y-94607142D01*
X180032142Y-94464285D01*
X179960714Y-94392857D01*
X179817857Y-94321428D01*
X179675000Y-94321428D01*
X179532142Y-94392857D01*
X179460714Y-94464285D01*
X179389285Y-94607142D01*
X179317857Y-94892857D01*
X179246428Y-95035714D01*
X179175000Y-95107142D01*
X179032142Y-95178571D01*
X178889285Y-95178571D01*
X178746428Y-95107142D01*
X178675000Y-95035714D01*
X178603571Y-94892857D01*
X178603571Y-94535714D01*
X178675000Y-94321428D01*
X179103571Y-93678571D02*
X180603571Y-93678571D01*
X179175000Y-93678571D02*
X179103571Y-93535714D01*
X179103571Y-93250000D01*
X179175000Y-93107142D01*
X179246428Y-93035714D01*
X179389285Y-92964285D01*
X179817857Y-92964285D01*
X179960714Y-93035714D01*
X180032142Y-93107142D01*
X180103571Y-93250000D01*
X180103571Y-93535714D01*
X180032142Y-93678571D01*
X180032142Y-91750000D02*
X180103571Y-91892857D01*
X180103571Y-92178571D01*
X180032142Y-92321428D01*
X179889285Y-92392857D01*
X179317857Y-92392857D01*
X179175000Y-92321428D01*
X179103571Y-92178571D01*
X179103571Y-91892857D01*
X179175000Y-91750000D01*
X179317857Y-91678571D01*
X179460714Y-91678571D01*
X179603571Y-92392857D01*
X180103571Y-90392857D02*
X179317857Y-90392857D01*
X179175000Y-90464285D01*
X179103571Y-90607142D01*
X179103571Y-90892857D01*
X179175000Y-91035714D01*
X180032142Y-90392857D02*
X180103571Y-90535714D01*
X180103571Y-90892857D01*
X180032142Y-91035714D01*
X179889285Y-91107142D01*
X179746428Y-91107142D01*
X179603571Y-91035714D01*
X179532142Y-90892857D01*
X179532142Y-90535714D01*
X179460714Y-90392857D01*
X180103571Y-89678571D02*
X178603571Y-89678571D01*
X179532142Y-89535714D02*
X180103571Y-89107142D01*
X179103571Y-89107142D02*
X179675000Y-89678571D01*
X180032142Y-87892857D02*
X180103571Y-88035714D01*
X180103571Y-88321428D01*
X180032142Y-88464285D01*
X179889285Y-88535714D01*
X179317857Y-88535714D01*
X179175000Y-88464285D01*
X179103571Y-88321428D01*
X179103571Y-88035714D01*
X179175000Y-87892857D01*
X179317857Y-87821428D01*
X179460714Y-87821428D01*
X179603571Y-88535714D01*
X180103571Y-87178571D02*
X179103571Y-87178571D01*
X179389285Y-87178571D02*
X179246428Y-87107142D01*
X179175000Y-87035714D01*
X179103571Y-86892857D01*
X179103571Y-86750000D01*
X180032142Y-86321428D02*
X180103571Y-86107142D01*
X180103571Y-85750000D01*
X180032142Y-85607142D01*
X179960714Y-85535714D01*
X179817857Y-85464285D01*
X179675000Y-85464285D01*
X179532142Y-85535714D01*
X179460714Y-85607142D01*
X179389285Y-85750000D01*
X179317857Y-86035714D01*
X179246428Y-86178571D01*
X179175000Y-86250000D01*
X179032142Y-86321428D01*
X178889285Y-86321428D01*
X178746428Y-86250000D01*
X178675000Y-86178571D01*
X178603571Y-86035714D01*
X178603571Y-85678571D01*
X178675000Y-85464285D01*
X179103571Y-84964285D02*
X180103571Y-84678571D01*
X179389285Y-84392857D01*
X180103571Y-84107142D01*
X179103571Y-83821428D01*
X180103571Y-83250000D02*
X179103571Y-83250000D01*
X178603571Y-83250000D02*
X178675000Y-83321428D01*
X178746428Y-83250000D01*
X178675000Y-83178571D01*
X178603571Y-83250000D01*
X178746428Y-83250000D01*
X179103571Y-82750000D02*
X179103571Y-82178571D01*
X178603571Y-82535714D02*
X179889285Y-82535714D01*
X180032142Y-82464285D01*
X180103571Y-82321428D01*
X180103571Y-82178571D01*
X180032142Y-81035714D02*
X180103571Y-81178571D01*
X180103571Y-81464285D01*
X180032142Y-81607142D01*
X179960714Y-81678571D01*
X179817857Y-81750000D01*
X179389285Y-81750000D01*
X179246428Y-81678571D01*
X179175000Y-81607142D01*
X179103571Y-81464285D01*
X179103571Y-81178571D01*
X179175000Y-81035714D01*
X180103571Y-80392857D02*
X178603571Y-80392857D01*
X180103571Y-79750000D02*
X179317857Y-79750000D01*
X179175000Y-79821428D01*
X179103571Y-79964285D01*
X179103571Y-80178571D01*
X179175000Y-80321428D01*
X179246428Y-80392857D01*
X180032142Y-78464285D02*
X180103571Y-78607142D01*
X180103571Y-78892857D01*
X180032142Y-79035714D01*
X179889285Y-79107142D01*
X179317857Y-79107142D01*
X179175000Y-79035714D01*
X179103571Y-78892857D01*
X179103571Y-78607142D01*
X179175000Y-78464285D01*
X179317857Y-78392857D01*
X179460714Y-78392857D01*
X179603571Y-79107142D01*
X180103571Y-77750000D02*
X179103571Y-77750000D01*
X179389285Y-77750000D02*
X179246428Y-77678571D01*
X179175000Y-77607142D01*
X179103571Y-77464285D01*
X179103571Y-77321428D01*
X181510714Y-99214285D02*
X181439285Y-99357142D01*
X181439285Y-99642857D01*
X181510714Y-99785714D01*
X181653571Y-99928571D01*
X181796428Y-100000000D01*
X182082142Y-100000000D01*
X182225000Y-99928571D01*
X182367857Y-99785714D01*
X182439285Y-99642857D01*
X182439285Y-99357142D01*
X182367857Y-99214285D01*
X180939285Y-99500000D02*
X181010714Y-99857142D01*
X181225000Y-100214285D01*
X181582142Y-100428571D01*
X181939285Y-100500000D01*
X182296428Y-100428571D01*
X182653571Y-100214285D01*
X182867857Y-99857142D01*
X182939285Y-99500000D01*
X182867857Y-99142857D01*
X182653571Y-98785714D01*
X182296428Y-98571428D01*
X181939285Y-98500000D01*
X181582142Y-98571428D01*
X181225000Y-98785714D01*
X181010714Y-99142857D01*
X180939285Y-99500000D01*
X182653571Y-96714285D02*
X181153571Y-96714285D01*
X181153571Y-96357142D01*
X181225000Y-96142857D01*
X181367857Y-96000000D01*
X181510714Y-95928571D01*
X181796428Y-95857142D01*
X182010714Y-95857142D01*
X182296428Y-95928571D01*
X182439285Y-96000000D01*
X182582142Y-96142857D01*
X182653571Y-96357142D01*
X182653571Y-96714285D01*
X182653571Y-95214285D02*
X181653571Y-95214285D01*
X181939285Y-95214285D02*
X181796428Y-95142857D01*
X181725000Y-95071428D01*
X181653571Y-94928571D01*
X181653571Y-94785714D01*
X182510714Y-94285714D02*
X182582142Y-94214285D01*
X182653571Y-94285714D01*
X182582142Y-94357142D01*
X182510714Y-94285714D01*
X182653571Y-94285714D01*
X182653571Y-92428571D02*
X181153571Y-92428571D01*
X181153571Y-92071428D01*
X181225000Y-91857142D01*
X181367857Y-91714285D01*
X181510714Y-91642857D01*
X181796428Y-91571428D01*
X182010714Y-91571428D01*
X182296428Y-91642857D01*
X182439285Y-91714285D01*
X182582142Y-91857142D01*
X182653571Y-92071428D01*
X182653571Y-92428571D01*
X182653571Y-90285714D02*
X181867857Y-90285714D01*
X181725000Y-90357142D01*
X181653571Y-90500000D01*
X181653571Y-90785714D01*
X181725000Y-90928571D01*
X182582142Y-90285714D02*
X182653571Y-90428571D01*
X182653571Y-90785714D01*
X182582142Y-90928571D01*
X182439285Y-91000000D01*
X182296428Y-91000000D01*
X182153571Y-90928571D01*
X182082142Y-90785714D01*
X182082142Y-90428571D01*
X182010714Y-90285714D01*
X181653571Y-89571428D02*
X182653571Y-89571428D01*
X181796428Y-89571428D02*
X181725000Y-89500000D01*
X181653571Y-89357142D01*
X181653571Y-89142857D01*
X181725000Y-89000000D01*
X181867857Y-88928571D01*
X182653571Y-88928571D01*
X182653571Y-88214285D02*
X181653571Y-88214285D01*
X181153571Y-88214285D02*
X181225000Y-88285714D01*
X181296428Y-88214285D01*
X181225000Y-88142857D01*
X181153571Y-88214285D01*
X181296428Y-88214285D01*
X182582142Y-86928571D02*
X182653571Y-87071428D01*
X182653571Y-87357142D01*
X182582142Y-87500000D01*
X182439285Y-87571428D01*
X181867857Y-87571428D01*
X181725000Y-87500000D01*
X181653571Y-87357142D01*
X181653571Y-87071428D01*
X181725000Y-86928571D01*
X181867857Y-86857142D01*
X182010714Y-86857142D01*
X182153571Y-87571428D01*
X182653571Y-86000000D02*
X182582142Y-86142857D01*
X182439285Y-86214285D01*
X181153571Y-86214285D01*
X182653571Y-84285714D02*
X181153571Y-84285714D01*
X182225000Y-83785714D01*
X181153571Y-83285714D01*
X182653571Y-83285714D01*
X182653571Y-81928571D02*
X181867857Y-81928571D01*
X181725000Y-82000000D01*
X181653571Y-82142857D01*
X181653571Y-82428571D01*
X181725000Y-82571428D01*
X182582142Y-81928571D02*
X182653571Y-82071428D01*
X182653571Y-82428571D01*
X182582142Y-82571428D01*
X182439285Y-82642857D01*
X182296428Y-82642857D01*
X182153571Y-82571428D01*
X182082142Y-82428571D01*
X182082142Y-82071428D01*
X182010714Y-81928571D01*
X182653571Y-81214285D02*
X181653571Y-81214285D01*
X181939285Y-81214285D02*
X181796428Y-81142857D01*
X181725000Y-81071428D01*
X181653571Y-80928571D01*
X181653571Y-80785714D01*
X182653571Y-80285714D02*
X181153571Y-80285714D01*
X182082142Y-80142857D02*
X182653571Y-79714285D01*
X181653571Y-79714285D02*
X182225000Y-80285714D01*
X182582142Y-79142857D02*
X182653571Y-79000000D01*
X182653571Y-78714285D01*
X182582142Y-78571428D01*
X182439285Y-78500000D01*
X182367857Y-78500000D01*
X182225000Y-78571428D01*
X182153571Y-78714285D01*
X182153571Y-78928571D01*
X182082142Y-79071428D01*
X181939285Y-79142857D01*
X181867857Y-79142857D01*
X181725000Y-79071428D01*
X181653571Y-78928571D01*
X181653571Y-78714285D01*
X181725000Y-78571428D01*
X185132142Y-103642857D02*
X185203571Y-103428571D01*
X185203571Y-103071428D01*
X185132142Y-102928571D01*
X185060714Y-102857142D01*
X184917857Y-102785714D01*
X184775000Y-102785714D01*
X184632142Y-102857142D01*
X184560714Y-102928571D01*
X184489285Y-103071428D01*
X184417857Y-103357142D01*
X184346428Y-103500000D01*
X184275000Y-103571428D01*
X184132142Y-103642857D01*
X183989285Y-103642857D01*
X183846428Y-103571428D01*
X183775000Y-103500000D01*
X183703571Y-103357142D01*
X183703571Y-103000000D01*
X183775000Y-102785714D01*
X184203571Y-102142857D02*
X185703571Y-102142857D01*
X184275000Y-102142857D02*
X184203571Y-102000000D01*
X184203571Y-101714285D01*
X184275000Y-101571428D01*
X184346428Y-101500000D01*
X184489285Y-101428571D01*
X184917857Y-101428571D01*
X185060714Y-101500000D01*
X185132142Y-101571428D01*
X185203571Y-101714285D01*
X185203571Y-102000000D01*
X185132142Y-102142857D01*
X185132142Y-100214285D02*
X185203571Y-100357142D01*
X185203571Y-100642857D01*
X185132142Y-100785714D01*
X184989285Y-100857142D01*
X184417857Y-100857142D01*
X184275000Y-100785714D01*
X184203571Y-100642857D01*
X184203571Y-100357142D01*
X184275000Y-100214285D01*
X184417857Y-100142857D01*
X184560714Y-100142857D01*
X184703571Y-100857142D01*
X185203571Y-98857142D02*
X184417857Y-98857142D01*
X184275000Y-98928571D01*
X184203571Y-99071428D01*
X184203571Y-99357142D01*
X184275000Y-99500000D01*
X185132142Y-98857142D02*
X185203571Y-99000000D01*
X185203571Y-99357142D01*
X185132142Y-99500000D01*
X184989285Y-99571428D01*
X184846428Y-99571428D01*
X184703571Y-99500000D01*
X184632142Y-99357142D01*
X184632142Y-99000000D01*
X184560714Y-98857142D01*
X185203571Y-98142857D02*
X183703571Y-98142857D01*
X184632142Y-98000000D02*
X185203571Y-97571428D01*
X184203571Y-97571428D02*
X184775000Y-98142857D01*
X185132142Y-96357142D02*
X185203571Y-96500000D01*
X185203571Y-96785714D01*
X185132142Y-96928571D01*
X184989285Y-97000000D01*
X184417857Y-97000000D01*
X184275000Y-96928571D01*
X184203571Y-96785714D01*
X184203571Y-96500000D01*
X184275000Y-96357142D01*
X184417857Y-96285714D01*
X184560714Y-96285714D01*
X184703571Y-97000000D01*
X185203571Y-95642857D02*
X184203571Y-95642857D01*
X184489285Y-95642857D02*
X184346428Y-95571428D01*
X184275000Y-95500000D01*
X184203571Y-95357142D01*
X184203571Y-95214285D01*
X185132142Y-93642857D02*
X185203571Y-93428571D01*
X185203571Y-93071428D01*
X185132142Y-92928571D01*
X185060714Y-92857142D01*
X184917857Y-92785714D01*
X184775000Y-92785714D01*
X184632142Y-92857142D01*
X184560714Y-92928571D01*
X184489285Y-93071428D01*
X184417857Y-93357142D01*
X184346428Y-93500000D01*
X184275000Y-93571428D01*
X184132142Y-93642857D01*
X183989285Y-93642857D01*
X183846428Y-93571428D01*
X183775000Y-93500000D01*
X183703571Y-93357142D01*
X183703571Y-93000000D01*
X183775000Y-92785714D01*
X184203571Y-92285714D02*
X185203571Y-92000000D01*
X184489285Y-91714285D01*
X185203571Y-91428571D01*
X184203571Y-91142857D01*
X185203571Y-90571428D02*
X184203571Y-90571428D01*
X183703571Y-90571428D02*
X183775000Y-90642857D01*
X183846428Y-90571428D01*
X183775000Y-90500000D01*
X183703571Y-90571428D01*
X183846428Y-90571428D01*
X184203571Y-90071428D02*
X184203571Y-89500000D01*
X183703571Y-89857142D02*
X184989285Y-89857142D01*
X185132142Y-89785714D01*
X185203571Y-89642857D01*
X185203571Y-89500000D01*
X185132142Y-88357142D02*
X185203571Y-88500000D01*
X185203571Y-88785714D01*
X185132142Y-88928571D01*
X185060714Y-89000000D01*
X184917857Y-89071428D01*
X184489285Y-89071428D01*
X184346428Y-89000000D01*
X184275000Y-88928571D01*
X184203571Y-88785714D01*
X184203571Y-88500000D01*
X184275000Y-88357142D01*
X185203571Y-87714285D02*
X183703571Y-87714285D01*
X185203571Y-87071428D02*
X184417857Y-87071428D01*
X184275000Y-87142857D01*
X184203571Y-87285714D01*
X184203571Y-87500000D01*
X184275000Y-87642857D01*
X184346428Y-87714285D01*
X185132142Y-85785714D02*
X185203571Y-85928571D01*
X185203571Y-86214285D01*
X185132142Y-86357142D01*
X184989285Y-86428571D01*
X184417857Y-86428571D01*
X184275000Y-86357142D01*
X184203571Y-86214285D01*
X184203571Y-85928571D01*
X184275000Y-85785714D01*
X184417857Y-85714285D01*
X184560714Y-85714285D01*
X184703571Y-86428571D01*
X185203571Y-85071428D02*
X184203571Y-85071428D01*
X184489285Y-85071428D02*
X184346428Y-85000000D01*
X184275000Y-84928571D01*
X184203571Y-84785714D01*
X184203571Y-84642857D01*
X185203571Y-82142857D02*
X184489285Y-82642857D01*
X185203571Y-83000000D02*
X183703571Y-83000000D01*
X183703571Y-82428571D01*
X183775000Y-82285714D01*
X183846428Y-82214285D01*
X183989285Y-82142857D01*
X184203571Y-82142857D01*
X184346428Y-82214285D01*
X184417857Y-82285714D01*
X184489285Y-82428571D01*
X184489285Y-83000000D01*
X185132142Y-80928571D02*
X185203571Y-81071428D01*
X185203571Y-81357142D01*
X185132142Y-81500000D01*
X184989285Y-81571428D01*
X184417857Y-81571428D01*
X184275000Y-81500000D01*
X184203571Y-81357142D01*
X184203571Y-81071428D01*
X184275000Y-80928571D01*
X184417857Y-80857142D01*
X184560714Y-80857142D01*
X184703571Y-81571428D01*
X185203571Y-80214285D02*
X184203571Y-80214285D01*
X184346428Y-80214285D02*
X184275000Y-80142857D01*
X184203571Y-80000000D01*
X184203571Y-79785714D01*
X184275000Y-79642857D01*
X184417857Y-79571428D01*
X185203571Y-79571428D01*
X184417857Y-79571428D02*
X184275000Y-79500000D01*
X184203571Y-79357142D01*
X184203571Y-79142857D01*
X184275000Y-79000000D01*
X184417857Y-78928571D01*
X185203571Y-78928571D01*
X185203571Y-78000000D02*
X185132142Y-78142857D01*
X185060714Y-78214285D01*
X184917857Y-78285714D01*
X184489285Y-78285714D01*
X184346428Y-78214285D01*
X184275000Y-78142857D01*
X184203571Y-78000000D01*
X184203571Y-77785714D01*
X184275000Y-77642857D01*
X184346428Y-77571428D01*
X184489285Y-77500000D01*
X184917857Y-77500000D01*
X185060714Y-77571428D01*
X185132142Y-77642857D01*
X185203571Y-77785714D01*
X185203571Y-78000000D01*
X184203571Y-77071428D02*
X184203571Y-76500000D01*
X183703571Y-76857142D02*
X184989285Y-76857142D01*
X185132142Y-76785714D01*
X185203571Y-76642857D01*
X185203571Y-76500000D01*
X185132142Y-75428571D02*
X185203571Y-75571428D01*
X185203571Y-75857142D01*
X185132142Y-76000000D01*
X184989285Y-76071428D01*
X184417857Y-76071428D01*
X184275000Y-76000000D01*
X184203571Y-75857142D01*
X184203571Y-75571428D01*
X184275000Y-75428571D01*
X184417857Y-75357142D01*
X184560714Y-75357142D01*
X184703571Y-76071428D01*
X186610714Y-100464285D02*
X186539285Y-100607142D01*
X186539285Y-100892857D01*
X186610714Y-101035714D01*
X186753571Y-101178571D01*
X186896428Y-101250000D01*
X187182142Y-101250000D01*
X187325000Y-101178571D01*
X187467857Y-101035714D01*
X187539285Y-100892857D01*
X187539285Y-100607142D01*
X187467857Y-100464285D01*
X186039285Y-100750000D02*
X186110714Y-101107142D01*
X186325000Y-101464285D01*
X186682142Y-101678571D01*
X187039285Y-101750000D01*
X187396428Y-101678571D01*
X187753571Y-101464285D01*
X187967857Y-101107142D01*
X188039285Y-100750000D01*
X187967857Y-100392857D01*
X187753571Y-100035714D01*
X187396428Y-99821428D01*
X187039285Y-99750000D01*
X186682142Y-99821428D01*
X186325000Y-100035714D01*
X186110714Y-100392857D01*
X186039285Y-100750000D01*
X187753571Y-97964285D02*
X186253571Y-97964285D01*
X186825000Y-97964285D02*
X186753571Y-97821428D01*
X186753571Y-97535714D01*
X186825000Y-97392857D01*
X186896428Y-97321428D01*
X187039285Y-97250000D01*
X187467857Y-97250000D01*
X187610714Y-97321428D01*
X187682142Y-97392857D01*
X187753571Y-97535714D01*
X187753571Y-97821428D01*
X187682142Y-97964285D01*
X186753571Y-96750000D02*
X187753571Y-96392857D01*
X186753571Y-96035714D02*
X187753571Y-96392857D01*
X188110714Y-96535714D01*
X188182142Y-96607142D01*
X188253571Y-96750000D01*
X186253571Y-93892857D02*
X187325000Y-93892857D01*
X187539285Y-93964285D01*
X187682142Y-94107142D01*
X187753571Y-94321428D01*
X187753571Y-94464285D01*
X187753571Y-92964285D02*
X187682142Y-93107142D01*
X187610714Y-93178571D01*
X187467857Y-93250000D01*
X187039285Y-93250000D01*
X186896428Y-93178571D01*
X186825000Y-93107142D01*
X186753571Y-92964285D01*
X186753571Y-92750000D01*
X186825000Y-92607142D01*
X186896428Y-92535714D01*
X187039285Y-92464285D01*
X187467857Y-92464285D01*
X187610714Y-92535714D01*
X187682142Y-92607142D01*
X187753571Y-92750000D01*
X187753571Y-92964285D01*
X186753571Y-91821428D02*
X187753571Y-91821428D01*
X186896428Y-91821428D02*
X186825000Y-91750000D01*
X186753571Y-91607142D01*
X186753571Y-91392857D01*
X186825000Y-91250000D01*
X186967857Y-91178571D01*
X187753571Y-91178571D01*
X187753571Y-89821428D02*
X186967857Y-89821428D01*
X186825000Y-89892857D01*
X186753571Y-90035714D01*
X186753571Y-90321428D01*
X186825000Y-90464285D01*
X187682142Y-89821428D02*
X187753571Y-89964285D01*
X187753571Y-90321428D01*
X187682142Y-90464285D01*
X187539285Y-90535714D01*
X187396428Y-90535714D01*
X187253571Y-90464285D01*
X187182142Y-90321428D01*
X187182142Y-89964285D01*
X187110714Y-89821428D01*
X186753571Y-89321428D02*
X186753571Y-88750000D01*
X186253571Y-89107142D02*
X187539285Y-89107142D01*
X187682142Y-89035714D01*
X187753571Y-88892857D01*
X187753571Y-88750000D01*
X187753571Y-88250000D02*
X186253571Y-88250000D01*
X187753571Y-87607142D02*
X186967857Y-87607142D01*
X186825000Y-87678571D01*
X186753571Y-87821428D01*
X186753571Y-88035714D01*
X186825000Y-88178571D01*
X186896428Y-88250000D01*
X187753571Y-86250000D02*
X186967857Y-86250000D01*
X186825000Y-86321428D01*
X186753571Y-86464285D01*
X186753571Y-86750000D01*
X186825000Y-86892857D01*
X187682142Y-86250000D02*
X187753571Y-86392857D01*
X187753571Y-86750000D01*
X187682142Y-86892857D01*
X187539285Y-86964285D01*
X187396428Y-86964285D01*
X187253571Y-86892857D01*
X187182142Y-86750000D01*
X187182142Y-86392857D01*
X187110714Y-86250000D01*
X186753571Y-85535714D02*
X187753571Y-85535714D01*
X186896428Y-85535714D02*
X186825000Y-85464285D01*
X186753571Y-85321428D01*
X186753571Y-85107142D01*
X186825000Y-84964285D01*
X186967857Y-84892857D01*
X187753571Y-84892857D01*
X187753571Y-83035714D02*
X186253571Y-83035714D01*
X187325000Y-82535714D01*
X186253571Y-82035714D01*
X187753571Y-82035714D01*
X187753571Y-80678571D02*
X186967857Y-80678571D01*
X186825000Y-80750000D01*
X186753571Y-80892857D01*
X186753571Y-81178571D01*
X186825000Y-81321428D01*
X187682142Y-80678571D02*
X187753571Y-80821428D01*
X187753571Y-81178571D01*
X187682142Y-81321428D01*
X187539285Y-81392857D01*
X187396428Y-81392857D01*
X187253571Y-81321428D01*
X187182142Y-81178571D01*
X187182142Y-80821428D01*
X187110714Y-80678571D01*
X187753571Y-79964285D02*
X186753571Y-79964285D01*
X187039285Y-79964285D02*
X186896428Y-79892857D01*
X186825000Y-79821428D01*
X186753571Y-79678571D01*
X186753571Y-79535714D01*
X187753571Y-79035714D02*
X186253571Y-79035714D01*
X187182142Y-78892857D02*
X187753571Y-78464285D01*
X186753571Y-78464285D02*
X187325000Y-79035714D01*
X187682142Y-77892857D02*
X187753571Y-77750000D01*
X187753571Y-77464285D01*
X187682142Y-77321428D01*
X187539285Y-77250000D01*
X187467857Y-77250000D01*
X187325000Y-77321428D01*
X187253571Y-77464285D01*
X187253571Y-77678571D01*
X187182142Y-77821428D01*
X187039285Y-77892857D01*
X186967857Y-77892857D01*
X186825000Y-77821428D01*
X186753571Y-77678571D01*
X186753571Y-77464285D01*
X186825000Y-77321428D01*
D12*
X113505000Y-106310000D02*
X113505000Y-105865000D01*
X113505000Y-108605000D02*
X113505000Y-108160000D01*
X119745000Y-106310000D02*
X119745000Y-105865000D01*
X119745000Y-108605000D02*
X119745000Y-108160000D01*
X119745000Y-105865000D02*
X113505000Y-105865000D01*
X119745000Y-108605000D02*
X113505000Y-108605000D01*
X119120000Y-113370000D02*
X119120000Y-113685000D01*
X119120000Y-110945000D02*
X119120000Y-111260000D01*
X113880000Y-113370000D02*
X113880000Y-113685000D01*
X113880000Y-110945000D02*
X113880000Y-111260000D01*
X113880000Y-113685000D02*
X119120000Y-113685000D01*
X113880000Y-110945000D02*
X119120000Y-110945000D01*
X177611522Y-113518478D02*
G75*
G03X182050000Y-111680000I1838478J1838478D01*
G01*
X177611522Y-109841522D02*
G75*
G02X182050000Y-111680000I1838478J-1838478D01*
G01*
X177600000Y-109880000D02*
X177600000Y-113480000D01*
X157320000Y-114320000D02*
X157320000Y-113990000D01*
X150780000Y-114320000D02*
X157320000Y-114320000D01*
X150780000Y-113990000D02*
X150780000Y-114320000D01*
X157320000Y-111580000D02*
X157320000Y-111910000D01*
X150780000Y-111580000D02*
X157320000Y-111580000D01*
X150780000Y-111910000D02*
X150780000Y-111580000D01*
X150929000Y-110505000D02*
X150929000Y-108995000D01*
X154630000Y-110505000D02*
X154630000Y-108995000D01*
X157900000Y-108995000D02*
X147660000Y-108995000D01*
X147660000Y-110505000D02*
X147660000Y-105864000D01*
X157900000Y-110505000D02*
X157900000Y-105864000D01*
X157900000Y-105864000D02*
X147660000Y-105864000D01*
X157900000Y-110505000D02*
X147660000Y-110505000D01*
X174330000Y-106870000D02*
X174330000Y-106540000D01*
X167790000Y-106870000D02*
X174330000Y-106870000D01*
X167790000Y-106540000D02*
X167790000Y-106870000D01*
X174330000Y-104130000D02*
X174330000Y-104460000D01*
X167790000Y-104130000D02*
X174330000Y-104130000D01*
X167790000Y-104460000D02*
X167790000Y-104130000D01*
X173118800Y-112592800D02*
X173118800Y-112262800D01*
X166578800Y-112592800D02*
X173118800Y-112592800D01*
X166578800Y-112262800D02*
X166578800Y-112592800D01*
X173118800Y-109852800D02*
X173118800Y-110182800D01*
X166578800Y-109852800D02*
X173118800Y-109852800D01*
X166578800Y-110182800D02*
X166578800Y-109852800D01*
X174470000Y-93420000D02*
X174140000Y-93420000D01*
X174470000Y-99960000D02*
X174470000Y-93420000D01*
X174140000Y-99960000D02*
X174470000Y-99960000D01*
X171730000Y-93420000D02*
X172060000Y-93420000D01*
X171730000Y-99960000D02*
X171730000Y-93420000D01*
X172060000Y-99960000D02*
X171730000Y-99960000D01*
X175850000Y-75810000D02*
X174600000Y-75810000D01*
X175850000Y-77060000D02*
X175850000Y-75810000D01*
X170350000Y-82960000D02*
X170350000Y-79910000D01*
X173300000Y-82960000D02*
X170350000Y-82960000D01*
X173300000Y-83710000D02*
X173300000Y-82960000D01*
X170350000Y-76860000D02*
X170350000Y-79910000D01*
X173300000Y-76860000D02*
X170350000Y-76860000D01*
X173300000Y-76110000D02*
X173300000Y-76860000D01*
X175550000Y-83710000D02*
X175550000Y-81910000D01*
X174800000Y-83710000D02*
X175550000Y-83710000D01*
X174800000Y-81910000D02*
X174800000Y-83710000D01*
X175550000Y-81910000D02*
X174800000Y-81910000D01*
X175550000Y-77910000D02*
X175550000Y-76110000D01*
X174800000Y-77910000D02*
X175550000Y-77910000D01*
X174800000Y-76110000D02*
X174800000Y-77910000D01*
X175550000Y-76110000D02*
X174800000Y-76110000D01*
X175550000Y-80410000D02*
X175550000Y-79410000D01*
X174800000Y-80410000D02*
X175550000Y-80410000D01*
X174800000Y-79410000D02*
X174800000Y-80410000D01*
X175550000Y-79410000D02*
X174800000Y-79410000D01*
X175560000Y-83720000D02*
X175560000Y-76100000D01*
X169590000Y-83720000D02*
X175560000Y-83720000D01*
X169590000Y-76100000D02*
X169590000Y-83720000D01*
X175560000Y-76100000D02*
X169590000Y-76100000D01*
X179380000Y-119970000D02*
X179380000Y-117030000D01*
X179140000Y-119970000D02*
X179140000Y-117030000D01*
X179260000Y-119970000D02*
X179260000Y-117030000D01*
X174720000Y-117030000D02*
X174720000Y-117160000D01*
X180160000Y-117030000D02*
X174720000Y-117030000D01*
X180160000Y-117160000D02*
X180160000Y-117030000D01*
X174720000Y-119970000D02*
X174720000Y-119840000D01*
X180160000Y-119970000D02*
X174720000Y-119970000D01*
X180160000Y-119840000D02*
X180160000Y-119970000D01*
X163170000Y-86130000D02*
X163170000Y-86460000D01*
X169710000Y-86130000D02*
X163170000Y-86130000D01*
X169710000Y-86460000D02*
X169710000Y-86130000D01*
X163170000Y-88870000D02*
X163170000Y-88540000D01*
X169710000Y-88870000D02*
X163170000Y-88870000D01*
X169710000Y-88540000D02*
X169710000Y-88870000D01*
X155415000Y-104160000D02*
X155415000Y-103830000D01*
X148875000Y-104160000D02*
X155415000Y-104160000D01*
X148875000Y-103830000D02*
X148875000Y-104160000D01*
X155415000Y-101420000D02*
X155415000Y-101750000D01*
X148875000Y-101420000D02*
X155415000Y-101420000D01*
X148875000Y-101750000D02*
X148875000Y-101420000D01*
X118620000Y-77420000D02*
X118290000Y-77420000D01*
X118620000Y-83960000D02*
X118620000Y-77420000D01*
X118290000Y-83960000D02*
X118620000Y-83960000D01*
X115880000Y-77420000D02*
X116210000Y-77420000D01*
X115880000Y-83960000D02*
X115880000Y-77420000D01*
X116210000Y-83960000D02*
X115880000Y-83960000D01*
X143880000Y-85580000D02*
X144210000Y-85580000D01*
X143880000Y-79040000D02*
X143880000Y-85580000D01*
X144210000Y-79040000D02*
X143880000Y-79040000D01*
X146620000Y-85580000D02*
X146290000Y-85580000D01*
X146620000Y-79040000D02*
X146620000Y-85580000D01*
X146290000Y-79040000D02*
X146620000Y-79040000D01*
X164945000Y-93420000D02*
X164615000Y-93420000D01*
X164945000Y-99960000D02*
X164945000Y-93420000D01*
X164615000Y-99960000D02*
X164945000Y-99960000D01*
X162205000Y-93420000D02*
X162535000Y-93420000D01*
X162205000Y-99960000D02*
X162205000Y-93420000D01*
X162535000Y-99960000D02*
X162205000Y-99960000D01*
X169620000Y-93420000D02*
X169290000Y-93420000D01*
X169620000Y-99960000D02*
X169620000Y-93420000D01*
X169290000Y-99960000D02*
X169620000Y-99960000D01*
X166880000Y-93420000D02*
X167210000Y-93420000D01*
X166880000Y-99960000D02*
X166880000Y-93420000D01*
X167210000Y-99960000D02*
X166880000Y-99960000D01*
X118391000Y-116730000D02*
X118391000Y-118240000D01*
X114690000Y-116730000D02*
X114690000Y-118240000D01*
X111420000Y-118240000D02*
X121660000Y-118240000D01*
X121660000Y-116730000D02*
X121660000Y-121371000D01*
X111420000Y-116730000D02*
X111420000Y-121371000D01*
X111420000Y-121371000D02*
X121660000Y-121371000D01*
X111420000Y-116730000D02*
X121660000Y-116730000D01*
X148327200Y-118385600D02*
X149177200Y-118385600D01*
X165767200Y-118385600D02*
X164917200Y-118385600D01*
X149177200Y-121005600D02*
X164917200Y-121005600D01*
X149177200Y-115765600D02*
X149177200Y-121005600D01*
X164917200Y-115765600D02*
X149177200Y-115765600D01*
X164917200Y-121005600D02*
X164917200Y-115765600D01*
X154116522Y-98278478D02*
G75*
G03X158555000Y-96440000I1838478J1838478D01*
G01*
X154116522Y-94601522D02*
G75*
G02X158555000Y-96440000I1838478J-1838478D01*
G01*
X154105000Y-94640000D02*
X154105000Y-98240000D01*
X135810000Y-74600000D02*
X128190000Y-74600000D01*
X135810000Y-82220000D02*
X135810000Y-74600000D01*
X128190000Y-82220000D02*
X135810000Y-82220000D01*
X128190000Y-74600000D02*
X128190000Y-82220000D01*
X123110000Y-121590000D02*
X123110000Y-78410000D01*
X140890000Y-78410000D02*
X140890000Y-121590000D01*
X140890000Y-121590000D02*
X123110000Y-121590000D01*
X123110000Y-78410000D02*
X140890000Y-78410000D01*
X151580000Y-70170000D02*
X151580000Y-71500000D01*
X150250000Y-70170000D02*
X151580000Y-70170000D01*
X148980000Y-70170000D02*
X148980000Y-72830000D01*
X148980000Y-72830000D02*
X143840000Y-72830000D01*
X148980000Y-70170000D02*
X143840000Y-70170000D01*
X143840000Y-70170000D02*
X143840000Y-72830000D01*
X167870000Y-82425000D02*
X167870000Y-82870000D01*
X167870000Y-80130000D02*
X167870000Y-80575000D01*
X161630000Y-82425000D02*
X161630000Y-82870000D01*
X161630000Y-80130000D02*
X161630000Y-80575000D01*
X161630000Y-82870000D02*
X167870000Y-82870000D01*
X161630000Y-80130000D02*
X167870000Y-80130000D01*
X167870000Y-77425000D02*
X167870000Y-77870000D01*
X167870000Y-75130000D02*
X167870000Y-75575000D01*
X161630000Y-77425000D02*
X161630000Y-77870000D01*
X161630000Y-75130000D02*
X161630000Y-75575000D01*
X161630000Y-77870000D02*
X167870000Y-77870000D01*
X161630000Y-75130000D02*
X167870000Y-75130000D01*
X157979646Y-89875000D02*
X157979646Y-88875000D01*
X158479646Y-89375000D02*
X157479646Y-89375000D01*
X147919000Y-87099000D02*
X147919000Y-85901000D01*
X147959000Y-87362000D02*
X147959000Y-85638000D01*
X147999000Y-87562000D02*
X147999000Y-85438000D01*
X148039000Y-87730000D02*
X148039000Y-85270000D01*
X148079000Y-87878000D02*
X148079000Y-85122000D01*
X148119000Y-88010000D02*
X148119000Y-84990000D01*
X148159000Y-88130000D02*
X148159000Y-84870000D01*
X148199000Y-88242000D02*
X148199000Y-84758000D01*
X148239000Y-88346000D02*
X148239000Y-84654000D01*
X148279000Y-88444000D02*
X148279000Y-84556000D01*
X148319000Y-88537000D02*
X148319000Y-84463000D01*
X148359000Y-88625000D02*
X148359000Y-84375000D01*
X148399000Y-88709000D02*
X148399000Y-84291000D01*
X148439000Y-88789000D02*
X148439000Y-84211000D01*
X148479000Y-88865000D02*
X148479000Y-84135000D01*
X148519000Y-88939000D02*
X148519000Y-84061000D01*
X148559000Y-89010000D02*
X148559000Y-83990000D01*
X148599000Y-89079000D02*
X148599000Y-83921000D01*
X148639000Y-89145000D02*
X148639000Y-83855000D01*
X148679000Y-89209000D02*
X148679000Y-83791000D01*
X148719000Y-89270000D02*
X148719000Y-83730000D01*
X148759000Y-89330000D02*
X148759000Y-83670000D01*
X148799000Y-89389000D02*
X148799000Y-83611000D01*
X148839000Y-89445000D02*
X148839000Y-83555000D01*
X148879000Y-89500000D02*
X148879000Y-83500000D01*
X148919000Y-89554000D02*
X148919000Y-83446000D01*
X148959000Y-89606000D02*
X148959000Y-83394000D01*
X148999000Y-89656000D02*
X148999000Y-83344000D01*
X149039000Y-89706000D02*
X149039000Y-83294000D01*
X149079000Y-89754000D02*
X149079000Y-83246000D01*
X149119000Y-89801000D02*
X149119000Y-83199000D01*
X149159000Y-89847000D02*
X149159000Y-83153000D01*
X149199000Y-89892000D02*
X149199000Y-83108000D01*
X149239000Y-89936000D02*
X149239000Y-83064000D01*
X149279000Y-89978000D02*
X149279000Y-83022000D01*
X149319000Y-90020000D02*
X149319000Y-82980000D01*
X149359000Y-90061000D02*
X149359000Y-82939000D01*
X149399000Y-90101000D02*
X149399000Y-82899000D01*
X149439000Y-90140000D02*
X149439000Y-82860000D01*
X149479000Y-90179000D02*
X149479000Y-82821000D01*
X149519000Y-90216000D02*
X149519000Y-82784000D01*
X149559000Y-90253000D02*
X149559000Y-82747000D01*
X149599000Y-90289000D02*
X149599000Y-82711000D01*
X149639000Y-90324000D02*
X149639000Y-82676000D01*
X149679000Y-90358000D02*
X149679000Y-82642000D01*
X149719000Y-90392000D02*
X149719000Y-82608000D01*
X149759000Y-90425000D02*
X149759000Y-82575000D01*
X149799000Y-90457000D02*
X149799000Y-82543000D01*
X149839000Y-90489000D02*
X149839000Y-82511000D01*
X149879000Y-90520000D02*
X149879000Y-82480000D01*
X149919000Y-90550000D02*
X149919000Y-82450000D01*
X149959000Y-90580000D02*
X149959000Y-82420000D01*
X149999000Y-90610000D02*
X149999000Y-82390000D01*
X150039000Y-90638000D02*
X150039000Y-82362000D01*
X150079000Y-90666000D02*
X150079000Y-82334000D01*
X150119000Y-90694000D02*
X150119000Y-82306000D01*
X150159000Y-90721000D02*
X150159000Y-82279000D01*
X150199000Y-90747000D02*
X150199000Y-82253000D01*
X150239000Y-90773000D02*
X150239000Y-82227000D01*
X150279000Y-90798000D02*
X150279000Y-82202000D01*
X150319000Y-90823000D02*
X150319000Y-82177000D01*
X150359000Y-90847000D02*
X150359000Y-82153000D01*
X150399000Y-90871000D02*
X150399000Y-82129000D01*
X150439000Y-90895000D02*
X150439000Y-82105000D01*
X150479000Y-90917000D02*
X150479000Y-82083000D01*
X150519000Y-90940000D02*
X150519000Y-82060000D01*
X150559000Y-90962000D02*
X150559000Y-82038000D01*
X150599000Y-90983000D02*
X150599000Y-82017000D01*
X150639000Y-91004000D02*
X150639000Y-81996000D01*
X150679000Y-91025000D02*
X150679000Y-81975000D01*
X150719000Y-85460000D02*
X150719000Y-81955000D01*
X150719000Y-91045000D02*
X150719000Y-87540000D01*
X150759000Y-85460000D02*
X150759000Y-81936000D01*
X150759000Y-91064000D02*
X150759000Y-87540000D01*
X150799000Y-85460000D02*
X150799000Y-81916000D01*
X150799000Y-91084000D02*
X150799000Y-87540000D01*
X150839000Y-85460000D02*
X150839000Y-81897000D01*
X150839000Y-91103000D02*
X150839000Y-87540000D01*
X150879000Y-85460000D02*
X150879000Y-81879000D01*
X150879000Y-91121000D02*
X150879000Y-87540000D01*
X150919000Y-85460000D02*
X150919000Y-81861000D01*
X150919000Y-91139000D02*
X150919000Y-87540000D01*
X150959000Y-85460000D02*
X150959000Y-81843000D01*
X150959000Y-91157000D02*
X150959000Y-87540000D01*
X150999000Y-85460000D02*
X150999000Y-81826000D01*
X150999000Y-91174000D02*
X150999000Y-87540000D01*
X151039000Y-85460000D02*
X151039000Y-81810000D01*
X151039000Y-91190000D02*
X151039000Y-87540000D01*
X151079000Y-85460000D02*
X151079000Y-81793000D01*
X151079000Y-91207000D02*
X151079000Y-87540000D01*
X151119000Y-85460000D02*
X151119000Y-81777000D01*
X151119000Y-91223000D02*
X151119000Y-87540000D01*
X151159000Y-85460000D02*
X151159000Y-81762000D01*
X151159000Y-91238000D02*
X151159000Y-87540000D01*
X151199000Y-85460000D02*
X151199000Y-81746000D01*
X151199000Y-91254000D02*
X151199000Y-87540000D01*
X151239000Y-85460000D02*
X151239000Y-81732000D01*
X151239000Y-91268000D02*
X151239000Y-87540000D01*
X151279000Y-85460000D02*
X151279000Y-81717000D01*
X151279000Y-91283000D02*
X151279000Y-87540000D01*
X151319000Y-85460000D02*
X151319000Y-81703000D01*
X151319000Y-91297000D02*
X151319000Y-87540000D01*
X151359000Y-85460000D02*
X151359000Y-81689000D01*
X151359000Y-91311000D02*
X151359000Y-87540000D01*
X151399000Y-85460000D02*
X151399000Y-81676000D01*
X151399000Y-91324000D02*
X151399000Y-87540000D01*
X151439000Y-85460000D02*
X151439000Y-81663000D01*
X151439000Y-91337000D02*
X151439000Y-87540000D01*
X151479000Y-85460000D02*
X151479000Y-81650000D01*
X151479000Y-91350000D02*
X151479000Y-87540000D01*
X151519000Y-85460000D02*
X151519000Y-81638000D01*
X151519000Y-91362000D02*
X151519000Y-87540000D01*
X151559000Y-85460000D02*
X151559000Y-81626000D01*
X151559000Y-91374000D02*
X151559000Y-87540000D01*
X151599000Y-85460000D02*
X151599000Y-81615000D01*
X151599000Y-91385000D02*
X151599000Y-87540000D01*
X151639000Y-85460000D02*
X151639000Y-81603000D01*
X151639000Y-91397000D02*
X151639000Y-87540000D01*
X151679000Y-85460000D02*
X151679000Y-81593000D01*
X151679000Y-91407000D02*
X151679000Y-87540000D01*
X151719000Y-85460000D02*
X151719000Y-81582000D01*
X151719000Y-91418000D02*
X151719000Y-87540000D01*
X151759000Y-85460000D02*
X151759000Y-81572000D01*
X151759000Y-91428000D02*
X151759000Y-87540000D01*
X151799000Y-85460000D02*
X151799000Y-81562000D01*
X151799000Y-91438000D02*
X151799000Y-87540000D01*
X151839000Y-85460000D02*
X151839000Y-81553000D01*
X151839000Y-91447000D02*
X151839000Y-87540000D01*
X151879000Y-85460000D02*
X151879000Y-81544000D01*
X151879000Y-91456000D02*
X151879000Y-87540000D01*
X151919000Y-85460000D02*
X151919000Y-81535000D01*
X151919000Y-91465000D02*
X151919000Y-87540000D01*
X151959000Y-85460000D02*
X151959000Y-81526000D01*
X151959000Y-91474000D02*
X151959000Y-87540000D01*
X151999000Y-85460000D02*
X151999000Y-81518000D01*
X151999000Y-91482000D02*
X151999000Y-87540000D01*
X152039000Y-85460000D02*
X152039000Y-81510000D01*
X152039000Y-91490000D02*
X152039000Y-87540000D01*
X152079000Y-85460000D02*
X152079000Y-81503000D01*
X152079000Y-91497000D02*
X152079000Y-87540000D01*
X152119000Y-85460000D02*
X152119000Y-81496000D01*
X152119000Y-91504000D02*
X152119000Y-87540000D01*
X152159000Y-85460000D02*
X152159000Y-81489000D01*
X152159000Y-91511000D02*
X152159000Y-87540000D01*
X152199000Y-85460000D02*
X152199000Y-81482000D01*
X152199000Y-91518000D02*
X152199000Y-87540000D01*
X152239000Y-85460000D02*
X152239000Y-81476000D01*
X152239000Y-91524000D02*
X152239000Y-87540000D01*
X152279000Y-85460000D02*
X152279000Y-81470000D01*
X152279000Y-91530000D02*
X152279000Y-87540000D01*
X152320000Y-85460000D02*
X152320000Y-81465000D01*
X152320000Y-91535000D02*
X152320000Y-87540000D01*
X152360000Y-85460000D02*
X152360000Y-81460000D01*
X152360000Y-91540000D02*
X152360000Y-87540000D01*
X152400000Y-85460000D02*
X152400000Y-81455000D01*
X152400000Y-91545000D02*
X152400000Y-87540000D01*
X152440000Y-85460000D02*
X152440000Y-81450000D01*
X152440000Y-91550000D02*
X152440000Y-87540000D01*
X152480000Y-85460000D02*
X152480000Y-81446000D01*
X152480000Y-91554000D02*
X152480000Y-87540000D01*
X152520000Y-85460000D02*
X152520000Y-81442000D01*
X152520000Y-91558000D02*
X152520000Y-87540000D01*
X152560000Y-85460000D02*
X152560000Y-81438000D01*
X152560000Y-91562000D02*
X152560000Y-87540000D01*
X152600000Y-85460000D02*
X152600000Y-81435000D01*
X152600000Y-91565000D02*
X152600000Y-87540000D01*
X152640000Y-85460000D02*
X152640000Y-81432000D01*
X152640000Y-91568000D02*
X152640000Y-87540000D01*
X152680000Y-85460000D02*
X152680000Y-81430000D01*
X152680000Y-91570000D02*
X152680000Y-87540000D01*
X152720000Y-85460000D02*
X152720000Y-81427000D01*
X152720000Y-91573000D02*
X152720000Y-87540000D01*
X152760000Y-85460000D02*
X152760000Y-81425000D01*
X152760000Y-91575000D02*
X152760000Y-87540000D01*
X152800000Y-91577000D02*
X152800000Y-81423000D01*
X152840000Y-91578000D02*
X152840000Y-81422000D01*
X152880000Y-91579000D02*
X152880000Y-81421000D01*
X152920000Y-91580000D02*
X152920000Y-81420000D01*
X152960000Y-91580000D02*
X152960000Y-81420000D01*
X153000000Y-91580000D02*
X153000000Y-81420000D01*
X158120000Y-86500000D02*
G75*
G03X158120000Y-86500000I-5120000J0D01*
G01*
D13*
X116418333Y-105052142D02*
X116370714Y-105099761D01*
X116227857Y-105147380D01*
X116132619Y-105147380D01*
X115989761Y-105099761D01*
X115894523Y-105004523D01*
X115846904Y-104909285D01*
X115799285Y-104718809D01*
X115799285Y-104575952D01*
X115846904Y-104385476D01*
X115894523Y-104290238D01*
X115989761Y-104195000D01*
X116132619Y-104147380D01*
X116227857Y-104147380D01*
X116370714Y-104195000D01*
X116418333Y-104242619D01*
X116799285Y-104242619D02*
X116846904Y-104195000D01*
X116942142Y-104147380D01*
X117180238Y-104147380D01*
X117275476Y-104195000D01*
X117323095Y-104242619D01*
X117370714Y-104337857D01*
X117370714Y-104433095D01*
X117323095Y-104575952D01*
X116751666Y-105147380D01*
X117370714Y-105147380D01*
X116333333Y-110172142D02*
X116285714Y-110219761D01*
X116142857Y-110267380D01*
X116047619Y-110267380D01*
X115904761Y-110219761D01*
X115809523Y-110124523D01*
X115761904Y-110029285D01*
X115714285Y-109838809D01*
X115714285Y-109695952D01*
X115761904Y-109505476D01*
X115809523Y-109410238D01*
X115904761Y-109315000D01*
X116047619Y-109267380D01*
X116142857Y-109267380D01*
X116285714Y-109315000D01*
X116333333Y-109362619D01*
X117285714Y-110267380D02*
X116714285Y-110267380D01*
X117000000Y-110267380D02*
X117000000Y-109267380D01*
X116904761Y-109410238D01*
X116809523Y-109505476D01*
X116714285Y-109553095D01*
X183557619Y-111775238D02*
X183510000Y-111870476D01*
X183414761Y-111965714D01*
X183271904Y-112108571D01*
X183224285Y-112203809D01*
X183224285Y-112299047D01*
X183462380Y-112251428D02*
X183414761Y-112346666D01*
X183319523Y-112441904D01*
X183129047Y-112489523D01*
X182795714Y-112489523D01*
X182605238Y-112441904D01*
X182510000Y-112346666D01*
X182462380Y-112251428D01*
X182462380Y-112060952D01*
X182510000Y-111965714D01*
X182605238Y-111870476D01*
X182795714Y-111822857D01*
X183129047Y-111822857D01*
X183319523Y-111870476D01*
X183414761Y-111965714D01*
X183462380Y-112060952D01*
X183462380Y-112251428D01*
X182462380Y-111489523D02*
X182462380Y-110870476D01*
X182843333Y-111203809D01*
X182843333Y-111060952D01*
X182890952Y-110965714D01*
X182938571Y-110918095D01*
X183033809Y-110870476D01*
X183271904Y-110870476D01*
X183367142Y-110918095D01*
X183414761Y-110965714D01*
X183462380Y-111060952D01*
X183462380Y-111346666D01*
X183414761Y-111441904D01*
X183367142Y-111489523D01*
X146321400Y-113552329D02*
X145988067Y-113076139D01*
X145749972Y-113552329D02*
X145749972Y-112552329D01*
X146130924Y-112552329D01*
X146226162Y-112599949D01*
X146273781Y-112647568D01*
X146321400Y-112742806D01*
X146321400Y-112885663D01*
X146273781Y-112980901D01*
X146226162Y-113028520D01*
X146130924Y-113076139D01*
X145749972Y-113076139D01*
X147273781Y-113552329D02*
X146702353Y-113552329D01*
X146988067Y-113552329D02*
X146988067Y-112552329D01*
X146892829Y-112695187D01*
X146797591Y-112790425D01*
X146702353Y-112838044D01*
X147607115Y-112552329D02*
X148226162Y-112552329D01*
X147892829Y-112933282D01*
X148035686Y-112933282D01*
X148130924Y-112980901D01*
X148178543Y-113028520D01*
X148226162Y-113123758D01*
X148226162Y-113361853D01*
X148178543Y-113457091D01*
X148130924Y-113504710D01*
X148035686Y-113552329D01*
X147749972Y-113552329D01*
X147654734Y-113504710D01*
X147607115Y-113457091D01*
X145946456Y-108587452D02*
X145851218Y-108539833D01*
X145755980Y-108444594D01*
X145613123Y-108301737D01*
X145517885Y-108254118D01*
X145422647Y-108254118D01*
X145470266Y-108492213D02*
X145375028Y-108444594D01*
X145279790Y-108349356D01*
X145232171Y-108158880D01*
X145232171Y-107825547D01*
X145279790Y-107635071D01*
X145375028Y-107539833D01*
X145470266Y-107492213D01*
X145660742Y-107492213D01*
X145755980Y-107539833D01*
X145851218Y-107635071D01*
X145898837Y-107825547D01*
X145898837Y-108158880D01*
X145851218Y-108349356D01*
X145755980Y-108444594D01*
X145660742Y-108492213D01*
X145470266Y-108492213D01*
X146755980Y-107825547D02*
X146755980Y-108492213D01*
X146517885Y-107444594D02*
X146279790Y-108158880D01*
X146898837Y-108158880D01*
X170893333Y-103582380D02*
X170560000Y-103106190D01*
X170321904Y-103582380D02*
X170321904Y-102582380D01*
X170702857Y-102582380D01*
X170798095Y-102630000D01*
X170845714Y-102677619D01*
X170893333Y-102772857D01*
X170893333Y-102915714D01*
X170845714Y-103010952D01*
X170798095Y-103058571D01*
X170702857Y-103106190D01*
X170321904Y-103106190D01*
X171226666Y-102582380D02*
X171845714Y-102582380D01*
X171512380Y-102963333D01*
X171655238Y-102963333D01*
X171750476Y-103010952D01*
X171798095Y-103058571D01*
X171845714Y-103153809D01*
X171845714Y-103391904D01*
X171798095Y-103487142D01*
X171750476Y-103534761D01*
X171655238Y-103582380D01*
X171369523Y-103582380D01*
X171274285Y-103534761D01*
X171226666Y-103487142D01*
X169682133Y-109305180D02*
X169348800Y-108828990D01*
X169110704Y-109305180D02*
X169110704Y-108305180D01*
X169491657Y-108305180D01*
X169586895Y-108352800D01*
X169634514Y-108400419D01*
X169682133Y-108495657D01*
X169682133Y-108638514D01*
X169634514Y-108733752D01*
X169586895Y-108781371D01*
X169491657Y-108828990D01*
X169110704Y-108828990D01*
X170634514Y-109305180D02*
X170063085Y-109305180D01*
X170348800Y-109305180D02*
X170348800Y-108305180D01*
X170253561Y-108448038D01*
X170158323Y-108543276D01*
X170063085Y-108590895D01*
X171182380Y-97332857D02*
X170706190Y-97666190D01*
X171182380Y-97904285D02*
X170182380Y-97904285D01*
X170182380Y-97523333D01*
X170230000Y-97428095D01*
X170277619Y-97380476D01*
X170372857Y-97332857D01*
X170515714Y-97332857D01*
X170610952Y-97380476D01*
X170658571Y-97428095D01*
X170706190Y-97523333D01*
X170706190Y-97904285D01*
X171182380Y-96380476D02*
X171182380Y-96951904D01*
X171182380Y-96666190D02*
X170182380Y-96666190D01*
X170325238Y-96761428D01*
X170420476Y-96856666D01*
X170468095Y-96951904D01*
X170277619Y-95999523D02*
X170230000Y-95951904D01*
X170182380Y-95856666D01*
X170182380Y-95618571D01*
X170230000Y-95523333D01*
X170277619Y-95475714D01*
X170372857Y-95428095D01*
X170468095Y-95428095D01*
X170610952Y-95475714D01*
X171182380Y-96047142D01*
X171182380Y-95428095D01*
X171980952Y-75302380D02*
X171504761Y-75302380D01*
X171504761Y-74302380D01*
X172314285Y-74778571D02*
X172647619Y-74778571D01*
X172790476Y-75302380D02*
X172314285Y-75302380D01*
X172314285Y-74302380D01*
X172790476Y-74302380D01*
X173219047Y-75302380D02*
X173219047Y-74302380D01*
X173457142Y-74302380D01*
X173600000Y-74350000D01*
X173695238Y-74445238D01*
X173742857Y-74540476D01*
X173790476Y-74730952D01*
X173790476Y-74873809D01*
X173742857Y-75064285D01*
X173695238Y-75159523D01*
X173600000Y-75254761D01*
X173457142Y-75302380D01*
X173219047Y-75302380D01*
X174742857Y-75302380D02*
X174171428Y-75302380D01*
X174457142Y-75302380D02*
X174457142Y-74302380D01*
X174361904Y-74445238D01*
X174266666Y-74540476D01*
X174171428Y-74588095D01*
X176701904Y-121422380D02*
X176701904Y-120422380D01*
X176940000Y-120422380D01*
X177082857Y-120470000D01*
X177178095Y-120565238D01*
X177225714Y-120660476D01*
X177273333Y-120850952D01*
X177273333Y-120993809D01*
X177225714Y-121184285D01*
X177178095Y-121279523D01*
X177082857Y-121374761D01*
X176940000Y-121422380D01*
X176701904Y-121422380D01*
X178225714Y-121422380D02*
X177654285Y-121422380D01*
X177940000Y-121422380D02*
X177940000Y-120422380D01*
X177844761Y-120565238D01*
X177749523Y-120660476D01*
X177654285Y-120708095D01*
X180988095Y-121052380D02*
X180988095Y-120052380D01*
X181559523Y-121052380D02*
X181130952Y-120480952D01*
X181559523Y-120052380D02*
X180988095Y-120623809D01*
X165797142Y-90322380D02*
X165463809Y-89846190D01*
X165225714Y-90322380D02*
X165225714Y-89322380D01*
X165606666Y-89322380D01*
X165701904Y-89370000D01*
X165749523Y-89417619D01*
X165797142Y-89512857D01*
X165797142Y-89655714D01*
X165749523Y-89750952D01*
X165701904Y-89798571D01*
X165606666Y-89846190D01*
X165225714Y-89846190D01*
X166749523Y-90322380D02*
X166178095Y-90322380D01*
X166463809Y-90322380D02*
X166463809Y-89322380D01*
X166368571Y-89465238D01*
X166273333Y-89560476D01*
X166178095Y-89608095D01*
X167701904Y-90322380D02*
X167130476Y-90322380D01*
X167416190Y-90322380D02*
X167416190Y-89322380D01*
X167320952Y-89465238D01*
X167225714Y-89560476D01*
X167130476Y-89608095D01*
X151502142Y-100872380D02*
X151168809Y-100396190D01*
X150930714Y-100872380D02*
X150930714Y-99872380D01*
X151311666Y-99872380D01*
X151406904Y-99920000D01*
X151454523Y-99967619D01*
X151502142Y-100062857D01*
X151502142Y-100205714D01*
X151454523Y-100300952D01*
X151406904Y-100348571D01*
X151311666Y-100396190D01*
X150930714Y-100396190D01*
X152454523Y-100872380D02*
X151883095Y-100872380D01*
X152168809Y-100872380D02*
X152168809Y-99872380D01*
X152073571Y-100015238D01*
X151978333Y-100110476D01*
X151883095Y-100158095D01*
X153073571Y-99872380D02*
X153168809Y-99872380D01*
X153264047Y-99920000D01*
X153311666Y-99967619D01*
X153359285Y-100062857D01*
X153406904Y-100253333D01*
X153406904Y-100491428D01*
X153359285Y-100681904D01*
X153311666Y-100777142D01*
X153264047Y-100824761D01*
X153168809Y-100872380D01*
X153073571Y-100872380D01*
X152978333Y-100824761D01*
X152930714Y-100777142D01*
X152883095Y-100681904D01*
X152835476Y-100491428D01*
X152835476Y-100253333D01*
X152883095Y-100062857D01*
X152930714Y-99967619D01*
X152978333Y-99920000D01*
X153073571Y-99872380D01*
X115332380Y-80856666D02*
X114856190Y-81190000D01*
X115332380Y-81428095D02*
X114332380Y-81428095D01*
X114332380Y-81047142D01*
X114380000Y-80951904D01*
X114427619Y-80904285D01*
X114522857Y-80856666D01*
X114665714Y-80856666D01*
X114760952Y-80904285D01*
X114808571Y-80951904D01*
X114856190Y-81047142D01*
X114856190Y-81428095D01*
X115332380Y-80380476D02*
X115332380Y-80190000D01*
X115284761Y-80094761D01*
X115237142Y-80047142D01*
X115094285Y-79951904D01*
X114903809Y-79904285D01*
X114522857Y-79904285D01*
X114427619Y-79951904D01*
X114380000Y-79999523D01*
X114332380Y-80094761D01*
X114332380Y-80285238D01*
X114380000Y-80380476D01*
X114427619Y-80428095D01*
X114522857Y-80475714D01*
X114760952Y-80475714D01*
X114856190Y-80428095D01*
X114903809Y-80380476D01*
X114951428Y-80285238D01*
X114951428Y-80094761D01*
X114903809Y-79999523D01*
X114856190Y-79951904D01*
X114760952Y-79904285D01*
X148072380Y-82476666D02*
X147596190Y-82810000D01*
X148072380Y-83048095D02*
X147072380Y-83048095D01*
X147072380Y-82667142D01*
X147120000Y-82571904D01*
X147167619Y-82524285D01*
X147262857Y-82476666D01*
X147405714Y-82476666D01*
X147500952Y-82524285D01*
X147548571Y-82571904D01*
X147596190Y-82667142D01*
X147596190Y-83048095D01*
X147500952Y-81905238D02*
X147453333Y-82000476D01*
X147405714Y-82048095D01*
X147310476Y-82095714D01*
X147262857Y-82095714D01*
X147167619Y-82048095D01*
X147120000Y-82000476D01*
X147072380Y-81905238D01*
X147072380Y-81714761D01*
X147120000Y-81619523D01*
X147167619Y-81571904D01*
X147262857Y-81524285D01*
X147310476Y-81524285D01*
X147405714Y-81571904D01*
X147453333Y-81619523D01*
X147500952Y-81714761D01*
X147500952Y-81905238D01*
X147548571Y-82000476D01*
X147596190Y-82048095D01*
X147691428Y-82095714D01*
X147881904Y-82095714D01*
X147977142Y-82048095D01*
X148024761Y-82000476D01*
X148072380Y-81905238D01*
X148072380Y-81714761D01*
X148024761Y-81619523D01*
X147977142Y-81571904D01*
X147881904Y-81524285D01*
X147691428Y-81524285D01*
X147596190Y-81571904D01*
X147548571Y-81619523D01*
X147500952Y-81714761D01*
X161657380Y-96856666D02*
X161181190Y-97190000D01*
X161657380Y-97428095D02*
X160657380Y-97428095D01*
X160657380Y-97047142D01*
X160705000Y-96951904D01*
X160752619Y-96904285D01*
X160847857Y-96856666D01*
X160990714Y-96856666D01*
X161085952Y-96904285D01*
X161133571Y-96951904D01*
X161181190Y-97047142D01*
X161181190Y-97428095D01*
X160657380Y-95999523D02*
X160657380Y-96190000D01*
X160705000Y-96285238D01*
X160752619Y-96332857D01*
X160895476Y-96428095D01*
X161085952Y-96475714D01*
X161466904Y-96475714D01*
X161562142Y-96428095D01*
X161609761Y-96380476D01*
X161657380Y-96285238D01*
X161657380Y-96094761D01*
X161609761Y-95999523D01*
X161562142Y-95951904D01*
X161466904Y-95904285D01*
X161228809Y-95904285D01*
X161133571Y-95951904D01*
X161085952Y-95999523D01*
X161038333Y-96094761D01*
X161038333Y-96285238D01*
X161085952Y-96380476D01*
X161133571Y-96428095D01*
X161228809Y-96475714D01*
X166332380Y-96856666D02*
X165856190Y-97190000D01*
X166332380Y-97428095D02*
X165332380Y-97428095D01*
X165332380Y-97047142D01*
X165380000Y-96951904D01*
X165427619Y-96904285D01*
X165522857Y-96856666D01*
X165665714Y-96856666D01*
X165760952Y-96904285D01*
X165808571Y-96951904D01*
X165856190Y-97047142D01*
X165856190Y-97428095D01*
X165427619Y-96475714D02*
X165380000Y-96428095D01*
X165332380Y-96332857D01*
X165332380Y-96094761D01*
X165380000Y-95999523D01*
X165427619Y-95951904D01*
X165522857Y-95904285D01*
X165618095Y-95904285D01*
X165760952Y-95951904D01*
X166332380Y-96523333D01*
X166332380Y-95904285D01*
X115778095Y-115182380D02*
X115778095Y-115991904D01*
X115825714Y-116087142D01*
X115873333Y-116134761D01*
X115968571Y-116182380D01*
X116159047Y-116182380D01*
X116254285Y-116134761D01*
X116301904Y-116087142D01*
X116349523Y-115991904D01*
X116349523Y-115182380D01*
X117349523Y-116182380D02*
X116778095Y-116182380D01*
X117063809Y-116182380D02*
X117063809Y-115182380D01*
X116968571Y-115325238D01*
X116873333Y-115420476D01*
X116778095Y-115468095D01*
X141530952Y-124104761D02*
X141673809Y-124152380D01*
X141911904Y-124152380D01*
X142007142Y-124104761D01*
X142054761Y-124057142D01*
X142102380Y-123961904D01*
X142102380Y-123866666D01*
X142054761Y-123771428D01*
X142007142Y-123723809D01*
X141911904Y-123676190D01*
X141721428Y-123628571D01*
X141626190Y-123580952D01*
X141578571Y-123533333D01*
X141530952Y-123438095D01*
X141530952Y-123342857D01*
X141578571Y-123247619D01*
X141626190Y-123200000D01*
X141721428Y-123152380D01*
X141959523Y-123152380D01*
X142102380Y-123200000D01*
X142530952Y-124152380D02*
X142530952Y-123152380D01*
X143530952Y-123200000D02*
X143435714Y-123152380D01*
X143292857Y-123152380D01*
X143150000Y-123200000D01*
X143054761Y-123295238D01*
X143007142Y-123390476D01*
X142959523Y-123580952D01*
X142959523Y-123723809D01*
X143007142Y-123914285D01*
X143054761Y-124009523D01*
X143150000Y-124104761D01*
X143292857Y-124152380D01*
X143388095Y-124152380D01*
X143530952Y-124104761D01*
X143578571Y-124057142D01*
X143578571Y-123723809D01*
X143388095Y-123723809D01*
X144007142Y-123771428D02*
X144769047Y-123771428D01*
X145769047Y-124152380D02*
X145197619Y-124152380D01*
X145483333Y-124152380D02*
X145483333Y-123152380D01*
X145388095Y-123295238D01*
X145292857Y-123390476D01*
X145197619Y-123438095D01*
X153530952Y-124104761D02*
X153673809Y-124152380D01*
X153911904Y-124152380D01*
X154007142Y-124104761D01*
X154054761Y-124057142D01*
X154102380Y-123961904D01*
X154102380Y-123866666D01*
X154054761Y-123771428D01*
X154007142Y-123723809D01*
X153911904Y-123676190D01*
X153721428Y-123628571D01*
X153626190Y-123580952D01*
X153578571Y-123533333D01*
X153530952Y-123438095D01*
X153530952Y-123342857D01*
X153578571Y-123247619D01*
X153626190Y-123200000D01*
X153721428Y-123152380D01*
X153959523Y-123152380D01*
X154102380Y-123200000D01*
X154530952Y-124152380D02*
X154530952Y-123152380D01*
X155530952Y-123200000D02*
X155435714Y-123152380D01*
X155292857Y-123152380D01*
X155150000Y-123200000D01*
X155054761Y-123295238D01*
X155007142Y-123390476D01*
X154959523Y-123580952D01*
X154959523Y-123723809D01*
X155007142Y-123914285D01*
X155054761Y-124009523D01*
X155150000Y-124104761D01*
X155292857Y-124152380D01*
X155388095Y-124152380D01*
X155530952Y-124104761D01*
X155578571Y-124057142D01*
X155578571Y-123723809D01*
X155388095Y-123723809D01*
X156007142Y-123771428D02*
X156769047Y-123771428D01*
X156388095Y-124152380D02*
X156388095Y-123390476D01*
X157769047Y-124152380D02*
X157197619Y-124152380D01*
X157483333Y-124152380D02*
X157483333Y-123152380D01*
X157388095Y-123295238D01*
X157292857Y-123390476D01*
X157197619Y-123438095D01*
X156880533Y-122457980D02*
X156547200Y-121981790D01*
X156309104Y-122457980D02*
X156309104Y-121457980D01*
X156690057Y-121457980D01*
X156785295Y-121505600D01*
X156832914Y-121553219D01*
X156880533Y-121648457D01*
X156880533Y-121791314D01*
X156832914Y-121886552D01*
X156785295Y-121934171D01*
X156690057Y-121981790D01*
X156309104Y-121981790D01*
X157213866Y-121457980D02*
X157880533Y-121457980D01*
X157451961Y-122457980D01*
X152154761Y-97047619D02*
X152059523Y-97000000D01*
X151964285Y-96904761D01*
X151821428Y-96761904D01*
X151726190Y-96714285D01*
X151630952Y-96714285D01*
X151678571Y-96952380D02*
X151583333Y-96904761D01*
X151488095Y-96809523D01*
X151440476Y-96619047D01*
X151440476Y-96285714D01*
X151488095Y-96095238D01*
X151583333Y-96000000D01*
X151678571Y-95952380D01*
X151869047Y-95952380D01*
X151964285Y-96000000D01*
X152059523Y-96095238D01*
X152107142Y-96285714D01*
X152107142Y-96619047D01*
X152059523Y-96809523D01*
X151964285Y-96904761D01*
X151869047Y-96952380D01*
X151678571Y-96952380D01*
X153059523Y-96952380D02*
X152488095Y-96952380D01*
X152773809Y-96952380D02*
X152773809Y-95952380D01*
X152678571Y-96095238D01*
X152583333Y-96190476D01*
X152488095Y-96238095D01*
X116221428Y-124152380D02*
X116221428Y-123152380D01*
X116602380Y-123152380D01*
X116697619Y-123200000D01*
X116745238Y-123247619D01*
X116792857Y-123342857D01*
X116792857Y-123485714D01*
X116745238Y-123580952D01*
X116697619Y-123628571D01*
X116602380Y-123676190D01*
X116221428Y-123676190D01*
X117126190Y-123152380D02*
X117364285Y-124152380D01*
X117554761Y-123438095D01*
X117745238Y-124152380D01*
X117983333Y-123152380D01*
X118935714Y-124152380D02*
X118602380Y-123676190D01*
X118364285Y-124152380D02*
X118364285Y-123152380D01*
X118745238Y-123152380D01*
X118840476Y-123200000D01*
X118888095Y-123247619D01*
X118935714Y-123342857D01*
X118935714Y-123485714D01*
X118888095Y-123580952D01*
X118840476Y-123628571D01*
X118745238Y-123676190D01*
X118364285Y-123676190D01*
X119364285Y-123771428D02*
X120126190Y-123771428D01*
X121126190Y-124152380D02*
X120554761Y-124152380D01*
X120840476Y-124152380D02*
X120840476Y-123152380D01*
X120745238Y-123295238D01*
X120650000Y-123390476D01*
X120554761Y-123438095D01*
X127681428Y-124152380D02*
X127681428Y-123152380D01*
X128062380Y-123152380D01*
X128157619Y-123200000D01*
X128205238Y-123247619D01*
X128252857Y-123342857D01*
X128252857Y-123485714D01*
X128205238Y-123580952D01*
X128157619Y-123628571D01*
X128062380Y-123676190D01*
X127681428Y-123676190D01*
X128586190Y-123152380D02*
X128824285Y-124152380D01*
X129014761Y-123438095D01*
X129205238Y-124152380D01*
X129443333Y-123152380D01*
X130395714Y-124152380D02*
X130062380Y-123676190D01*
X129824285Y-124152380D02*
X129824285Y-123152380D01*
X130205238Y-123152380D01*
X130300476Y-123200000D01*
X130348095Y-123247619D01*
X130395714Y-123342857D01*
X130395714Y-123485714D01*
X130348095Y-123580952D01*
X130300476Y-123628571D01*
X130205238Y-123676190D01*
X129824285Y-123676190D01*
X130824285Y-123771428D02*
X131586190Y-123771428D01*
X131205238Y-124152380D02*
X131205238Y-123390476D01*
X132586190Y-124152380D02*
X132014761Y-124152380D01*
X132300476Y-124152380D02*
X132300476Y-123152380D01*
X132205238Y-123295238D01*
X132110000Y-123390476D01*
X132014761Y-123438095D01*
X166094761Y-123152380D02*
X166285238Y-123152380D01*
X166380476Y-123200000D01*
X166475714Y-123295238D01*
X166523333Y-123485714D01*
X166523333Y-123819047D01*
X166475714Y-124009523D01*
X166380476Y-124104761D01*
X166285238Y-124152380D01*
X166094761Y-124152380D01*
X165999523Y-124104761D01*
X165904285Y-124009523D01*
X165856666Y-123819047D01*
X165856666Y-123485714D01*
X165904285Y-123295238D01*
X165999523Y-123200000D01*
X166094761Y-123152380D01*
X166951904Y-123152380D02*
X166951904Y-123961904D01*
X166999523Y-124057142D01*
X167047142Y-124104761D01*
X167142380Y-124152380D01*
X167332857Y-124152380D01*
X167428095Y-124104761D01*
X167475714Y-124057142D01*
X167523333Y-123961904D01*
X167523333Y-123152380D01*
X167856666Y-123152380D02*
X168428095Y-123152380D01*
X168142380Y-124152380D02*
X168142380Y-123152380D01*
X168761428Y-123771428D02*
X169523333Y-123771428D01*
X170523333Y-124152380D02*
X169951904Y-124152380D01*
X170237619Y-124152380D02*
X170237619Y-123152380D01*
X170142380Y-123295238D01*
X170047142Y-123390476D01*
X169951904Y-123438095D01*
X178094761Y-123152380D02*
X178285238Y-123152380D01*
X178380476Y-123200000D01*
X178475714Y-123295238D01*
X178523333Y-123485714D01*
X178523333Y-123819047D01*
X178475714Y-124009523D01*
X178380476Y-124104761D01*
X178285238Y-124152380D01*
X178094761Y-124152380D01*
X177999523Y-124104761D01*
X177904285Y-124009523D01*
X177856666Y-123819047D01*
X177856666Y-123485714D01*
X177904285Y-123295238D01*
X177999523Y-123200000D01*
X178094761Y-123152380D01*
X178951904Y-123152380D02*
X178951904Y-123961904D01*
X178999523Y-124057142D01*
X179047142Y-124104761D01*
X179142380Y-124152380D01*
X179332857Y-124152380D01*
X179428095Y-124104761D01*
X179475714Y-124057142D01*
X179523333Y-123961904D01*
X179523333Y-123152380D01*
X179856666Y-123152380D02*
X180428095Y-123152380D01*
X180142380Y-124152380D02*
X180142380Y-123152380D01*
X180761428Y-123771428D02*
X181523333Y-123771428D01*
X181142380Y-124152380D02*
X181142380Y-123390476D01*
X182523333Y-124152380D02*
X181951904Y-124152380D01*
X182237619Y-124152380D02*
X182237619Y-123152380D01*
X182142380Y-123295238D01*
X182047142Y-123390476D01*
X181951904Y-123438095D01*
X131190476Y-89022380D02*
X131190476Y-88022380D01*
X131523809Y-88736666D01*
X131857142Y-88022380D01*
X131857142Y-89022380D01*
X132857142Y-89022380D02*
X132285714Y-89022380D01*
X132571428Y-89022380D02*
X132571428Y-88022380D01*
X132476190Y-88165238D01*
X132380952Y-88260476D01*
X132285714Y-88308095D01*
X153032380Y-72476190D02*
X152032380Y-72476190D01*
X153032380Y-71428571D02*
X152556190Y-71761904D01*
X153032380Y-72000000D02*
X152032380Y-72000000D01*
X152032380Y-71619047D01*
X152080000Y-71523809D01*
X152127619Y-71476190D01*
X152222857Y-71428571D01*
X152365714Y-71428571D01*
X152460952Y-71476190D01*
X152508571Y-71523809D01*
X152556190Y-71619047D01*
X152556190Y-72000000D01*
X153032380Y-70476190D02*
X153032380Y-71047619D01*
X153032380Y-70761904D02*
X152032380Y-70761904D01*
X152175238Y-70857142D01*
X152270476Y-70952380D01*
X152318095Y-71047619D01*
X164583333Y-79357142D02*
X164535714Y-79404761D01*
X164392857Y-79452380D01*
X164297619Y-79452380D01*
X164154761Y-79404761D01*
X164059523Y-79309523D01*
X164011904Y-79214285D01*
X163964285Y-79023809D01*
X163964285Y-78880952D01*
X164011904Y-78690476D01*
X164059523Y-78595238D01*
X164154761Y-78500000D01*
X164297619Y-78452380D01*
X164392857Y-78452380D01*
X164535714Y-78500000D01*
X164583333Y-78547619D01*
X165488095Y-78452380D02*
X165011904Y-78452380D01*
X164964285Y-78928571D01*
X165011904Y-78880952D01*
X165107142Y-78833333D01*
X165345238Y-78833333D01*
X165440476Y-78880952D01*
X165488095Y-78928571D01*
X165535714Y-79023809D01*
X165535714Y-79261904D01*
X165488095Y-79357142D01*
X165440476Y-79404761D01*
X165345238Y-79452380D01*
X165107142Y-79452380D01*
X165011904Y-79404761D01*
X164964285Y-79357142D01*
X164583333Y-74357142D02*
X164535714Y-74404761D01*
X164392857Y-74452380D01*
X164297619Y-74452380D01*
X164154761Y-74404761D01*
X164059523Y-74309523D01*
X164011904Y-74214285D01*
X163964285Y-74023809D01*
X163964285Y-73880952D01*
X164011904Y-73690476D01*
X164059523Y-73595238D01*
X164154761Y-73500000D01*
X164297619Y-73452380D01*
X164392857Y-73452380D01*
X164535714Y-73500000D01*
X164583333Y-73547619D01*
X165440476Y-73785714D02*
X165440476Y-74452380D01*
X165202380Y-73404761D02*
X164964285Y-74119047D01*
X165583333Y-74119047D01*
X152833333Y-93107142D02*
X152785714Y-93154761D01*
X152642857Y-93202380D01*
X152547619Y-93202380D01*
X152404761Y-93154761D01*
X152309523Y-93059523D01*
X152261904Y-92964285D01*
X152214285Y-92773809D01*
X152214285Y-92630952D01*
X152261904Y-92440476D01*
X152309523Y-92345238D01*
X152404761Y-92250000D01*
X152547619Y-92202380D01*
X152642857Y-92202380D01*
X152785714Y-92250000D01*
X152833333Y-92297619D01*
X153166666Y-92202380D02*
X153785714Y-92202380D01*
X153452380Y-92583333D01*
X153595238Y-92583333D01*
X153690476Y-92630952D01*
X153738095Y-92678571D01*
X153785714Y-92773809D01*
X153785714Y-93011904D01*
X153738095Y-93107142D01*
X153690476Y-93154761D01*
X153595238Y-93202380D01*
X153309523Y-93202380D01*
X153214285Y-93154761D01*
X153166666Y-93107142D01*
M02*
