G04 #@! TF.GenerationSoftware,KiCad,Pcbnew,5.1.5+dfsg1-2build2*
G04 #@! TF.CreationDate,2021-01-25T09:14:11-06:00*
G04 #@! TF.ProjectId,speaker-switcher-remote,73706561-6b65-4722-9d73-776974636865,rev?*
G04 #@! TF.SameCoordinates,Original*
G04 #@! TF.FileFunction,Copper,L2,Bot*
G04 #@! TF.FilePolarity,Positive*
%FSLAX46Y46*%
G04 Gerber Fmt 4.6, Leading zero omitted, Abs format (unit mm)*
G04 Created by KiCad (PCBNEW 5.1.5+dfsg1-2build2) date 2021-01-25 09:14:11*
%MOMM*%
%LPD*%
G04 APERTURE LIST*
%ADD10C,1.524000*%
%ADD11O,2.400000X2.400000*%
%ADD12C,2.400000*%
%ADD13O,1.700000X1.700000*%
%ADD14R,1.700000X1.700000*%
%ADD15O,1.600000X1.600000*%
%ADD16C,1.600000*%
%ADD17O,1.905000X2.000000*%
%ADD18R,1.905000X2.000000*%
%ADD19C,1.500000*%
%ADD20C,0.500000*%
%ADD21C,1.000000*%
G04 APERTURE END LIST*
D10*
X106680000Y-110490000D03*
X106680000Y-107950000D03*
X106680000Y-105410000D03*
X106680000Y-102870000D03*
X106680000Y-100330000D03*
X106680000Y-97790000D03*
X106680000Y-95250000D03*
X106680000Y-92710000D03*
X106680000Y-90170000D03*
X106680000Y-87630000D03*
X106680000Y-85090000D03*
X106680000Y-82550000D03*
X106680000Y-80010000D03*
X106680000Y-77470000D03*
X106680000Y-74930000D03*
X91440000Y-110490000D03*
X91440000Y-107950000D03*
X91440000Y-105410000D03*
X91440000Y-102870000D03*
X91440000Y-100330000D03*
X91440000Y-97790000D03*
X91440000Y-95250000D03*
X91440000Y-92710000D03*
X91440000Y-90170000D03*
X91440000Y-87630000D03*
X91440000Y-85090000D03*
X91440000Y-82550000D03*
X91440000Y-80010000D03*
X91440000Y-77470000D03*
X91440000Y-74930000D03*
D11*
X130250000Y-72330000D03*
D12*
X130250000Y-92650000D03*
D13*
X109220000Y-66040000D03*
X111760000Y-66040000D03*
D14*
X114300000Y-66040000D03*
D15*
X119380000Y-87630000D03*
D16*
X111760000Y-87630000D03*
D15*
X119380000Y-92650000D03*
D16*
X111760000Y-92650000D03*
D15*
X119380000Y-77650000D03*
D16*
X111760000Y-77650000D03*
D15*
X124500000Y-85280000D03*
D16*
X124500000Y-92900000D03*
D15*
X111630000Y-72150000D03*
D16*
X119250000Y-72150000D03*
D15*
X119380000Y-82550000D03*
D16*
X111760000Y-82550000D03*
D17*
X130080000Y-99380000D03*
X127540000Y-99380000D03*
D18*
X125000000Y-99380000D03*
D17*
X118080000Y-99380000D03*
X115540000Y-99380000D03*
D18*
X113000000Y-99380000D03*
D19*
X119244345Y-118989604D02*
X119951451Y-118282498D01*
X122836447Y-115397502D02*
X123543553Y-114690396D01*
X120296447Y-110099604D02*
X121003553Y-109392498D01*
X123888549Y-106507502D02*
X124595655Y-105800396D01*
X111624345Y-118989604D02*
X112331451Y-118282498D01*
X115216447Y-115397502D02*
X115923553Y-114690396D01*
X112150396Y-110099604D02*
X112857502Y-109392498D01*
X115742498Y-106507502D02*
X116449604Y-105800396D01*
X127390396Y-118989604D02*
X128097502Y-118282498D01*
X130982498Y-115397502D02*
X131689604Y-114690396D01*
X127916447Y-110099604D02*
X128623553Y-109392498D01*
X131508549Y-106507502D02*
X132215655Y-105800396D01*
D20*
X111760000Y-82550000D02*
X115570000Y-82550000D01*
X118300000Y-85280000D02*
X124500000Y-85280000D01*
X115570000Y-82550000D02*
X118300000Y-85280000D01*
X111760000Y-66040000D02*
X111760000Y-68580000D01*
X111760000Y-68580000D02*
X114300000Y-71120000D01*
X114300000Y-75110000D02*
X111760000Y-77650000D01*
X114300000Y-71120000D02*
X114300000Y-75110000D01*
X119380000Y-87630000D02*
X118110000Y-87630000D01*
X118110000Y-87630000D02*
X115570000Y-85090000D01*
X111760000Y-85090000D02*
X106680000Y-90170000D01*
X115570000Y-85090000D02*
X111760000Y-85090000D01*
X123711772Y-105623619D02*
X124242102Y-106153949D01*
X111760000Y-88761370D02*
X121920000Y-98921370D01*
X111760000Y-87630000D02*
X111760000Y-88761370D01*
X121920000Y-103831847D02*
X124242102Y-106153949D01*
X121920000Y-98921370D02*
X121920000Y-103831847D01*
X92652001Y-109277999D02*
X91440000Y-110490000D01*
X109682001Y-109277999D02*
X92652001Y-109277999D01*
X118080000Y-100880000D02*
X109682001Y-109277999D01*
X118080000Y-99380000D02*
X118080000Y-100880000D01*
D21*
X131336051Y-114031790D02*
X131336051Y-115043949D01*
X131336051Y-109912950D02*
X131336051Y-114031790D01*
X127540000Y-106116899D02*
X131336051Y-109912950D01*
X127540000Y-99380000D02*
X127540000Y-106116899D01*
X120511370Y-92650000D02*
X119380000Y-92650000D01*
X130250000Y-82911370D02*
X120511370Y-92650000D01*
X130250000Y-72330000D02*
X130250000Y-82911370D01*
M02*
