G04 #@! TF.GenerationSoftware,KiCad,Pcbnew,5.1.5+dfsg1-2build2*
G04 #@! TF.CreationDate,2021-03-07T10:08:00-06:00*
G04 #@! TF.ProjectId,speaker-switcher-remote,73706561-6b65-4722-9d73-776974636865,rev?*
G04 #@! TF.SameCoordinates,Original*
G04 #@! TF.FileFunction,Other,Fab,Top*
%FSLAX46Y46*%
G04 Gerber Fmt 4.6, Leading zero omitted, Abs format (unit mm)*
G04 Created by KiCad (PCBNEW 5.1.5+dfsg1-2build2) date 2021-03-07 10:08:00*
%MOMM*%
%LPD*%
G04 APERTURE LIST*
%ADD10C,0.100000*%
%ADD11C,0.150000*%
G04 APERTURE END LIST*
D10*
X113625000Y-108485000D02*
X119625000Y-108485000D01*
X113625000Y-105985000D02*
X113625000Y-108485000D01*
X119625000Y-105985000D02*
X113625000Y-105985000D01*
X119625000Y-108485000D02*
X119625000Y-105985000D01*
X119000000Y-111065000D02*
X114000000Y-111065000D01*
X119000000Y-113565000D02*
X119000000Y-111065000D01*
X114000000Y-113565000D02*
X119000000Y-113565000D01*
X114000000Y-111065000D02*
X114000000Y-113565000D01*
X177696375Y-109926375D02*
G75*
G02X181930000Y-111680000I1753625J-1753625D01*
G01*
X177696375Y-113433625D02*
G75*
G03X181930000Y-111680000I1753625J1753625D01*
G01*
X177700000Y-109910000D02*
X177700000Y-113410000D01*
X157860000Y-112950000D02*
X157200000Y-112950000D01*
X150240000Y-112950000D02*
X150900000Y-112950000D01*
X157200000Y-111700000D02*
X150900000Y-111700000D01*
X157200000Y-114200000D02*
X157200000Y-111700000D01*
X150900000Y-114200000D02*
X157200000Y-114200000D01*
X150900000Y-111700000D02*
X150900000Y-114200000D01*
X150930000Y-110385000D02*
X150930000Y-109115000D01*
X154630000Y-110385000D02*
X154630000Y-109115000D01*
X157780000Y-109115000D02*
X147780000Y-109115000D01*
X147780000Y-110385000D02*
X157780000Y-110385000D01*
X147780000Y-105985000D02*
X147780000Y-110385000D01*
X157780000Y-105985000D02*
X147780000Y-105985000D01*
X157780000Y-110385000D02*
X157780000Y-105985000D01*
X174870000Y-105500000D02*
X174210000Y-105500000D01*
X167250000Y-105500000D02*
X167910000Y-105500000D01*
X174210000Y-104250000D02*
X167910000Y-104250000D01*
X174210000Y-106750000D02*
X174210000Y-104250000D01*
X167910000Y-106750000D02*
X174210000Y-106750000D01*
X167910000Y-104250000D02*
X167910000Y-106750000D01*
X173658800Y-111222800D02*
X172998800Y-111222800D01*
X166038800Y-111222800D02*
X166698800Y-111222800D01*
X172998800Y-109972800D02*
X166698800Y-109972800D01*
X172998800Y-112472800D02*
X172998800Y-109972800D01*
X166698800Y-112472800D02*
X172998800Y-112472800D01*
X166698800Y-109972800D02*
X166698800Y-112472800D01*
X173100000Y-92880000D02*
X173100000Y-93540000D01*
X173100000Y-100500000D02*
X173100000Y-99840000D01*
X171850000Y-93540000D02*
X171850000Y-99840000D01*
X174350000Y-93540000D02*
X171850000Y-93540000D01*
X174350000Y-99840000D02*
X174350000Y-93540000D01*
X171850000Y-99840000D02*
X174350000Y-99840000D01*
X174450000Y-78660000D02*
X175450000Y-79285000D01*
X175450000Y-78035000D02*
X174450000Y-78660000D01*
X175450000Y-83610000D02*
X175450000Y-76210000D01*
X169700000Y-83610000D02*
X175450000Y-83610000D01*
X169700000Y-76210000D02*
X169700000Y-83610000D01*
X175450000Y-76210000D02*
X169700000Y-76210000D01*
X179360000Y-119850000D02*
X179360000Y-117150000D01*
X179160000Y-119850000D02*
X179160000Y-117150000D01*
X179260000Y-119850000D02*
X179260000Y-117150000D01*
X173630000Y-118500000D02*
X174840000Y-118500000D01*
X181250000Y-118500000D02*
X180040000Y-118500000D01*
X174840000Y-119850000D02*
X180040000Y-119850000D01*
X174840000Y-117150000D02*
X174840000Y-119850000D01*
X180040000Y-117150000D02*
X174840000Y-117150000D01*
X180040000Y-119850000D02*
X180040000Y-117150000D01*
X162630000Y-87500000D02*
X163290000Y-87500000D01*
X170250000Y-87500000D02*
X169590000Y-87500000D01*
X163290000Y-88750000D02*
X169590000Y-88750000D01*
X163290000Y-86250000D02*
X163290000Y-88750000D01*
X169590000Y-86250000D02*
X163290000Y-86250000D01*
X169590000Y-88750000D02*
X169590000Y-86250000D01*
X155955000Y-102790000D02*
X155295000Y-102790000D01*
X148335000Y-102790000D02*
X148995000Y-102790000D01*
X155295000Y-101540000D02*
X148995000Y-101540000D01*
X155295000Y-104040000D02*
X155295000Y-101540000D01*
X148995000Y-104040000D02*
X155295000Y-104040000D01*
X148995000Y-101540000D02*
X148995000Y-104040000D01*
X117250000Y-76880000D02*
X117250000Y-77540000D01*
X117250000Y-84500000D02*
X117250000Y-83840000D01*
X116000000Y-77540000D02*
X116000000Y-83840000D01*
X118500000Y-77540000D02*
X116000000Y-77540000D01*
X118500000Y-83840000D02*
X118500000Y-77540000D01*
X116000000Y-83840000D02*
X118500000Y-83840000D01*
X145250000Y-86120000D02*
X145250000Y-85460000D01*
X145250000Y-78500000D02*
X145250000Y-79160000D01*
X146500000Y-85460000D02*
X146500000Y-79160000D01*
X144000000Y-85460000D02*
X146500000Y-85460000D01*
X144000000Y-79160000D02*
X144000000Y-85460000D01*
X146500000Y-79160000D02*
X144000000Y-79160000D01*
X163575000Y-92880000D02*
X163575000Y-93540000D01*
X163575000Y-100500000D02*
X163575000Y-99840000D01*
X162325000Y-93540000D02*
X162325000Y-99840000D01*
X164825000Y-93540000D02*
X162325000Y-93540000D01*
X164825000Y-99840000D02*
X164825000Y-93540000D01*
X162325000Y-99840000D02*
X164825000Y-99840000D01*
X168250000Y-92880000D02*
X168250000Y-93540000D01*
X168250000Y-100500000D02*
X168250000Y-99840000D01*
X167000000Y-93540000D02*
X167000000Y-99840000D01*
X169500000Y-93540000D02*
X167000000Y-93540000D01*
X169500000Y-99840000D02*
X169500000Y-93540000D01*
X167000000Y-99840000D02*
X169500000Y-99840000D01*
X118390000Y-116850000D02*
X118390000Y-118120000D01*
X114690000Y-116850000D02*
X114690000Y-118120000D01*
X111540000Y-118120000D02*
X121540000Y-118120000D01*
X121540000Y-116850000D02*
X111540000Y-116850000D01*
X121540000Y-121250000D02*
X121540000Y-116850000D01*
X111540000Y-121250000D02*
X121540000Y-121250000D01*
X111540000Y-116850000D02*
X111540000Y-121250000D01*
X146887200Y-118385600D02*
X149297200Y-118385600D01*
X167207200Y-118385600D02*
X164797200Y-118385600D01*
X149297200Y-120885600D02*
X164797200Y-120885600D01*
X149297200Y-115885600D02*
X149297200Y-120885600D01*
X164797200Y-115885600D02*
X149297200Y-115885600D01*
X164797200Y-120885600D02*
X164797200Y-115885600D01*
X154201375Y-94686375D02*
G75*
G02X158435000Y-96440000I1753625J-1753625D01*
G01*
X154201375Y-98193625D02*
G75*
G03X158435000Y-96440000I1753625J1753625D01*
G01*
X154205000Y-94670000D02*
X154205000Y-98170000D01*
X150885000Y-70230000D02*
X151520000Y-70865000D01*
X143900000Y-70230000D02*
X150885000Y-70230000D01*
X143900000Y-72770000D02*
X143900000Y-70230000D01*
X151520000Y-72770000D02*
X143900000Y-72770000D01*
X151520000Y-70865000D02*
X151520000Y-72770000D01*
X167750000Y-80250000D02*
X161750000Y-80250000D01*
X167750000Y-82750000D02*
X167750000Y-80250000D01*
X161750000Y-82750000D02*
X167750000Y-82750000D01*
X161750000Y-80250000D02*
X161750000Y-82750000D01*
X167750000Y-75250000D02*
X161750000Y-75250000D01*
X167750000Y-77750000D02*
X167750000Y-75250000D01*
X161750000Y-77750000D02*
X167750000Y-77750000D01*
X161750000Y-75250000D02*
X161750000Y-77750000D01*
X156788861Y-89187500D02*
X156788861Y-88187500D01*
X157288861Y-88687500D02*
X156288861Y-88687500D01*
X158000000Y-86500000D02*
G75*
G03X158000000Y-86500000I-5000000J0D01*
G01*
D11*
X116458333Y-107592142D02*
X116410714Y-107639761D01*
X116267857Y-107687380D01*
X116172619Y-107687380D01*
X116029761Y-107639761D01*
X115934523Y-107544523D01*
X115886904Y-107449285D01*
X115839285Y-107258809D01*
X115839285Y-107115952D01*
X115886904Y-106925476D01*
X115934523Y-106830238D01*
X116029761Y-106735000D01*
X116172619Y-106687380D01*
X116267857Y-106687380D01*
X116410714Y-106735000D01*
X116458333Y-106782619D01*
X116839285Y-106782619D02*
X116886904Y-106735000D01*
X116982142Y-106687380D01*
X117220238Y-106687380D01*
X117315476Y-106735000D01*
X117363095Y-106782619D01*
X117410714Y-106877857D01*
X117410714Y-106973095D01*
X117363095Y-107115952D01*
X116791666Y-107687380D01*
X117410714Y-107687380D01*
X116333333Y-112672142D02*
X116285714Y-112719761D01*
X116142857Y-112767380D01*
X116047619Y-112767380D01*
X115904761Y-112719761D01*
X115809523Y-112624523D01*
X115761904Y-112529285D01*
X115714285Y-112338809D01*
X115714285Y-112195952D01*
X115761904Y-112005476D01*
X115809523Y-111910238D01*
X115904761Y-111815000D01*
X116047619Y-111767380D01*
X116142857Y-111767380D01*
X116285714Y-111815000D01*
X116333333Y-111862619D01*
X117285714Y-112767380D02*
X116714285Y-112767380D01*
X117000000Y-112767380D02*
X117000000Y-111767380D01*
X116904761Y-111910238D01*
X116809523Y-112005476D01*
X116714285Y-112053095D01*
X183557619Y-111775238D02*
X183510000Y-111870476D01*
X183414761Y-111965714D01*
X183271904Y-112108571D01*
X183224285Y-112203809D01*
X183224285Y-112299047D01*
X183462380Y-112251428D02*
X183414761Y-112346666D01*
X183319523Y-112441904D01*
X183129047Y-112489523D01*
X182795714Y-112489523D01*
X182605238Y-112441904D01*
X182510000Y-112346666D01*
X182462380Y-112251428D01*
X182462380Y-112060952D01*
X182510000Y-111965714D01*
X182605238Y-111870476D01*
X182795714Y-111822857D01*
X183129047Y-111822857D01*
X183319523Y-111870476D01*
X183414761Y-111965714D01*
X183462380Y-112060952D01*
X183462380Y-112251428D01*
X182462380Y-111489523D02*
X182462380Y-110870476D01*
X182843333Y-111203809D01*
X182843333Y-111060952D01*
X182890952Y-110965714D01*
X182938571Y-110918095D01*
X183033809Y-110870476D01*
X183271904Y-110870476D01*
X183367142Y-110918095D01*
X183414761Y-110965714D01*
X183462380Y-111060952D01*
X183462380Y-111346666D01*
X183414761Y-111441904D01*
X183367142Y-111489523D01*
X153407142Y-113402380D02*
X153073809Y-112926190D01*
X152835714Y-113402380D02*
X152835714Y-112402380D01*
X153216666Y-112402380D01*
X153311904Y-112450000D01*
X153359523Y-112497619D01*
X153407142Y-112592857D01*
X153407142Y-112735714D01*
X153359523Y-112830952D01*
X153311904Y-112878571D01*
X153216666Y-112926190D01*
X152835714Y-112926190D01*
X154359523Y-113402380D02*
X153788095Y-113402380D01*
X154073809Y-113402380D02*
X154073809Y-112402380D01*
X153978571Y-112545238D01*
X153883333Y-112640476D01*
X153788095Y-112688095D01*
X154692857Y-112402380D02*
X155311904Y-112402380D01*
X154978571Y-112783333D01*
X155121428Y-112783333D01*
X155216666Y-112830952D01*
X155264285Y-112878571D01*
X155311904Y-112973809D01*
X155311904Y-113211904D01*
X155264285Y-113307142D01*
X155216666Y-113354761D01*
X155121428Y-113402380D01*
X154835714Y-113402380D01*
X154740476Y-113354761D01*
X154692857Y-113307142D01*
X152684761Y-112052619D02*
X152589523Y-112005000D01*
X152494285Y-111909761D01*
X152351428Y-111766904D01*
X152256190Y-111719285D01*
X152160952Y-111719285D01*
X152208571Y-111957380D02*
X152113333Y-111909761D01*
X152018095Y-111814523D01*
X151970476Y-111624047D01*
X151970476Y-111290714D01*
X152018095Y-111100238D01*
X152113333Y-111005000D01*
X152208571Y-110957380D01*
X152399047Y-110957380D01*
X152494285Y-111005000D01*
X152589523Y-111100238D01*
X152637142Y-111290714D01*
X152637142Y-111624047D01*
X152589523Y-111814523D01*
X152494285Y-111909761D01*
X152399047Y-111957380D01*
X152208571Y-111957380D01*
X153494285Y-111290714D02*
X153494285Y-111957380D01*
X153256190Y-110909761D02*
X153018095Y-111624047D01*
X153637142Y-111624047D01*
X170893333Y-105952380D02*
X170560000Y-105476190D01*
X170321904Y-105952380D02*
X170321904Y-104952380D01*
X170702857Y-104952380D01*
X170798095Y-105000000D01*
X170845714Y-105047619D01*
X170893333Y-105142857D01*
X170893333Y-105285714D01*
X170845714Y-105380952D01*
X170798095Y-105428571D01*
X170702857Y-105476190D01*
X170321904Y-105476190D01*
X171226666Y-104952380D02*
X171845714Y-104952380D01*
X171512380Y-105333333D01*
X171655238Y-105333333D01*
X171750476Y-105380952D01*
X171798095Y-105428571D01*
X171845714Y-105523809D01*
X171845714Y-105761904D01*
X171798095Y-105857142D01*
X171750476Y-105904761D01*
X171655238Y-105952380D01*
X171369523Y-105952380D01*
X171274285Y-105904761D01*
X171226666Y-105857142D01*
X169682133Y-111675180D02*
X169348800Y-111198990D01*
X169110704Y-111675180D02*
X169110704Y-110675180D01*
X169491657Y-110675180D01*
X169586895Y-110722800D01*
X169634514Y-110770419D01*
X169682133Y-110865657D01*
X169682133Y-111008514D01*
X169634514Y-111103752D01*
X169586895Y-111151371D01*
X169491657Y-111198990D01*
X169110704Y-111198990D01*
X170634514Y-111675180D02*
X170063085Y-111675180D01*
X170348800Y-111675180D02*
X170348800Y-110675180D01*
X170253561Y-110818038D01*
X170158323Y-110913276D01*
X170063085Y-110960895D01*
X173552380Y-97332857D02*
X173076190Y-97666190D01*
X173552380Y-97904285D02*
X172552380Y-97904285D01*
X172552380Y-97523333D01*
X172600000Y-97428095D01*
X172647619Y-97380476D01*
X172742857Y-97332857D01*
X172885714Y-97332857D01*
X172980952Y-97380476D01*
X173028571Y-97428095D01*
X173076190Y-97523333D01*
X173076190Y-97904285D01*
X173552380Y-96380476D02*
X173552380Y-96951904D01*
X173552380Y-96666190D02*
X172552380Y-96666190D01*
X172695238Y-96761428D01*
X172790476Y-96856666D01*
X172838095Y-96951904D01*
X172647619Y-95999523D02*
X172600000Y-95951904D01*
X172552380Y-95856666D01*
X172552380Y-95618571D01*
X172600000Y-95523333D01*
X172647619Y-95475714D01*
X172742857Y-95428095D01*
X172838095Y-95428095D01*
X172980952Y-95475714D01*
X173552380Y-96047142D01*
X173552380Y-95428095D01*
X170852380Y-81029047D02*
X170852380Y-81505238D01*
X169852380Y-81505238D01*
X170328571Y-80695714D02*
X170328571Y-80362380D01*
X170852380Y-80219523D02*
X170852380Y-80695714D01*
X169852380Y-80695714D01*
X169852380Y-80219523D01*
X170852380Y-79790952D02*
X169852380Y-79790952D01*
X169852380Y-79552857D01*
X169900000Y-79410000D01*
X169995238Y-79314761D01*
X170090476Y-79267142D01*
X170280952Y-79219523D01*
X170423809Y-79219523D01*
X170614285Y-79267142D01*
X170709523Y-79314761D01*
X170804761Y-79410000D01*
X170852380Y-79552857D01*
X170852380Y-79790952D01*
X170852380Y-78267142D02*
X170852380Y-78838571D01*
X170852380Y-78552857D02*
X169852380Y-78552857D01*
X169995238Y-78648095D01*
X170090476Y-78743333D01*
X170138095Y-78838571D01*
X105216666Y-125952380D02*
X104883333Y-125476190D01*
X104645238Y-125952380D02*
X104645238Y-124952380D01*
X105026190Y-124952380D01*
X105121428Y-125000000D01*
X105169047Y-125047619D01*
X105216666Y-125142857D01*
X105216666Y-125285714D01*
X105169047Y-125380952D01*
X105121428Y-125428571D01*
X105026190Y-125476190D01*
X104645238Y-125476190D01*
X105645238Y-125428571D02*
X105978571Y-125428571D01*
X106121428Y-125952380D02*
X105645238Y-125952380D01*
X105645238Y-124952380D01*
X106121428Y-124952380D01*
X106883333Y-125428571D02*
X106550000Y-125428571D01*
X106550000Y-125952380D02*
X106550000Y-124952380D01*
X107026190Y-124952380D01*
X107550000Y-124952380D02*
X107550000Y-125190476D01*
X107311904Y-125095238D02*
X107550000Y-125190476D01*
X107788095Y-125095238D01*
X107407142Y-125380952D02*
X107550000Y-125190476D01*
X107692857Y-125380952D01*
X108311904Y-124952380D02*
X108311904Y-125190476D01*
X108073809Y-125095238D02*
X108311904Y-125190476D01*
X108550000Y-125095238D01*
X108169047Y-125380952D02*
X108311904Y-125190476D01*
X108454761Y-125380952D01*
X189216666Y-125952380D02*
X188883333Y-125476190D01*
X188645238Y-125952380D02*
X188645238Y-124952380D01*
X189026190Y-124952380D01*
X189121428Y-125000000D01*
X189169047Y-125047619D01*
X189216666Y-125142857D01*
X189216666Y-125285714D01*
X189169047Y-125380952D01*
X189121428Y-125428571D01*
X189026190Y-125476190D01*
X188645238Y-125476190D01*
X189645238Y-125428571D02*
X189978571Y-125428571D01*
X190121428Y-125952380D02*
X189645238Y-125952380D01*
X189645238Y-124952380D01*
X190121428Y-124952380D01*
X190883333Y-125428571D02*
X190550000Y-125428571D01*
X190550000Y-125952380D02*
X190550000Y-124952380D01*
X191026190Y-124952380D01*
X191550000Y-124952380D02*
X191550000Y-125190476D01*
X191311904Y-125095238D02*
X191550000Y-125190476D01*
X191788095Y-125095238D01*
X191407142Y-125380952D02*
X191550000Y-125190476D01*
X191692857Y-125380952D01*
X192311904Y-124952380D02*
X192311904Y-125190476D01*
X192073809Y-125095238D02*
X192311904Y-125190476D01*
X192550000Y-125095238D01*
X192169047Y-125380952D02*
X192311904Y-125190476D01*
X192454761Y-125380952D01*
X189216666Y-71952380D02*
X188883333Y-71476190D01*
X188645238Y-71952380D02*
X188645238Y-70952380D01*
X189026190Y-70952380D01*
X189121428Y-71000000D01*
X189169047Y-71047619D01*
X189216666Y-71142857D01*
X189216666Y-71285714D01*
X189169047Y-71380952D01*
X189121428Y-71428571D01*
X189026190Y-71476190D01*
X188645238Y-71476190D01*
X189645238Y-71428571D02*
X189978571Y-71428571D01*
X190121428Y-71952380D02*
X189645238Y-71952380D01*
X189645238Y-70952380D01*
X190121428Y-70952380D01*
X190883333Y-71428571D02*
X190550000Y-71428571D01*
X190550000Y-71952380D02*
X190550000Y-70952380D01*
X191026190Y-70952380D01*
X191550000Y-70952380D02*
X191550000Y-71190476D01*
X191311904Y-71095238D02*
X191550000Y-71190476D01*
X191788095Y-71095238D01*
X191407142Y-71380952D02*
X191550000Y-71190476D01*
X191692857Y-71380952D01*
X192311904Y-70952380D02*
X192311904Y-71190476D01*
X192073809Y-71095238D02*
X192311904Y-71190476D01*
X192550000Y-71095238D01*
X192169047Y-71380952D02*
X192311904Y-71190476D01*
X192454761Y-71380952D01*
X105216666Y-71952380D02*
X104883333Y-71476190D01*
X104645238Y-71952380D02*
X104645238Y-70952380D01*
X105026190Y-70952380D01*
X105121428Y-71000000D01*
X105169047Y-71047619D01*
X105216666Y-71142857D01*
X105216666Y-71285714D01*
X105169047Y-71380952D01*
X105121428Y-71428571D01*
X105026190Y-71476190D01*
X104645238Y-71476190D01*
X105645238Y-71428571D02*
X105978571Y-71428571D01*
X106121428Y-71952380D02*
X105645238Y-71952380D01*
X105645238Y-70952380D01*
X106121428Y-70952380D01*
X106883333Y-71428571D02*
X106550000Y-71428571D01*
X106550000Y-71952380D02*
X106550000Y-70952380D01*
X107026190Y-70952380D01*
X107550000Y-70952380D02*
X107550000Y-71190476D01*
X107311904Y-71095238D02*
X107550000Y-71190476D01*
X107788095Y-71095238D01*
X107407142Y-71380952D02*
X107550000Y-71190476D01*
X107692857Y-71380952D01*
X108311904Y-70952380D02*
X108311904Y-71190476D01*
X108073809Y-71095238D02*
X108311904Y-71190476D01*
X108550000Y-71095238D01*
X108169047Y-71380952D02*
X108311904Y-71190476D01*
X108454761Y-71380952D01*
X180988095Y-121052380D02*
X180988095Y-120052380D01*
X181559523Y-121052380D02*
X181130952Y-120480952D01*
X181559523Y-120052380D02*
X180988095Y-120623809D01*
X176311904Y-118952380D02*
X176311904Y-117952380D01*
X176550000Y-117952380D01*
X176692857Y-118000000D01*
X176788095Y-118095238D01*
X176835714Y-118190476D01*
X176883333Y-118380952D01*
X176883333Y-118523809D01*
X176835714Y-118714285D01*
X176788095Y-118809523D01*
X176692857Y-118904761D01*
X176550000Y-118952380D01*
X176311904Y-118952380D01*
X177835714Y-118952380D02*
X177264285Y-118952380D01*
X177550000Y-118952380D02*
X177550000Y-117952380D01*
X177454761Y-118095238D01*
X177359523Y-118190476D01*
X177264285Y-118238095D01*
X165797142Y-87952380D02*
X165463809Y-87476190D01*
X165225714Y-87952380D02*
X165225714Y-86952380D01*
X165606666Y-86952380D01*
X165701904Y-87000000D01*
X165749523Y-87047619D01*
X165797142Y-87142857D01*
X165797142Y-87285714D01*
X165749523Y-87380952D01*
X165701904Y-87428571D01*
X165606666Y-87476190D01*
X165225714Y-87476190D01*
X166749523Y-87952380D02*
X166178095Y-87952380D01*
X166463809Y-87952380D02*
X166463809Y-86952380D01*
X166368571Y-87095238D01*
X166273333Y-87190476D01*
X166178095Y-87238095D01*
X167701904Y-87952380D02*
X167130476Y-87952380D01*
X167416190Y-87952380D02*
X167416190Y-86952380D01*
X167320952Y-87095238D01*
X167225714Y-87190476D01*
X167130476Y-87238095D01*
X151502142Y-103242380D02*
X151168809Y-102766190D01*
X150930714Y-103242380D02*
X150930714Y-102242380D01*
X151311666Y-102242380D01*
X151406904Y-102290000D01*
X151454523Y-102337619D01*
X151502142Y-102432857D01*
X151502142Y-102575714D01*
X151454523Y-102670952D01*
X151406904Y-102718571D01*
X151311666Y-102766190D01*
X150930714Y-102766190D01*
X152454523Y-103242380D02*
X151883095Y-103242380D01*
X152168809Y-103242380D02*
X152168809Y-102242380D01*
X152073571Y-102385238D01*
X151978333Y-102480476D01*
X151883095Y-102528095D01*
X153073571Y-102242380D02*
X153168809Y-102242380D01*
X153264047Y-102290000D01*
X153311666Y-102337619D01*
X153359285Y-102432857D01*
X153406904Y-102623333D01*
X153406904Y-102861428D01*
X153359285Y-103051904D01*
X153311666Y-103147142D01*
X153264047Y-103194761D01*
X153168809Y-103242380D01*
X153073571Y-103242380D01*
X152978333Y-103194761D01*
X152930714Y-103147142D01*
X152883095Y-103051904D01*
X152835476Y-102861428D01*
X152835476Y-102623333D01*
X152883095Y-102432857D01*
X152930714Y-102337619D01*
X152978333Y-102290000D01*
X153073571Y-102242380D01*
X117702380Y-80856666D02*
X117226190Y-81190000D01*
X117702380Y-81428095D02*
X116702380Y-81428095D01*
X116702380Y-81047142D01*
X116750000Y-80951904D01*
X116797619Y-80904285D01*
X116892857Y-80856666D01*
X117035714Y-80856666D01*
X117130952Y-80904285D01*
X117178571Y-80951904D01*
X117226190Y-81047142D01*
X117226190Y-81428095D01*
X117702380Y-80380476D02*
X117702380Y-80190000D01*
X117654761Y-80094761D01*
X117607142Y-80047142D01*
X117464285Y-79951904D01*
X117273809Y-79904285D01*
X116892857Y-79904285D01*
X116797619Y-79951904D01*
X116750000Y-79999523D01*
X116702380Y-80094761D01*
X116702380Y-80285238D01*
X116750000Y-80380476D01*
X116797619Y-80428095D01*
X116892857Y-80475714D01*
X117130952Y-80475714D01*
X117226190Y-80428095D01*
X117273809Y-80380476D01*
X117321428Y-80285238D01*
X117321428Y-80094761D01*
X117273809Y-79999523D01*
X117226190Y-79951904D01*
X117130952Y-79904285D01*
X145702380Y-82476666D02*
X145226190Y-82810000D01*
X145702380Y-83048095D02*
X144702380Y-83048095D01*
X144702380Y-82667142D01*
X144750000Y-82571904D01*
X144797619Y-82524285D01*
X144892857Y-82476666D01*
X145035714Y-82476666D01*
X145130952Y-82524285D01*
X145178571Y-82571904D01*
X145226190Y-82667142D01*
X145226190Y-83048095D01*
X145130952Y-81905238D02*
X145083333Y-82000476D01*
X145035714Y-82048095D01*
X144940476Y-82095714D01*
X144892857Y-82095714D01*
X144797619Y-82048095D01*
X144750000Y-82000476D01*
X144702380Y-81905238D01*
X144702380Y-81714761D01*
X144750000Y-81619523D01*
X144797619Y-81571904D01*
X144892857Y-81524285D01*
X144940476Y-81524285D01*
X145035714Y-81571904D01*
X145083333Y-81619523D01*
X145130952Y-81714761D01*
X145130952Y-81905238D01*
X145178571Y-82000476D01*
X145226190Y-82048095D01*
X145321428Y-82095714D01*
X145511904Y-82095714D01*
X145607142Y-82048095D01*
X145654761Y-82000476D01*
X145702380Y-81905238D01*
X145702380Y-81714761D01*
X145654761Y-81619523D01*
X145607142Y-81571904D01*
X145511904Y-81524285D01*
X145321428Y-81524285D01*
X145226190Y-81571904D01*
X145178571Y-81619523D01*
X145130952Y-81714761D01*
X164027380Y-96856666D02*
X163551190Y-97190000D01*
X164027380Y-97428095D02*
X163027380Y-97428095D01*
X163027380Y-97047142D01*
X163075000Y-96951904D01*
X163122619Y-96904285D01*
X163217857Y-96856666D01*
X163360714Y-96856666D01*
X163455952Y-96904285D01*
X163503571Y-96951904D01*
X163551190Y-97047142D01*
X163551190Y-97428095D01*
X163027380Y-95999523D02*
X163027380Y-96190000D01*
X163075000Y-96285238D01*
X163122619Y-96332857D01*
X163265476Y-96428095D01*
X163455952Y-96475714D01*
X163836904Y-96475714D01*
X163932142Y-96428095D01*
X163979761Y-96380476D01*
X164027380Y-96285238D01*
X164027380Y-96094761D01*
X163979761Y-95999523D01*
X163932142Y-95951904D01*
X163836904Y-95904285D01*
X163598809Y-95904285D01*
X163503571Y-95951904D01*
X163455952Y-95999523D01*
X163408333Y-96094761D01*
X163408333Y-96285238D01*
X163455952Y-96380476D01*
X163503571Y-96428095D01*
X163598809Y-96475714D01*
X168702380Y-96856666D02*
X168226190Y-97190000D01*
X168702380Y-97428095D02*
X167702380Y-97428095D01*
X167702380Y-97047142D01*
X167750000Y-96951904D01*
X167797619Y-96904285D01*
X167892857Y-96856666D01*
X168035714Y-96856666D01*
X168130952Y-96904285D01*
X168178571Y-96951904D01*
X168226190Y-97047142D01*
X168226190Y-97428095D01*
X167797619Y-96475714D02*
X167750000Y-96428095D01*
X167702380Y-96332857D01*
X167702380Y-96094761D01*
X167750000Y-95999523D01*
X167797619Y-95951904D01*
X167892857Y-95904285D01*
X167988095Y-95904285D01*
X168130952Y-95951904D01*
X168702380Y-96523333D01*
X168702380Y-95904285D01*
X115778095Y-115182380D02*
X115778095Y-115991904D01*
X115825714Y-116087142D01*
X115873333Y-116134761D01*
X115968571Y-116182380D01*
X116159047Y-116182380D01*
X116254285Y-116134761D01*
X116301904Y-116087142D01*
X116349523Y-115991904D01*
X116349523Y-115182380D01*
X117349523Y-116182380D02*
X116778095Y-116182380D01*
X117063809Y-116182380D02*
X117063809Y-115182380D01*
X116968571Y-115325238D01*
X116873333Y-115420476D01*
X116778095Y-115468095D01*
X156880533Y-118837980D02*
X156547200Y-118361790D01*
X156309104Y-118837980D02*
X156309104Y-117837980D01*
X156690057Y-117837980D01*
X156785295Y-117885600D01*
X156832914Y-117933219D01*
X156880533Y-118028457D01*
X156880533Y-118171314D01*
X156832914Y-118266552D01*
X156785295Y-118314171D01*
X156690057Y-118361790D01*
X156309104Y-118361790D01*
X157213866Y-117837980D02*
X157880533Y-117837980D01*
X157451961Y-118837980D01*
X160062619Y-96535238D02*
X160015000Y-96630476D01*
X159919761Y-96725714D01*
X159776904Y-96868571D01*
X159729285Y-96963809D01*
X159729285Y-97059047D01*
X159967380Y-97011428D02*
X159919761Y-97106666D01*
X159824523Y-97201904D01*
X159634047Y-97249523D01*
X159300714Y-97249523D01*
X159110238Y-97201904D01*
X159015000Y-97106666D01*
X158967380Y-97011428D01*
X158967380Y-96820952D01*
X159015000Y-96725714D01*
X159110238Y-96630476D01*
X159300714Y-96582857D01*
X159634047Y-96582857D01*
X159824523Y-96630476D01*
X159919761Y-96725714D01*
X159967380Y-96820952D01*
X159967380Y-97011428D01*
X159967380Y-95630476D02*
X159967380Y-96201904D01*
X159967380Y-95916190D02*
X158967380Y-95916190D01*
X159110238Y-96011428D01*
X159205476Y-96106666D01*
X159253095Y-96201904D01*
X146733809Y-71952380D02*
X146733809Y-70952380D01*
X147781428Y-71952380D02*
X147448095Y-71476190D01*
X147210000Y-71952380D02*
X147210000Y-70952380D01*
X147590952Y-70952380D01*
X147686190Y-71000000D01*
X147733809Y-71047619D01*
X147781428Y-71142857D01*
X147781428Y-71285714D01*
X147733809Y-71380952D01*
X147686190Y-71428571D01*
X147590952Y-71476190D01*
X147210000Y-71476190D01*
X148733809Y-71952380D02*
X148162380Y-71952380D01*
X148448095Y-71952380D02*
X148448095Y-70952380D01*
X148352857Y-71095238D01*
X148257619Y-71190476D01*
X148162380Y-71238095D01*
X164583333Y-81857142D02*
X164535714Y-81904761D01*
X164392857Y-81952380D01*
X164297619Y-81952380D01*
X164154761Y-81904761D01*
X164059523Y-81809523D01*
X164011904Y-81714285D01*
X163964285Y-81523809D01*
X163964285Y-81380952D01*
X164011904Y-81190476D01*
X164059523Y-81095238D01*
X164154761Y-81000000D01*
X164297619Y-80952380D01*
X164392857Y-80952380D01*
X164535714Y-81000000D01*
X164583333Y-81047619D01*
X165488095Y-80952380D02*
X165011904Y-80952380D01*
X164964285Y-81428571D01*
X165011904Y-81380952D01*
X165107142Y-81333333D01*
X165345238Y-81333333D01*
X165440476Y-81380952D01*
X165488095Y-81428571D01*
X165535714Y-81523809D01*
X165535714Y-81761904D01*
X165488095Y-81857142D01*
X165440476Y-81904761D01*
X165345238Y-81952380D01*
X165107142Y-81952380D01*
X165011904Y-81904761D01*
X164964285Y-81857142D01*
X164583333Y-76857142D02*
X164535714Y-76904761D01*
X164392857Y-76952380D01*
X164297619Y-76952380D01*
X164154761Y-76904761D01*
X164059523Y-76809523D01*
X164011904Y-76714285D01*
X163964285Y-76523809D01*
X163964285Y-76380952D01*
X164011904Y-76190476D01*
X164059523Y-76095238D01*
X164154761Y-76000000D01*
X164297619Y-75952380D01*
X164392857Y-75952380D01*
X164535714Y-76000000D01*
X164583333Y-76047619D01*
X165440476Y-76285714D02*
X165440476Y-76952380D01*
X165202380Y-75904761D02*
X164964285Y-76619047D01*
X165583333Y-76619047D01*
X152833333Y-86857142D02*
X152785714Y-86904761D01*
X152642857Y-86952380D01*
X152547619Y-86952380D01*
X152404761Y-86904761D01*
X152309523Y-86809523D01*
X152261904Y-86714285D01*
X152214285Y-86523809D01*
X152214285Y-86380952D01*
X152261904Y-86190476D01*
X152309523Y-86095238D01*
X152404761Y-86000000D01*
X152547619Y-85952380D01*
X152642857Y-85952380D01*
X152785714Y-86000000D01*
X152833333Y-86047619D01*
X153166666Y-85952380D02*
X153785714Y-85952380D01*
X153452380Y-86333333D01*
X153595238Y-86333333D01*
X153690476Y-86380952D01*
X153738095Y-86428571D01*
X153785714Y-86523809D01*
X153785714Y-86761904D01*
X153738095Y-86857142D01*
X153690476Y-86904761D01*
X153595238Y-86952380D01*
X153309523Y-86952380D01*
X153214285Y-86904761D01*
X153166666Y-86857142D01*
M02*
