G04 #@! TF.GenerationSoftware,KiCad,Pcbnew,5.1.5+dfsg1-2build2*
G04 #@! TF.CreationDate,2021-01-31T11:58:51-06:00*
G04 #@! TF.ProjectId,speaker-switcher-remote,73706561-6b65-4722-9d73-776974636865,rev?*
G04 #@! TF.SameCoordinates,Original*
G04 #@! TF.FileFunction,Copper,L1,Top*
G04 #@! TF.FilePolarity,Positive*
%FSLAX46Y46*%
G04 Gerber Fmt 4.6, Leading zero omitted, Abs format (unit mm)*
G04 Created by KiCad (PCBNEW 5.1.5+dfsg1-2build2) date 2021-01-31 11:58:51*
%MOMM*%
%LPD*%
G04 APERTURE LIST*
%ADD10O,2.200000X2.200000*%
%ADD11R,2.200000X2.200000*%
%ADD12O,1.600000X1.600000*%
%ADD13C,1.600000*%
%ADD14O,1.905000X2.000000*%
%ADD15R,1.905000X2.000000*%
%ADD16O,2.500000X1.500000*%
%ADD17O,2.400000X2.400000*%
%ADD18C,2.400000*%
%ADD19R,1.300000X1.300000*%
%ADD20C,1.300000*%
%ADD21C,1.524000*%
%ADD22O,1.700000X1.700000*%
%ADD23R,1.700000X1.700000*%
%ADD24R,1.600000X1.600000*%
%ADD25C,1.000000*%
%ADD26C,0.500000*%
G04 APERTURE END LIST*
D10*
X173630000Y-118500000D03*
D11*
X181250000Y-118500000D03*
D12*
X162630000Y-87500000D03*
D13*
X170250000Y-87500000D03*
D12*
X154250000Y-104880000D03*
D13*
X154250000Y-112500000D03*
D12*
X117250000Y-76880000D03*
D13*
X117250000Y-84500000D03*
D12*
X145250000Y-86120000D03*
D13*
X145250000Y-78500000D03*
D12*
X162250000Y-104880000D03*
D13*
X162250000Y-112500000D03*
D12*
X174870000Y-105500000D03*
D13*
X167250000Y-105500000D03*
D12*
X168250000Y-92880000D03*
D13*
X168250000Y-100500000D03*
D12*
X152870000Y-100500000D03*
D13*
X145250000Y-100500000D03*
D14*
X119080000Y-120000000D03*
X116540000Y-120000000D03*
D15*
X114000000Y-120000000D03*
D16*
X140710000Y-125500000D03*
X145790000Y-125500000D03*
X152710000Y-125500000D03*
X157790000Y-125500000D03*
D17*
X144930000Y-118500000D03*
D18*
X165250000Y-118500000D03*
D14*
X176330000Y-112500000D03*
X173790000Y-112500000D03*
D15*
X171250000Y-112500000D03*
D19*
X158250000Y-97500000D03*
D20*
X160790000Y-97500000D03*
X159520000Y-96230000D03*
D16*
X115710000Y-125500000D03*
X120790000Y-125500000D03*
X127170000Y-125500000D03*
X132250000Y-125500000D03*
X165250000Y-125500000D03*
X170330000Y-125500000D03*
X177250000Y-125500000D03*
X182330000Y-125500000D03*
D21*
X139620000Y-117780000D03*
X139620000Y-115240000D03*
X139620000Y-112700000D03*
X139620000Y-110160000D03*
X139620000Y-107620000D03*
X139620000Y-105080000D03*
X139620000Y-102540000D03*
X139620000Y-100000000D03*
X139620000Y-97460000D03*
X139620000Y-94920000D03*
X139620000Y-92380000D03*
X139620000Y-89840000D03*
X139620000Y-87300000D03*
X139620000Y-84760000D03*
X139620000Y-82220000D03*
X124380000Y-117780000D03*
X124380000Y-115240000D03*
X124380000Y-112700000D03*
X124380000Y-110160000D03*
X124380000Y-107620000D03*
X124380000Y-105080000D03*
X124380000Y-102540000D03*
X124380000Y-100000000D03*
X124380000Y-97460000D03*
X124380000Y-94920000D03*
X124380000Y-92380000D03*
X124380000Y-89840000D03*
X124380000Y-87300000D03*
X124380000Y-84760000D03*
X124380000Y-82220000D03*
D22*
X145170000Y-71500000D03*
X147710000Y-71500000D03*
D23*
X150250000Y-71500000D03*
D13*
X167250000Y-81500000D03*
X162250000Y-81500000D03*
X167250000Y-76500000D03*
X162250000Y-76500000D03*
X151750000Y-86500000D03*
D24*
X154250000Y-86500000D03*
D13*
X114750000Y-94500000D03*
D24*
X117250000Y-94500000D03*
D13*
X116500000Y-109000000D03*
D24*
X114000000Y-109000000D03*
D25*
X116330000Y-120210000D02*
X116540000Y-120000000D01*
X116540000Y-109040000D02*
X116500000Y-109000000D01*
X116540000Y-120000000D02*
X116540000Y-109040000D01*
X114750000Y-106118630D02*
X114750000Y-94500000D01*
X116500000Y-107868630D02*
X114750000Y-106118630D01*
X116500000Y-109000000D02*
X116500000Y-107868630D01*
X140710000Y-125500000D02*
X145790000Y-125500000D01*
D26*
X134280000Y-76880000D02*
X139620000Y-82220000D01*
X117250000Y-76880000D02*
X134280000Y-76880000D01*
X150250000Y-71500000D02*
X150330000Y-71500000D01*
X150250000Y-71500000D02*
X150250000Y-71032002D01*
X150250000Y-72850000D02*
X150250000Y-71500000D01*
X146220000Y-76880000D02*
X150250000Y-72850000D01*
X134280000Y-76880000D02*
X146220000Y-76880000D01*
X158250000Y-97500000D02*
X149250000Y-97500000D01*
X149250000Y-97500000D02*
X139620000Y-97460000D01*
X149870000Y-97500000D02*
X149250000Y-97500000D01*
X152870000Y-100500000D02*
X149870000Y-97500000D01*
X140120000Y-92880000D02*
X139620000Y-92380000D01*
X168250000Y-92880000D02*
X140120000Y-92880000D01*
X168250000Y-104500000D02*
X167250000Y-105500000D01*
X168250000Y-100500000D02*
X168250000Y-104500000D01*
X168250000Y-104500000D02*
X169250000Y-104500000D01*
X171250000Y-106500000D02*
X171250000Y-112500000D01*
X169250000Y-104500000D02*
X171250000Y-106500000D01*
D25*
X152710000Y-125500000D02*
X157790000Y-125500000D01*
X157790000Y-116960000D02*
X157790000Y-125500000D01*
X162250000Y-112500000D02*
X157790000Y-116960000D01*
X117250000Y-95800000D02*
X121250000Y-99800000D01*
X117250000Y-94500000D02*
X117250000Y-95800000D01*
X121250000Y-114650000D02*
X124380000Y-117780000D01*
X121250000Y-99800000D02*
X121250000Y-114650000D01*
X122160000Y-120000000D02*
X124380000Y-117780000D01*
X119080000Y-120000000D02*
X122160000Y-120000000D01*
D26*
X152722001Y-114027999D02*
X154250000Y-112500000D01*
X128132001Y-114027999D02*
X152722001Y-114027999D01*
X124380000Y-117780000D02*
X128132001Y-114027999D01*
D25*
X114000000Y-109000000D02*
X114000000Y-120000000D01*
X114000000Y-120000000D02*
X114000000Y-120047500D01*
X133250000Y-125500000D02*
X136250000Y-122500000D01*
X140930000Y-122500000D02*
X144930000Y-118500000D01*
X136250000Y-122500000D02*
X140930000Y-122500000D01*
X114000000Y-122000000D02*
X115500000Y-123500000D01*
X114000000Y-120000000D02*
X114000000Y-122000000D01*
X125250000Y-123500000D02*
X127250000Y-125500000D01*
X115500000Y-123500000D02*
X125250000Y-123500000D01*
X127170000Y-125500000D02*
X132250000Y-125500000D01*
D26*
X145170000Y-78420000D02*
X145250000Y-78500000D01*
X160250000Y-78500000D02*
X162250000Y-76500000D01*
X145250000Y-78500000D02*
X160250000Y-78500000D01*
X154250000Y-84500000D02*
X162250000Y-76500000D01*
X154250000Y-86500000D02*
X154250000Y-84500000D01*
X124120000Y-84500000D02*
X124380000Y-84760000D01*
X117250000Y-84500000D02*
X124120000Y-84500000D01*
X144118630Y-86120000D02*
X145250000Y-86120000D01*
X144086629Y-86087999D02*
X144118630Y-86120000D01*
X125707999Y-86087999D02*
X144086629Y-86087999D01*
X124380000Y-84760000D02*
X125707999Y-86087999D01*
D25*
X181250000Y-118500000D02*
X182330000Y-119580000D01*
X182330000Y-125500000D02*
X177250000Y-125500000D01*
X182330000Y-119580000D02*
X182330000Y-125500000D01*
X173790000Y-118340000D02*
X173630000Y-118500000D01*
X173790000Y-112500000D02*
X173790000Y-118340000D01*
X172080000Y-125500000D02*
X170330000Y-125500000D01*
X173630000Y-123950000D02*
X172080000Y-125500000D01*
X173630000Y-118500000D02*
X173630000Y-123950000D01*
X165250000Y-125500000D02*
X170330000Y-125500000D01*
D26*
X159520000Y-102150000D02*
X162250000Y-104880000D01*
X159520000Y-96230000D02*
X159520000Y-102150000D01*
X162250000Y-87120000D02*
X162630000Y-87500000D01*
X162250000Y-81500000D02*
X162250000Y-87120000D01*
M02*
