G04 #@! TF.GenerationSoftware,KiCad,Pcbnew,5.1.5+dfsg1-2build2*
G04 #@! TF.CreationDate,2021-01-30T13:40:10-06:00*
G04 #@! TF.ProjectId,speaker-switcher-remote,73706561-6b65-4722-9d73-776974636865,rev?*
G04 #@! TF.SameCoordinates,Original*
G04 #@! TF.FileFunction,Legend,Top*
G04 #@! TF.FilePolarity,Positive*
%FSLAX46Y46*%
G04 Gerber Fmt 4.6, Leading zero omitted, Abs format (unit mm)*
G04 Created by KiCad (PCBNEW 5.1.5+dfsg1-2build2) date 2021-01-30 13:40:10*
%MOMM*%
%LPD*%
G04 APERTURE LIST*
%ADD10C,0.150000*%
%ADD11C,0.120000*%
G04 APERTURE END LIST*
D10*
X138776857Y-64864666D02*
X139253047Y-64864666D01*
X138681619Y-65150380D02*
X139014952Y-64150380D01*
X139348285Y-65150380D01*
X139681619Y-65150380D02*
X139681619Y-64483714D01*
X139681619Y-64674190D02*
X139729238Y-64578952D01*
X139776857Y-64531333D01*
X139872095Y-64483714D01*
X139967333Y-64483714D01*
X140729238Y-65150380D02*
X140729238Y-64150380D01*
X140729238Y-65102761D02*
X140634000Y-65150380D01*
X140443523Y-65150380D01*
X140348285Y-65102761D01*
X140300666Y-65055142D01*
X140253047Y-64959904D01*
X140253047Y-64674190D01*
X140300666Y-64578952D01*
X140348285Y-64531333D01*
X140443523Y-64483714D01*
X140634000Y-64483714D01*
X140729238Y-64531333D01*
X141634000Y-64483714D02*
X141634000Y-65150380D01*
X141205428Y-64483714D02*
X141205428Y-65007523D01*
X141253047Y-65102761D01*
X141348285Y-65150380D01*
X141491142Y-65150380D01*
X141586380Y-65102761D01*
X141634000Y-65055142D01*
X142110190Y-65150380D02*
X142110190Y-64483714D01*
X142110190Y-64150380D02*
X142062571Y-64198000D01*
X142110190Y-64245619D01*
X142157809Y-64198000D01*
X142110190Y-64150380D01*
X142110190Y-64245619D01*
X142586380Y-64483714D02*
X142586380Y-65150380D01*
X142586380Y-64578952D02*
X142634000Y-64531333D01*
X142729238Y-64483714D01*
X142872095Y-64483714D01*
X142967333Y-64531333D01*
X143014952Y-64626571D01*
X143014952Y-65150380D01*
X143634000Y-65150380D02*
X143538761Y-65102761D01*
X143491142Y-65055142D01*
X143443523Y-64959904D01*
X143443523Y-64674190D01*
X143491142Y-64578952D01*
X143538761Y-64531333D01*
X143634000Y-64483714D01*
X143776857Y-64483714D01*
X143872095Y-64531333D01*
X143919714Y-64578952D01*
X143967333Y-64674190D01*
X143967333Y-64959904D01*
X143919714Y-65055142D01*
X143872095Y-65102761D01*
X143776857Y-65150380D01*
X143634000Y-65150380D01*
X145157809Y-65150380D02*
X145157809Y-64150380D01*
X145729238Y-65150380D01*
X145729238Y-64150380D01*
X146634000Y-65150380D02*
X146634000Y-64626571D01*
X146586380Y-64531333D01*
X146491142Y-64483714D01*
X146300666Y-64483714D01*
X146205428Y-64531333D01*
X146634000Y-65102761D02*
X146538761Y-65150380D01*
X146300666Y-65150380D01*
X146205428Y-65102761D01*
X146157809Y-65007523D01*
X146157809Y-64912285D01*
X146205428Y-64817047D01*
X146300666Y-64769428D01*
X146538761Y-64769428D01*
X146634000Y-64721809D01*
X147110190Y-64483714D02*
X147110190Y-65150380D01*
X147110190Y-64578952D02*
X147157809Y-64531333D01*
X147253047Y-64483714D01*
X147395904Y-64483714D01*
X147491142Y-64531333D01*
X147538761Y-64626571D01*
X147538761Y-65150380D01*
X148157809Y-65150380D02*
X148062571Y-65102761D01*
X148014952Y-65055142D01*
X147967333Y-64959904D01*
X147967333Y-64674190D01*
X148014952Y-64578952D01*
X148062571Y-64531333D01*
X148157809Y-64483714D01*
X148300666Y-64483714D01*
X148395904Y-64531333D01*
X148443523Y-64578952D01*
X148491142Y-64674190D01*
X148491142Y-64959904D01*
X148443523Y-65055142D01*
X148395904Y-65102761D01*
X148300666Y-65150380D01*
X148157809Y-65150380D01*
X149538761Y-64150380D02*
X149872095Y-65150380D01*
X150205428Y-64150380D01*
X150443523Y-64150380D02*
X151062571Y-64150380D01*
X150729238Y-64531333D01*
X150872095Y-64531333D01*
X150967333Y-64578952D01*
X151014952Y-64626571D01*
X151062571Y-64721809D01*
X151062571Y-64959904D01*
X151014952Y-65055142D01*
X150967333Y-65102761D01*
X150872095Y-65150380D01*
X150586380Y-65150380D01*
X150491142Y-65102761D01*
X150443523Y-65055142D01*
X151491142Y-65055142D02*
X151538761Y-65102761D01*
X151491142Y-65150380D01*
X151443523Y-65102761D01*
X151491142Y-65055142D01*
X151491142Y-65150380D01*
X152157809Y-64150380D02*
X152253047Y-64150380D01*
X152348285Y-64198000D01*
X152395904Y-64245619D01*
X152443523Y-64340857D01*
X152491142Y-64531333D01*
X152491142Y-64769428D01*
X152443523Y-64959904D01*
X152395904Y-65055142D01*
X152348285Y-65102761D01*
X152253047Y-65150380D01*
X152157809Y-65150380D01*
X152062571Y-65102761D01*
X152014952Y-65055142D01*
X151967333Y-64959904D01*
X151919714Y-64769428D01*
X151919714Y-64531333D01*
X151967333Y-64340857D01*
X152014952Y-64245619D01*
X152062571Y-64198000D01*
X152157809Y-64150380D01*
X166123071Y-83487142D02*
X166158785Y-83380000D01*
X166158785Y-83201428D01*
X166123071Y-83130000D01*
X166087357Y-83094285D01*
X166015928Y-83058571D01*
X165944500Y-83058571D01*
X165873071Y-83094285D01*
X165837357Y-83130000D01*
X165801642Y-83201428D01*
X165765928Y-83344285D01*
X165730214Y-83415714D01*
X165694500Y-83451428D01*
X165623071Y-83487142D01*
X165551642Y-83487142D01*
X165480214Y-83451428D01*
X165444500Y-83415714D01*
X165408785Y-83344285D01*
X165408785Y-83165714D01*
X165444500Y-83058571D01*
X165658785Y-82415714D02*
X166158785Y-82415714D01*
X165658785Y-82737142D02*
X166051642Y-82737142D01*
X166123071Y-82701428D01*
X166158785Y-82630000D01*
X166158785Y-82522857D01*
X166123071Y-82451428D01*
X166087357Y-82415714D01*
X165658785Y-82058571D02*
X166408785Y-82058571D01*
X165694500Y-82058571D02*
X165658785Y-81987142D01*
X165658785Y-81844285D01*
X165694500Y-81772857D01*
X165730214Y-81737142D01*
X165801642Y-81701428D01*
X166015928Y-81701428D01*
X166087357Y-81737142D01*
X166123071Y-81772857D01*
X166158785Y-81844285D01*
X166158785Y-81987142D01*
X166123071Y-82058571D01*
X166123071Y-81094285D02*
X166158785Y-81165714D01*
X166158785Y-81308571D01*
X166123071Y-81380000D01*
X166051642Y-81415714D01*
X165765928Y-81415714D01*
X165694500Y-81380000D01*
X165658785Y-81308571D01*
X165658785Y-81165714D01*
X165694500Y-81094285D01*
X165765928Y-81058571D01*
X165837357Y-81058571D01*
X165908785Y-81415714D01*
X166158785Y-80737142D02*
X165658785Y-80737142D01*
X165801642Y-80737142D02*
X165730214Y-80701428D01*
X165694500Y-80665714D01*
X165658785Y-80594285D01*
X165658785Y-80522857D01*
X166123071Y-80308571D02*
X166158785Y-80201428D01*
X166158785Y-80022857D01*
X166123071Y-79951428D01*
X166087357Y-79915714D01*
X166015928Y-79880000D01*
X165944500Y-79880000D01*
X165873071Y-79915714D01*
X165837357Y-79951428D01*
X165801642Y-80022857D01*
X165765928Y-80165714D01*
X165730214Y-80237142D01*
X165694500Y-80272857D01*
X165623071Y-80308571D01*
X165551642Y-80308571D01*
X165480214Y-80272857D01*
X165444500Y-80237142D01*
X165408785Y-80165714D01*
X165408785Y-79987142D01*
X165444500Y-79880000D01*
X165658785Y-79558571D02*
X166408785Y-79558571D01*
X165694500Y-79558571D02*
X165658785Y-79487142D01*
X165658785Y-79344285D01*
X165694500Y-79272857D01*
X165730214Y-79237142D01*
X165801642Y-79201428D01*
X166015928Y-79201428D01*
X166087357Y-79237142D01*
X166123071Y-79272857D01*
X166158785Y-79344285D01*
X166158785Y-79487142D01*
X166123071Y-79558571D01*
X166123071Y-78594285D02*
X166158785Y-78665714D01*
X166158785Y-78808571D01*
X166123071Y-78880000D01*
X166051642Y-78915714D01*
X165765928Y-78915714D01*
X165694500Y-78880000D01*
X165658785Y-78808571D01*
X165658785Y-78665714D01*
X165694500Y-78594285D01*
X165765928Y-78558571D01*
X165837357Y-78558571D01*
X165908785Y-78915714D01*
X166158785Y-77915714D02*
X165765928Y-77915714D01*
X165694500Y-77951428D01*
X165658785Y-78022857D01*
X165658785Y-78165714D01*
X165694500Y-78237142D01*
X166123071Y-77915714D02*
X166158785Y-77987142D01*
X166158785Y-78165714D01*
X166123071Y-78237142D01*
X166051642Y-78272857D01*
X165980214Y-78272857D01*
X165908785Y-78237142D01*
X165873071Y-78165714D01*
X165873071Y-77987142D01*
X165837357Y-77915714D01*
X166158785Y-77558571D02*
X165408785Y-77558571D01*
X165873071Y-77487142D02*
X166158785Y-77272857D01*
X165658785Y-77272857D02*
X165944500Y-77558571D01*
X166123071Y-76665714D02*
X166158785Y-76737142D01*
X166158785Y-76880000D01*
X166123071Y-76951428D01*
X166051642Y-76987142D01*
X165765928Y-76987142D01*
X165694500Y-76951428D01*
X165658785Y-76880000D01*
X165658785Y-76737142D01*
X165694500Y-76665714D01*
X165765928Y-76630000D01*
X165837357Y-76630000D01*
X165908785Y-76987142D01*
X166158785Y-76308571D02*
X165658785Y-76308571D01*
X165801642Y-76308571D02*
X165730214Y-76272857D01*
X165694500Y-76237142D01*
X165658785Y-76165714D01*
X165658785Y-76094285D01*
X166123071Y-75880000D02*
X166158785Y-75772857D01*
X166158785Y-75594285D01*
X166123071Y-75522857D01*
X166087357Y-75487142D01*
X166015928Y-75451428D01*
X165944500Y-75451428D01*
X165873071Y-75487142D01*
X165837357Y-75522857D01*
X165801642Y-75594285D01*
X165765928Y-75737142D01*
X165730214Y-75808571D01*
X165694500Y-75844285D01*
X165623071Y-75880000D01*
X165551642Y-75880000D01*
X165480214Y-75844285D01*
X165444500Y-75808571D01*
X165408785Y-75737142D01*
X165408785Y-75558571D01*
X165444500Y-75451428D01*
X165658785Y-75201428D02*
X166158785Y-75058571D01*
X165801642Y-74915714D01*
X166158785Y-74772857D01*
X165658785Y-74630000D01*
X166158785Y-74344285D02*
X165658785Y-74344285D01*
X165408785Y-74344285D02*
X165444500Y-74380000D01*
X165480214Y-74344285D01*
X165444500Y-74308571D01*
X165408785Y-74344285D01*
X165480214Y-74344285D01*
X165658785Y-74094285D02*
X165658785Y-73808571D01*
X165408785Y-73987142D02*
X166051642Y-73987142D01*
X166123071Y-73951428D01*
X166158785Y-73880000D01*
X166158785Y-73808571D01*
X166123071Y-73237142D02*
X166158785Y-73308571D01*
X166158785Y-73451428D01*
X166123071Y-73522857D01*
X166087357Y-73558571D01*
X166015928Y-73594285D01*
X165801642Y-73594285D01*
X165730214Y-73558571D01*
X165694500Y-73522857D01*
X165658785Y-73451428D01*
X165658785Y-73308571D01*
X165694500Y-73237142D01*
X166158785Y-72915714D02*
X165408785Y-72915714D01*
X166158785Y-72594285D02*
X165765928Y-72594285D01*
X165694500Y-72630000D01*
X165658785Y-72701428D01*
X165658785Y-72808571D01*
X165694500Y-72880000D01*
X165730214Y-72915714D01*
X166123071Y-71951428D02*
X166158785Y-72022857D01*
X166158785Y-72165714D01*
X166123071Y-72237142D01*
X166051642Y-72272857D01*
X165765928Y-72272857D01*
X165694500Y-72237142D01*
X165658785Y-72165714D01*
X165658785Y-72022857D01*
X165694500Y-71951428D01*
X165765928Y-71915714D01*
X165837357Y-71915714D01*
X165908785Y-72272857D01*
X166158785Y-71594285D02*
X165658785Y-71594285D01*
X165801642Y-71594285D02*
X165730214Y-71558571D01*
X165694500Y-71522857D01*
X165658785Y-71451428D01*
X165658785Y-71380000D01*
X165587357Y-69951428D02*
X165551642Y-70022857D01*
X165551642Y-70165714D01*
X165587357Y-70237142D01*
X165658785Y-70308571D01*
X165730214Y-70344285D01*
X165873071Y-70344285D01*
X165944500Y-70308571D01*
X166015928Y-70237142D01*
X166051642Y-70165714D01*
X166051642Y-70022857D01*
X166015928Y-69951428D01*
X165301642Y-70094285D02*
X165337357Y-70272857D01*
X165444500Y-70451428D01*
X165623071Y-70558571D01*
X165801642Y-70594285D01*
X165980214Y-70558571D01*
X166158785Y-70451428D01*
X166265928Y-70272857D01*
X166301642Y-70094285D01*
X166265928Y-69915714D01*
X166158785Y-69737142D01*
X165980214Y-69630000D01*
X165801642Y-69594285D01*
X165623071Y-69630000D01*
X165444500Y-69737142D01*
X165337357Y-69915714D01*
X165301642Y-70094285D01*
X165408785Y-69165714D02*
X165587357Y-69165714D01*
X165515928Y-69344285D02*
X165587357Y-69165714D01*
X165515928Y-68987142D01*
X165730214Y-69272857D02*
X165587357Y-69165714D01*
X165730214Y-69058571D01*
X167433785Y-81755000D02*
X167076642Y-82005000D01*
X167433785Y-82183571D02*
X166683785Y-82183571D01*
X166683785Y-81897857D01*
X166719500Y-81826428D01*
X166755214Y-81790714D01*
X166826642Y-81755000D01*
X166933785Y-81755000D01*
X167005214Y-81790714D01*
X167040928Y-81826428D01*
X167076642Y-81897857D01*
X167076642Y-82183571D01*
X167398071Y-81147857D02*
X167433785Y-81219285D01*
X167433785Y-81362142D01*
X167398071Y-81433571D01*
X167326642Y-81469285D01*
X167040928Y-81469285D01*
X166969500Y-81433571D01*
X166933785Y-81362142D01*
X166933785Y-81219285D01*
X166969500Y-81147857D01*
X167040928Y-81112142D01*
X167112357Y-81112142D01*
X167183785Y-81469285D01*
X167433785Y-80790714D02*
X166933785Y-80790714D01*
X167005214Y-80790714D02*
X166969500Y-80755000D01*
X166933785Y-80683571D01*
X166933785Y-80576428D01*
X166969500Y-80505000D01*
X167040928Y-80469285D01*
X167433785Y-80469285D01*
X167040928Y-80469285D02*
X166969500Y-80433571D01*
X166933785Y-80362142D01*
X166933785Y-80255000D01*
X166969500Y-80183571D01*
X167040928Y-80147857D01*
X167433785Y-80147857D01*
X167433785Y-79683571D02*
X167398071Y-79755000D01*
X167362357Y-79790714D01*
X167290928Y-79826428D01*
X167076642Y-79826428D01*
X167005214Y-79790714D01*
X166969500Y-79755000D01*
X166933785Y-79683571D01*
X166933785Y-79576428D01*
X166969500Y-79505000D01*
X167005214Y-79469285D01*
X167076642Y-79433571D01*
X167290928Y-79433571D01*
X167362357Y-79469285D01*
X167398071Y-79505000D01*
X167433785Y-79576428D01*
X167433785Y-79683571D01*
X166933785Y-79219285D02*
X166933785Y-78933571D01*
X166683785Y-79112142D02*
X167326642Y-79112142D01*
X167398071Y-79076428D01*
X167433785Y-79005000D01*
X167433785Y-78933571D01*
X167398071Y-78397857D02*
X167433785Y-78469285D01*
X167433785Y-78612142D01*
X167398071Y-78683571D01*
X167326642Y-78719285D01*
X167040928Y-78719285D01*
X166969500Y-78683571D01*
X166933785Y-78612142D01*
X166933785Y-78469285D01*
X166969500Y-78397857D01*
X167040928Y-78362142D01*
X167112357Y-78362142D01*
X167183785Y-78719285D01*
X167148071Y-78040714D02*
X167148071Y-77469285D01*
X167433785Y-77005000D02*
X167398071Y-77076428D01*
X167362357Y-77112142D01*
X167290928Y-77147857D01*
X167076642Y-77147857D01*
X167005214Y-77112142D01*
X166969500Y-77076428D01*
X166933785Y-77005000D01*
X166933785Y-76897857D01*
X166969500Y-76826428D01*
X167005214Y-76790714D01*
X167076642Y-76755000D01*
X167290928Y-76755000D01*
X167362357Y-76790714D01*
X167398071Y-76826428D01*
X167433785Y-76897857D01*
X167433785Y-77005000D01*
X167148071Y-76433571D02*
X167148071Y-75862142D01*
X167433785Y-75505000D02*
X166933785Y-75505000D01*
X167005214Y-75505000D02*
X166969500Y-75469285D01*
X166933785Y-75397857D01*
X166933785Y-75290714D01*
X166969500Y-75219285D01*
X167040928Y-75183571D01*
X167433785Y-75183571D01*
X167040928Y-75183571D02*
X166969500Y-75147857D01*
X166933785Y-75076428D01*
X166933785Y-74969285D01*
X166969500Y-74897857D01*
X167040928Y-74862142D01*
X167433785Y-74862142D01*
X167433785Y-74183571D02*
X167040928Y-74183571D01*
X166969500Y-74219285D01*
X166933785Y-74290714D01*
X166933785Y-74433571D01*
X166969500Y-74505000D01*
X167398071Y-74183571D02*
X167433785Y-74255000D01*
X167433785Y-74433571D01*
X167398071Y-74505000D01*
X167326642Y-74540714D01*
X167255214Y-74540714D01*
X167183785Y-74505000D01*
X167148071Y-74433571D01*
X167148071Y-74255000D01*
X167112357Y-74183571D01*
X166933785Y-73933571D02*
X166933785Y-73647857D01*
X166683785Y-73826428D02*
X167326642Y-73826428D01*
X167398071Y-73790714D01*
X167433785Y-73719285D01*
X167433785Y-73647857D01*
X167433785Y-73397857D02*
X166933785Y-73397857D01*
X166683785Y-73397857D02*
X166719500Y-73433571D01*
X166755214Y-73397857D01*
X166719500Y-73362142D01*
X166683785Y-73397857D01*
X166755214Y-73397857D01*
X167398071Y-72719285D02*
X167433785Y-72790714D01*
X167433785Y-72933571D01*
X167398071Y-73005000D01*
X167362357Y-73040714D01*
X167290928Y-73076428D01*
X167076642Y-73076428D01*
X167005214Y-73040714D01*
X166969500Y-73005000D01*
X166933785Y-72933571D01*
X166933785Y-72790714D01*
X166969500Y-72719285D01*
X166862357Y-71219285D02*
X166826642Y-71290714D01*
X166826642Y-71433571D01*
X166862357Y-71505000D01*
X166933785Y-71576428D01*
X167005214Y-71612142D01*
X167148071Y-71612142D01*
X167219500Y-71576428D01*
X167290928Y-71505000D01*
X167326642Y-71433571D01*
X167326642Y-71290714D01*
X167290928Y-71219285D01*
X166576642Y-71362142D02*
X166612357Y-71540714D01*
X166719500Y-71719285D01*
X166898071Y-71826428D01*
X167076642Y-71862142D01*
X167255214Y-71826428D01*
X167433785Y-71719285D01*
X167540928Y-71540714D01*
X167576642Y-71362142D01*
X167540928Y-71183571D01*
X167433785Y-71005000D01*
X167255214Y-70897857D01*
X167076642Y-70862142D01*
X166898071Y-70897857D01*
X166719500Y-71005000D01*
X166612357Y-71183571D01*
X166576642Y-71362142D01*
X168315928Y-82094285D02*
X168351642Y-81987142D01*
X168387357Y-81951428D01*
X168458785Y-81915714D01*
X168565928Y-81915714D01*
X168637357Y-81951428D01*
X168673071Y-81987142D01*
X168708785Y-82058571D01*
X168708785Y-82344285D01*
X167958785Y-82344285D01*
X167958785Y-82094285D01*
X167994500Y-82022857D01*
X168030214Y-81987142D01*
X168101642Y-81951428D01*
X168173071Y-81951428D01*
X168244500Y-81987142D01*
X168280214Y-82022857D01*
X168315928Y-82094285D01*
X168315928Y-82344285D01*
X168208785Y-81665714D02*
X168708785Y-81487142D01*
X168208785Y-81308571D02*
X168708785Y-81487142D01*
X168887357Y-81558571D01*
X168923071Y-81594285D01*
X168958785Y-81665714D01*
X167958785Y-80237142D02*
X168494500Y-80237142D01*
X168601642Y-80272857D01*
X168673071Y-80344285D01*
X168708785Y-80451428D01*
X168708785Y-80522857D01*
X168708785Y-79772857D02*
X168673071Y-79844285D01*
X168637357Y-79880000D01*
X168565928Y-79915714D01*
X168351642Y-79915714D01*
X168280214Y-79880000D01*
X168244500Y-79844285D01*
X168208785Y-79772857D01*
X168208785Y-79665714D01*
X168244500Y-79594285D01*
X168280214Y-79558571D01*
X168351642Y-79522857D01*
X168565928Y-79522857D01*
X168637357Y-79558571D01*
X168673071Y-79594285D01*
X168708785Y-79665714D01*
X168708785Y-79772857D01*
X168208785Y-79201428D02*
X168708785Y-79201428D01*
X168280214Y-79201428D02*
X168244500Y-79165714D01*
X168208785Y-79094285D01*
X168208785Y-78987142D01*
X168244500Y-78915714D01*
X168315928Y-78880000D01*
X168708785Y-78880000D01*
X168708785Y-78201428D02*
X168315928Y-78201428D01*
X168244500Y-78237142D01*
X168208785Y-78308571D01*
X168208785Y-78451428D01*
X168244500Y-78522857D01*
X168673071Y-78201428D02*
X168708785Y-78272857D01*
X168708785Y-78451428D01*
X168673071Y-78522857D01*
X168601642Y-78558571D01*
X168530214Y-78558571D01*
X168458785Y-78522857D01*
X168423071Y-78451428D01*
X168423071Y-78272857D01*
X168387357Y-78201428D01*
X168208785Y-77951428D02*
X168208785Y-77665714D01*
X167958785Y-77844285D02*
X168601642Y-77844285D01*
X168673071Y-77808571D01*
X168708785Y-77737142D01*
X168708785Y-77665714D01*
X168708785Y-77415714D02*
X167958785Y-77415714D01*
X168708785Y-77094285D02*
X168315928Y-77094285D01*
X168244500Y-77130000D01*
X168208785Y-77201428D01*
X168208785Y-77308571D01*
X168244500Y-77380000D01*
X168280214Y-77415714D01*
X168708785Y-76415714D02*
X168315928Y-76415714D01*
X168244500Y-76451428D01*
X168208785Y-76522857D01*
X168208785Y-76665714D01*
X168244500Y-76737142D01*
X168673071Y-76415714D02*
X168708785Y-76487142D01*
X168708785Y-76665714D01*
X168673071Y-76737142D01*
X168601642Y-76772857D01*
X168530214Y-76772857D01*
X168458785Y-76737142D01*
X168423071Y-76665714D01*
X168423071Y-76487142D01*
X168387357Y-76415714D01*
X168208785Y-76058571D02*
X168708785Y-76058571D01*
X168280214Y-76058571D02*
X168244500Y-76022857D01*
X168208785Y-75951428D01*
X168208785Y-75844285D01*
X168244500Y-75772857D01*
X168315928Y-75737142D01*
X168708785Y-75737142D01*
X167958785Y-74880000D02*
X168708785Y-74701428D01*
X168173071Y-74558571D01*
X168708785Y-74415714D01*
X167958785Y-74237142D01*
X168637357Y-73951428D02*
X168673071Y-73915714D01*
X168708785Y-73951428D01*
X168673071Y-73987142D01*
X168637357Y-73951428D01*
X168708785Y-73951428D01*
X168708785Y-73022857D02*
X167958785Y-73022857D01*
X168494500Y-72772857D01*
X167958785Y-72522857D01*
X168708785Y-72522857D01*
X168708785Y-71844285D02*
X168315928Y-71844285D01*
X168244500Y-71880000D01*
X168208785Y-71951428D01*
X168208785Y-72094285D01*
X168244500Y-72165714D01*
X168673071Y-71844285D02*
X168708785Y-71915714D01*
X168708785Y-72094285D01*
X168673071Y-72165714D01*
X168601642Y-72201428D01*
X168530214Y-72201428D01*
X168458785Y-72165714D01*
X168423071Y-72094285D01*
X168423071Y-71915714D01*
X168387357Y-71844285D01*
X168708785Y-71487142D02*
X168208785Y-71487142D01*
X168351642Y-71487142D02*
X168280214Y-71451428D01*
X168244500Y-71415714D01*
X168208785Y-71344285D01*
X168208785Y-71272857D01*
X168708785Y-71022857D02*
X167958785Y-71022857D01*
X168423071Y-70951428D02*
X168708785Y-70737142D01*
X168208785Y-70737142D02*
X168494500Y-71022857D01*
X168673071Y-70451428D02*
X168708785Y-70380000D01*
X168708785Y-70237142D01*
X168673071Y-70165714D01*
X168601642Y-70130000D01*
X168565928Y-70130000D01*
X168494500Y-70165714D01*
X168458785Y-70237142D01*
X168458785Y-70344285D01*
X168423071Y-70415714D01*
X168351642Y-70451428D01*
X168315928Y-70451428D01*
X168244500Y-70415714D01*
X168208785Y-70344285D01*
X168208785Y-70237142D01*
X168244500Y-70165714D01*
X169233785Y-84790714D02*
X169412357Y-84790714D01*
X169340928Y-84969285D02*
X169412357Y-84790714D01*
X169340928Y-84612142D01*
X169555214Y-84897857D02*
X169412357Y-84790714D01*
X169555214Y-84683571D01*
X169912357Y-83326428D02*
X169948071Y-83362142D01*
X169983785Y-83469285D01*
X169983785Y-83540714D01*
X169948071Y-83647857D01*
X169876642Y-83719285D01*
X169805214Y-83755000D01*
X169662357Y-83790714D01*
X169555214Y-83790714D01*
X169412357Y-83755000D01*
X169340928Y-83719285D01*
X169269500Y-83647857D01*
X169233785Y-83540714D01*
X169233785Y-83469285D01*
X169269500Y-83362142D01*
X169305214Y-83326428D01*
X169983785Y-82897857D02*
X169948071Y-82969285D01*
X169912357Y-83005000D01*
X169840928Y-83040714D01*
X169626642Y-83040714D01*
X169555214Y-83005000D01*
X169519500Y-82969285D01*
X169483785Y-82897857D01*
X169483785Y-82790714D01*
X169519500Y-82719285D01*
X169555214Y-82683571D01*
X169626642Y-82647857D01*
X169840928Y-82647857D01*
X169912357Y-82683571D01*
X169948071Y-82719285D01*
X169983785Y-82790714D01*
X169983785Y-82897857D01*
X169483785Y-82326428D02*
X170233785Y-82326428D01*
X169519500Y-82326428D02*
X169483785Y-82255000D01*
X169483785Y-82112142D01*
X169519500Y-82040714D01*
X169555214Y-82005000D01*
X169626642Y-81969285D01*
X169840928Y-81969285D01*
X169912357Y-82005000D01*
X169948071Y-82040714D01*
X169983785Y-82112142D01*
X169983785Y-82255000D01*
X169948071Y-82326428D01*
X169483785Y-81719285D02*
X169983785Y-81540714D01*
X169483785Y-81362142D02*
X169983785Y-81540714D01*
X170162357Y-81612142D01*
X170198071Y-81647857D01*
X170233785Y-81719285D01*
X169983785Y-81076428D02*
X169483785Y-81076428D01*
X169626642Y-81076428D02*
X169555214Y-81040714D01*
X169519500Y-81005000D01*
X169483785Y-80933571D01*
X169483785Y-80862142D01*
X169983785Y-80612142D02*
X169483785Y-80612142D01*
X169233785Y-80612142D02*
X169269500Y-80647857D01*
X169305214Y-80612142D01*
X169269500Y-80576428D01*
X169233785Y-80612142D01*
X169305214Y-80612142D01*
X169483785Y-79933571D02*
X170090928Y-79933571D01*
X170162357Y-79969285D01*
X170198071Y-80005000D01*
X170233785Y-80076428D01*
X170233785Y-80183571D01*
X170198071Y-80255000D01*
X169948071Y-79933571D02*
X169983785Y-80005000D01*
X169983785Y-80147857D01*
X169948071Y-80219285D01*
X169912357Y-80255000D01*
X169840928Y-80290714D01*
X169626642Y-80290714D01*
X169555214Y-80255000D01*
X169519500Y-80219285D01*
X169483785Y-80147857D01*
X169483785Y-80005000D01*
X169519500Y-79933571D01*
X169983785Y-79576428D02*
X169233785Y-79576428D01*
X169983785Y-79255000D02*
X169590928Y-79255000D01*
X169519500Y-79290714D01*
X169483785Y-79362142D01*
X169483785Y-79469285D01*
X169519500Y-79540714D01*
X169555214Y-79576428D01*
X169483785Y-79005000D02*
X169483785Y-78719285D01*
X169233785Y-78897857D02*
X169876642Y-78897857D01*
X169948071Y-78862142D01*
X169983785Y-78790714D01*
X169983785Y-78719285D01*
X169983785Y-77897857D02*
X169233785Y-77897857D01*
X169519500Y-77897857D02*
X169483785Y-77826428D01*
X169483785Y-77683571D01*
X169519500Y-77612142D01*
X169555214Y-77576428D01*
X169626642Y-77540714D01*
X169840928Y-77540714D01*
X169912357Y-77576428D01*
X169948071Y-77612142D01*
X169983785Y-77683571D01*
X169983785Y-77826428D01*
X169948071Y-77897857D01*
X169483785Y-77290714D02*
X169983785Y-77112142D01*
X169483785Y-76933571D02*
X169983785Y-77112142D01*
X170162357Y-77183571D01*
X170198071Y-77219285D01*
X170233785Y-77290714D01*
X169983785Y-76076428D02*
X169233785Y-76076428D01*
X169233785Y-75897857D01*
X169269500Y-75790714D01*
X169340928Y-75719285D01*
X169412357Y-75683571D01*
X169555214Y-75647857D01*
X169662357Y-75647857D01*
X169805214Y-75683571D01*
X169876642Y-75719285D01*
X169948071Y-75790714D01*
X169983785Y-75897857D01*
X169983785Y-76076428D01*
X169983785Y-75005000D02*
X169590928Y-75005000D01*
X169519500Y-75040714D01*
X169483785Y-75112142D01*
X169483785Y-75255000D01*
X169519500Y-75326428D01*
X169948071Y-75005000D02*
X169983785Y-75076428D01*
X169983785Y-75255000D01*
X169948071Y-75326428D01*
X169876642Y-75362142D01*
X169805214Y-75362142D01*
X169733785Y-75326428D01*
X169698071Y-75255000D01*
X169698071Y-75076428D01*
X169662357Y-75005000D01*
X169483785Y-74647857D02*
X169983785Y-74647857D01*
X169555214Y-74647857D02*
X169519500Y-74612142D01*
X169483785Y-74540714D01*
X169483785Y-74433571D01*
X169519500Y-74362142D01*
X169590928Y-74326428D01*
X169983785Y-74326428D01*
X169983785Y-73969285D02*
X169483785Y-73969285D01*
X169233785Y-73969285D02*
X169269500Y-74005000D01*
X169305214Y-73969285D01*
X169269500Y-73933571D01*
X169233785Y-73969285D01*
X169305214Y-73969285D01*
X169948071Y-73326428D02*
X169983785Y-73397857D01*
X169983785Y-73540714D01*
X169948071Y-73612142D01*
X169876642Y-73647857D01*
X169590928Y-73647857D01*
X169519500Y-73612142D01*
X169483785Y-73540714D01*
X169483785Y-73397857D01*
X169519500Y-73326428D01*
X169590928Y-73290714D01*
X169662357Y-73290714D01*
X169733785Y-73647857D01*
X169983785Y-72862142D02*
X169948071Y-72933571D01*
X169876642Y-72969285D01*
X169233785Y-72969285D01*
X169983785Y-71647857D02*
X169983785Y-72005000D01*
X169233785Y-72005000D01*
X169912357Y-71397857D02*
X169948071Y-71362142D01*
X169983785Y-71397857D01*
X169948071Y-71433571D01*
X169912357Y-71397857D01*
X169983785Y-71397857D01*
X169983785Y-70469285D02*
X169233785Y-70469285D01*
X169769500Y-70219285D01*
X169233785Y-69969285D01*
X169983785Y-69969285D01*
X169983785Y-69290714D02*
X169590928Y-69290714D01*
X169519500Y-69326428D01*
X169483785Y-69397857D01*
X169483785Y-69540714D01*
X169519500Y-69612142D01*
X169948071Y-69290714D02*
X169983785Y-69362142D01*
X169983785Y-69540714D01*
X169948071Y-69612142D01*
X169876642Y-69647857D01*
X169805214Y-69647857D01*
X169733785Y-69612142D01*
X169698071Y-69540714D01*
X169698071Y-69362142D01*
X169662357Y-69290714D01*
X169983785Y-68933571D02*
X169483785Y-68933571D01*
X169626642Y-68933571D02*
X169555214Y-68897857D01*
X169519500Y-68862142D01*
X169483785Y-68790714D01*
X169483785Y-68719285D01*
X169983785Y-68469285D02*
X169233785Y-68469285D01*
X169698071Y-68397857D02*
X169983785Y-68183571D01*
X169483785Y-68183571D02*
X169769500Y-68469285D01*
X169948071Y-67897857D02*
X169983785Y-67826428D01*
X169983785Y-67683571D01*
X169948071Y-67612142D01*
X169876642Y-67576428D01*
X169840928Y-67576428D01*
X169769500Y-67612142D01*
X169733785Y-67683571D01*
X169733785Y-67790714D01*
X169698071Y-67862142D01*
X169626642Y-67897857D01*
X169590928Y-67897857D01*
X169519500Y-67862142D01*
X169483785Y-67790714D01*
X169483785Y-67683571D01*
X169519500Y-67612142D01*
X156142857Y-70089285D02*
X156607142Y-70089285D01*
X156357142Y-70375000D01*
X156464285Y-70375000D01*
X156535714Y-70410714D01*
X156571428Y-70446428D01*
X156607142Y-70517857D01*
X156607142Y-70696428D01*
X156571428Y-70767857D01*
X156535714Y-70803571D01*
X156464285Y-70839285D01*
X156250000Y-70839285D01*
X156178571Y-70803571D01*
X156142857Y-70767857D01*
X156928571Y-70767857D02*
X156964285Y-70803571D01*
X156928571Y-70839285D01*
X156892857Y-70803571D01*
X156928571Y-70767857D01*
X156928571Y-70839285D01*
X157214285Y-70089285D02*
X157678571Y-70089285D01*
X157428571Y-70375000D01*
X157535714Y-70375000D01*
X157607142Y-70410714D01*
X157642857Y-70446428D01*
X157678571Y-70517857D01*
X157678571Y-70696428D01*
X157642857Y-70767857D01*
X157607142Y-70803571D01*
X157535714Y-70839285D01*
X157321428Y-70839285D01*
X157250000Y-70803571D01*
X157214285Y-70767857D01*
X157892857Y-70089285D02*
X158142857Y-70839285D01*
X158392857Y-70089285D01*
X156678571Y-67625000D02*
X156607142Y-67589285D01*
X156500000Y-67589285D01*
X156392857Y-67625000D01*
X156321428Y-67696428D01*
X156285714Y-67767857D01*
X156250000Y-67910714D01*
X156250000Y-68017857D01*
X156285714Y-68160714D01*
X156321428Y-68232142D01*
X156392857Y-68303571D01*
X156500000Y-68339285D01*
X156571428Y-68339285D01*
X156678571Y-68303571D01*
X156714285Y-68267857D01*
X156714285Y-68017857D01*
X156571428Y-68017857D01*
X157035714Y-68339285D02*
X157035714Y-67589285D01*
X157464285Y-68339285D01*
X157464285Y-67589285D01*
X157821428Y-68339285D02*
X157821428Y-67589285D01*
X158000000Y-67589285D01*
X158107142Y-67625000D01*
X158178571Y-67696428D01*
X158214285Y-67767857D01*
X158250000Y-67910714D01*
X158250000Y-68017857D01*
X158214285Y-68160714D01*
X158178571Y-68232142D01*
X158107142Y-68303571D01*
X158000000Y-68339285D01*
X157821428Y-68339285D01*
X156642857Y-65839285D02*
X156571428Y-65803571D01*
X156535714Y-65767857D01*
X156500000Y-65696428D01*
X156500000Y-65482142D01*
X156535714Y-65410714D01*
X156571428Y-65375000D01*
X156642857Y-65339285D01*
X156750000Y-65339285D01*
X156821428Y-65375000D01*
X156857142Y-65410714D01*
X156892857Y-65482142D01*
X156892857Y-65696428D01*
X156857142Y-65767857D01*
X156821428Y-65803571D01*
X156750000Y-65839285D01*
X156642857Y-65839285D01*
X157535714Y-65339285D02*
X157535714Y-65839285D01*
X157214285Y-65339285D02*
X157214285Y-65732142D01*
X157250000Y-65803571D01*
X157321428Y-65839285D01*
X157428571Y-65839285D01*
X157500000Y-65803571D01*
X157535714Y-65767857D01*
X157785714Y-65339285D02*
X158071428Y-65339285D01*
X157892857Y-65089285D02*
X157892857Y-65732142D01*
X157928571Y-65803571D01*
X158000000Y-65839285D01*
X158071428Y-65839285D01*
D11*
X133250000Y-75266000D02*
X133250000Y-75196000D01*
X134620000Y-76636000D02*
G75*
G03X134620000Y-76636000I-1370000J0D01*
G01*
X156128354Y-84691000D02*
X156128354Y-85691000D01*
X155628354Y-85191000D02*
X156628354Y-85191000D01*
X166189000Y-87467000D02*
X166189000Y-88665000D01*
X166149000Y-87204000D02*
X166149000Y-88928000D01*
X166109000Y-87004000D02*
X166109000Y-89128000D01*
X166069000Y-86836000D02*
X166069000Y-89296000D01*
X166029000Y-86688000D02*
X166029000Y-89444000D01*
X165989000Y-86556000D02*
X165989000Y-89576000D01*
X165949000Y-86436000D02*
X165949000Y-89696000D01*
X165909000Y-86324000D02*
X165909000Y-89808000D01*
X165869000Y-86220000D02*
X165869000Y-89912000D01*
X165829000Y-86122000D02*
X165829000Y-90010000D01*
X165789000Y-86029000D02*
X165789000Y-90103000D01*
X165749000Y-85941000D02*
X165749000Y-90191000D01*
X165709000Y-85857000D02*
X165709000Y-90275000D01*
X165669000Y-85777000D02*
X165669000Y-90355000D01*
X165629000Y-85701000D02*
X165629000Y-90431000D01*
X165589000Y-85627000D02*
X165589000Y-90505000D01*
X165549000Y-85556000D02*
X165549000Y-90576000D01*
X165509000Y-85487000D02*
X165509000Y-90645000D01*
X165469000Y-85421000D02*
X165469000Y-90711000D01*
X165429000Y-85357000D02*
X165429000Y-90775000D01*
X165389000Y-85296000D02*
X165389000Y-90836000D01*
X165349000Y-85236000D02*
X165349000Y-90896000D01*
X165309000Y-85177000D02*
X165309000Y-90955000D01*
X165269000Y-85121000D02*
X165269000Y-91011000D01*
X165229000Y-85066000D02*
X165229000Y-91066000D01*
X165189000Y-85012000D02*
X165189000Y-91120000D01*
X165149000Y-84960000D02*
X165149000Y-91172000D01*
X165109000Y-84910000D02*
X165109000Y-91222000D01*
X165069000Y-84860000D02*
X165069000Y-91272000D01*
X165029000Y-84812000D02*
X165029000Y-91320000D01*
X164989000Y-84765000D02*
X164989000Y-91367000D01*
X164949000Y-84719000D02*
X164949000Y-91413000D01*
X164909000Y-84674000D02*
X164909000Y-91458000D01*
X164869000Y-84630000D02*
X164869000Y-91502000D01*
X164829000Y-84588000D02*
X164829000Y-91544000D01*
X164789000Y-84546000D02*
X164789000Y-91586000D01*
X164749000Y-84505000D02*
X164749000Y-91627000D01*
X164709000Y-84465000D02*
X164709000Y-91667000D01*
X164669000Y-84426000D02*
X164669000Y-91706000D01*
X164629000Y-84387000D02*
X164629000Y-91745000D01*
X164589000Y-84350000D02*
X164589000Y-91782000D01*
X164549000Y-84313000D02*
X164549000Y-91819000D01*
X164509000Y-84277000D02*
X164509000Y-91855000D01*
X164469000Y-84242000D02*
X164469000Y-91890000D01*
X164429000Y-84208000D02*
X164429000Y-91924000D01*
X164389000Y-84174000D02*
X164389000Y-91958000D01*
X164349000Y-84141000D02*
X164349000Y-91991000D01*
X164309000Y-84109000D02*
X164309000Y-92023000D01*
X164269000Y-84077000D02*
X164269000Y-92055000D01*
X164229000Y-84046000D02*
X164229000Y-92086000D01*
X164189000Y-84016000D02*
X164189000Y-92116000D01*
X164149000Y-83986000D02*
X164149000Y-92146000D01*
X164109000Y-83956000D02*
X164109000Y-92176000D01*
X164069000Y-83928000D02*
X164069000Y-92204000D01*
X164029000Y-83900000D02*
X164029000Y-92232000D01*
X163989000Y-83872000D02*
X163989000Y-92260000D01*
X163949000Y-83845000D02*
X163949000Y-92287000D01*
X163909000Y-83819000D02*
X163909000Y-92313000D01*
X163869000Y-83793000D02*
X163869000Y-92339000D01*
X163829000Y-83768000D02*
X163829000Y-92364000D01*
X163789000Y-83743000D02*
X163789000Y-92389000D01*
X163749000Y-83719000D02*
X163749000Y-92413000D01*
X163709000Y-83695000D02*
X163709000Y-92437000D01*
X163669000Y-83671000D02*
X163669000Y-92461000D01*
X163629000Y-83649000D02*
X163629000Y-92483000D01*
X163589000Y-83626000D02*
X163589000Y-92506000D01*
X163549000Y-83604000D02*
X163549000Y-92528000D01*
X163509000Y-83583000D02*
X163509000Y-92549000D01*
X163469000Y-83562000D02*
X163469000Y-92570000D01*
X163429000Y-83541000D02*
X163429000Y-92591000D01*
X163389000Y-89106000D02*
X163389000Y-92611000D01*
X163389000Y-83521000D02*
X163389000Y-87026000D01*
X163349000Y-89106000D02*
X163349000Y-92630000D01*
X163349000Y-83502000D02*
X163349000Y-87026000D01*
X163309000Y-89106000D02*
X163309000Y-92650000D01*
X163309000Y-83482000D02*
X163309000Y-87026000D01*
X163269000Y-89106000D02*
X163269000Y-92669000D01*
X163269000Y-83463000D02*
X163269000Y-87026000D01*
X163229000Y-89106000D02*
X163229000Y-92687000D01*
X163229000Y-83445000D02*
X163229000Y-87026000D01*
X163189000Y-89106000D02*
X163189000Y-92705000D01*
X163189000Y-83427000D02*
X163189000Y-87026000D01*
X163149000Y-89106000D02*
X163149000Y-92723000D01*
X163149000Y-83409000D02*
X163149000Y-87026000D01*
X163109000Y-89106000D02*
X163109000Y-92740000D01*
X163109000Y-83392000D02*
X163109000Y-87026000D01*
X163069000Y-89106000D02*
X163069000Y-92756000D01*
X163069000Y-83376000D02*
X163069000Y-87026000D01*
X163029000Y-89106000D02*
X163029000Y-92773000D01*
X163029000Y-83359000D02*
X163029000Y-87026000D01*
X162989000Y-89106000D02*
X162989000Y-92789000D01*
X162989000Y-83343000D02*
X162989000Y-87026000D01*
X162949000Y-89106000D02*
X162949000Y-92804000D01*
X162949000Y-83328000D02*
X162949000Y-87026000D01*
X162909000Y-89106000D02*
X162909000Y-92820000D01*
X162909000Y-83312000D02*
X162909000Y-87026000D01*
X162869000Y-89106000D02*
X162869000Y-92834000D01*
X162869000Y-83298000D02*
X162869000Y-87026000D01*
X162829000Y-89106000D02*
X162829000Y-92849000D01*
X162829000Y-83283000D02*
X162829000Y-87026000D01*
X162789000Y-89106000D02*
X162789000Y-92863000D01*
X162789000Y-83269000D02*
X162789000Y-87026000D01*
X162749000Y-89106000D02*
X162749000Y-92877000D01*
X162749000Y-83255000D02*
X162749000Y-87026000D01*
X162709000Y-89106000D02*
X162709000Y-92890000D01*
X162709000Y-83242000D02*
X162709000Y-87026000D01*
X162669000Y-89106000D02*
X162669000Y-92903000D01*
X162669000Y-83229000D02*
X162669000Y-87026000D01*
X162629000Y-89106000D02*
X162629000Y-92916000D01*
X162629000Y-83216000D02*
X162629000Y-87026000D01*
X162589000Y-89106000D02*
X162589000Y-92928000D01*
X162589000Y-83204000D02*
X162589000Y-87026000D01*
X162549000Y-89106000D02*
X162549000Y-92940000D01*
X162549000Y-83192000D02*
X162549000Y-87026000D01*
X162509000Y-89106000D02*
X162509000Y-92951000D01*
X162509000Y-83181000D02*
X162509000Y-87026000D01*
X162469000Y-89106000D02*
X162469000Y-92963000D01*
X162469000Y-83169000D02*
X162469000Y-87026000D01*
X162429000Y-89106000D02*
X162429000Y-92973000D01*
X162429000Y-83159000D02*
X162429000Y-87026000D01*
X162389000Y-89106000D02*
X162389000Y-92984000D01*
X162389000Y-83148000D02*
X162389000Y-87026000D01*
X162349000Y-89106000D02*
X162349000Y-92994000D01*
X162349000Y-83138000D02*
X162349000Y-87026000D01*
X162309000Y-89106000D02*
X162309000Y-93004000D01*
X162309000Y-83128000D02*
X162309000Y-87026000D01*
X162269000Y-89106000D02*
X162269000Y-93013000D01*
X162269000Y-83119000D02*
X162269000Y-87026000D01*
X162229000Y-89106000D02*
X162229000Y-93022000D01*
X162229000Y-83110000D02*
X162229000Y-87026000D01*
X162189000Y-89106000D02*
X162189000Y-93031000D01*
X162189000Y-83101000D02*
X162189000Y-87026000D01*
X162149000Y-89106000D02*
X162149000Y-93040000D01*
X162149000Y-83092000D02*
X162149000Y-87026000D01*
X162109000Y-89106000D02*
X162109000Y-93048000D01*
X162109000Y-83084000D02*
X162109000Y-87026000D01*
X162069000Y-89106000D02*
X162069000Y-93056000D01*
X162069000Y-83076000D02*
X162069000Y-87026000D01*
X162029000Y-89106000D02*
X162029000Y-93063000D01*
X162029000Y-83069000D02*
X162029000Y-87026000D01*
X161989000Y-89106000D02*
X161989000Y-93070000D01*
X161989000Y-83062000D02*
X161989000Y-87026000D01*
X161949000Y-89106000D02*
X161949000Y-93077000D01*
X161949000Y-83055000D02*
X161949000Y-87026000D01*
X161909000Y-89106000D02*
X161909000Y-93084000D01*
X161909000Y-83048000D02*
X161909000Y-87026000D01*
X161869000Y-89106000D02*
X161869000Y-93090000D01*
X161869000Y-83042000D02*
X161869000Y-87026000D01*
X161829000Y-89106000D02*
X161829000Y-93096000D01*
X161829000Y-83036000D02*
X161829000Y-87026000D01*
X161788000Y-89106000D02*
X161788000Y-93101000D01*
X161788000Y-83031000D02*
X161788000Y-87026000D01*
X161748000Y-89106000D02*
X161748000Y-93106000D01*
X161748000Y-83026000D02*
X161748000Y-87026000D01*
X161708000Y-89106000D02*
X161708000Y-93111000D01*
X161708000Y-83021000D02*
X161708000Y-87026000D01*
X161668000Y-89106000D02*
X161668000Y-93116000D01*
X161668000Y-83016000D02*
X161668000Y-87026000D01*
X161628000Y-89106000D02*
X161628000Y-93120000D01*
X161628000Y-83012000D02*
X161628000Y-87026000D01*
X161588000Y-89106000D02*
X161588000Y-93124000D01*
X161588000Y-83008000D02*
X161588000Y-87026000D01*
X161548000Y-89106000D02*
X161548000Y-93128000D01*
X161548000Y-83004000D02*
X161548000Y-87026000D01*
X161508000Y-89106000D02*
X161508000Y-93131000D01*
X161508000Y-83001000D02*
X161508000Y-87026000D01*
X161468000Y-89106000D02*
X161468000Y-93134000D01*
X161468000Y-82998000D02*
X161468000Y-87026000D01*
X161428000Y-89106000D02*
X161428000Y-93136000D01*
X161428000Y-82996000D02*
X161428000Y-87026000D01*
X161388000Y-89106000D02*
X161388000Y-93139000D01*
X161388000Y-82993000D02*
X161388000Y-87026000D01*
X161348000Y-89106000D02*
X161348000Y-93141000D01*
X161348000Y-82991000D02*
X161348000Y-87026000D01*
X161308000Y-82989000D02*
X161308000Y-93143000D01*
X161268000Y-82988000D02*
X161268000Y-93144000D01*
X161228000Y-82987000D02*
X161228000Y-93145000D01*
X161188000Y-82986000D02*
X161188000Y-93146000D01*
X161148000Y-82986000D02*
X161148000Y-93146000D01*
X161108000Y-82986000D02*
X161108000Y-93146000D01*
X166228000Y-88066000D02*
G75*
G03X166228000Y-88066000I-5120000J0D01*
G01*
X149560000Y-62600000D02*
X141940000Y-62600000D01*
X149560000Y-70220000D02*
X149560000Y-62600000D01*
X141940000Y-70220000D02*
X149560000Y-70220000D01*
X141940000Y-62600000D02*
X141940000Y-70220000D01*
X136860000Y-109590000D02*
X136860000Y-66410000D01*
X154640000Y-66410000D02*
X154640000Y-109590000D01*
X154640000Y-109590000D02*
X136860000Y-109590000D01*
X136860000Y-66410000D02*
X154640000Y-66410000D01*
X127954000Y-76890000D02*
X128024000Y-76890000D01*
X127954000Y-76890000D02*
G75*
G03X127954000Y-76890000I-1370000J0D01*
G01*
X133250000Y-69370000D02*
X133250000Y-69440000D01*
X134620000Y-68000000D02*
G75*
G03X134620000Y-68000000I-1370000J0D01*
G01*
X126250000Y-81630000D02*
X126250000Y-81560000D01*
X127620000Y-83000000D02*
G75*
G03X127620000Y-83000000I-1370000J0D01*
G01*
X164176000Y-102644000D02*
X164176000Y-102714000D01*
X165546000Y-101274000D02*
G75*
G03X165546000Y-101274000I-1370000J0D01*
G01*
X164176000Y-96094000D02*
X164176000Y-96024000D01*
X165546000Y-97464000D02*
G75*
G03X165546000Y-97464000I-1370000J0D01*
G01*
X159985000Y-99015000D02*
X159985000Y-98945000D01*
X161355000Y-100385000D02*
G75*
G03X161355000Y-100385000I-1370000J0D01*
G01*
X135088478Y-80391522D02*
G75*
G03X130650000Y-82230000I-1838478J-1838478D01*
G01*
X135088478Y-84068478D02*
G75*
G02X130650000Y-82230000I-1838478J1838478D01*
G01*
X135100000Y-84030000D02*
X135100000Y-80430000D01*
X164190635Y-117500000D02*
X164850000Y-117500000D01*
X164190635Y-117500000D02*
G75*
G03X164190635Y-117500000I-1750635J0D01*
G01*
X163700000Y-77561000D02*
X163700000Y-78006000D01*
X163700000Y-75266000D02*
X163700000Y-75711000D01*
X157460000Y-77561000D02*
X157460000Y-78006000D01*
X157460000Y-75266000D02*
X157460000Y-75711000D01*
X157460000Y-78006000D02*
X163700000Y-78006000D01*
X157460000Y-75266000D02*
X163700000Y-75266000D01*
X125270354Y-109625000D02*
X125270354Y-110625000D01*
X124770354Y-110125000D02*
X125770354Y-110125000D01*
X135331000Y-112401000D02*
X135331000Y-113599000D01*
X135291000Y-112138000D02*
X135291000Y-113862000D01*
X135251000Y-111938000D02*
X135251000Y-114062000D01*
X135211000Y-111770000D02*
X135211000Y-114230000D01*
X135171000Y-111622000D02*
X135171000Y-114378000D01*
X135131000Y-111490000D02*
X135131000Y-114510000D01*
X135091000Y-111370000D02*
X135091000Y-114630000D01*
X135051000Y-111258000D02*
X135051000Y-114742000D01*
X135011000Y-111154000D02*
X135011000Y-114846000D01*
X134971000Y-111056000D02*
X134971000Y-114944000D01*
X134931000Y-110963000D02*
X134931000Y-115037000D01*
X134891000Y-110875000D02*
X134891000Y-115125000D01*
X134851000Y-110791000D02*
X134851000Y-115209000D01*
X134811000Y-110711000D02*
X134811000Y-115289000D01*
X134771000Y-110635000D02*
X134771000Y-115365000D01*
X134731000Y-110561000D02*
X134731000Y-115439000D01*
X134691000Y-110490000D02*
X134691000Y-115510000D01*
X134651000Y-110421000D02*
X134651000Y-115579000D01*
X134611000Y-110355000D02*
X134611000Y-115645000D01*
X134571000Y-110291000D02*
X134571000Y-115709000D01*
X134531000Y-110230000D02*
X134531000Y-115770000D01*
X134491000Y-110170000D02*
X134491000Y-115830000D01*
X134451000Y-110111000D02*
X134451000Y-115889000D01*
X134411000Y-110055000D02*
X134411000Y-115945000D01*
X134371000Y-110000000D02*
X134371000Y-116000000D01*
X134331000Y-109946000D02*
X134331000Y-116054000D01*
X134291000Y-109894000D02*
X134291000Y-116106000D01*
X134251000Y-109844000D02*
X134251000Y-116156000D01*
X134211000Y-109794000D02*
X134211000Y-116206000D01*
X134171000Y-109746000D02*
X134171000Y-116254000D01*
X134131000Y-109699000D02*
X134131000Y-116301000D01*
X134091000Y-109653000D02*
X134091000Y-116347000D01*
X134051000Y-109608000D02*
X134051000Y-116392000D01*
X134011000Y-109564000D02*
X134011000Y-116436000D01*
X133971000Y-109522000D02*
X133971000Y-116478000D01*
X133931000Y-109480000D02*
X133931000Y-116520000D01*
X133891000Y-109439000D02*
X133891000Y-116561000D01*
X133851000Y-109399000D02*
X133851000Y-116601000D01*
X133811000Y-109360000D02*
X133811000Y-116640000D01*
X133771000Y-109321000D02*
X133771000Y-116679000D01*
X133731000Y-109284000D02*
X133731000Y-116716000D01*
X133691000Y-109247000D02*
X133691000Y-116753000D01*
X133651000Y-109211000D02*
X133651000Y-116789000D01*
X133611000Y-109176000D02*
X133611000Y-116824000D01*
X133571000Y-109142000D02*
X133571000Y-116858000D01*
X133531000Y-109108000D02*
X133531000Y-116892000D01*
X133491000Y-109075000D02*
X133491000Y-116925000D01*
X133451000Y-109043000D02*
X133451000Y-116957000D01*
X133411000Y-109011000D02*
X133411000Y-116989000D01*
X133371000Y-108980000D02*
X133371000Y-117020000D01*
X133331000Y-108950000D02*
X133331000Y-117050000D01*
X133291000Y-108920000D02*
X133291000Y-117080000D01*
X133251000Y-108890000D02*
X133251000Y-117110000D01*
X133211000Y-108862000D02*
X133211000Y-117138000D01*
X133171000Y-108834000D02*
X133171000Y-117166000D01*
X133131000Y-108806000D02*
X133131000Y-117194000D01*
X133091000Y-108779000D02*
X133091000Y-117221000D01*
X133051000Y-108753000D02*
X133051000Y-117247000D01*
X133011000Y-108727000D02*
X133011000Y-117273000D01*
X132971000Y-108702000D02*
X132971000Y-117298000D01*
X132931000Y-108677000D02*
X132931000Y-117323000D01*
X132891000Y-108653000D02*
X132891000Y-117347000D01*
X132851000Y-108629000D02*
X132851000Y-117371000D01*
X132811000Y-108605000D02*
X132811000Y-117395000D01*
X132771000Y-108583000D02*
X132771000Y-117417000D01*
X132731000Y-108560000D02*
X132731000Y-117440000D01*
X132691000Y-108538000D02*
X132691000Y-117462000D01*
X132651000Y-108517000D02*
X132651000Y-117483000D01*
X132611000Y-108496000D02*
X132611000Y-117504000D01*
X132571000Y-108475000D02*
X132571000Y-117525000D01*
X132531000Y-114040000D02*
X132531000Y-117545000D01*
X132531000Y-108455000D02*
X132531000Y-111960000D01*
X132491000Y-114040000D02*
X132491000Y-117564000D01*
X132491000Y-108436000D02*
X132491000Y-111960000D01*
X132451000Y-114040000D02*
X132451000Y-117584000D01*
X132451000Y-108416000D02*
X132451000Y-111960000D01*
X132411000Y-114040000D02*
X132411000Y-117603000D01*
X132411000Y-108397000D02*
X132411000Y-111960000D01*
X132371000Y-114040000D02*
X132371000Y-117621000D01*
X132371000Y-108379000D02*
X132371000Y-111960000D01*
X132331000Y-114040000D02*
X132331000Y-117639000D01*
X132331000Y-108361000D02*
X132331000Y-111960000D01*
X132291000Y-114040000D02*
X132291000Y-117657000D01*
X132291000Y-108343000D02*
X132291000Y-111960000D01*
X132251000Y-114040000D02*
X132251000Y-117674000D01*
X132251000Y-108326000D02*
X132251000Y-111960000D01*
X132211000Y-114040000D02*
X132211000Y-117690000D01*
X132211000Y-108310000D02*
X132211000Y-111960000D01*
X132171000Y-114040000D02*
X132171000Y-117707000D01*
X132171000Y-108293000D02*
X132171000Y-111960000D01*
X132131000Y-114040000D02*
X132131000Y-117723000D01*
X132131000Y-108277000D02*
X132131000Y-111960000D01*
X132091000Y-114040000D02*
X132091000Y-117738000D01*
X132091000Y-108262000D02*
X132091000Y-111960000D01*
X132051000Y-114040000D02*
X132051000Y-117754000D01*
X132051000Y-108246000D02*
X132051000Y-111960000D01*
X132011000Y-114040000D02*
X132011000Y-117768000D01*
X132011000Y-108232000D02*
X132011000Y-111960000D01*
X131971000Y-114040000D02*
X131971000Y-117783000D01*
X131971000Y-108217000D02*
X131971000Y-111960000D01*
X131931000Y-114040000D02*
X131931000Y-117797000D01*
X131931000Y-108203000D02*
X131931000Y-111960000D01*
X131891000Y-114040000D02*
X131891000Y-117811000D01*
X131891000Y-108189000D02*
X131891000Y-111960000D01*
X131851000Y-114040000D02*
X131851000Y-117824000D01*
X131851000Y-108176000D02*
X131851000Y-111960000D01*
X131811000Y-114040000D02*
X131811000Y-117837000D01*
X131811000Y-108163000D02*
X131811000Y-111960000D01*
X131771000Y-114040000D02*
X131771000Y-117850000D01*
X131771000Y-108150000D02*
X131771000Y-111960000D01*
X131731000Y-114040000D02*
X131731000Y-117862000D01*
X131731000Y-108138000D02*
X131731000Y-111960000D01*
X131691000Y-114040000D02*
X131691000Y-117874000D01*
X131691000Y-108126000D02*
X131691000Y-111960000D01*
X131651000Y-114040000D02*
X131651000Y-117885000D01*
X131651000Y-108115000D02*
X131651000Y-111960000D01*
X131611000Y-114040000D02*
X131611000Y-117897000D01*
X131611000Y-108103000D02*
X131611000Y-111960000D01*
X131571000Y-114040000D02*
X131571000Y-117907000D01*
X131571000Y-108093000D02*
X131571000Y-111960000D01*
X131531000Y-114040000D02*
X131531000Y-117918000D01*
X131531000Y-108082000D02*
X131531000Y-111960000D01*
X131491000Y-114040000D02*
X131491000Y-117928000D01*
X131491000Y-108072000D02*
X131491000Y-111960000D01*
X131451000Y-114040000D02*
X131451000Y-117938000D01*
X131451000Y-108062000D02*
X131451000Y-111960000D01*
X131411000Y-114040000D02*
X131411000Y-117947000D01*
X131411000Y-108053000D02*
X131411000Y-111960000D01*
X131371000Y-114040000D02*
X131371000Y-117956000D01*
X131371000Y-108044000D02*
X131371000Y-111960000D01*
X131331000Y-114040000D02*
X131331000Y-117965000D01*
X131331000Y-108035000D02*
X131331000Y-111960000D01*
X131291000Y-114040000D02*
X131291000Y-117974000D01*
X131291000Y-108026000D02*
X131291000Y-111960000D01*
X131251000Y-114040000D02*
X131251000Y-117982000D01*
X131251000Y-108018000D02*
X131251000Y-111960000D01*
X131211000Y-114040000D02*
X131211000Y-117990000D01*
X131211000Y-108010000D02*
X131211000Y-111960000D01*
X131171000Y-114040000D02*
X131171000Y-117997000D01*
X131171000Y-108003000D02*
X131171000Y-111960000D01*
X131131000Y-114040000D02*
X131131000Y-118004000D01*
X131131000Y-107996000D02*
X131131000Y-111960000D01*
X131091000Y-114040000D02*
X131091000Y-118011000D01*
X131091000Y-107989000D02*
X131091000Y-111960000D01*
X131051000Y-114040000D02*
X131051000Y-118018000D01*
X131051000Y-107982000D02*
X131051000Y-111960000D01*
X131011000Y-114040000D02*
X131011000Y-118024000D01*
X131011000Y-107976000D02*
X131011000Y-111960000D01*
X130971000Y-114040000D02*
X130971000Y-118030000D01*
X130971000Y-107970000D02*
X130971000Y-111960000D01*
X130930000Y-114040000D02*
X130930000Y-118035000D01*
X130930000Y-107965000D02*
X130930000Y-111960000D01*
X130890000Y-114040000D02*
X130890000Y-118040000D01*
X130890000Y-107960000D02*
X130890000Y-111960000D01*
X130850000Y-114040000D02*
X130850000Y-118045000D01*
X130850000Y-107955000D02*
X130850000Y-111960000D01*
X130810000Y-114040000D02*
X130810000Y-118050000D01*
X130810000Y-107950000D02*
X130810000Y-111960000D01*
X130770000Y-114040000D02*
X130770000Y-118054000D01*
X130770000Y-107946000D02*
X130770000Y-111960000D01*
X130730000Y-114040000D02*
X130730000Y-118058000D01*
X130730000Y-107942000D02*
X130730000Y-111960000D01*
X130690000Y-114040000D02*
X130690000Y-118062000D01*
X130690000Y-107938000D02*
X130690000Y-111960000D01*
X130650000Y-114040000D02*
X130650000Y-118065000D01*
X130650000Y-107935000D02*
X130650000Y-111960000D01*
X130610000Y-114040000D02*
X130610000Y-118068000D01*
X130610000Y-107932000D02*
X130610000Y-111960000D01*
X130570000Y-114040000D02*
X130570000Y-118070000D01*
X130570000Y-107930000D02*
X130570000Y-111960000D01*
X130530000Y-114040000D02*
X130530000Y-118073000D01*
X130530000Y-107927000D02*
X130530000Y-111960000D01*
X130490000Y-114040000D02*
X130490000Y-118075000D01*
X130490000Y-107925000D02*
X130490000Y-111960000D01*
X130450000Y-107923000D02*
X130450000Y-118077000D01*
X130410000Y-107922000D02*
X130410000Y-118078000D01*
X130370000Y-107921000D02*
X130370000Y-118079000D01*
X130330000Y-107920000D02*
X130330000Y-118080000D01*
X130290000Y-107920000D02*
X130290000Y-118080000D01*
X130250000Y-107920000D02*
X130250000Y-118080000D01*
X135370000Y-113000000D02*
G75*
G03X135370000Y-113000000I-5120000J0D01*
G01*
X125270354Y-96625000D02*
X125270354Y-97625000D01*
X124770354Y-97125000D02*
X125770354Y-97125000D01*
X135331000Y-99401000D02*
X135331000Y-100599000D01*
X135291000Y-99138000D02*
X135291000Y-100862000D01*
X135251000Y-98938000D02*
X135251000Y-101062000D01*
X135211000Y-98770000D02*
X135211000Y-101230000D01*
X135171000Y-98622000D02*
X135171000Y-101378000D01*
X135131000Y-98490000D02*
X135131000Y-101510000D01*
X135091000Y-98370000D02*
X135091000Y-101630000D01*
X135051000Y-98258000D02*
X135051000Y-101742000D01*
X135011000Y-98154000D02*
X135011000Y-101846000D01*
X134971000Y-98056000D02*
X134971000Y-101944000D01*
X134931000Y-97963000D02*
X134931000Y-102037000D01*
X134891000Y-97875000D02*
X134891000Y-102125000D01*
X134851000Y-97791000D02*
X134851000Y-102209000D01*
X134811000Y-97711000D02*
X134811000Y-102289000D01*
X134771000Y-97635000D02*
X134771000Y-102365000D01*
X134731000Y-97561000D02*
X134731000Y-102439000D01*
X134691000Y-97490000D02*
X134691000Y-102510000D01*
X134651000Y-97421000D02*
X134651000Y-102579000D01*
X134611000Y-97355000D02*
X134611000Y-102645000D01*
X134571000Y-97291000D02*
X134571000Y-102709000D01*
X134531000Y-97230000D02*
X134531000Y-102770000D01*
X134491000Y-97170000D02*
X134491000Y-102830000D01*
X134451000Y-97111000D02*
X134451000Y-102889000D01*
X134411000Y-97055000D02*
X134411000Y-102945000D01*
X134371000Y-97000000D02*
X134371000Y-103000000D01*
X134331000Y-96946000D02*
X134331000Y-103054000D01*
X134291000Y-96894000D02*
X134291000Y-103106000D01*
X134251000Y-96844000D02*
X134251000Y-103156000D01*
X134211000Y-96794000D02*
X134211000Y-103206000D01*
X134171000Y-96746000D02*
X134171000Y-103254000D01*
X134131000Y-96699000D02*
X134131000Y-103301000D01*
X134091000Y-96653000D02*
X134091000Y-103347000D01*
X134051000Y-96608000D02*
X134051000Y-103392000D01*
X134011000Y-96564000D02*
X134011000Y-103436000D01*
X133971000Y-96522000D02*
X133971000Y-103478000D01*
X133931000Y-96480000D02*
X133931000Y-103520000D01*
X133891000Y-96439000D02*
X133891000Y-103561000D01*
X133851000Y-96399000D02*
X133851000Y-103601000D01*
X133811000Y-96360000D02*
X133811000Y-103640000D01*
X133771000Y-96321000D02*
X133771000Y-103679000D01*
X133731000Y-96284000D02*
X133731000Y-103716000D01*
X133691000Y-96247000D02*
X133691000Y-103753000D01*
X133651000Y-96211000D02*
X133651000Y-103789000D01*
X133611000Y-96176000D02*
X133611000Y-103824000D01*
X133571000Y-96142000D02*
X133571000Y-103858000D01*
X133531000Y-96108000D02*
X133531000Y-103892000D01*
X133491000Y-96075000D02*
X133491000Y-103925000D01*
X133451000Y-96043000D02*
X133451000Y-103957000D01*
X133411000Y-96011000D02*
X133411000Y-103989000D01*
X133371000Y-95980000D02*
X133371000Y-104020000D01*
X133331000Y-95950000D02*
X133331000Y-104050000D01*
X133291000Y-95920000D02*
X133291000Y-104080000D01*
X133251000Y-95890000D02*
X133251000Y-104110000D01*
X133211000Y-95862000D02*
X133211000Y-104138000D01*
X133171000Y-95834000D02*
X133171000Y-104166000D01*
X133131000Y-95806000D02*
X133131000Y-104194000D01*
X133091000Y-95779000D02*
X133091000Y-104221000D01*
X133051000Y-95753000D02*
X133051000Y-104247000D01*
X133011000Y-95727000D02*
X133011000Y-104273000D01*
X132971000Y-95702000D02*
X132971000Y-104298000D01*
X132931000Y-95677000D02*
X132931000Y-104323000D01*
X132891000Y-95653000D02*
X132891000Y-104347000D01*
X132851000Y-95629000D02*
X132851000Y-104371000D01*
X132811000Y-95605000D02*
X132811000Y-104395000D01*
X132771000Y-95583000D02*
X132771000Y-104417000D01*
X132731000Y-95560000D02*
X132731000Y-104440000D01*
X132691000Y-95538000D02*
X132691000Y-104462000D01*
X132651000Y-95517000D02*
X132651000Y-104483000D01*
X132611000Y-95496000D02*
X132611000Y-104504000D01*
X132571000Y-95475000D02*
X132571000Y-104525000D01*
X132531000Y-101040000D02*
X132531000Y-104545000D01*
X132531000Y-95455000D02*
X132531000Y-98960000D01*
X132491000Y-101040000D02*
X132491000Y-104564000D01*
X132491000Y-95436000D02*
X132491000Y-98960000D01*
X132451000Y-101040000D02*
X132451000Y-104584000D01*
X132451000Y-95416000D02*
X132451000Y-98960000D01*
X132411000Y-101040000D02*
X132411000Y-104603000D01*
X132411000Y-95397000D02*
X132411000Y-98960000D01*
X132371000Y-101040000D02*
X132371000Y-104621000D01*
X132371000Y-95379000D02*
X132371000Y-98960000D01*
X132331000Y-101040000D02*
X132331000Y-104639000D01*
X132331000Y-95361000D02*
X132331000Y-98960000D01*
X132291000Y-101040000D02*
X132291000Y-104657000D01*
X132291000Y-95343000D02*
X132291000Y-98960000D01*
X132251000Y-101040000D02*
X132251000Y-104674000D01*
X132251000Y-95326000D02*
X132251000Y-98960000D01*
X132211000Y-101040000D02*
X132211000Y-104690000D01*
X132211000Y-95310000D02*
X132211000Y-98960000D01*
X132171000Y-101040000D02*
X132171000Y-104707000D01*
X132171000Y-95293000D02*
X132171000Y-98960000D01*
X132131000Y-101040000D02*
X132131000Y-104723000D01*
X132131000Y-95277000D02*
X132131000Y-98960000D01*
X132091000Y-101040000D02*
X132091000Y-104738000D01*
X132091000Y-95262000D02*
X132091000Y-98960000D01*
X132051000Y-101040000D02*
X132051000Y-104754000D01*
X132051000Y-95246000D02*
X132051000Y-98960000D01*
X132011000Y-101040000D02*
X132011000Y-104768000D01*
X132011000Y-95232000D02*
X132011000Y-98960000D01*
X131971000Y-101040000D02*
X131971000Y-104783000D01*
X131971000Y-95217000D02*
X131971000Y-98960000D01*
X131931000Y-101040000D02*
X131931000Y-104797000D01*
X131931000Y-95203000D02*
X131931000Y-98960000D01*
X131891000Y-101040000D02*
X131891000Y-104811000D01*
X131891000Y-95189000D02*
X131891000Y-98960000D01*
X131851000Y-101040000D02*
X131851000Y-104824000D01*
X131851000Y-95176000D02*
X131851000Y-98960000D01*
X131811000Y-101040000D02*
X131811000Y-104837000D01*
X131811000Y-95163000D02*
X131811000Y-98960000D01*
X131771000Y-101040000D02*
X131771000Y-104850000D01*
X131771000Y-95150000D02*
X131771000Y-98960000D01*
X131731000Y-101040000D02*
X131731000Y-104862000D01*
X131731000Y-95138000D02*
X131731000Y-98960000D01*
X131691000Y-101040000D02*
X131691000Y-104874000D01*
X131691000Y-95126000D02*
X131691000Y-98960000D01*
X131651000Y-101040000D02*
X131651000Y-104885000D01*
X131651000Y-95115000D02*
X131651000Y-98960000D01*
X131611000Y-101040000D02*
X131611000Y-104897000D01*
X131611000Y-95103000D02*
X131611000Y-98960000D01*
X131571000Y-101040000D02*
X131571000Y-104907000D01*
X131571000Y-95093000D02*
X131571000Y-98960000D01*
X131531000Y-101040000D02*
X131531000Y-104918000D01*
X131531000Y-95082000D02*
X131531000Y-98960000D01*
X131491000Y-101040000D02*
X131491000Y-104928000D01*
X131491000Y-95072000D02*
X131491000Y-98960000D01*
X131451000Y-101040000D02*
X131451000Y-104938000D01*
X131451000Y-95062000D02*
X131451000Y-98960000D01*
X131411000Y-101040000D02*
X131411000Y-104947000D01*
X131411000Y-95053000D02*
X131411000Y-98960000D01*
X131371000Y-101040000D02*
X131371000Y-104956000D01*
X131371000Y-95044000D02*
X131371000Y-98960000D01*
X131331000Y-101040000D02*
X131331000Y-104965000D01*
X131331000Y-95035000D02*
X131331000Y-98960000D01*
X131291000Y-101040000D02*
X131291000Y-104974000D01*
X131291000Y-95026000D02*
X131291000Y-98960000D01*
X131251000Y-101040000D02*
X131251000Y-104982000D01*
X131251000Y-95018000D02*
X131251000Y-98960000D01*
X131211000Y-101040000D02*
X131211000Y-104990000D01*
X131211000Y-95010000D02*
X131211000Y-98960000D01*
X131171000Y-101040000D02*
X131171000Y-104997000D01*
X131171000Y-95003000D02*
X131171000Y-98960000D01*
X131131000Y-101040000D02*
X131131000Y-105004000D01*
X131131000Y-94996000D02*
X131131000Y-98960000D01*
X131091000Y-101040000D02*
X131091000Y-105011000D01*
X131091000Y-94989000D02*
X131091000Y-98960000D01*
X131051000Y-101040000D02*
X131051000Y-105018000D01*
X131051000Y-94982000D02*
X131051000Y-98960000D01*
X131011000Y-101040000D02*
X131011000Y-105024000D01*
X131011000Y-94976000D02*
X131011000Y-98960000D01*
X130971000Y-101040000D02*
X130971000Y-105030000D01*
X130971000Y-94970000D02*
X130971000Y-98960000D01*
X130930000Y-101040000D02*
X130930000Y-105035000D01*
X130930000Y-94965000D02*
X130930000Y-98960000D01*
X130890000Y-101040000D02*
X130890000Y-105040000D01*
X130890000Y-94960000D02*
X130890000Y-98960000D01*
X130850000Y-101040000D02*
X130850000Y-105045000D01*
X130850000Y-94955000D02*
X130850000Y-98960000D01*
X130810000Y-101040000D02*
X130810000Y-105050000D01*
X130810000Y-94950000D02*
X130810000Y-98960000D01*
X130770000Y-101040000D02*
X130770000Y-105054000D01*
X130770000Y-94946000D02*
X130770000Y-98960000D01*
X130730000Y-101040000D02*
X130730000Y-105058000D01*
X130730000Y-94942000D02*
X130730000Y-98960000D01*
X130690000Y-101040000D02*
X130690000Y-105062000D01*
X130690000Y-94938000D02*
X130690000Y-98960000D01*
X130650000Y-101040000D02*
X130650000Y-105065000D01*
X130650000Y-94935000D02*
X130650000Y-98960000D01*
X130610000Y-101040000D02*
X130610000Y-105068000D01*
X130610000Y-94932000D02*
X130610000Y-98960000D01*
X130570000Y-101040000D02*
X130570000Y-105070000D01*
X130570000Y-94930000D02*
X130570000Y-98960000D01*
X130530000Y-101040000D02*
X130530000Y-105073000D01*
X130530000Y-94927000D02*
X130530000Y-98960000D01*
X130490000Y-101040000D02*
X130490000Y-105075000D01*
X130490000Y-94925000D02*
X130490000Y-98960000D01*
X130450000Y-94923000D02*
X130450000Y-105077000D01*
X130410000Y-94922000D02*
X130410000Y-105078000D01*
X130370000Y-94921000D02*
X130370000Y-105079000D01*
X130330000Y-94920000D02*
X130330000Y-105080000D01*
X130290000Y-94920000D02*
X130290000Y-105080000D01*
X130250000Y-94920000D02*
X130250000Y-105080000D01*
X135370000Y-100000000D02*
G75*
G03X135370000Y-100000000I-5120000J0D01*
G01*
X138370000Y-116000000D02*
X139220000Y-116000000D01*
X155810000Y-116000000D02*
X154960000Y-116000000D01*
X139220000Y-118620000D02*
X154960000Y-118620000D01*
X139220000Y-113380000D02*
X139220000Y-118620000D01*
X154960000Y-113380000D02*
X139220000Y-113380000D01*
X154960000Y-118620000D02*
X154960000Y-113380000D01*
X132391000Y-86730000D02*
X132391000Y-88240000D01*
X128690000Y-86730000D02*
X128690000Y-88240000D01*
X125420000Y-88240000D02*
X135660000Y-88240000D01*
X135660000Y-86730000D02*
X135660000Y-91371000D01*
X125420000Y-86730000D02*
X125420000Y-91371000D01*
X125420000Y-91371000D02*
X135660000Y-91371000D01*
X125420000Y-86730000D02*
X135660000Y-86730000D01*
X160674000Y-111910000D02*
X160674000Y-110400000D01*
X164375000Y-111910000D02*
X164375000Y-110400000D01*
X167645000Y-110400000D02*
X157405000Y-110400000D01*
X157405000Y-111910000D02*
X157405000Y-107269000D01*
X167645000Y-111910000D02*
X167645000Y-107269000D01*
X167645000Y-107269000D02*
X157405000Y-107269000D01*
X167645000Y-111910000D02*
X157405000Y-111910000D01*
X158920000Y-64170000D02*
X160250000Y-64170000D01*
X158920000Y-65500000D02*
X158920000Y-64170000D01*
X158920000Y-66770000D02*
X161580000Y-66770000D01*
X161580000Y-66770000D02*
X161580000Y-71910000D01*
X158920000Y-66770000D02*
X158920000Y-71910000D01*
X158920000Y-71910000D02*
X161580000Y-71910000D01*
D10*
X131332380Y-75532666D02*
X130856190Y-75866000D01*
X131332380Y-76104095D02*
X130332380Y-76104095D01*
X130332380Y-75723142D01*
X130380000Y-75627904D01*
X130427619Y-75580285D01*
X130522857Y-75532666D01*
X130665714Y-75532666D01*
X130760952Y-75580285D01*
X130808571Y-75627904D01*
X130856190Y-75723142D01*
X130856190Y-76104095D01*
X130760952Y-74961238D02*
X130713333Y-75056476D01*
X130665714Y-75104095D01*
X130570476Y-75151714D01*
X130522857Y-75151714D01*
X130427619Y-75104095D01*
X130380000Y-75056476D01*
X130332380Y-74961238D01*
X130332380Y-74770761D01*
X130380000Y-74675523D01*
X130427619Y-74627904D01*
X130522857Y-74580285D01*
X130570476Y-74580285D01*
X130665714Y-74627904D01*
X130713333Y-74675523D01*
X130760952Y-74770761D01*
X130760952Y-74961238D01*
X130808571Y-75056476D01*
X130856190Y-75104095D01*
X130951428Y-75151714D01*
X131141904Y-75151714D01*
X131237142Y-75104095D01*
X131284761Y-75056476D01*
X131332380Y-74961238D01*
X131332380Y-74770761D01*
X131284761Y-74675523D01*
X131237142Y-74627904D01*
X131141904Y-74580285D01*
X130951428Y-74580285D01*
X130856190Y-74627904D01*
X130808571Y-74675523D01*
X130760952Y-74770761D01*
X160941333Y-82454142D02*
X160893714Y-82501761D01*
X160750857Y-82549380D01*
X160655619Y-82549380D01*
X160512761Y-82501761D01*
X160417523Y-82406523D01*
X160369904Y-82311285D01*
X160322285Y-82120809D01*
X160322285Y-81977952D01*
X160369904Y-81787476D01*
X160417523Y-81692238D01*
X160512761Y-81597000D01*
X160655619Y-81549380D01*
X160750857Y-81549380D01*
X160893714Y-81597000D01*
X160941333Y-81644619D01*
X161274666Y-81549380D02*
X161893714Y-81549380D01*
X161560380Y-81930333D01*
X161703238Y-81930333D01*
X161798476Y-81977952D01*
X161846095Y-82025571D01*
X161893714Y-82120809D01*
X161893714Y-82358904D01*
X161846095Y-82454142D01*
X161798476Y-82501761D01*
X161703238Y-82549380D01*
X161417523Y-82549380D01*
X161322285Y-82501761D01*
X161274666Y-82454142D01*
X144940476Y-111378380D02*
X144940476Y-110378380D01*
X145273809Y-111092666D01*
X145607142Y-110378380D01*
X145607142Y-111378380D01*
X146607142Y-111378380D02*
X146035714Y-111378380D01*
X146321428Y-111378380D02*
X146321428Y-110378380D01*
X146226190Y-110521238D01*
X146130952Y-110616476D01*
X146035714Y-110664095D01*
X126957142Y-74802380D02*
X126623809Y-74326190D01*
X126385714Y-74802380D02*
X126385714Y-73802380D01*
X126766666Y-73802380D01*
X126861904Y-73850000D01*
X126909523Y-73897619D01*
X126957142Y-73992857D01*
X126957142Y-74135714D01*
X126909523Y-74230952D01*
X126861904Y-74278571D01*
X126766666Y-74326190D01*
X126385714Y-74326190D01*
X127909523Y-74802380D02*
X127338095Y-74802380D01*
X127623809Y-74802380D02*
X127623809Y-73802380D01*
X127528571Y-73945238D01*
X127433333Y-74040476D01*
X127338095Y-74088095D01*
X128528571Y-73802380D02*
X128623809Y-73802380D01*
X128719047Y-73850000D01*
X128766666Y-73897619D01*
X128814285Y-73992857D01*
X128861904Y-74183333D01*
X128861904Y-74421428D01*
X128814285Y-74611904D01*
X128766666Y-74707142D01*
X128719047Y-74754761D01*
X128623809Y-74802380D01*
X128528571Y-74802380D01*
X128433333Y-74754761D01*
X128385714Y-74707142D01*
X128338095Y-74611904D01*
X128290476Y-74421428D01*
X128290476Y-74183333D01*
X128338095Y-73992857D01*
X128385714Y-73897619D01*
X128433333Y-73850000D01*
X128528571Y-73802380D01*
X136072380Y-69436666D02*
X135596190Y-69770000D01*
X136072380Y-70008095D02*
X135072380Y-70008095D01*
X135072380Y-69627142D01*
X135120000Y-69531904D01*
X135167619Y-69484285D01*
X135262857Y-69436666D01*
X135405714Y-69436666D01*
X135500952Y-69484285D01*
X135548571Y-69531904D01*
X135596190Y-69627142D01*
X135596190Y-70008095D01*
X136072380Y-68960476D02*
X136072380Y-68770000D01*
X136024761Y-68674761D01*
X135977142Y-68627142D01*
X135834285Y-68531904D01*
X135643809Y-68484285D01*
X135262857Y-68484285D01*
X135167619Y-68531904D01*
X135120000Y-68579523D01*
X135072380Y-68674761D01*
X135072380Y-68865238D01*
X135120000Y-68960476D01*
X135167619Y-69008095D01*
X135262857Y-69055714D01*
X135500952Y-69055714D01*
X135596190Y-69008095D01*
X135643809Y-68960476D01*
X135691428Y-68865238D01*
X135691428Y-68674761D01*
X135643809Y-68579523D01*
X135596190Y-68531904D01*
X135500952Y-68484285D01*
X124332380Y-81896666D02*
X123856190Y-82230000D01*
X124332380Y-82468095D02*
X123332380Y-82468095D01*
X123332380Y-82087142D01*
X123380000Y-81991904D01*
X123427619Y-81944285D01*
X123522857Y-81896666D01*
X123665714Y-81896666D01*
X123760952Y-81944285D01*
X123808571Y-81991904D01*
X123856190Y-82087142D01*
X123856190Y-82468095D01*
X123332380Y-81039523D02*
X123332380Y-81230000D01*
X123380000Y-81325238D01*
X123427619Y-81372857D01*
X123570476Y-81468095D01*
X123760952Y-81515714D01*
X124141904Y-81515714D01*
X124237142Y-81468095D01*
X124284761Y-81420476D01*
X124332380Y-81325238D01*
X124332380Y-81134761D01*
X124284761Y-81039523D01*
X124237142Y-80991904D01*
X124141904Y-80944285D01*
X123903809Y-80944285D01*
X123808571Y-80991904D01*
X123760952Y-81039523D01*
X123713333Y-81134761D01*
X123713333Y-81325238D01*
X123760952Y-81420476D01*
X123808571Y-81468095D01*
X123903809Y-81515714D01*
X166998380Y-102710666D02*
X166522190Y-103044000D01*
X166998380Y-103282095D02*
X165998380Y-103282095D01*
X165998380Y-102901142D01*
X166046000Y-102805904D01*
X166093619Y-102758285D01*
X166188857Y-102710666D01*
X166331714Y-102710666D01*
X166426952Y-102758285D01*
X166474571Y-102805904D01*
X166522190Y-102901142D01*
X166522190Y-103282095D01*
X165998380Y-102377333D02*
X165998380Y-101758285D01*
X166379333Y-102091619D01*
X166379333Y-101948761D01*
X166426952Y-101853523D01*
X166474571Y-101805904D01*
X166569809Y-101758285D01*
X166807904Y-101758285D01*
X166903142Y-101805904D01*
X166950761Y-101853523D01*
X166998380Y-101948761D01*
X166998380Y-102234476D01*
X166950761Y-102329714D01*
X166903142Y-102377333D01*
X162258380Y-96360666D02*
X161782190Y-96694000D01*
X162258380Y-96932095D02*
X161258380Y-96932095D01*
X161258380Y-96551142D01*
X161306000Y-96455904D01*
X161353619Y-96408285D01*
X161448857Y-96360666D01*
X161591714Y-96360666D01*
X161686952Y-96408285D01*
X161734571Y-96455904D01*
X161782190Y-96551142D01*
X161782190Y-96932095D01*
X161353619Y-95979714D02*
X161306000Y-95932095D01*
X161258380Y-95836857D01*
X161258380Y-95598761D01*
X161306000Y-95503523D01*
X161353619Y-95455904D01*
X161448857Y-95408285D01*
X161544095Y-95408285D01*
X161686952Y-95455904D01*
X162258380Y-96027333D01*
X162258380Y-95408285D01*
X158067380Y-99281666D02*
X157591190Y-99615000D01*
X158067380Y-99853095D02*
X157067380Y-99853095D01*
X157067380Y-99472142D01*
X157115000Y-99376904D01*
X157162619Y-99329285D01*
X157257857Y-99281666D01*
X157400714Y-99281666D01*
X157495952Y-99329285D01*
X157543571Y-99376904D01*
X157591190Y-99472142D01*
X157591190Y-99853095D01*
X158067380Y-98329285D02*
X158067380Y-98900714D01*
X158067380Y-98615000D02*
X157067380Y-98615000D01*
X157210238Y-98710238D01*
X157305476Y-98805476D01*
X157353095Y-98900714D01*
X130237619Y-82325238D02*
X130190000Y-82420476D01*
X130094761Y-82515714D01*
X129951904Y-82658571D01*
X129904285Y-82753809D01*
X129904285Y-82849047D01*
X130142380Y-82801428D02*
X130094761Y-82896666D01*
X129999523Y-82991904D01*
X129809047Y-83039523D01*
X129475714Y-83039523D01*
X129285238Y-82991904D01*
X129190000Y-82896666D01*
X129142380Y-82801428D01*
X129142380Y-82610952D01*
X129190000Y-82515714D01*
X129285238Y-82420476D01*
X129475714Y-82372857D01*
X129809047Y-82372857D01*
X129999523Y-82420476D01*
X130094761Y-82515714D01*
X130142380Y-82610952D01*
X130142380Y-82801428D01*
X130142380Y-81420476D02*
X130142380Y-81991904D01*
X130142380Y-81706190D02*
X129142380Y-81706190D01*
X129285238Y-81801428D01*
X129380476Y-81896666D01*
X129428095Y-81991904D01*
X163606904Y-120703015D02*
X163606904Y-119703015D01*
X163845000Y-119703015D01*
X163987857Y-119750635D01*
X164083095Y-119845873D01*
X164130714Y-119941111D01*
X164178333Y-120131587D01*
X164178333Y-120274444D01*
X164130714Y-120464920D01*
X164083095Y-120560158D01*
X163987857Y-120655396D01*
X163845000Y-120703015D01*
X163606904Y-120703015D01*
X165130714Y-120703015D02*
X164559285Y-120703015D01*
X164845000Y-120703015D02*
X164845000Y-119703015D01*
X164749761Y-119845873D01*
X164654523Y-119941111D01*
X164559285Y-119988730D01*
X164188095Y-116852380D02*
X164188095Y-115852380D01*
X164759523Y-116852380D02*
X164330952Y-116280952D01*
X164759523Y-115852380D02*
X164188095Y-116423809D01*
X160453333Y-74453142D02*
X160405714Y-74500761D01*
X160262857Y-74548380D01*
X160167619Y-74548380D01*
X160024761Y-74500761D01*
X159929523Y-74405523D01*
X159881904Y-74310285D01*
X159834285Y-74119809D01*
X159834285Y-73976952D01*
X159881904Y-73786476D01*
X159929523Y-73691238D01*
X160024761Y-73596000D01*
X160167619Y-73548380D01*
X160262857Y-73548380D01*
X160405714Y-73596000D01*
X160453333Y-73643619D01*
X161310476Y-73881714D02*
X161310476Y-74548380D01*
X161072380Y-73500761D02*
X160834285Y-74215047D01*
X161453333Y-74215047D01*
X130083333Y-107107142D02*
X130035714Y-107154761D01*
X129892857Y-107202380D01*
X129797619Y-107202380D01*
X129654761Y-107154761D01*
X129559523Y-107059523D01*
X129511904Y-106964285D01*
X129464285Y-106773809D01*
X129464285Y-106630952D01*
X129511904Y-106440476D01*
X129559523Y-106345238D01*
X129654761Y-106250000D01*
X129797619Y-106202380D01*
X129892857Y-106202380D01*
X130035714Y-106250000D01*
X130083333Y-106297619D01*
X130464285Y-106297619D02*
X130511904Y-106250000D01*
X130607142Y-106202380D01*
X130845238Y-106202380D01*
X130940476Y-106250000D01*
X130988095Y-106297619D01*
X131035714Y-106392857D01*
X131035714Y-106488095D01*
X130988095Y-106630952D01*
X130416666Y-107202380D01*
X131035714Y-107202380D01*
X130083333Y-94107142D02*
X130035714Y-94154761D01*
X129892857Y-94202380D01*
X129797619Y-94202380D01*
X129654761Y-94154761D01*
X129559523Y-94059523D01*
X129511904Y-93964285D01*
X129464285Y-93773809D01*
X129464285Y-93630952D01*
X129511904Y-93440476D01*
X129559523Y-93345238D01*
X129654761Y-93250000D01*
X129797619Y-93202380D01*
X129892857Y-93202380D01*
X130035714Y-93250000D01*
X130083333Y-93297619D01*
X131035714Y-94202380D02*
X130464285Y-94202380D01*
X130750000Y-94202380D02*
X130750000Y-93202380D01*
X130654761Y-93345238D01*
X130559523Y-93440476D01*
X130464285Y-93488095D01*
X146923333Y-120072380D02*
X146590000Y-119596190D01*
X146351904Y-120072380D02*
X146351904Y-119072380D01*
X146732857Y-119072380D01*
X146828095Y-119120000D01*
X146875714Y-119167619D01*
X146923333Y-119262857D01*
X146923333Y-119405714D01*
X146875714Y-119500952D01*
X146828095Y-119548571D01*
X146732857Y-119596190D01*
X146351904Y-119596190D01*
X147256666Y-119072380D02*
X147923333Y-119072380D01*
X147494761Y-120072380D01*
X147794761Y-126869047D02*
X147842380Y-126726190D01*
X147842380Y-126488095D01*
X147794761Y-126392857D01*
X147747142Y-126345238D01*
X147651904Y-126297619D01*
X147556666Y-126297619D01*
X147461428Y-126345238D01*
X147413809Y-126392857D01*
X147366190Y-126488095D01*
X147318571Y-126678571D01*
X147270952Y-126773809D01*
X147223333Y-126821428D01*
X147128095Y-126869047D01*
X147032857Y-126869047D01*
X146937619Y-126821428D01*
X146890000Y-126773809D01*
X146842380Y-126678571D01*
X146842380Y-126440476D01*
X146890000Y-126297619D01*
X147842380Y-125869047D02*
X146842380Y-125869047D01*
X146890000Y-124869047D02*
X146842380Y-124964285D01*
X146842380Y-125107142D01*
X146890000Y-125250000D01*
X146985238Y-125345238D01*
X147080476Y-125392857D01*
X147270952Y-125440476D01*
X147413809Y-125440476D01*
X147604285Y-125392857D01*
X147699523Y-125345238D01*
X147794761Y-125250000D01*
X147842380Y-125107142D01*
X147842380Y-125011904D01*
X147794761Y-124869047D01*
X147747142Y-124821428D01*
X147413809Y-124821428D01*
X147413809Y-125011904D01*
X147461428Y-124392857D02*
X147461428Y-123630952D01*
X147842380Y-124011904D02*
X147080476Y-124011904D01*
X147842380Y-122630952D02*
X147842380Y-123202380D01*
X147842380Y-122916666D02*
X146842380Y-122916666D01*
X146985238Y-123011904D01*
X147080476Y-123107142D01*
X147128095Y-123202380D01*
X129778095Y-85182380D02*
X129778095Y-85991904D01*
X129825714Y-86087142D01*
X129873333Y-86134761D01*
X129968571Y-86182380D01*
X130159047Y-86182380D01*
X130254285Y-86134761D01*
X130301904Y-86087142D01*
X130349523Y-85991904D01*
X130349523Y-85182380D01*
X131349523Y-86182380D02*
X130778095Y-86182380D01*
X131063809Y-86182380D02*
X131063809Y-85182380D01*
X130968571Y-85325238D01*
X130873333Y-85420476D01*
X130778095Y-85468095D01*
X162429761Y-113457619D02*
X162334523Y-113410000D01*
X162239285Y-113314761D01*
X162096428Y-113171904D01*
X162001190Y-113124285D01*
X161905952Y-113124285D01*
X161953571Y-113362380D02*
X161858333Y-113314761D01*
X161763095Y-113219523D01*
X161715476Y-113029047D01*
X161715476Y-112695714D01*
X161763095Y-112505238D01*
X161858333Y-112410000D01*
X161953571Y-112362380D01*
X162144047Y-112362380D01*
X162239285Y-112410000D01*
X162334523Y-112505238D01*
X162382142Y-112695714D01*
X162382142Y-113029047D01*
X162334523Y-113219523D01*
X162239285Y-113314761D01*
X162144047Y-113362380D01*
X161953571Y-113362380D01*
X162763095Y-112457619D02*
X162810714Y-112410000D01*
X162905952Y-112362380D01*
X163144047Y-112362380D01*
X163239285Y-112410000D01*
X163286904Y-112457619D01*
X163334523Y-112552857D01*
X163334523Y-112648095D01*
X163286904Y-112790952D01*
X162715476Y-113362380D01*
X163334523Y-113362380D01*
X142714761Y-126869047D02*
X142762380Y-126726190D01*
X142762380Y-126488095D01*
X142714761Y-126392857D01*
X142667142Y-126345238D01*
X142571904Y-126297619D01*
X142476666Y-126297619D01*
X142381428Y-126345238D01*
X142333809Y-126392857D01*
X142286190Y-126488095D01*
X142238571Y-126678571D01*
X142190952Y-126773809D01*
X142143333Y-126821428D01*
X142048095Y-126869047D01*
X141952857Y-126869047D01*
X141857619Y-126821428D01*
X141810000Y-126773809D01*
X141762380Y-126678571D01*
X141762380Y-126440476D01*
X141810000Y-126297619D01*
X142762380Y-125869047D02*
X141762380Y-125869047D01*
X141810000Y-124869047D02*
X141762380Y-124964285D01*
X141762380Y-125107142D01*
X141810000Y-125250000D01*
X141905238Y-125345238D01*
X142000476Y-125392857D01*
X142190952Y-125440476D01*
X142333809Y-125440476D01*
X142524285Y-125392857D01*
X142619523Y-125345238D01*
X142714761Y-125250000D01*
X142762380Y-125107142D01*
X142762380Y-125011904D01*
X142714761Y-124869047D01*
X142667142Y-124821428D01*
X142333809Y-124821428D01*
X142333809Y-125011904D01*
X142381428Y-124392857D02*
X142381428Y-123630952D01*
X142762380Y-122630952D02*
X142762380Y-123202380D01*
X142762380Y-122916666D02*
X141762380Y-122916666D01*
X141905238Y-123011904D01*
X142000476Y-123107142D01*
X142048095Y-123202380D01*
X135142380Y-127178571D02*
X134142380Y-127178571D01*
X134142380Y-126797619D01*
X134190000Y-126702380D01*
X134237619Y-126654761D01*
X134332857Y-126607142D01*
X134475714Y-126607142D01*
X134570952Y-126654761D01*
X134618571Y-126702380D01*
X134666190Y-126797619D01*
X134666190Y-127178571D01*
X134142380Y-126273809D02*
X135142380Y-126035714D01*
X134428095Y-125845238D01*
X135142380Y-125654761D01*
X134142380Y-125416666D01*
X135142380Y-124464285D02*
X134666190Y-124797619D01*
X135142380Y-125035714D02*
X134142380Y-125035714D01*
X134142380Y-124654761D01*
X134190000Y-124559523D01*
X134237619Y-124511904D01*
X134332857Y-124464285D01*
X134475714Y-124464285D01*
X134570952Y-124511904D01*
X134618571Y-124559523D01*
X134666190Y-124654761D01*
X134666190Y-125035714D01*
X134761428Y-124035714D02*
X134761428Y-123273809D01*
X135142380Y-123654761D02*
X134380476Y-123654761D01*
X135142380Y-122273809D02*
X135142380Y-122845238D01*
X135142380Y-122559523D02*
X134142380Y-122559523D01*
X134285238Y-122654761D01*
X134380476Y-122750000D01*
X134428095Y-122845238D01*
X133662380Y-127978571D02*
X132662380Y-127978571D01*
X132662380Y-127597619D01*
X132710000Y-127502380D01*
X132757619Y-127454761D01*
X132852857Y-127407142D01*
X132995714Y-127407142D01*
X133090952Y-127454761D01*
X133138571Y-127502380D01*
X133186190Y-127597619D01*
X133186190Y-127978571D01*
X132662380Y-127073809D02*
X133662380Y-126835714D01*
X132948095Y-126645238D01*
X133662380Y-126454761D01*
X132662380Y-126216666D01*
X133662380Y-125264285D02*
X133186190Y-125597619D01*
X133662380Y-125835714D02*
X132662380Y-125835714D01*
X132662380Y-125454761D01*
X132710000Y-125359523D01*
X132757619Y-125311904D01*
X132852857Y-125264285D01*
X132995714Y-125264285D01*
X133090952Y-125311904D01*
X133138571Y-125359523D01*
X133186190Y-125454761D01*
X133186190Y-125835714D01*
X133281428Y-124835714D02*
X133281428Y-124073809D01*
X133662380Y-123073809D02*
X133662380Y-123645238D01*
X133662380Y-123359523D02*
X132662380Y-123359523D01*
X132805238Y-123454761D01*
X132900476Y-123550000D01*
X132948095Y-123645238D01*
X159273809Y-63622380D02*
X159273809Y-62622380D01*
X160321428Y-63622380D02*
X159988095Y-63146190D01*
X159750000Y-63622380D02*
X159750000Y-62622380D01*
X160130952Y-62622380D01*
X160226190Y-62670000D01*
X160273809Y-62717619D01*
X160321428Y-62812857D01*
X160321428Y-62955714D01*
X160273809Y-63050952D01*
X160226190Y-63098571D01*
X160130952Y-63146190D01*
X159750000Y-63146190D01*
X161273809Y-63622380D02*
X160702380Y-63622380D01*
X160988095Y-63622380D02*
X160988095Y-62622380D01*
X160892857Y-62765238D01*
X160797619Y-62860476D01*
X160702380Y-62908095D01*
X153192380Y-126845238D02*
X153192380Y-126654761D01*
X153240000Y-126559523D01*
X153335238Y-126464285D01*
X153525714Y-126416666D01*
X153859047Y-126416666D01*
X154049523Y-126464285D01*
X154144761Y-126559523D01*
X154192380Y-126654761D01*
X154192380Y-126845238D01*
X154144761Y-126940476D01*
X154049523Y-127035714D01*
X153859047Y-127083333D01*
X153525714Y-127083333D01*
X153335238Y-127035714D01*
X153240000Y-126940476D01*
X153192380Y-126845238D01*
X153192380Y-125988095D02*
X154001904Y-125988095D01*
X154097142Y-125940476D01*
X154144761Y-125892857D01*
X154192380Y-125797619D01*
X154192380Y-125607142D01*
X154144761Y-125511904D01*
X154097142Y-125464285D01*
X154001904Y-125416666D01*
X153192380Y-125416666D01*
X153192380Y-125083333D02*
X153192380Y-124511904D01*
X154192380Y-124797619D02*
X153192380Y-124797619D01*
X153811428Y-124178571D02*
X153811428Y-123416666D01*
X154192380Y-122416666D02*
X154192380Y-122988095D01*
X154192380Y-122702380D02*
X153192380Y-122702380D01*
X153335238Y-122797619D01*
X153430476Y-122892857D01*
X153478095Y-122988095D01*
X158272380Y-126845238D02*
X158272380Y-126654761D01*
X158320000Y-126559523D01*
X158415238Y-126464285D01*
X158605714Y-126416666D01*
X158939047Y-126416666D01*
X159129523Y-126464285D01*
X159224761Y-126559523D01*
X159272380Y-126654761D01*
X159272380Y-126845238D01*
X159224761Y-126940476D01*
X159129523Y-127035714D01*
X158939047Y-127083333D01*
X158605714Y-127083333D01*
X158415238Y-127035714D01*
X158320000Y-126940476D01*
X158272380Y-126845238D01*
X158272380Y-125988095D02*
X159081904Y-125988095D01*
X159177142Y-125940476D01*
X159224761Y-125892857D01*
X159272380Y-125797619D01*
X159272380Y-125607142D01*
X159224761Y-125511904D01*
X159177142Y-125464285D01*
X159081904Y-125416666D01*
X158272380Y-125416666D01*
X158272380Y-125083333D02*
X158272380Y-124511904D01*
X159272380Y-124797619D02*
X158272380Y-124797619D01*
X158891428Y-124178571D02*
X158891428Y-123416666D01*
X159272380Y-123797619D02*
X158510476Y-123797619D01*
X159272380Y-122416666D02*
X159272380Y-122988095D01*
X159272380Y-122702380D02*
X158272380Y-122702380D01*
X158415238Y-122797619D01*
X158510476Y-122892857D01*
X158558095Y-122988095D01*
M02*
