G04 #@! TF.GenerationSoftware,KiCad,Pcbnew,5.1.5+dfsg1-2build2*
G04 #@! TF.CreationDate,2021-01-30T13:40:10-06:00*
G04 #@! TF.ProjectId,speaker-switcher-remote,73706561-6b65-4722-9d73-776974636865,rev?*
G04 #@! TF.SameCoordinates,Original*
G04 #@! TF.FileFunction,Soldermask,Bot*
G04 #@! TF.FilePolarity,Negative*
%FSLAX46Y46*%
G04 Gerber Fmt 4.6, Leading zero omitted, Abs format (unit mm)*
G04 Created by KiCad (PCBNEW 5.1.5+dfsg1-2build2) date 2021-01-30 13:40:10*
%MOMM*%
%LPD*%
G04 APERTURE LIST*
%ADD10C,0.100000*%
G04 APERTURE END LIST*
D10*
G36*
X149347022Y-126400590D02*
G01*
X149447681Y-126431125D01*
X149498012Y-126446392D01*
X149637164Y-126520771D01*
X149759133Y-126620867D01*
X149793391Y-126662611D01*
X149859229Y-126742835D01*
X149933608Y-126881987D01*
X149948875Y-126932318D01*
X149979410Y-127032977D01*
X149991000Y-127150655D01*
X149991000Y-128229345D01*
X149979410Y-128347023D01*
X149948875Y-128447682D01*
X149933608Y-128498013D01*
X149859229Y-128637165D01*
X149759133Y-128759133D01*
X149637165Y-128859229D01*
X149498013Y-128933608D01*
X149447682Y-128948875D01*
X149347023Y-128979410D01*
X149190000Y-128994875D01*
X149032978Y-128979410D01*
X148932319Y-128948875D01*
X148881988Y-128933608D01*
X148742836Y-128859229D01*
X148620868Y-128759133D01*
X148520772Y-128637165D01*
X148446393Y-128498013D01*
X148431126Y-128447682D01*
X148400591Y-128347023D01*
X148389001Y-128229345D01*
X148389000Y-127150656D01*
X148400590Y-127032978D01*
X148446392Y-126881989D01*
X148446392Y-126881988D01*
X148520771Y-126742836D01*
X148520772Y-126742835D01*
X148620867Y-126620867D01*
X148742835Y-126520771D01*
X148881987Y-126446392D01*
X148932318Y-126431125D01*
X149032977Y-126400590D01*
X149190000Y-126385125D01*
X149347022Y-126400590D01*
G37*
G36*
X155697022Y-126400590D02*
G01*
X155797681Y-126431125D01*
X155848012Y-126446392D01*
X155987164Y-126520771D01*
X156109133Y-126620867D01*
X156143391Y-126662611D01*
X156209229Y-126742835D01*
X156283608Y-126881987D01*
X156298875Y-126932318D01*
X156329410Y-127032977D01*
X156341000Y-127150655D01*
X156341000Y-128229345D01*
X156329410Y-128347023D01*
X156298875Y-128447682D01*
X156283608Y-128498013D01*
X156209229Y-128637165D01*
X156109133Y-128759133D01*
X155987165Y-128859229D01*
X155848013Y-128933608D01*
X155797682Y-128948875D01*
X155697023Y-128979410D01*
X155540000Y-128994875D01*
X155382978Y-128979410D01*
X155282319Y-128948875D01*
X155231988Y-128933608D01*
X155092836Y-128859229D01*
X154970868Y-128759133D01*
X154870772Y-128637165D01*
X154796393Y-128498013D01*
X154781126Y-128447682D01*
X154750591Y-128347023D01*
X154739001Y-128229345D01*
X154739000Y-127150656D01*
X154750590Y-127032978D01*
X154796392Y-126881989D01*
X154796392Y-126881988D01*
X154870771Y-126742836D01*
X154870772Y-126742835D01*
X154970867Y-126620867D01*
X155092835Y-126520771D01*
X155231987Y-126446392D01*
X155282318Y-126431125D01*
X155382977Y-126400590D01*
X155540000Y-126385125D01*
X155697022Y-126400590D01*
G37*
G36*
X160777022Y-126400590D02*
G01*
X160877681Y-126431125D01*
X160928012Y-126446392D01*
X161067164Y-126520771D01*
X161189133Y-126620867D01*
X161223391Y-126662611D01*
X161289229Y-126742835D01*
X161363608Y-126881987D01*
X161378875Y-126932318D01*
X161409410Y-127032977D01*
X161421000Y-127150655D01*
X161421000Y-128229345D01*
X161409410Y-128347023D01*
X161378875Y-128447682D01*
X161363608Y-128498013D01*
X161289229Y-128637165D01*
X161189133Y-128759133D01*
X161067165Y-128859229D01*
X160928013Y-128933608D01*
X160877682Y-128948875D01*
X160777023Y-128979410D01*
X160620000Y-128994875D01*
X160462978Y-128979410D01*
X160362319Y-128948875D01*
X160311988Y-128933608D01*
X160172836Y-128859229D01*
X160050868Y-128759133D01*
X159950772Y-128637165D01*
X159876393Y-128498013D01*
X159861126Y-128447682D01*
X159830591Y-128347023D01*
X159819001Y-128229345D01*
X159819000Y-127150656D01*
X159830590Y-127032978D01*
X159876392Y-126881989D01*
X159876392Y-126881988D01*
X159950771Y-126742836D01*
X159950772Y-126742835D01*
X160050867Y-126620867D01*
X160172835Y-126520771D01*
X160311987Y-126446392D01*
X160362318Y-126431125D01*
X160462977Y-126400590D01*
X160620000Y-126385125D01*
X160777022Y-126400590D01*
G37*
G36*
X131567023Y-126400590D02*
G01*
X131667682Y-126431125D01*
X131718013Y-126446392D01*
X131857165Y-126520771D01*
X131979133Y-126620867D01*
X132079229Y-126742835D01*
X132153608Y-126881987D01*
X132168875Y-126932318D01*
X132199410Y-127032977D01*
X132211000Y-127150655D01*
X132211000Y-128229345D01*
X132199410Y-128347023D01*
X132168875Y-128447682D01*
X132153608Y-128498013D01*
X132079230Y-128637164D01*
X132079229Y-128637165D01*
X131979133Y-128759133D01*
X131857164Y-128859229D01*
X131718012Y-128933608D01*
X131667681Y-128948875D01*
X131567022Y-128979410D01*
X131410000Y-128994875D01*
X131252977Y-128979410D01*
X131152318Y-128948875D01*
X131101987Y-128933608D01*
X130962835Y-128859229D01*
X130840867Y-128759133D01*
X130740771Y-128637164D01*
X130666393Y-128498013D01*
X130666392Y-128498012D01*
X130651125Y-128447681D01*
X130620590Y-128347022D01*
X130609000Y-128229344D01*
X130609001Y-127150655D01*
X130620591Y-127032977D01*
X130651126Y-126932318D01*
X130666393Y-126881987D01*
X130740772Y-126742835D01*
X130840868Y-126620867D01*
X130962836Y-126520771D01*
X131101988Y-126446392D01*
X131152319Y-126431125D01*
X131252978Y-126400590D01*
X131410000Y-126385125D01*
X131567023Y-126400590D01*
G37*
G36*
X144267022Y-126400590D02*
G01*
X144367681Y-126431125D01*
X144418012Y-126446392D01*
X144557164Y-126520771D01*
X144679133Y-126620867D01*
X144713391Y-126662611D01*
X144779229Y-126742835D01*
X144853608Y-126881987D01*
X144868875Y-126932318D01*
X144899410Y-127032977D01*
X144911000Y-127150655D01*
X144911000Y-128229345D01*
X144899410Y-128347023D01*
X144868875Y-128447682D01*
X144853608Y-128498013D01*
X144779229Y-128637165D01*
X144679133Y-128759133D01*
X144557165Y-128859229D01*
X144418013Y-128933608D01*
X144367682Y-128948875D01*
X144267023Y-128979410D01*
X144110000Y-128994875D01*
X143952978Y-128979410D01*
X143852319Y-128948875D01*
X143801988Y-128933608D01*
X143662836Y-128859229D01*
X143540868Y-128759133D01*
X143440772Y-128637165D01*
X143366393Y-128498013D01*
X143351126Y-128447682D01*
X143320591Y-128347023D01*
X143309001Y-128229345D01*
X143309000Y-127150656D01*
X143320590Y-127032978D01*
X143366392Y-126881989D01*
X143366392Y-126881988D01*
X143440771Y-126742836D01*
X143440772Y-126742835D01*
X143540867Y-126620867D01*
X143662835Y-126520771D01*
X143801987Y-126446392D01*
X143852318Y-126431125D01*
X143952977Y-126400590D01*
X144110000Y-126385125D01*
X144267022Y-126400590D01*
G37*
G36*
X136647022Y-126400590D02*
G01*
X136747681Y-126431125D01*
X136798012Y-126446392D01*
X136937164Y-126520771D01*
X137059133Y-126620867D01*
X137093391Y-126662611D01*
X137159229Y-126742835D01*
X137233608Y-126881987D01*
X137248875Y-126932318D01*
X137279410Y-127032977D01*
X137291000Y-127150655D01*
X137291000Y-128229345D01*
X137279410Y-128347023D01*
X137248875Y-128447682D01*
X137233608Y-128498013D01*
X137159229Y-128637165D01*
X137059133Y-128759133D01*
X136937165Y-128859229D01*
X136798013Y-128933608D01*
X136747682Y-128948875D01*
X136647023Y-128979410D01*
X136490000Y-128994875D01*
X136332978Y-128979410D01*
X136232319Y-128948875D01*
X136181988Y-128933608D01*
X136042836Y-128859229D01*
X135920868Y-128759133D01*
X135820772Y-128637165D01*
X135746393Y-128498013D01*
X135731126Y-128447682D01*
X135700591Y-128347023D01*
X135689001Y-128229345D01*
X135689000Y-127150656D01*
X135700590Y-127032978D01*
X135746392Y-126881989D01*
X135746392Y-126881988D01*
X135820771Y-126742836D01*
X135820772Y-126742835D01*
X135920867Y-126620867D01*
X136042835Y-126520771D01*
X136181987Y-126446392D01*
X136232318Y-126431125D01*
X136332977Y-126400590D01*
X136490000Y-126385125D01*
X136647022Y-126400590D01*
G37*
G36*
X166625256Y-124891298D02*
G01*
X166731579Y-124912447D01*
X167032042Y-125036903D01*
X167302451Y-125217585D01*
X167532415Y-125447549D01*
X167713097Y-125717958D01*
X167837553Y-126018421D01*
X167901000Y-126337391D01*
X167901000Y-126662609D01*
X167837553Y-126981579D01*
X167713097Y-127282042D01*
X167532415Y-127552451D01*
X167302451Y-127782415D01*
X167032042Y-127963097D01*
X166731579Y-128087553D01*
X166625256Y-128108702D01*
X166412611Y-128151000D01*
X166087389Y-128151000D01*
X165874744Y-128108702D01*
X165768421Y-128087553D01*
X165467958Y-127963097D01*
X165197549Y-127782415D01*
X164967585Y-127552451D01*
X164786903Y-127282042D01*
X164662447Y-126981579D01*
X164599000Y-126662609D01*
X164599000Y-126337391D01*
X164662447Y-126018421D01*
X164786903Y-125717958D01*
X164967585Y-125447549D01*
X165197549Y-125217585D01*
X165467958Y-125036903D01*
X165768421Y-124912447D01*
X165874744Y-124891298D01*
X166087389Y-124849000D01*
X166412611Y-124849000D01*
X166625256Y-124891298D01*
G37*
G36*
X126625256Y-124891298D02*
G01*
X126731579Y-124912447D01*
X127032042Y-125036903D01*
X127302451Y-125217585D01*
X127532415Y-125447549D01*
X127713097Y-125717958D01*
X127837553Y-126018421D01*
X127901000Y-126337391D01*
X127901000Y-126662609D01*
X127837553Y-126981579D01*
X127713097Y-127282042D01*
X127532415Y-127552451D01*
X127302451Y-127782415D01*
X127032042Y-127963097D01*
X126731579Y-128087553D01*
X126625256Y-128108702D01*
X126412611Y-128151000D01*
X126087389Y-128151000D01*
X125874744Y-128108702D01*
X125768421Y-128087553D01*
X125467958Y-127963097D01*
X125197549Y-127782415D01*
X124967585Y-127552451D01*
X124786903Y-127282042D01*
X124662447Y-126981579D01*
X124599000Y-126662609D01*
X124599000Y-126337391D01*
X124662447Y-126018421D01*
X124786903Y-125717958D01*
X124967585Y-125447549D01*
X125197549Y-125217585D01*
X125467958Y-125036903D01*
X125768421Y-124912447D01*
X125874744Y-124891298D01*
X126087389Y-124849000D01*
X126412611Y-124849000D01*
X126625256Y-124891298D01*
G37*
G36*
X155697022Y-121320590D02*
G01*
X155797681Y-121351125D01*
X155848012Y-121366392D01*
X155987164Y-121440771D01*
X156109133Y-121540867D01*
X156209229Y-121662835D01*
X156283608Y-121801987D01*
X156298875Y-121852318D01*
X156329410Y-121952977D01*
X156341000Y-122070655D01*
X156341000Y-123149345D01*
X156329410Y-123267023D01*
X156298875Y-123367682D01*
X156283608Y-123418013D01*
X156209229Y-123557165D01*
X156109133Y-123679133D01*
X155987165Y-123779229D01*
X155848013Y-123853608D01*
X155797682Y-123868875D01*
X155697023Y-123899410D01*
X155540000Y-123914875D01*
X155382978Y-123899410D01*
X155282319Y-123868875D01*
X155231988Y-123853608D01*
X155092836Y-123779229D01*
X154970868Y-123679133D01*
X154870772Y-123557165D01*
X154796393Y-123418013D01*
X154781126Y-123367682D01*
X154750591Y-123267023D01*
X154739001Y-123149345D01*
X154739000Y-122070656D01*
X154750590Y-121952978D01*
X154796392Y-121801989D01*
X154796392Y-121801988D01*
X154870771Y-121662836D01*
X154870772Y-121662835D01*
X154970867Y-121540867D01*
X155092835Y-121440771D01*
X155231987Y-121366392D01*
X155282318Y-121351125D01*
X155382977Y-121320590D01*
X155540000Y-121305125D01*
X155697022Y-121320590D01*
G37*
G36*
X160777022Y-121320590D02*
G01*
X160877681Y-121351125D01*
X160928012Y-121366392D01*
X161067164Y-121440771D01*
X161189133Y-121540867D01*
X161289229Y-121662835D01*
X161363608Y-121801987D01*
X161378875Y-121852318D01*
X161409410Y-121952977D01*
X161421000Y-122070655D01*
X161421000Y-123149345D01*
X161409410Y-123267023D01*
X161378875Y-123367682D01*
X161363608Y-123418013D01*
X161289229Y-123557165D01*
X161189133Y-123679133D01*
X161067165Y-123779229D01*
X160928013Y-123853608D01*
X160877682Y-123868875D01*
X160777023Y-123899410D01*
X160620000Y-123914875D01*
X160462978Y-123899410D01*
X160362319Y-123868875D01*
X160311988Y-123853608D01*
X160172836Y-123779229D01*
X160050868Y-123679133D01*
X159950772Y-123557165D01*
X159876393Y-123418013D01*
X159861126Y-123367682D01*
X159830591Y-123267023D01*
X159819001Y-123149345D01*
X159819000Y-122070656D01*
X159830590Y-121952978D01*
X159876392Y-121801989D01*
X159876392Y-121801988D01*
X159950771Y-121662836D01*
X159950772Y-121662835D01*
X160050867Y-121540867D01*
X160172835Y-121440771D01*
X160311987Y-121366392D01*
X160362318Y-121351125D01*
X160462977Y-121320590D01*
X160620000Y-121305125D01*
X160777022Y-121320590D01*
G37*
G36*
X131567023Y-121320590D02*
G01*
X131667682Y-121351125D01*
X131718013Y-121366392D01*
X131857165Y-121440771D01*
X131979133Y-121540867D01*
X132079229Y-121662835D01*
X132153608Y-121801987D01*
X132168875Y-121852318D01*
X132199410Y-121952977D01*
X132211000Y-122070655D01*
X132211000Y-123149345D01*
X132199410Y-123267023D01*
X132168875Y-123367682D01*
X132153608Y-123418013D01*
X132079230Y-123557164D01*
X132079229Y-123557165D01*
X131979133Y-123679133D01*
X131857164Y-123779229D01*
X131718012Y-123853608D01*
X131667681Y-123868875D01*
X131567022Y-123899410D01*
X131410000Y-123914875D01*
X131252977Y-123899410D01*
X131152318Y-123868875D01*
X131101987Y-123853608D01*
X130962835Y-123779229D01*
X130840867Y-123679133D01*
X130740771Y-123557164D01*
X130666393Y-123418013D01*
X130666392Y-123418012D01*
X130651125Y-123367681D01*
X130620590Y-123267022D01*
X130609000Y-123149344D01*
X130609001Y-122070655D01*
X130620591Y-121952977D01*
X130651126Y-121852318D01*
X130666393Y-121801987D01*
X130740772Y-121662835D01*
X130840868Y-121540867D01*
X130962836Y-121440771D01*
X131101988Y-121366392D01*
X131152319Y-121351125D01*
X131252978Y-121320590D01*
X131410000Y-121305125D01*
X131567023Y-121320590D01*
G37*
G36*
X136647022Y-121320590D02*
G01*
X136747681Y-121351125D01*
X136798012Y-121366392D01*
X136937164Y-121440771D01*
X137059133Y-121540867D01*
X137159229Y-121662835D01*
X137233608Y-121801987D01*
X137248875Y-121852318D01*
X137279410Y-121952977D01*
X137291000Y-122070655D01*
X137291000Y-123149345D01*
X137279410Y-123267023D01*
X137248875Y-123367682D01*
X137233608Y-123418013D01*
X137159229Y-123557165D01*
X137059133Y-123679133D01*
X136937165Y-123779229D01*
X136798013Y-123853608D01*
X136747682Y-123868875D01*
X136647023Y-123899410D01*
X136490000Y-123914875D01*
X136332978Y-123899410D01*
X136232319Y-123868875D01*
X136181988Y-123853608D01*
X136042836Y-123779229D01*
X135920868Y-123679133D01*
X135820772Y-123557165D01*
X135746393Y-123418013D01*
X135731126Y-123367682D01*
X135700591Y-123267023D01*
X135689001Y-123149345D01*
X135689000Y-122070656D01*
X135700590Y-121952978D01*
X135746392Y-121801989D01*
X135746392Y-121801988D01*
X135820771Y-121662836D01*
X135820772Y-121662835D01*
X135920867Y-121540867D01*
X136042835Y-121440771D01*
X136181987Y-121366392D01*
X136232318Y-121351125D01*
X136332977Y-121320590D01*
X136490000Y-121305125D01*
X136647022Y-121320590D01*
G37*
G36*
X144267022Y-121320590D02*
G01*
X144367681Y-121351125D01*
X144418012Y-121366392D01*
X144557164Y-121440771D01*
X144679133Y-121540867D01*
X144779229Y-121662835D01*
X144853608Y-121801987D01*
X144868875Y-121852318D01*
X144899410Y-121952977D01*
X144911000Y-122070655D01*
X144911000Y-123149345D01*
X144899410Y-123267023D01*
X144868875Y-123367682D01*
X144853608Y-123418013D01*
X144779229Y-123557165D01*
X144679133Y-123679133D01*
X144557165Y-123779229D01*
X144418013Y-123853608D01*
X144367682Y-123868875D01*
X144267023Y-123899410D01*
X144110000Y-123914875D01*
X143952978Y-123899410D01*
X143852319Y-123868875D01*
X143801988Y-123853608D01*
X143662836Y-123779229D01*
X143540868Y-123679133D01*
X143440772Y-123557165D01*
X143366393Y-123418013D01*
X143351126Y-123367682D01*
X143320591Y-123267023D01*
X143309001Y-123149345D01*
X143309000Y-122070656D01*
X143320590Y-121952978D01*
X143366392Y-121801989D01*
X143366392Y-121801988D01*
X143440771Y-121662836D01*
X143440772Y-121662835D01*
X143540867Y-121540867D01*
X143662835Y-121440771D01*
X143801987Y-121366392D01*
X143852318Y-121351125D01*
X143952977Y-121320590D01*
X144110000Y-121305125D01*
X144267022Y-121320590D01*
G37*
G36*
X149347022Y-121320590D02*
G01*
X149447681Y-121351125D01*
X149498012Y-121366392D01*
X149637164Y-121440771D01*
X149759133Y-121540867D01*
X149859229Y-121662835D01*
X149933608Y-121801987D01*
X149948875Y-121852318D01*
X149979410Y-121952977D01*
X149991000Y-122070655D01*
X149991000Y-123149345D01*
X149979410Y-123267023D01*
X149948875Y-123367682D01*
X149933608Y-123418013D01*
X149859229Y-123557165D01*
X149759133Y-123679133D01*
X149637165Y-123779229D01*
X149498013Y-123853608D01*
X149447682Y-123868875D01*
X149347023Y-123899410D01*
X149190000Y-123914875D01*
X149032978Y-123899410D01*
X148932319Y-123868875D01*
X148881988Y-123853608D01*
X148742836Y-123779229D01*
X148620868Y-123679133D01*
X148520772Y-123557165D01*
X148446393Y-123418013D01*
X148431126Y-123367682D01*
X148400591Y-123267023D01*
X148389001Y-123149345D01*
X148389000Y-122070656D01*
X148400590Y-121952978D01*
X148446392Y-121801989D01*
X148446392Y-121801988D01*
X148520771Y-121662836D01*
X148520772Y-121662835D01*
X148620867Y-121540867D01*
X148742835Y-121440771D01*
X148881987Y-121366392D01*
X148932318Y-121351125D01*
X149032977Y-121320590D01*
X149190000Y-121305125D01*
X149347022Y-121320590D01*
G37*
G36*
X167401000Y-118651000D02*
G01*
X165099000Y-118651000D01*
X165099000Y-116349000D01*
X167401000Y-116349000D01*
X167401000Y-118651000D01*
G37*
G36*
X162633314Y-116364903D02*
G01*
X162775734Y-116393232D01*
X162985203Y-116479997D01*
X163173720Y-116605960D01*
X163334040Y-116766280D01*
X163460003Y-116954797D01*
X163546768Y-117164266D01*
X163591000Y-117386636D01*
X163591000Y-117613364D01*
X163546768Y-117835734D01*
X163460003Y-118045203D01*
X163334040Y-118233720D01*
X163173720Y-118394040D01*
X162985203Y-118520003D01*
X162775734Y-118606768D01*
X162664549Y-118628884D01*
X162553365Y-118651000D01*
X162326635Y-118651000D01*
X162215451Y-118628884D01*
X162104266Y-118606768D01*
X161894797Y-118520003D01*
X161706280Y-118394040D01*
X161545960Y-118233720D01*
X161419997Y-118045203D01*
X161333232Y-117835734D01*
X161289000Y-117613364D01*
X161289000Y-117386636D01*
X161333232Y-117164266D01*
X161419997Y-116954797D01*
X161545960Y-116766280D01*
X161706280Y-116605960D01*
X161894797Y-116479997D01*
X162104266Y-116393232D01*
X162246686Y-116364903D01*
X162326635Y-116349000D01*
X162553365Y-116349000D01*
X162633314Y-116364903D01*
G37*
G36*
X137294903Y-114797075D02*
G01*
X137522571Y-114891378D01*
X137727466Y-115028285D01*
X137901715Y-115202534D01*
X138038622Y-115407429D01*
X138132925Y-115635097D01*
X138181000Y-115876787D01*
X138181000Y-116123213D01*
X138132925Y-116364903D01*
X138038622Y-116592571D01*
X137901715Y-116797466D01*
X137727466Y-116971715D01*
X137522571Y-117108622D01*
X137522570Y-117108623D01*
X137522569Y-117108623D01*
X137294903Y-117202925D01*
X137053214Y-117251000D01*
X136806786Y-117251000D01*
X136565097Y-117202925D01*
X136337431Y-117108623D01*
X136337430Y-117108623D01*
X136337429Y-117108622D01*
X136132534Y-116971715D01*
X135958285Y-116797466D01*
X135821378Y-116592571D01*
X135727075Y-116364903D01*
X135679000Y-116123213D01*
X135679000Y-115876787D01*
X135727075Y-115635097D01*
X135821378Y-115407429D01*
X135958285Y-115202534D01*
X136132534Y-115028285D01*
X136337429Y-114891378D01*
X136565097Y-114797075D01*
X136806786Y-114749000D01*
X137053214Y-114749000D01*
X137294903Y-114797075D01*
G37*
G36*
X157614903Y-114797075D02*
G01*
X157842571Y-114891378D01*
X158047466Y-115028285D01*
X158221715Y-115202534D01*
X158358622Y-115407429D01*
X158452925Y-115635097D01*
X158501000Y-115876787D01*
X158501000Y-116123213D01*
X158452925Y-116364903D01*
X158358622Y-116592571D01*
X158221715Y-116797466D01*
X158047466Y-116971715D01*
X157842571Y-117108622D01*
X157842570Y-117108623D01*
X157842569Y-117108623D01*
X157614903Y-117202925D01*
X157373214Y-117251000D01*
X157126786Y-117251000D01*
X156885097Y-117202925D01*
X156657431Y-117108623D01*
X156657430Y-117108623D01*
X156657429Y-117108622D01*
X156452534Y-116971715D01*
X156278285Y-116797466D01*
X156141378Y-116592571D01*
X156047075Y-116364903D01*
X155999000Y-116123213D01*
X155999000Y-115876787D01*
X156047075Y-115635097D01*
X156141378Y-115407429D01*
X156278285Y-115202534D01*
X156452534Y-115028285D01*
X156657429Y-114891378D01*
X156885097Y-114797075D01*
X157126786Y-114749000D01*
X157373214Y-114749000D01*
X157614903Y-114797075D01*
G37*
G36*
X129851000Y-113851000D02*
G01*
X128149000Y-113851000D01*
X128149000Y-112149000D01*
X129851000Y-112149000D01*
X129851000Y-113851000D01*
G37*
G36*
X131748228Y-112181703D02*
G01*
X131903100Y-112245853D01*
X132042481Y-112338985D01*
X132161015Y-112457519D01*
X132254147Y-112596900D01*
X132318297Y-112751772D01*
X132351000Y-112916184D01*
X132351000Y-113083816D01*
X132318297Y-113248228D01*
X132254147Y-113403100D01*
X132161015Y-113542481D01*
X132042481Y-113661015D01*
X131903100Y-113754147D01*
X131748228Y-113818297D01*
X131583816Y-113851000D01*
X131416184Y-113851000D01*
X131251772Y-113818297D01*
X131096900Y-113754147D01*
X130957519Y-113661015D01*
X130838985Y-113542481D01*
X130745853Y-113403100D01*
X130681703Y-113248228D01*
X130649000Y-113083816D01*
X130649000Y-112916184D01*
X130681703Y-112751772D01*
X130745853Y-112596900D01*
X130838985Y-112457519D01*
X130957519Y-112338985D01*
X131096900Y-112245853D01*
X131251772Y-112181703D01*
X131416184Y-112149000D01*
X131583816Y-112149000D01*
X131748228Y-112181703D01*
G37*
G36*
X162721720Y-107603520D02*
G01*
X162910881Y-107660901D01*
X163085212Y-107754083D01*
X163238015Y-107879485D01*
X163363417Y-108032288D01*
X163407182Y-108114167D01*
X163456598Y-108206617D01*
X163456599Y-108206620D01*
X163513980Y-108395781D01*
X163528500Y-108543207D01*
X163528500Y-108736794D01*
X163513980Y-108884220D01*
X163456599Y-109073381D01*
X163363417Y-109247712D01*
X163238015Y-109400515D01*
X163085212Y-109525917D01*
X163003333Y-109569682D01*
X162910883Y-109619098D01*
X162910880Y-109619099D01*
X162721719Y-109676480D01*
X162525000Y-109695855D01*
X162328280Y-109676480D01*
X162139119Y-109619099D01*
X161964788Y-109525917D01*
X161811985Y-109400515D01*
X161686583Y-109247712D01*
X161642818Y-109165833D01*
X161593402Y-109073383D01*
X161593401Y-109073380D01*
X161536020Y-108884219D01*
X161521500Y-108736793D01*
X161521500Y-108543206D01*
X161536020Y-108395780D01*
X161593401Y-108206619D01*
X161686583Y-108032288D01*
X161811985Y-107879485D01*
X161964788Y-107754083D01*
X162139120Y-107660901D01*
X162328281Y-107603520D01*
X162525000Y-107584145D01*
X162721720Y-107603520D01*
G37*
G36*
X160181720Y-107603520D02*
G01*
X160370881Y-107660901D01*
X160545212Y-107754083D01*
X160698015Y-107879485D01*
X160823417Y-108032288D01*
X160867182Y-108114167D01*
X160916598Y-108206617D01*
X160916599Y-108206620D01*
X160973980Y-108395781D01*
X160988500Y-108543207D01*
X160988500Y-108736794D01*
X160973980Y-108884220D01*
X160916599Y-109073381D01*
X160823417Y-109247712D01*
X160698015Y-109400515D01*
X160545212Y-109525917D01*
X160463333Y-109569682D01*
X160370883Y-109619098D01*
X160370880Y-109619099D01*
X160181719Y-109676480D01*
X159985000Y-109695855D01*
X159788280Y-109676480D01*
X159599119Y-109619099D01*
X159424788Y-109525917D01*
X159271985Y-109400515D01*
X159146583Y-109247712D01*
X159102818Y-109165833D01*
X159053402Y-109073383D01*
X159053401Y-109073380D01*
X158996020Y-108884219D01*
X158981500Y-108736793D01*
X158981500Y-108543206D01*
X158996020Y-108395780D01*
X159053401Y-108206619D01*
X159146583Y-108032288D01*
X159271985Y-107879485D01*
X159424788Y-107754083D01*
X159599120Y-107660901D01*
X159788281Y-107603520D01*
X159985000Y-107584145D01*
X160181720Y-107603520D01*
G37*
G36*
X166068500Y-109691000D02*
G01*
X164061500Y-109691000D01*
X164061500Y-107589000D01*
X166068500Y-107589000D01*
X166068500Y-109691000D01*
G37*
G36*
X153607142Y-104998242D02*
G01*
X153755101Y-105059529D01*
X153888255Y-105148499D01*
X154001501Y-105261745D01*
X154090471Y-105394899D01*
X154151758Y-105542858D01*
X154183000Y-105699925D01*
X154183000Y-105860075D01*
X154151758Y-106017142D01*
X154090471Y-106165101D01*
X154001501Y-106298255D01*
X153888255Y-106411501D01*
X153755101Y-106500471D01*
X153607142Y-106561758D01*
X153450075Y-106593000D01*
X153289925Y-106593000D01*
X153132858Y-106561758D01*
X152984899Y-106500471D01*
X152851745Y-106411501D01*
X152738499Y-106298255D01*
X152649529Y-106165101D01*
X152588242Y-106017142D01*
X152557000Y-105860075D01*
X152557000Y-105699925D01*
X152588242Y-105542858D01*
X152649529Y-105394899D01*
X152738499Y-105261745D01*
X152851745Y-105148499D01*
X152984899Y-105059529D01*
X153132858Y-104998242D01*
X153289925Y-104967000D01*
X153450075Y-104967000D01*
X153607142Y-104998242D01*
G37*
G36*
X138367142Y-104998242D02*
G01*
X138515101Y-105059529D01*
X138648255Y-105148499D01*
X138761501Y-105261745D01*
X138850471Y-105394899D01*
X138911758Y-105542858D01*
X138943000Y-105699925D01*
X138943000Y-105860075D01*
X138911758Y-106017142D01*
X138850471Y-106165101D01*
X138761501Y-106298255D01*
X138648255Y-106411501D01*
X138515101Y-106500471D01*
X138367142Y-106561758D01*
X138210075Y-106593000D01*
X138049925Y-106593000D01*
X137892858Y-106561758D01*
X137744899Y-106500471D01*
X137611745Y-106411501D01*
X137498499Y-106298255D01*
X137409529Y-106165101D01*
X137348242Y-106017142D01*
X137317000Y-105860075D01*
X137317000Y-105699925D01*
X137348242Y-105542858D01*
X137409529Y-105394899D01*
X137498499Y-105261745D01*
X137611745Y-105148499D01*
X137744899Y-105059529D01*
X137892858Y-104998242D01*
X138049925Y-104967000D01*
X138210075Y-104967000D01*
X138367142Y-104998242D01*
G37*
G36*
X164424228Y-102995703D02*
G01*
X164579100Y-103059853D01*
X164718481Y-103152985D01*
X164837015Y-103271519D01*
X164930147Y-103410900D01*
X164994297Y-103565772D01*
X165027000Y-103730184D01*
X165027000Y-103897816D01*
X164994297Y-104062228D01*
X164930147Y-104217100D01*
X164837015Y-104356481D01*
X164718481Y-104475015D01*
X164579100Y-104568147D01*
X164424228Y-104632297D01*
X164259816Y-104665000D01*
X164092184Y-104665000D01*
X163927772Y-104632297D01*
X163772900Y-104568147D01*
X163633519Y-104475015D01*
X163514985Y-104356481D01*
X163421853Y-104217100D01*
X163357703Y-104062228D01*
X163325000Y-103897816D01*
X163325000Y-103730184D01*
X163357703Y-103565772D01*
X163421853Y-103410900D01*
X163514985Y-103271519D01*
X163633519Y-103152985D01*
X163772900Y-103059853D01*
X163927772Y-102995703D01*
X164092184Y-102963000D01*
X164259816Y-102963000D01*
X164424228Y-102995703D01*
G37*
G36*
X153607142Y-102458242D02*
G01*
X153755101Y-102519529D01*
X153888255Y-102608499D01*
X154001501Y-102721745D01*
X154090471Y-102854899D01*
X154151758Y-103002858D01*
X154183000Y-103159925D01*
X154183000Y-103320075D01*
X154151758Y-103477142D01*
X154090471Y-103625101D01*
X154001501Y-103758255D01*
X153888255Y-103871501D01*
X153755101Y-103960471D01*
X153607142Y-104021758D01*
X153450075Y-104053000D01*
X153289925Y-104053000D01*
X153132858Y-104021758D01*
X152984899Y-103960471D01*
X152851745Y-103871501D01*
X152738499Y-103758255D01*
X152649529Y-103625101D01*
X152588242Y-103477142D01*
X152557000Y-103320075D01*
X152557000Y-103159925D01*
X152588242Y-103002858D01*
X152649529Y-102854899D01*
X152738499Y-102721745D01*
X152851745Y-102608499D01*
X152984899Y-102519529D01*
X153132858Y-102458242D01*
X153289925Y-102427000D01*
X153450075Y-102427000D01*
X153607142Y-102458242D01*
G37*
G36*
X138367142Y-102458242D02*
G01*
X138515101Y-102519529D01*
X138648255Y-102608499D01*
X138761501Y-102721745D01*
X138850471Y-102854899D01*
X138911758Y-103002858D01*
X138943000Y-103159925D01*
X138943000Y-103320075D01*
X138911758Y-103477142D01*
X138850471Y-103625101D01*
X138761501Y-103758255D01*
X138648255Y-103871501D01*
X138515101Y-103960471D01*
X138367142Y-104021758D01*
X138210075Y-104053000D01*
X138049925Y-104053000D01*
X137892858Y-104021758D01*
X137744899Y-103960471D01*
X137611745Y-103871501D01*
X137498499Y-103758255D01*
X137409529Y-103625101D01*
X137348242Y-103477142D01*
X137317000Y-103320075D01*
X137317000Y-103159925D01*
X137348242Y-103002858D01*
X137409529Y-102854899D01*
X137498499Y-102721745D01*
X137611745Y-102608499D01*
X137744899Y-102519529D01*
X137892858Y-102458242D01*
X138049925Y-102427000D01*
X138210075Y-102427000D01*
X138367142Y-102458242D01*
G37*
G36*
X164424228Y-100455703D02*
G01*
X164579100Y-100519853D01*
X164718481Y-100612985D01*
X164837015Y-100731519D01*
X164930147Y-100870900D01*
X164994297Y-101025772D01*
X165027000Y-101190184D01*
X165027000Y-101357816D01*
X164994297Y-101522228D01*
X164930147Y-101677100D01*
X164837015Y-101816481D01*
X164718481Y-101935015D01*
X164579100Y-102028147D01*
X164424228Y-102092297D01*
X164259816Y-102125000D01*
X164092184Y-102125000D01*
X163927772Y-102092297D01*
X163772900Y-102028147D01*
X163633519Y-101935015D01*
X163514985Y-101816481D01*
X163421853Y-101677100D01*
X163357703Y-101522228D01*
X163325000Y-101357816D01*
X163325000Y-101190184D01*
X163357703Y-101025772D01*
X163421853Y-100870900D01*
X163514985Y-100731519D01*
X163633519Y-100612985D01*
X163772900Y-100519853D01*
X163927772Y-100455703D01*
X164092184Y-100423000D01*
X164259816Y-100423000D01*
X164424228Y-100455703D01*
G37*
G36*
X153607142Y-99918242D02*
G01*
X153755101Y-99979529D01*
X153888255Y-100068499D01*
X154001501Y-100181745D01*
X154090471Y-100314899D01*
X154151758Y-100462858D01*
X154183000Y-100619925D01*
X154183000Y-100780075D01*
X154151758Y-100937142D01*
X154090471Y-101085101D01*
X154001501Y-101218255D01*
X153888255Y-101331501D01*
X153755101Y-101420471D01*
X153607142Y-101481758D01*
X153450075Y-101513000D01*
X153289925Y-101513000D01*
X153132858Y-101481758D01*
X152984899Y-101420471D01*
X152851745Y-101331501D01*
X152738499Y-101218255D01*
X152649529Y-101085101D01*
X152588242Y-100937142D01*
X152557000Y-100780075D01*
X152557000Y-100619925D01*
X152588242Y-100462858D01*
X152649529Y-100314899D01*
X152738499Y-100181745D01*
X152851745Y-100068499D01*
X152984899Y-99979529D01*
X153132858Y-99918242D01*
X153289925Y-99887000D01*
X153450075Y-99887000D01*
X153607142Y-99918242D01*
G37*
G36*
X138367142Y-99918242D02*
G01*
X138515101Y-99979529D01*
X138648255Y-100068499D01*
X138761501Y-100181745D01*
X138850471Y-100314899D01*
X138911758Y-100462858D01*
X138943000Y-100619925D01*
X138943000Y-100780075D01*
X138911758Y-100937142D01*
X138850471Y-101085101D01*
X138761501Y-101218255D01*
X138648255Y-101331501D01*
X138515101Y-101420471D01*
X138367142Y-101481758D01*
X138210075Y-101513000D01*
X138049925Y-101513000D01*
X137892858Y-101481758D01*
X137744899Y-101420471D01*
X137611745Y-101331501D01*
X137498499Y-101218255D01*
X137409529Y-101085101D01*
X137348242Y-100937142D01*
X137317000Y-100780075D01*
X137317000Y-100619925D01*
X137348242Y-100462858D01*
X137409529Y-100314899D01*
X137498499Y-100181745D01*
X137611745Y-100068499D01*
X137744899Y-99979529D01*
X137892858Y-99918242D01*
X138049925Y-99887000D01*
X138210075Y-99887000D01*
X138367142Y-99918242D01*
G37*
G36*
X160233228Y-99566703D02*
G01*
X160388100Y-99630853D01*
X160527481Y-99723985D01*
X160646015Y-99842519D01*
X160739147Y-99981900D01*
X160803297Y-100136772D01*
X160836000Y-100301184D01*
X160836000Y-100468816D01*
X160803297Y-100633228D01*
X160739147Y-100788100D01*
X160646015Y-100927481D01*
X160527481Y-101046015D01*
X160388100Y-101139147D01*
X160233228Y-101203297D01*
X160068816Y-101236000D01*
X159901184Y-101236000D01*
X159736772Y-101203297D01*
X159581900Y-101139147D01*
X159442519Y-101046015D01*
X159323985Y-100927481D01*
X159230853Y-100788100D01*
X159166703Y-100633228D01*
X159134000Y-100468816D01*
X159134000Y-100301184D01*
X159166703Y-100136772D01*
X159230853Y-99981900D01*
X159323985Y-99842519D01*
X159442519Y-99723985D01*
X159581900Y-99630853D01*
X159736772Y-99566703D01*
X159901184Y-99534000D01*
X160068816Y-99534000D01*
X160233228Y-99566703D01*
G37*
G36*
X129851000Y-100851000D02*
G01*
X128149000Y-100851000D01*
X128149000Y-99149000D01*
X129851000Y-99149000D01*
X129851000Y-100851000D01*
G37*
G36*
X131748228Y-99181703D02*
G01*
X131903100Y-99245853D01*
X132042481Y-99338985D01*
X132161015Y-99457519D01*
X132254147Y-99596900D01*
X132318297Y-99751772D01*
X132351000Y-99916184D01*
X132351000Y-100083816D01*
X132318297Y-100248228D01*
X132254147Y-100403100D01*
X132161015Y-100542481D01*
X132042481Y-100661015D01*
X131903100Y-100754147D01*
X131748228Y-100818297D01*
X131583816Y-100851000D01*
X131416184Y-100851000D01*
X131251772Y-100818297D01*
X131096900Y-100754147D01*
X130957519Y-100661015D01*
X130838985Y-100542481D01*
X130745853Y-100403100D01*
X130681703Y-100248228D01*
X130649000Y-100083816D01*
X130649000Y-99916184D01*
X130681703Y-99751772D01*
X130745853Y-99596900D01*
X130838985Y-99457519D01*
X130957519Y-99338985D01*
X131096900Y-99245853D01*
X131251772Y-99181703D01*
X131416184Y-99149000D01*
X131583816Y-99149000D01*
X131748228Y-99181703D01*
G37*
G36*
X153607142Y-97378242D02*
G01*
X153755101Y-97439529D01*
X153888255Y-97528499D01*
X154001501Y-97641745D01*
X154090471Y-97774899D01*
X154151758Y-97922858D01*
X154183000Y-98079925D01*
X154183000Y-98240075D01*
X154151758Y-98397142D01*
X154090471Y-98545101D01*
X154001501Y-98678255D01*
X153888255Y-98791501D01*
X153755101Y-98880471D01*
X153607142Y-98941758D01*
X153450075Y-98973000D01*
X153289925Y-98973000D01*
X153132858Y-98941758D01*
X152984899Y-98880471D01*
X152851745Y-98791501D01*
X152738499Y-98678255D01*
X152649529Y-98545101D01*
X152588242Y-98397142D01*
X152557000Y-98240075D01*
X152557000Y-98079925D01*
X152588242Y-97922858D01*
X152649529Y-97774899D01*
X152738499Y-97641745D01*
X152851745Y-97528499D01*
X152984899Y-97439529D01*
X153132858Y-97378242D01*
X153289925Y-97347000D01*
X153450075Y-97347000D01*
X153607142Y-97378242D01*
G37*
G36*
X138367142Y-97378242D02*
G01*
X138515101Y-97439529D01*
X138648255Y-97528499D01*
X138761501Y-97641745D01*
X138850471Y-97774899D01*
X138911758Y-97922858D01*
X138943000Y-98079925D01*
X138943000Y-98240075D01*
X138911758Y-98397142D01*
X138850471Y-98545101D01*
X138761501Y-98678255D01*
X138648255Y-98791501D01*
X138515101Y-98880471D01*
X138367142Y-98941758D01*
X138210075Y-98973000D01*
X138049925Y-98973000D01*
X137892858Y-98941758D01*
X137744899Y-98880471D01*
X137611745Y-98791501D01*
X137498499Y-98678255D01*
X137409529Y-98545101D01*
X137348242Y-98397142D01*
X137317000Y-98240075D01*
X137317000Y-98079925D01*
X137348242Y-97922858D01*
X137409529Y-97774899D01*
X137498499Y-97641745D01*
X137611745Y-97528499D01*
X137744899Y-97439529D01*
X137892858Y-97378242D01*
X138049925Y-97347000D01*
X138210075Y-97347000D01*
X138367142Y-97378242D01*
G37*
G36*
X160233228Y-97026703D02*
G01*
X160388100Y-97090853D01*
X160527481Y-97183985D01*
X160646015Y-97302519D01*
X160739147Y-97441900D01*
X160803297Y-97596772D01*
X160836000Y-97761184D01*
X160836000Y-97928816D01*
X160803297Y-98093228D01*
X160739147Y-98248100D01*
X160646015Y-98387481D01*
X160527481Y-98506015D01*
X160388100Y-98599147D01*
X160233228Y-98663297D01*
X160068816Y-98696000D01*
X159901184Y-98696000D01*
X159736772Y-98663297D01*
X159581900Y-98599147D01*
X159442519Y-98506015D01*
X159323985Y-98387481D01*
X159230853Y-98248100D01*
X159166703Y-98093228D01*
X159134000Y-97928816D01*
X159134000Y-97761184D01*
X159166703Y-97596772D01*
X159230853Y-97441900D01*
X159323985Y-97302519D01*
X159442519Y-97183985D01*
X159581900Y-97090853D01*
X159736772Y-97026703D01*
X159901184Y-96994000D01*
X160068816Y-96994000D01*
X160233228Y-97026703D01*
G37*
G36*
X164424228Y-96645703D02*
G01*
X164579100Y-96709853D01*
X164718481Y-96802985D01*
X164837015Y-96921519D01*
X164930147Y-97060900D01*
X164994297Y-97215772D01*
X165027000Y-97380184D01*
X165027000Y-97547816D01*
X164994297Y-97712228D01*
X164930147Y-97867100D01*
X164837015Y-98006481D01*
X164718481Y-98125015D01*
X164579100Y-98218147D01*
X164424228Y-98282297D01*
X164259816Y-98315000D01*
X164092184Y-98315000D01*
X163927772Y-98282297D01*
X163772900Y-98218147D01*
X163633519Y-98125015D01*
X163514985Y-98006481D01*
X163421853Y-97867100D01*
X163357703Y-97712228D01*
X163325000Y-97547816D01*
X163325000Y-97380184D01*
X163357703Y-97215772D01*
X163421853Y-97060900D01*
X163514985Y-96921519D01*
X163633519Y-96802985D01*
X163772900Y-96709853D01*
X163927772Y-96645703D01*
X164092184Y-96613000D01*
X164259816Y-96613000D01*
X164424228Y-96645703D01*
G37*
G36*
X153607142Y-94838242D02*
G01*
X153755101Y-94899529D01*
X153888255Y-94988499D01*
X154001501Y-95101745D01*
X154090471Y-95234899D01*
X154151758Y-95382858D01*
X154183000Y-95539925D01*
X154183000Y-95700075D01*
X154151758Y-95857142D01*
X154090471Y-96005101D01*
X154001501Y-96138255D01*
X153888255Y-96251501D01*
X153755101Y-96340471D01*
X153607142Y-96401758D01*
X153450075Y-96433000D01*
X153289925Y-96433000D01*
X153132858Y-96401758D01*
X152984899Y-96340471D01*
X152851745Y-96251501D01*
X152738499Y-96138255D01*
X152649529Y-96005101D01*
X152588242Y-95857142D01*
X152557000Y-95700075D01*
X152557000Y-95539925D01*
X152588242Y-95382858D01*
X152649529Y-95234899D01*
X152738499Y-95101745D01*
X152851745Y-94988499D01*
X152984899Y-94899529D01*
X153132858Y-94838242D01*
X153289925Y-94807000D01*
X153450075Y-94807000D01*
X153607142Y-94838242D01*
G37*
G36*
X138367142Y-94838242D02*
G01*
X138515101Y-94899529D01*
X138648255Y-94988499D01*
X138761501Y-95101745D01*
X138850471Y-95234899D01*
X138911758Y-95382858D01*
X138943000Y-95539925D01*
X138943000Y-95700075D01*
X138911758Y-95857142D01*
X138850471Y-96005101D01*
X138761501Y-96138255D01*
X138648255Y-96251501D01*
X138515101Y-96340471D01*
X138367142Y-96401758D01*
X138210075Y-96433000D01*
X138049925Y-96433000D01*
X137892858Y-96401758D01*
X137744899Y-96340471D01*
X137611745Y-96251501D01*
X137498499Y-96138255D01*
X137409529Y-96005101D01*
X137348242Y-95857142D01*
X137317000Y-95700075D01*
X137317000Y-95539925D01*
X137348242Y-95382858D01*
X137409529Y-95234899D01*
X137498499Y-95101745D01*
X137611745Y-94988499D01*
X137744899Y-94899529D01*
X137892858Y-94838242D01*
X138049925Y-94807000D01*
X138210075Y-94807000D01*
X138367142Y-94838242D01*
G37*
G36*
X164424228Y-94105703D02*
G01*
X164579100Y-94169853D01*
X164718481Y-94262985D01*
X164837015Y-94381519D01*
X164930147Y-94520900D01*
X164994297Y-94675772D01*
X165027000Y-94840184D01*
X165027000Y-95007816D01*
X164994297Y-95172228D01*
X164930147Y-95327100D01*
X164837015Y-95466481D01*
X164718481Y-95585015D01*
X164579100Y-95678147D01*
X164424228Y-95742297D01*
X164259816Y-95775000D01*
X164092184Y-95775000D01*
X163927772Y-95742297D01*
X163772900Y-95678147D01*
X163633519Y-95585015D01*
X163514985Y-95466481D01*
X163421853Y-95327100D01*
X163357703Y-95172228D01*
X163325000Y-95007816D01*
X163325000Y-94840184D01*
X163357703Y-94675772D01*
X163421853Y-94520900D01*
X163514985Y-94381519D01*
X163633519Y-94262985D01*
X163772900Y-94169853D01*
X163927772Y-94105703D01*
X164092184Y-94073000D01*
X164259816Y-94073000D01*
X164424228Y-94105703D01*
G37*
G36*
X153607142Y-92298242D02*
G01*
X153755101Y-92359529D01*
X153888255Y-92448499D01*
X154001501Y-92561745D01*
X154090471Y-92694899D01*
X154151758Y-92842858D01*
X154183000Y-92999925D01*
X154183000Y-93160075D01*
X154151758Y-93317142D01*
X154090471Y-93465101D01*
X154001501Y-93598255D01*
X153888255Y-93711501D01*
X153755101Y-93800471D01*
X153607142Y-93861758D01*
X153450075Y-93893000D01*
X153289925Y-93893000D01*
X153132858Y-93861758D01*
X152984899Y-93800471D01*
X152851745Y-93711501D01*
X152738499Y-93598255D01*
X152649529Y-93465101D01*
X152588242Y-93317142D01*
X152557000Y-93160075D01*
X152557000Y-92999925D01*
X152588242Y-92842858D01*
X152649529Y-92694899D01*
X152738499Y-92561745D01*
X152851745Y-92448499D01*
X152984899Y-92359529D01*
X153132858Y-92298242D01*
X153289925Y-92267000D01*
X153450075Y-92267000D01*
X153607142Y-92298242D01*
G37*
G36*
X138367142Y-92298242D02*
G01*
X138515101Y-92359529D01*
X138648255Y-92448499D01*
X138761501Y-92561745D01*
X138850471Y-92694899D01*
X138911758Y-92842858D01*
X138943000Y-92999925D01*
X138943000Y-93160075D01*
X138911758Y-93317142D01*
X138850471Y-93465101D01*
X138761501Y-93598255D01*
X138648255Y-93711501D01*
X138515101Y-93800471D01*
X138367142Y-93861758D01*
X138210075Y-93893000D01*
X138049925Y-93893000D01*
X137892858Y-93861758D01*
X137744899Y-93800471D01*
X137611745Y-93711501D01*
X137498499Y-93598255D01*
X137409529Y-93465101D01*
X137348242Y-93317142D01*
X137317000Y-93160075D01*
X137317000Y-92999925D01*
X137348242Y-92842858D01*
X137409529Y-92694899D01*
X137498499Y-92561745D01*
X137611745Y-92448499D01*
X137744899Y-92359529D01*
X137892858Y-92298242D01*
X138049925Y-92267000D01*
X138210075Y-92267000D01*
X138367142Y-92298242D01*
G37*
G36*
X138367142Y-89758242D02*
G01*
X138515101Y-89819529D01*
X138648255Y-89908499D01*
X138761501Y-90021745D01*
X138850471Y-90154899D01*
X138911758Y-90302858D01*
X138943000Y-90459925D01*
X138943000Y-90620075D01*
X138911758Y-90777142D01*
X138850471Y-90925101D01*
X138761501Y-91058255D01*
X138648255Y-91171501D01*
X138515101Y-91260471D01*
X138367142Y-91321758D01*
X138210075Y-91353000D01*
X138049925Y-91353000D01*
X137892858Y-91321758D01*
X137744899Y-91260471D01*
X137611745Y-91171501D01*
X137498499Y-91058255D01*
X137409529Y-90925101D01*
X137348242Y-90777142D01*
X137317000Y-90620075D01*
X137317000Y-90459925D01*
X137348242Y-90302858D01*
X137409529Y-90154899D01*
X137498499Y-90021745D01*
X137611745Y-89908499D01*
X137744899Y-89819529D01*
X137892858Y-89758242D01*
X138049925Y-89727000D01*
X138210075Y-89727000D01*
X138367142Y-89758242D01*
G37*
G36*
X153607142Y-89758242D02*
G01*
X153755101Y-89819529D01*
X153888255Y-89908499D01*
X154001501Y-90021745D01*
X154090471Y-90154899D01*
X154151758Y-90302858D01*
X154183000Y-90459925D01*
X154183000Y-90620075D01*
X154151758Y-90777142D01*
X154090471Y-90925101D01*
X154001501Y-91058255D01*
X153888255Y-91171501D01*
X153755101Y-91260471D01*
X153607142Y-91321758D01*
X153450075Y-91353000D01*
X153289925Y-91353000D01*
X153132858Y-91321758D01*
X152984899Y-91260471D01*
X152851745Y-91171501D01*
X152738499Y-91058255D01*
X152649529Y-90925101D01*
X152588242Y-90777142D01*
X152557000Y-90620075D01*
X152557000Y-90459925D01*
X152588242Y-90302858D01*
X152649529Y-90154899D01*
X152738499Y-90021745D01*
X152851745Y-89908499D01*
X152984899Y-89819529D01*
X153132858Y-89758242D01*
X153289925Y-89727000D01*
X153450075Y-89727000D01*
X153607142Y-89758242D01*
G37*
G36*
X133276719Y-88963520D02*
G01*
X133465880Y-89020901D01*
X133465883Y-89020902D01*
X133558333Y-89070318D01*
X133640212Y-89114083D01*
X133793015Y-89239485D01*
X133918417Y-89392288D01*
X134011599Y-89566619D01*
X134068980Y-89755780D01*
X134083500Y-89903206D01*
X134083500Y-90096793D01*
X134068980Y-90244219D01*
X134051192Y-90302857D01*
X134011598Y-90433383D01*
X133997410Y-90459926D01*
X133918417Y-90607712D01*
X133793015Y-90760515D01*
X133640212Y-90885917D01*
X133465881Y-90979099D01*
X133276720Y-91036480D01*
X133080000Y-91055855D01*
X132883281Y-91036480D01*
X132694120Y-90979099D01*
X132519788Y-90885917D01*
X132366985Y-90760515D01*
X132241583Y-90607712D01*
X132148401Y-90433381D01*
X132091020Y-90244220D01*
X132076500Y-90096794D01*
X132076500Y-89903207D01*
X132091020Y-89755781D01*
X132148401Y-89566620D01*
X132148402Y-89566617D01*
X132197818Y-89474167D01*
X132241583Y-89392288D01*
X132366985Y-89239485D01*
X132519788Y-89114083D01*
X132694119Y-89020901D01*
X132883280Y-88963520D01*
X133080000Y-88944145D01*
X133276719Y-88963520D01*
G37*
G36*
X130736719Y-88963520D02*
G01*
X130925880Y-89020901D01*
X130925883Y-89020902D01*
X131018333Y-89070318D01*
X131100212Y-89114083D01*
X131253015Y-89239485D01*
X131378417Y-89392288D01*
X131471599Y-89566619D01*
X131528980Y-89755780D01*
X131543500Y-89903206D01*
X131543500Y-90096793D01*
X131528980Y-90244219D01*
X131511192Y-90302857D01*
X131471598Y-90433383D01*
X131457410Y-90459926D01*
X131378417Y-90607712D01*
X131253015Y-90760515D01*
X131100212Y-90885917D01*
X130925881Y-90979099D01*
X130736720Y-91036480D01*
X130540000Y-91055855D01*
X130343281Y-91036480D01*
X130154120Y-90979099D01*
X129979788Y-90885917D01*
X129826985Y-90760515D01*
X129701583Y-90607712D01*
X129608401Y-90433381D01*
X129551020Y-90244220D01*
X129536500Y-90096794D01*
X129536500Y-89903207D01*
X129551020Y-89755781D01*
X129608401Y-89566620D01*
X129608402Y-89566617D01*
X129657818Y-89474167D01*
X129701583Y-89392288D01*
X129826985Y-89239485D01*
X129979788Y-89114083D01*
X130154119Y-89020901D01*
X130343280Y-88963520D01*
X130540000Y-88944145D01*
X130736719Y-88963520D01*
G37*
G36*
X129003500Y-91051000D02*
G01*
X126996500Y-91051000D01*
X126996500Y-88949000D01*
X129003500Y-88949000D01*
X129003500Y-91051000D01*
G37*
G36*
X162606228Y-87247703D02*
G01*
X162761100Y-87311853D01*
X162900481Y-87404985D01*
X163019015Y-87523519D01*
X163112147Y-87662900D01*
X163176297Y-87817772D01*
X163209000Y-87982184D01*
X163209000Y-88149816D01*
X163176297Y-88314228D01*
X163112147Y-88469100D01*
X163019015Y-88608481D01*
X162900481Y-88727015D01*
X162761100Y-88820147D01*
X162606228Y-88884297D01*
X162441816Y-88917000D01*
X162274184Y-88917000D01*
X162109772Y-88884297D01*
X161954900Y-88820147D01*
X161815519Y-88727015D01*
X161696985Y-88608481D01*
X161603853Y-88469100D01*
X161539703Y-88314228D01*
X161507000Y-88149816D01*
X161507000Y-87982184D01*
X161539703Y-87817772D01*
X161603853Y-87662900D01*
X161696985Y-87523519D01*
X161815519Y-87404985D01*
X161954900Y-87311853D01*
X162109772Y-87247703D01*
X162274184Y-87215000D01*
X162441816Y-87215000D01*
X162606228Y-87247703D01*
G37*
G36*
X160709000Y-88917000D02*
G01*
X159007000Y-88917000D01*
X159007000Y-87215000D01*
X160709000Y-87215000D01*
X160709000Y-88917000D01*
G37*
G36*
X138367142Y-87218242D02*
G01*
X138515101Y-87279529D01*
X138648255Y-87368499D01*
X138761501Y-87481745D01*
X138850471Y-87614899D01*
X138911758Y-87762858D01*
X138943000Y-87919925D01*
X138943000Y-88080075D01*
X138911758Y-88237142D01*
X138850471Y-88385101D01*
X138761501Y-88518255D01*
X138648255Y-88631501D01*
X138515101Y-88720471D01*
X138367142Y-88781758D01*
X138210075Y-88813000D01*
X138049925Y-88813000D01*
X137892858Y-88781758D01*
X137744899Y-88720471D01*
X137611745Y-88631501D01*
X137498499Y-88518255D01*
X137409529Y-88385101D01*
X137348242Y-88237142D01*
X137317000Y-88080075D01*
X137317000Y-87919925D01*
X137348242Y-87762858D01*
X137409529Y-87614899D01*
X137498499Y-87481745D01*
X137611745Y-87368499D01*
X137744899Y-87279529D01*
X137892858Y-87218242D01*
X138049925Y-87187000D01*
X138210075Y-87187000D01*
X138367142Y-87218242D01*
G37*
G36*
X153607142Y-87218242D02*
G01*
X153755101Y-87279529D01*
X153888255Y-87368499D01*
X154001501Y-87481745D01*
X154090471Y-87614899D01*
X154151758Y-87762858D01*
X154183000Y-87919925D01*
X154183000Y-88080075D01*
X154151758Y-88237142D01*
X154090471Y-88385101D01*
X154001501Y-88518255D01*
X153888255Y-88631501D01*
X153755101Y-88720471D01*
X153607142Y-88781758D01*
X153450075Y-88813000D01*
X153289925Y-88813000D01*
X153132858Y-88781758D01*
X152984899Y-88720471D01*
X152851745Y-88631501D01*
X152738499Y-88518255D01*
X152649529Y-88385101D01*
X152588242Y-88237142D01*
X152557000Y-88080075D01*
X152557000Y-87919925D01*
X152588242Y-87762858D01*
X152649529Y-87614899D01*
X152738499Y-87481745D01*
X152851745Y-87368499D01*
X152984899Y-87279529D01*
X153132858Y-87218242D01*
X153289925Y-87187000D01*
X153450075Y-87187000D01*
X153607142Y-87218242D01*
G37*
G36*
X153607142Y-84678242D02*
G01*
X153755101Y-84739529D01*
X153888255Y-84828499D01*
X154001501Y-84941745D01*
X154090471Y-85074899D01*
X154151758Y-85222858D01*
X154183000Y-85379925D01*
X154183000Y-85540075D01*
X154151758Y-85697142D01*
X154090471Y-85845101D01*
X154001501Y-85978255D01*
X153888255Y-86091501D01*
X153755101Y-86180471D01*
X153607142Y-86241758D01*
X153450075Y-86273000D01*
X153289925Y-86273000D01*
X153132858Y-86241758D01*
X152984899Y-86180471D01*
X152851745Y-86091501D01*
X152738499Y-85978255D01*
X152649529Y-85845101D01*
X152588242Y-85697142D01*
X152557000Y-85540075D01*
X152557000Y-85379925D01*
X152588242Y-85222858D01*
X152649529Y-85074899D01*
X152738499Y-84941745D01*
X152851745Y-84828499D01*
X152984899Y-84739529D01*
X153132858Y-84678242D01*
X153289925Y-84647000D01*
X153450075Y-84647000D01*
X153607142Y-84678242D01*
G37*
G36*
X138367142Y-84678242D02*
G01*
X138515101Y-84739529D01*
X138648255Y-84828499D01*
X138761501Y-84941745D01*
X138850471Y-85074899D01*
X138911758Y-85222858D01*
X138943000Y-85379925D01*
X138943000Y-85540075D01*
X138911758Y-85697142D01*
X138850471Y-85845101D01*
X138761501Y-85978255D01*
X138648255Y-86091501D01*
X138515101Y-86180471D01*
X138367142Y-86241758D01*
X138210075Y-86273000D01*
X138049925Y-86273000D01*
X137892858Y-86241758D01*
X137744899Y-86180471D01*
X137611745Y-86091501D01*
X137498499Y-85978255D01*
X137409529Y-85845101D01*
X137348242Y-85697142D01*
X137317000Y-85540075D01*
X137317000Y-85379925D01*
X137348242Y-85222858D01*
X137409529Y-85074899D01*
X137498499Y-84941745D01*
X137611745Y-84828499D01*
X137744899Y-84739529D01*
X137892858Y-84678242D01*
X138049925Y-84647000D01*
X138210075Y-84647000D01*
X138367142Y-84678242D01*
G37*
G36*
X132184473Y-81555938D02*
G01*
X132312049Y-81608782D01*
X132426859Y-81685495D01*
X132524505Y-81783141D01*
X132601218Y-81897951D01*
X132654062Y-82025527D01*
X132681000Y-82160956D01*
X132681000Y-82299044D01*
X132654062Y-82434473D01*
X132601218Y-82562049D01*
X132572816Y-82604556D01*
X132561265Y-82626167D01*
X132554152Y-82649616D01*
X132551750Y-82674002D01*
X132554152Y-82698388D01*
X132561265Y-82721837D01*
X132572817Y-82743447D01*
X132588362Y-82762389D01*
X132607304Y-82777934D01*
X132628915Y-82789485D01*
X132652364Y-82796598D01*
X132676749Y-82799000D01*
X133951000Y-82799000D01*
X133951000Y-84201000D01*
X132549000Y-84201000D01*
X132549000Y-82926749D01*
X132546598Y-82902363D01*
X132539485Y-82878914D01*
X132527934Y-82857303D01*
X132512389Y-82838361D01*
X132493447Y-82822816D01*
X132471836Y-82811265D01*
X132448387Y-82804152D01*
X132424001Y-82801750D01*
X132399615Y-82804152D01*
X132376166Y-82811265D01*
X132354556Y-82822816D01*
X132312049Y-82851218D01*
X132184473Y-82904062D01*
X132049044Y-82931000D01*
X131910956Y-82931000D01*
X131775527Y-82904062D01*
X131647951Y-82851218D01*
X131533141Y-82774505D01*
X131435495Y-82676859D01*
X131358782Y-82562049D01*
X131305938Y-82434473D01*
X131279000Y-82299044D01*
X131279000Y-82160956D01*
X131305938Y-82025527D01*
X131358782Y-81897951D01*
X131435495Y-81783141D01*
X131533141Y-81685495D01*
X131647951Y-81608782D01*
X131775527Y-81555938D01*
X131910956Y-81529000D01*
X132049044Y-81529000D01*
X132184473Y-81555938D01*
G37*
G36*
X126498228Y-82181703D02*
G01*
X126653100Y-82245853D01*
X126792481Y-82338985D01*
X126911015Y-82457519D01*
X127004147Y-82596900D01*
X127068297Y-82751772D01*
X127101000Y-82916184D01*
X127101000Y-83083816D01*
X127068297Y-83248228D01*
X127004147Y-83403100D01*
X126911015Y-83542481D01*
X126792481Y-83661015D01*
X126653100Y-83754147D01*
X126498228Y-83818297D01*
X126333816Y-83851000D01*
X126166184Y-83851000D01*
X126001772Y-83818297D01*
X125846900Y-83754147D01*
X125707519Y-83661015D01*
X125588985Y-83542481D01*
X125495853Y-83403100D01*
X125431703Y-83248228D01*
X125399000Y-83083816D01*
X125399000Y-82916184D01*
X125431703Y-82751772D01*
X125495853Y-82596900D01*
X125588985Y-82457519D01*
X125707519Y-82338985D01*
X125846900Y-82245853D01*
X126001772Y-82181703D01*
X126166184Y-82149000D01*
X126333816Y-82149000D01*
X126498228Y-82181703D01*
G37*
G36*
X138367142Y-82138242D02*
G01*
X138515101Y-82199529D01*
X138648255Y-82288499D01*
X138761501Y-82401745D01*
X138850471Y-82534899D01*
X138911758Y-82682858D01*
X138943000Y-82839925D01*
X138943000Y-83000075D01*
X138911758Y-83157142D01*
X138850471Y-83305101D01*
X138761501Y-83438255D01*
X138648255Y-83551501D01*
X138515101Y-83640471D01*
X138367142Y-83701758D01*
X138210075Y-83733000D01*
X138049925Y-83733000D01*
X137892858Y-83701758D01*
X137744899Y-83640471D01*
X137611745Y-83551501D01*
X137498499Y-83438255D01*
X137409529Y-83305101D01*
X137348242Y-83157142D01*
X137317000Y-83000075D01*
X137317000Y-82839925D01*
X137348242Y-82682858D01*
X137409529Y-82534899D01*
X137498499Y-82401745D01*
X137611745Y-82288499D01*
X137744899Y-82199529D01*
X137892858Y-82138242D01*
X138049925Y-82107000D01*
X138210075Y-82107000D01*
X138367142Y-82138242D01*
G37*
G36*
X153607142Y-82138242D02*
G01*
X153755101Y-82199529D01*
X153888255Y-82288499D01*
X154001501Y-82401745D01*
X154090471Y-82534899D01*
X154151758Y-82682858D01*
X154183000Y-82839925D01*
X154183000Y-83000075D01*
X154151758Y-83157142D01*
X154090471Y-83305101D01*
X154001501Y-83438255D01*
X153888255Y-83551501D01*
X153755101Y-83640471D01*
X153607142Y-83701758D01*
X153450075Y-83733000D01*
X153289925Y-83733000D01*
X153132858Y-83701758D01*
X152984899Y-83640471D01*
X152851745Y-83551501D01*
X152738499Y-83438255D01*
X152649529Y-83305101D01*
X152588242Y-83157142D01*
X152557000Y-83000075D01*
X152557000Y-82839925D01*
X152588242Y-82682858D01*
X152649529Y-82534899D01*
X152738499Y-82401745D01*
X152851745Y-82288499D01*
X152984899Y-82199529D01*
X153132858Y-82138242D01*
X153289925Y-82107000D01*
X153450075Y-82107000D01*
X153607142Y-82138242D01*
G37*
G36*
X133454473Y-80285938D02*
G01*
X133582049Y-80338782D01*
X133696859Y-80415495D01*
X133794505Y-80513141D01*
X133871218Y-80627951D01*
X133924062Y-80755527D01*
X133951000Y-80890956D01*
X133951000Y-81029044D01*
X133924062Y-81164473D01*
X133871218Y-81292049D01*
X133794505Y-81406859D01*
X133696859Y-81504505D01*
X133582049Y-81581218D01*
X133454473Y-81634062D01*
X133319044Y-81661000D01*
X133180956Y-81661000D01*
X133045527Y-81634062D01*
X132917951Y-81581218D01*
X132803141Y-81504505D01*
X132705495Y-81406859D01*
X132628782Y-81292049D01*
X132575938Y-81164473D01*
X132549000Y-81029044D01*
X132549000Y-80890956D01*
X132575938Y-80755527D01*
X132628782Y-80627951D01*
X132705495Y-80513141D01*
X132803141Y-80415495D01*
X132917951Y-80338782D01*
X133045527Y-80285938D01*
X133180956Y-80259000D01*
X133319044Y-80259000D01*
X133454473Y-80285938D01*
G37*
G36*
X126498228Y-79641703D02*
G01*
X126653100Y-79705853D01*
X126792481Y-79798985D01*
X126911015Y-79917519D01*
X127004147Y-80056900D01*
X127068297Y-80211772D01*
X127101000Y-80376184D01*
X127101000Y-80543816D01*
X127068297Y-80708228D01*
X127004147Y-80863100D01*
X126911015Y-81002481D01*
X126792481Y-81121015D01*
X126653100Y-81214147D01*
X126498228Y-81278297D01*
X126333816Y-81311000D01*
X126166184Y-81311000D01*
X126001772Y-81278297D01*
X125846900Y-81214147D01*
X125707519Y-81121015D01*
X125588985Y-81002481D01*
X125495853Y-80863100D01*
X125431703Y-80708228D01*
X125399000Y-80543816D01*
X125399000Y-80376184D01*
X125431703Y-80211772D01*
X125495853Y-80056900D01*
X125588985Y-79917519D01*
X125707519Y-79798985D01*
X125846900Y-79705853D01*
X126001772Y-79641703D01*
X126166184Y-79609000D01*
X126333816Y-79609000D01*
X126498228Y-79641703D01*
G37*
G36*
X153607142Y-79598242D02*
G01*
X153755101Y-79659529D01*
X153888255Y-79748499D01*
X154001501Y-79861745D01*
X154090471Y-79994899D01*
X154151758Y-80142858D01*
X154183000Y-80299925D01*
X154183000Y-80460075D01*
X154151758Y-80617142D01*
X154090471Y-80765101D01*
X154001501Y-80898255D01*
X153888255Y-81011501D01*
X153755101Y-81100471D01*
X153607142Y-81161758D01*
X153450075Y-81193000D01*
X153289925Y-81193000D01*
X153132858Y-81161758D01*
X152984899Y-81100471D01*
X152851745Y-81011501D01*
X152738499Y-80898255D01*
X152649529Y-80765101D01*
X152588242Y-80617142D01*
X152557000Y-80460075D01*
X152557000Y-80299925D01*
X152588242Y-80142858D01*
X152649529Y-79994899D01*
X152738499Y-79861745D01*
X152851745Y-79748499D01*
X152984899Y-79659529D01*
X153132858Y-79598242D01*
X153289925Y-79567000D01*
X153450075Y-79567000D01*
X153607142Y-79598242D01*
G37*
G36*
X138367142Y-79598242D02*
G01*
X138515101Y-79659529D01*
X138648255Y-79748499D01*
X138761501Y-79861745D01*
X138850471Y-79994899D01*
X138911758Y-80142858D01*
X138943000Y-80299925D01*
X138943000Y-80460075D01*
X138911758Y-80617142D01*
X138850471Y-80765101D01*
X138761501Y-80898255D01*
X138648255Y-81011501D01*
X138515101Y-81100471D01*
X138367142Y-81161758D01*
X138210075Y-81193000D01*
X138049925Y-81193000D01*
X137892858Y-81161758D01*
X137744899Y-81100471D01*
X137611745Y-81011501D01*
X137498499Y-80898255D01*
X137409529Y-80765101D01*
X137348242Y-80617142D01*
X137317000Y-80460075D01*
X137317000Y-80299925D01*
X137348242Y-80142858D01*
X137409529Y-79994899D01*
X137498499Y-79861745D01*
X137611745Y-79748499D01*
X137744899Y-79659529D01*
X137892858Y-79598242D01*
X138049925Y-79567000D01*
X138210075Y-79567000D01*
X138367142Y-79598242D01*
G37*
G36*
X153607142Y-77058242D02*
G01*
X153755101Y-77119529D01*
X153888255Y-77208499D01*
X154001501Y-77321745D01*
X154090471Y-77454899D01*
X154151758Y-77602858D01*
X154183000Y-77759925D01*
X154183000Y-77920075D01*
X154151758Y-78077142D01*
X154090471Y-78225101D01*
X154001501Y-78358255D01*
X153888255Y-78471501D01*
X153755101Y-78560471D01*
X153607142Y-78621758D01*
X153450075Y-78653000D01*
X153289925Y-78653000D01*
X153132858Y-78621758D01*
X152984899Y-78560471D01*
X152851745Y-78471501D01*
X152738499Y-78358255D01*
X152649529Y-78225101D01*
X152588242Y-78077142D01*
X152557000Y-77920075D01*
X152557000Y-77759925D01*
X152588242Y-77602858D01*
X152649529Y-77454899D01*
X152738499Y-77321745D01*
X152851745Y-77208499D01*
X152984899Y-77119529D01*
X153132858Y-77058242D01*
X153289925Y-77027000D01*
X153450075Y-77027000D01*
X153607142Y-77058242D01*
G37*
G36*
X138367142Y-77058242D02*
G01*
X138515101Y-77119529D01*
X138648255Y-77208499D01*
X138761501Y-77321745D01*
X138850471Y-77454899D01*
X138911758Y-77602858D01*
X138943000Y-77759925D01*
X138943000Y-77920075D01*
X138911758Y-78077142D01*
X138850471Y-78225101D01*
X138761501Y-78358255D01*
X138648255Y-78471501D01*
X138515101Y-78560471D01*
X138367142Y-78621758D01*
X138210075Y-78653000D01*
X138049925Y-78653000D01*
X137892858Y-78621758D01*
X137744899Y-78560471D01*
X137611745Y-78471501D01*
X137498499Y-78358255D01*
X137409529Y-78225101D01*
X137348242Y-78077142D01*
X137317000Y-77920075D01*
X137317000Y-77759925D01*
X137348242Y-77602858D01*
X137409529Y-77454899D01*
X137498499Y-77321745D01*
X137611745Y-77208499D01*
X137744899Y-77119529D01*
X137892858Y-77058242D01*
X138049925Y-77027000D01*
X138210075Y-77027000D01*
X138367142Y-77058242D01*
G37*
G36*
X129372228Y-76071703D02*
G01*
X129527100Y-76135853D01*
X129666481Y-76228985D01*
X129785015Y-76347519D01*
X129878147Y-76486900D01*
X129942297Y-76641772D01*
X129975000Y-76806184D01*
X129975000Y-76973816D01*
X129942297Y-77138228D01*
X129878147Y-77293100D01*
X129785015Y-77432481D01*
X129666481Y-77551015D01*
X129527100Y-77644147D01*
X129372228Y-77708297D01*
X129207816Y-77741000D01*
X129040184Y-77741000D01*
X128875772Y-77708297D01*
X128720900Y-77644147D01*
X128581519Y-77551015D01*
X128462985Y-77432481D01*
X128369853Y-77293100D01*
X128305703Y-77138228D01*
X128273000Y-76973816D01*
X128273000Y-76806184D01*
X128305703Y-76641772D01*
X128369853Y-76486900D01*
X128462985Y-76347519D01*
X128581519Y-76228985D01*
X128720900Y-76135853D01*
X128875772Y-76071703D01*
X129040184Y-76039000D01*
X129207816Y-76039000D01*
X129372228Y-76071703D01*
G37*
G36*
X126832228Y-76071703D02*
G01*
X126987100Y-76135853D01*
X127126481Y-76228985D01*
X127245015Y-76347519D01*
X127338147Y-76486900D01*
X127402297Y-76641772D01*
X127435000Y-76806184D01*
X127435000Y-76973816D01*
X127402297Y-77138228D01*
X127338147Y-77293100D01*
X127245015Y-77432481D01*
X127126481Y-77551015D01*
X126987100Y-77644147D01*
X126832228Y-77708297D01*
X126667816Y-77741000D01*
X126500184Y-77741000D01*
X126335772Y-77708297D01*
X126180900Y-77644147D01*
X126041519Y-77551015D01*
X125922985Y-77432481D01*
X125829853Y-77293100D01*
X125765703Y-77138228D01*
X125733000Y-76973816D01*
X125733000Y-76806184D01*
X125765703Y-76641772D01*
X125829853Y-76486900D01*
X125922985Y-76347519D01*
X126041519Y-76228985D01*
X126180900Y-76135853D01*
X126335772Y-76071703D01*
X126500184Y-76039000D01*
X126667816Y-76039000D01*
X126832228Y-76071703D01*
G37*
G36*
X163328228Y-75817703D02*
G01*
X163483100Y-75881853D01*
X163622481Y-75974985D01*
X163741015Y-76093519D01*
X163834147Y-76232900D01*
X163898297Y-76387772D01*
X163931000Y-76552184D01*
X163931000Y-76719816D01*
X163898297Y-76884228D01*
X163834147Y-77039100D01*
X163741015Y-77178481D01*
X163622481Y-77297015D01*
X163483100Y-77390147D01*
X163328228Y-77454297D01*
X163163816Y-77487000D01*
X162996184Y-77487000D01*
X162831772Y-77454297D01*
X162676900Y-77390147D01*
X162537519Y-77297015D01*
X162418985Y-77178481D01*
X162325853Y-77039100D01*
X162261703Y-76884228D01*
X162229000Y-76719816D01*
X162229000Y-76552184D01*
X162261703Y-76387772D01*
X162325853Y-76232900D01*
X162418985Y-76093519D01*
X162537519Y-75974985D01*
X162676900Y-75881853D01*
X162831772Y-75817703D01*
X162996184Y-75785000D01*
X163163816Y-75785000D01*
X163328228Y-75817703D01*
G37*
G36*
X158328228Y-75817703D02*
G01*
X158483100Y-75881853D01*
X158622481Y-75974985D01*
X158741015Y-76093519D01*
X158834147Y-76232900D01*
X158898297Y-76387772D01*
X158931000Y-76552184D01*
X158931000Y-76719816D01*
X158898297Y-76884228D01*
X158834147Y-77039100D01*
X158741015Y-77178481D01*
X158622481Y-77297015D01*
X158483100Y-77390147D01*
X158328228Y-77454297D01*
X158163816Y-77487000D01*
X157996184Y-77487000D01*
X157831772Y-77454297D01*
X157676900Y-77390147D01*
X157537519Y-77297015D01*
X157418985Y-77178481D01*
X157325853Y-77039100D01*
X157261703Y-76884228D01*
X157229000Y-76719816D01*
X157229000Y-76552184D01*
X157261703Y-76387772D01*
X157325853Y-76232900D01*
X157418985Y-76093519D01*
X157537519Y-75974985D01*
X157676900Y-75881853D01*
X157831772Y-75817703D01*
X157996184Y-75785000D01*
X158163816Y-75785000D01*
X158328228Y-75817703D01*
G37*
G36*
X133498228Y-75817703D02*
G01*
X133653100Y-75881853D01*
X133792481Y-75974985D01*
X133911015Y-76093519D01*
X134004147Y-76232900D01*
X134068297Y-76387772D01*
X134101000Y-76552184D01*
X134101000Y-76719816D01*
X134068297Y-76884228D01*
X134004147Y-77039100D01*
X133911015Y-77178481D01*
X133792481Y-77297015D01*
X133653100Y-77390147D01*
X133498228Y-77454297D01*
X133333816Y-77487000D01*
X133166184Y-77487000D01*
X133001772Y-77454297D01*
X132846900Y-77390147D01*
X132707519Y-77297015D01*
X132588985Y-77178481D01*
X132495853Y-77039100D01*
X132431703Y-76884228D01*
X132399000Y-76719816D01*
X132399000Y-76552184D01*
X132431703Y-76387772D01*
X132495853Y-76232900D01*
X132588985Y-76093519D01*
X132707519Y-75974985D01*
X132846900Y-75881853D01*
X133001772Y-75817703D01*
X133166184Y-75785000D01*
X133333816Y-75785000D01*
X133498228Y-75817703D01*
G37*
G36*
X153607142Y-74518242D02*
G01*
X153755101Y-74579529D01*
X153888255Y-74668499D01*
X154001501Y-74781745D01*
X154090471Y-74914899D01*
X154151758Y-75062858D01*
X154183000Y-75219925D01*
X154183000Y-75380075D01*
X154151758Y-75537142D01*
X154090471Y-75685101D01*
X154001501Y-75818255D01*
X153888255Y-75931501D01*
X153755101Y-76020471D01*
X153607142Y-76081758D01*
X153450075Y-76113000D01*
X153289925Y-76113000D01*
X153132858Y-76081758D01*
X152984899Y-76020471D01*
X152851745Y-75931501D01*
X152738499Y-75818255D01*
X152649529Y-75685101D01*
X152588242Y-75537142D01*
X152557000Y-75380075D01*
X152557000Y-75219925D01*
X152588242Y-75062858D01*
X152649529Y-74914899D01*
X152738499Y-74781745D01*
X152851745Y-74668499D01*
X152984899Y-74579529D01*
X153132858Y-74518242D01*
X153289925Y-74487000D01*
X153450075Y-74487000D01*
X153607142Y-74518242D01*
G37*
G36*
X138367142Y-74518242D02*
G01*
X138515101Y-74579529D01*
X138648255Y-74668499D01*
X138761501Y-74781745D01*
X138850471Y-74914899D01*
X138911758Y-75062858D01*
X138943000Y-75219925D01*
X138943000Y-75380075D01*
X138911758Y-75537142D01*
X138850471Y-75685101D01*
X138761501Y-75818255D01*
X138648255Y-75931501D01*
X138515101Y-76020471D01*
X138367142Y-76081758D01*
X138210075Y-76113000D01*
X138049925Y-76113000D01*
X137892858Y-76081758D01*
X137744899Y-76020471D01*
X137611745Y-75931501D01*
X137498499Y-75818255D01*
X137409529Y-75685101D01*
X137348242Y-75537142D01*
X137317000Y-75380075D01*
X137317000Y-75219925D01*
X137348242Y-75062858D01*
X137409529Y-74914899D01*
X137498499Y-74781745D01*
X137611745Y-74668499D01*
X137744899Y-74579529D01*
X137892858Y-74518242D01*
X138049925Y-74487000D01*
X138210075Y-74487000D01*
X138367142Y-74518242D01*
G37*
G36*
X133498228Y-73277703D02*
G01*
X133653100Y-73341853D01*
X133792481Y-73434985D01*
X133911015Y-73553519D01*
X134004147Y-73692900D01*
X134068297Y-73847772D01*
X134101000Y-74012184D01*
X134101000Y-74179816D01*
X134068297Y-74344228D01*
X134004147Y-74499100D01*
X133911015Y-74638481D01*
X133792481Y-74757015D01*
X133653100Y-74850147D01*
X133498228Y-74914297D01*
X133333816Y-74947000D01*
X133166184Y-74947000D01*
X133001772Y-74914297D01*
X132846900Y-74850147D01*
X132707519Y-74757015D01*
X132588985Y-74638481D01*
X132495853Y-74499100D01*
X132431703Y-74344228D01*
X132399000Y-74179816D01*
X132399000Y-74012184D01*
X132431703Y-73847772D01*
X132495853Y-73692900D01*
X132588985Y-73553519D01*
X132707519Y-73434985D01*
X132846900Y-73341853D01*
X133001772Y-73277703D01*
X133166184Y-73245000D01*
X133333816Y-73245000D01*
X133498228Y-73277703D01*
G37*
G36*
X138367142Y-71978242D02*
G01*
X138515101Y-72039529D01*
X138648255Y-72128499D01*
X138761501Y-72241745D01*
X138850471Y-72374899D01*
X138911758Y-72522858D01*
X138943000Y-72679925D01*
X138943000Y-72840075D01*
X138911758Y-72997142D01*
X138850471Y-73145101D01*
X138761501Y-73278255D01*
X138648255Y-73391501D01*
X138515101Y-73480471D01*
X138367142Y-73541758D01*
X138210075Y-73573000D01*
X138049925Y-73573000D01*
X137892858Y-73541758D01*
X137744899Y-73480471D01*
X137611745Y-73391501D01*
X137498499Y-73278255D01*
X137409529Y-73145101D01*
X137348242Y-72997142D01*
X137317000Y-72840075D01*
X137317000Y-72679925D01*
X137348242Y-72522858D01*
X137409529Y-72374899D01*
X137498499Y-72241745D01*
X137611745Y-72128499D01*
X137744899Y-72039529D01*
X137892858Y-71978242D01*
X138049925Y-71947000D01*
X138210075Y-71947000D01*
X138367142Y-71978242D01*
G37*
G36*
X153607142Y-71978242D02*
G01*
X153755101Y-72039529D01*
X153888255Y-72128499D01*
X154001501Y-72241745D01*
X154090471Y-72374899D01*
X154151758Y-72522858D01*
X154183000Y-72679925D01*
X154183000Y-72840075D01*
X154151758Y-72997142D01*
X154090471Y-73145101D01*
X154001501Y-73278255D01*
X153888255Y-73391501D01*
X153755101Y-73480471D01*
X153607142Y-73541758D01*
X153450075Y-73573000D01*
X153289925Y-73573000D01*
X153132858Y-73541758D01*
X152984899Y-73480471D01*
X152851745Y-73391501D01*
X152738499Y-73278255D01*
X152649529Y-73145101D01*
X152588242Y-72997142D01*
X152557000Y-72840075D01*
X152557000Y-72679925D01*
X152588242Y-72522858D01*
X152649529Y-72374899D01*
X152738499Y-72241745D01*
X152851745Y-72128499D01*
X152984899Y-72039529D01*
X153132858Y-71978242D01*
X153289925Y-71947000D01*
X153450075Y-71947000D01*
X153607142Y-71978242D01*
G37*
G36*
X160363512Y-69683927D02*
G01*
X160512812Y-69713624D01*
X160676784Y-69781544D01*
X160824354Y-69880147D01*
X160949853Y-70005646D01*
X161048456Y-70153216D01*
X161116376Y-70317188D01*
X161151000Y-70491259D01*
X161151000Y-70668741D01*
X161116376Y-70842812D01*
X161048456Y-71006784D01*
X160949853Y-71154354D01*
X160824354Y-71279853D01*
X160676784Y-71378456D01*
X160512812Y-71446376D01*
X160363512Y-71476073D01*
X160338742Y-71481000D01*
X160161258Y-71481000D01*
X160136488Y-71476073D01*
X159987188Y-71446376D01*
X159823216Y-71378456D01*
X159675646Y-71279853D01*
X159550147Y-71154354D01*
X159451544Y-71006784D01*
X159383624Y-70842812D01*
X159349000Y-70668741D01*
X159349000Y-70491259D01*
X159383624Y-70317188D01*
X159451544Y-70153216D01*
X159550147Y-70005646D01*
X159675646Y-69880147D01*
X159823216Y-69781544D01*
X159987188Y-69713624D01*
X160136488Y-69683927D01*
X160161258Y-69679000D01*
X160338742Y-69679000D01*
X160363512Y-69683927D01*
G37*
G36*
X133498228Y-69721703D02*
G01*
X133653100Y-69785853D01*
X133792481Y-69878985D01*
X133911015Y-69997519D01*
X134004147Y-70136900D01*
X134068297Y-70291772D01*
X134101000Y-70456184D01*
X134101000Y-70623816D01*
X134068297Y-70788228D01*
X134004147Y-70943100D01*
X133911015Y-71082481D01*
X133792481Y-71201015D01*
X133653100Y-71294147D01*
X133498228Y-71358297D01*
X133333816Y-71391000D01*
X133166184Y-71391000D01*
X133001772Y-71358297D01*
X132846900Y-71294147D01*
X132707519Y-71201015D01*
X132588985Y-71082481D01*
X132495853Y-70943100D01*
X132431703Y-70788228D01*
X132399000Y-70623816D01*
X132399000Y-70456184D01*
X132431703Y-70291772D01*
X132495853Y-70136900D01*
X132588985Y-69997519D01*
X132707519Y-69878985D01*
X132846900Y-69785853D01*
X133001772Y-69721703D01*
X133166184Y-69689000D01*
X133333816Y-69689000D01*
X133498228Y-69721703D01*
G37*
G36*
X138367142Y-69438242D02*
G01*
X138515101Y-69499529D01*
X138648255Y-69588499D01*
X138761501Y-69701745D01*
X138850471Y-69834899D01*
X138911758Y-69982858D01*
X138943000Y-70139925D01*
X138943000Y-70300075D01*
X138911758Y-70457142D01*
X138850471Y-70605101D01*
X138761501Y-70738255D01*
X138648255Y-70851501D01*
X138515101Y-70940471D01*
X138367142Y-71001758D01*
X138210075Y-71033000D01*
X138049925Y-71033000D01*
X137892858Y-71001758D01*
X137744899Y-70940471D01*
X137611745Y-70851501D01*
X137498499Y-70738255D01*
X137409529Y-70605101D01*
X137348242Y-70457142D01*
X137317000Y-70300075D01*
X137317000Y-70139925D01*
X137348242Y-69982858D01*
X137409529Y-69834899D01*
X137498499Y-69701745D01*
X137611745Y-69588499D01*
X137744899Y-69499529D01*
X137892858Y-69438242D01*
X138049925Y-69407000D01*
X138210075Y-69407000D01*
X138367142Y-69438242D01*
G37*
G36*
X153607142Y-69438242D02*
G01*
X153755101Y-69499529D01*
X153888255Y-69588499D01*
X154001501Y-69701745D01*
X154090471Y-69834899D01*
X154151758Y-69982858D01*
X154183000Y-70139925D01*
X154183000Y-70300075D01*
X154151758Y-70457142D01*
X154090471Y-70605101D01*
X154001501Y-70738255D01*
X153888255Y-70851501D01*
X153755101Y-70940471D01*
X153607142Y-71001758D01*
X153450075Y-71033000D01*
X153289925Y-71033000D01*
X153132858Y-71001758D01*
X152984899Y-70940471D01*
X152851745Y-70851501D01*
X152738499Y-70738255D01*
X152649529Y-70605101D01*
X152588242Y-70457142D01*
X152557000Y-70300075D01*
X152557000Y-70139925D01*
X152588242Y-69982858D01*
X152649529Y-69834899D01*
X152738499Y-69701745D01*
X152851745Y-69588499D01*
X152984899Y-69499529D01*
X153132858Y-69438242D01*
X153289925Y-69407000D01*
X153450075Y-69407000D01*
X153607142Y-69438242D01*
G37*
G36*
X160363512Y-67143927D02*
G01*
X160512812Y-67173624D01*
X160676784Y-67241544D01*
X160824354Y-67340147D01*
X160949853Y-67465646D01*
X161048456Y-67613216D01*
X161116376Y-67777188D01*
X161151000Y-67951259D01*
X161151000Y-68128741D01*
X161116376Y-68302812D01*
X161048456Y-68466784D01*
X160949853Y-68614354D01*
X160824354Y-68739853D01*
X160676784Y-68838456D01*
X160512812Y-68906376D01*
X160363512Y-68936073D01*
X160338742Y-68941000D01*
X160161258Y-68941000D01*
X160136488Y-68936073D01*
X159987188Y-68906376D01*
X159823216Y-68838456D01*
X159675646Y-68739853D01*
X159550147Y-68614354D01*
X159451544Y-68466784D01*
X159383624Y-68302812D01*
X159349000Y-68128741D01*
X159349000Y-67951259D01*
X159383624Y-67777188D01*
X159451544Y-67613216D01*
X159550147Y-67465646D01*
X159675646Y-67340147D01*
X159823216Y-67241544D01*
X159987188Y-67173624D01*
X160136488Y-67143927D01*
X160161258Y-67139000D01*
X160338742Y-67139000D01*
X160363512Y-67143927D01*
G37*
G36*
X133498228Y-67181703D02*
G01*
X133653100Y-67245853D01*
X133792481Y-67338985D01*
X133911015Y-67457519D01*
X134004147Y-67596900D01*
X134068297Y-67751772D01*
X134101000Y-67916184D01*
X134101000Y-68083816D01*
X134068297Y-68248228D01*
X134004147Y-68403100D01*
X133911015Y-68542481D01*
X133792481Y-68661015D01*
X133653100Y-68754147D01*
X133498228Y-68818297D01*
X133333816Y-68851000D01*
X133166184Y-68851000D01*
X133001772Y-68818297D01*
X132846900Y-68754147D01*
X132707519Y-68661015D01*
X132588985Y-68542481D01*
X132495853Y-68403100D01*
X132431703Y-68248228D01*
X132399000Y-68083816D01*
X132399000Y-67916184D01*
X132431703Y-67751772D01*
X132495853Y-67596900D01*
X132588985Y-67457519D01*
X132707519Y-67338985D01*
X132846900Y-67245853D01*
X133001772Y-67181703D01*
X133166184Y-67149000D01*
X133333816Y-67149000D01*
X133498228Y-67181703D01*
G37*
G36*
X126625256Y-64891298D02*
G01*
X126731579Y-64912447D01*
X127032042Y-65036903D01*
X127302451Y-65217585D01*
X127532415Y-65447549D01*
X127532416Y-65447551D01*
X127713098Y-65717960D01*
X127837553Y-66018422D01*
X127901000Y-66337389D01*
X127901000Y-66662611D01*
X127837553Y-66981578D01*
X127728088Y-67245852D01*
X127713097Y-67282042D01*
X127532415Y-67552451D01*
X127302451Y-67782415D01*
X127032042Y-67963097D01*
X126731579Y-68087553D01*
X126625256Y-68108702D01*
X126412611Y-68151000D01*
X126087389Y-68151000D01*
X125874744Y-68108702D01*
X125768421Y-68087553D01*
X125467958Y-67963097D01*
X125197549Y-67782415D01*
X124967585Y-67552451D01*
X124786903Y-67282042D01*
X124771913Y-67245852D01*
X124662447Y-66981578D01*
X124599000Y-66662611D01*
X124599000Y-66337389D01*
X124662447Y-66018422D01*
X124786902Y-65717960D01*
X124967584Y-65447551D01*
X124967585Y-65447549D01*
X125197549Y-65217585D01*
X125467958Y-65036903D01*
X125768421Y-64912447D01*
X125874744Y-64891298D01*
X126087389Y-64849000D01*
X126412611Y-64849000D01*
X126625256Y-64891298D01*
G37*
G36*
X166625256Y-64891298D02*
G01*
X166731579Y-64912447D01*
X167032042Y-65036903D01*
X167302451Y-65217585D01*
X167532415Y-65447549D01*
X167532416Y-65447551D01*
X167713098Y-65717960D01*
X167837553Y-66018422D01*
X167901000Y-66337389D01*
X167901000Y-66662611D01*
X167837553Y-66981578D01*
X167728088Y-67245852D01*
X167713097Y-67282042D01*
X167532415Y-67552451D01*
X167302451Y-67782415D01*
X167032042Y-67963097D01*
X166731579Y-68087553D01*
X166625256Y-68108702D01*
X166412611Y-68151000D01*
X166087389Y-68151000D01*
X165874744Y-68108702D01*
X165768421Y-68087553D01*
X165467958Y-67963097D01*
X165197549Y-67782415D01*
X164967585Y-67552451D01*
X164786903Y-67282042D01*
X164771913Y-67245852D01*
X164662447Y-66981578D01*
X164599000Y-66662611D01*
X164599000Y-66337389D01*
X164662447Y-66018422D01*
X164786902Y-65717960D01*
X164967584Y-65447551D01*
X164967585Y-65447549D01*
X165197549Y-65217585D01*
X165467958Y-65036903D01*
X165768421Y-64912447D01*
X165874744Y-64891298D01*
X166087389Y-64849000D01*
X166412611Y-64849000D01*
X166625256Y-64891298D01*
G37*
G36*
X161151000Y-66401000D02*
G01*
X159349000Y-66401000D01*
X159349000Y-64599000D01*
X161151000Y-64599000D01*
X161151000Y-66401000D01*
G37*
M02*
