G04 #@! TF.GenerationSoftware,KiCad,Pcbnew,5.1.5+dfsg1-2build2*
G04 #@! TF.CreationDate,2021-01-23T10:17:54-06:00*
G04 #@! TF.ProjectId,speaker-switcher-remote,73706561-6b65-4722-9d73-776974636865,rev?*
G04 #@! TF.SameCoordinates,Original*
G04 #@! TF.FileFunction,Legend,Top*
G04 #@! TF.FilePolarity,Positive*
%FSLAX46Y46*%
G04 Gerber Fmt 4.6, Leading zero omitted, Abs format (unit mm)*
G04 Created by KiCad (PCBNEW 5.1.5+dfsg1-2build2) date 2021-01-23 10:17:54*
%MOMM*%
%LPD*%
G04 APERTURE LIST*
%ADD10C,0.150000*%
%ADD11C,0.120000*%
G04 APERTURE END LIST*
D10*
X93987857Y-116771071D02*
X94095000Y-116806785D01*
X94273571Y-116806785D01*
X94345000Y-116771071D01*
X94380714Y-116735357D01*
X94416428Y-116663928D01*
X94416428Y-116592500D01*
X94380714Y-116521071D01*
X94345000Y-116485357D01*
X94273571Y-116449642D01*
X94130714Y-116413928D01*
X94059285Y-116378214D01*
X94023571Y-116342500D01*
X93987857Y-116271071D01*
X93987857Y-116199642D01*
X94023571Y-116128214D01*
X94059285Y-116092500D01*
X94130714Y-116056785D01*
X94309285Y-116056785D01*
X94416428Y-116092500D01*
X95059285Y-116306785D02*
X95059285Y-116806785D01*
X94737857Y-116306785D02*
X94737857Y-116699642D01*
X94773571Y-116771071D01*
X94845000Y-116806785D01*
X94952142Y-116806785D01*
X95023571Y-116771071D01*
X95059285Y-116735357D01*
X95416428Y-116306785D02*
X95416428Y-117056785D01*
X95416428Y-116342500D02*
X95487857Y-116306785D01*
X95630714Y-116306785D01*
X95702142Y-116342500D01*
X95737857Y-116378214D01*
X95773571Y-116449642D01*
X95773571Y-116663928D01*
X95737857Y-116735357D01*
X95702142Y-116771071D01*
X95630714Y-116806785D01*
X95487857Y-116806785D01*
X95416428Y-116771071D01*
X96380714Y-116771071D02*
X96309285Y-116806785D01*
X96166428Y-116806785D01*
X96095000Y-116771071D01*
X96059285Y-116699642D01*
X96059285Y-116413928D01*
X96095000Y-116342500D01*
X96166428Y-116306785D01*
X96309285Y-116306785D01*
X96380714Y-116342500D01*
X96416428Y-116413928D01*
X96416428Y-116485357D01*
X96059285Y-116556785D01*
X96737857Y-116806785D02*
X96737857Y-116306785D01*
X96737857Y-116449642D02*
X96773571Y-116378214D01*
X96809285Y-116342500D01*
X96880714Y-116306785D01*
X96952142Y-116306785D01*
X97166428Y-116771071D02*
X97273571Y-116806785D01*
X97452142Y-116806785D01*
X97523571Y-116771071D01*
X97559285Y-116735357D01*
X97595000Y-116663928D01*
X97595000Y-116592500D01*
X97559285Y-116521071D01*
X97523571Y-116485357D01*
X97452142Y-116449642D01*
X97309285Y-116413928D01*
X97237857Y-116378214D01*
X97202142Y-116342500D01*
X97166428Y-116271071D01*
X97166428Y-116199642D01*
X97202142Y-116128214D01*
X97237857Y-116092500D01*
X97309285Y-116056785D01*
X97487857Y-116056785D01*
X97595000Y-116092500D01*
X97916428Y-116306785D02*
X97916428Y-117056785D01*
X97916428Y-116342500D02*
X97987857Y-116306785D01*
X98130714Y-116306785D01*
X98202142Y-116342500D01*
X98237857Y-116378214D01*
X98273571Y-116449642D01*
X98273571Y-116663928D01*
X98237857Y-116735357D01*
X98202142Y-116771071D01*
X98130714Y-116806785D01*
X97987857Y-116806785D01*
X97916428Y-116771071D01*
X98880714Y-116771071D02*
X98809285Y-116806785D01*
X98666428Y-116806785D01*
X98595000Y-116771071D01*
X98559285Y-116699642D01*
X98559285Y-116413928D01*
X98595000Y-116342500D01*
X98666428Y-116306785D01*
X98809285Y-116306785D01*
X98880714Y-116342500D01*
X98916428Y-116413928D01*
X98916428Y-116485357D01*
X98559285Y-116556785D01*
X99559285Y-116806785D02*
X99559285Y-116413928D01*
X99523571Y-116342500D01*
X99452142Y-116306785D01*
X99309285Y-116306785D01*
X99237857Y-116342500D01*
X99559285Y-116771071D02*
X99487857Y-116806785D01*
X99309285Y-116806785D01*
X99237857Y-116771071D01*
X99202142Y-116699642D01*
X99202142Y-116628214D01*
X99237857Y-116556785D01*
X99309285Y-116521071D01*
X99487857Y-116521071D01*
X99559285Y-116485357D01*
X99916428Y-116806785D02*
X99916428Y-116056785D01*
X99987857Y-116521071D02*
X100202142Y-116806785D01*
X100202142Y-116306785D02*
X99916428Y-116592500D01*
X100809285Y-116771071D02*
X100737857Y-116806785D01*
X100595000Y-116806785D01*
X100523571Y-116771071D01*
X100487857Y-116699642D01*
X100487857Y-116413928D01*
X100523571Y-116342500D01*
X100595000Y-116306785D01*
X100737857Y-116306785D01*
X100809285Y-116342500D01*
X100845000Y-116413928D01*
X100845000Y-116485357D01*
X100487857Y-116556785D01*
X101166428Y-116806785D02*
X101166428Y-116306785D01*
X101166428Y-116449642D02*
X101202142Y-116378214D01*
X101237857Y-116342500D01*
X101309285Y-116306785D01*
X101380714Y-116306785D01*
X101595000Y-116771071D02*
X101702142Y-116806785D01*
X101880714Y-116806785D01*
X101952142Y-116771071D01*
X101987857Y-116735357D01*
X102023571Y-116663928D01*
X102023571Y-116592500D01*
X101987857Y-116521071D01*
X101952142Y-116485357D01*
X101880714Y-116449642D01*
X101737857Y-116413928D01*
X101666428Y-116378214D01*
X101630714Y-116342500D01*
X101595000Y-116271071D01*
X101595000Y-116199642D01*
X101630714Y-116128214D01*
X101666428Y-116092500D01*
X101737857Y-116056785D01*
X101916428Y-116056785D01*
X102023571Y-116092500D01*
X102273571Y-116306785D02*
X102416428Y-116806785D01*
X102559285Y-116449642D01*
X102702142Y-116806785D01*
X102845000Y-116306785D01*
X103130714Y-116806785D02*
X103130714Y-116306785D01*
X103130714Y-116056785D02*
X103095000Y-116092500D01*
X103130714Y-116128214D01*
X103166428Y-116092500D01*
X103130714Y-116056785D01*
X103130714Y-116128214D01*
X103380714Y-116306785D02*
X103666428Y-116306785D01*
X103487857Y-116056785D02*
X103487857Y-116699642D01*
X103523571Y-116771071D01*
X103595000Y-116806785D01*
X103666428Y-116806785D01*
X104237857Y-116771071D02*
X104166428Y-116806785D01*
X104023571Y-116806785D01*
X103952142Y-116771071D01*
X103916428Y-116735357D01*
X103880714Y-116663928D01*
X103880714Y-116449642D01*
X103916428Y-116378214D01*
X103952142Y-116342500D01*
X104023571Y-116306785D01*
X104166428Y-116306785D01*
X104237857Y-116342500D01*
X104559285Y-116806785D02*
X104559285Y-116056785D01*
X104880714Y-116806785D02*
X104880714Y-116413928D01*
X104845000Y-116342500D01*
X104773571Y-116306785D01*
X104666428Y-116306785D01*
X104595000Y-116342500D01*
X104559285Y-116378214D01*
X105523571Y-116771071D02*
X105452142Y-116806785D01*
X105309285Y-116806785D01*
X105237857Y-116771071D01*
X105202142Y-116699642D01*
X105202142Y-116413928D01*
X105237857Y-116342500D01*
X105309285Y-116306785D01*
X105452142Y-116306785D01*
X105523571Y-116342500D01*
X105559285Y-116413928D01*
X105559285Y-116485357D01*
X105202142Y-116556785D01*
X105880714Y-116806785D02*
X105880714Y-116306785D01*
X105880714Y-116449642D02*
X105916428Y-116378214D01*
X105952142Y-116342500D01*
X106023571Y-116306785D01*
X106095000Y-116306785D01*
X107523571Y-116235357D02*
X107452142Y-116199642D01*
X107309285Y-116199642D01*
X107237857Y-116235357D01*
X107166428Y-116306785D01*
X107130714Y-116378214D01*
X107130714Y-116521071D01*
X107166428Y-116592500D01*
X107237857Y-116663928D01*
X107309285Y-116699642D01*
X107452142Y-116699642D01*
X107523571Y-116663928D01*
X107380714Y-115949642D02*
X107202142Y-115985357D01*
X107023571Y-116092500D01*
X106916428Y-116271071D01*
X106880714Y-116449642D01*
X106916428Y-116628214D01*
X107023571Y-116806785D01*
X107202142Y-116913928D01*
X107380714Y-116949642D01*
X107559285Y-116913928D01*
X107737857Y-116806785D01*
X107845000Y-116628214D01*
X107880714Y-116449642D01*
X107845000Y-116271071D01*
X107737857Y-116092500D01*
X107559285Y-115985357D01*
X107380714Y-115949642D01*
X108309285Y-116056785D02*
X108309285Y-116235357D01*
X108130714Y-116163928D02*
X108309285Y-116235357D01*
X108487857Y-116163928D01*
X108202142Y-116378214D02*
X108309285Y-116235357D01*
X108416428Y-116378214D01*
X95720000Y-118081785D02*
X95470000Y-117724642D01*
X95291428Y-118081785D02*
X95291428Y-117331785D01*
X95577142Y-117331785D01*
X95648571Y-117367500D01*
X95684285Y-117403214D01*
X95720000Y-117474642D01*
X95720000Y-117581785D01*
X95684285Y-117653214D01*
X95648571Y-117688928D01*
X95577142Y-117724642D01*
X95291428Y-117724642D01*
X96327142Y-118046071D02*
X96255714Y-118081785D01*
X96112857Y-118081785D01*
X96041428Y-118046071D01*
X96005714Y-117974642D01*
X96005714Y-117688928D01*
X96041428Y-117617500D01*
X96112857Y-117581785D01*
X96255714Y-117581785D01*
X96327142Y-117617500D01*
X96362857Y-117688928D01*
X96362857Y-117760357D01*
X96005714Y-117831785D01*
X96684285Y-118081785D02*
X96684285Y-117581785D01*
X96684285Y-117653214D02*
X96720000Y-117617500D01*
X96791428Y-117581785D01*
X96898571Y-117581785D01*
X96970000Y-117617500D01*
X97005714Y-117688928D01*
X97005714Y-118081785D01*
X97005714Y-117688928D02*
X97041428Y-117617500D01*
X97112857Y-117581785D01*
X97220000Y-117581785D01*
X97291428Y-117617500D01*
X97327142Y-117688928D01*
X97327142Y-118081785D01*
X97791428Y-118081785D02*
X97720000Y-118046071D01*
X97684285Y-118010357D01*
X97648571Y-117938928D01*
X97648571Y-117724642D01*
X97684285Y-117653214D01*
X97720000Y-117617500D01*
X97791428Y-117581785D01*
X97898571Y-117581785D01*
X97970000Y-117617500D01*
X98005714Y-117653214D01*
X98041428Y-117724642D01*
X98041428Y-117938928D01*
X98005714Y-118010357D01*
X97970000Y-118046071D01*
X97898571Y-118081785D01*
X97791428Y-118081785D01*
X98255714Y-117581785D02*
X98541428Y-117581785D01*
X98362857Y-117331785D02*
X98362857Y-117974642D01*
X98398571Y-118046071D01*
X98470000Y-118081785D01*
X98541428Y-118081785D01*
X99077142Y-118046071D02*
X99005714Y-118081785D01*
X98862857Y-118081785D01*
X98791428Y-118046071D01*
X98755714Y-117974642D01*
X98755714Y-117688928D01*
X98791428Y-117617500D01*
X98862857Y-117581785D01*
X99005714Y-117581785D01*
X99077142Y-117617500D01*
X99112857Y-117688928D01*
X99112857Y-117760357D01*
X98755714Y-117831785D01*
X99434285Y-117796071D02*
X100005714Y-117796071D01*
X100470000Y-118081785D02*
X100398571Y-118046071D01*
X100362857Y-118010357D01*
X100327142Y-117938928D01*
X100327142Y-117724642D01*
X100362857Y-117653214D01*
X100398571Y-117617500D01*
X100470000Y-117581785D01*
X100577142Y-117581785D01*
X100648571Y-117617500D01*
X100684285Y-117653214D01*
X100720000Y-117724642D01*
X100720000Y-117938928D01*
X100684285Y-118010357D01*
X100648571Y-118046071D01*
X100577142Y-118081785D01*
X100470000Y-118081785D01*
X101041428Y-117796071D02*
X101612857Y-117796071D01*
X101970000Y-118081785D02*
X101970000Y-117581785D01*
X101970000Y-117653214D02*
X102005714Y-117617500D01*
X102077142Y-117581785D01*
X102184285Y-117581785D01*
X102255714Y-117617500D01*
X102291428Y-117688928D01*
X102291428Y-118081785D01*
X102291428Y-117688928D02*
X102327142Y-117617500D01*
X102398571Y-117581785D01*
X102505714Y-117581785D01*
X102577142Y-117617500D01*
X102612857Y-117688928D01*
X102612857Y-118081785D01*
X103291428Y-118081785D02*
X103291428Y-117688928D01*
X103255714Y-117617500D01*
X103184285Y-117581785D01*
X103041428Y-117581785D01*
X102970000Y-117617500D01*
X103291428Y-118046071D02*
X103220000Y-118081785D01*
X103041428Y-118081785D01*
X102970000Y-118046071D01*
X102934285Y-117974642D01*
X102934285Y-117903214D01*
X102970000Y-117831785D01*
X103041428Y-117796071D01*
X103220000Y-117796071D01*
X103291428Y-117760357D01*
X103541428Y-117581785D02*
X103827142Y-117581785D01*
X103648571Y-117331785D02*
X103648571Y-117974642D01*
X103684285Y-118046071D01*
X103755714Y-118081785D01*
X103827142Y-118081785D01*
X104077142Y-118081785D02*
X104077142Y-117581785D01*
X104077142Y-117331785D02*
X104041428Y-117367500D01*
X104077142Y-117403214D01*
X104112857Y-117367500D01*
X104077142Y-117331785D01*
X104077142Y-117403214D01*
X104755714Y-118046071D02*
X104684285Y-118081785D01*
X104541428Y-118081785D01*
X104470000Y-118046071D01*
X104434285Y-118010357D01*
X104398571Y-117938928D01*
X104398571Y-117724642D01*
X104434285Y-117653214D01*
X104470000Y-117617500D01*
X104541428Y-117581785D01*
X104684285Y-117581785D01*
X104755714Y-117617500D01*
X106255714Y-117510357D02*
X106184285Y-117474642D01*
X106041428Y-117474642D01*
X105970000Y-117510357D01*
X105898571Y-117581785D01*
X105862857Y-117653214D01*
X105862857Y-117796071D01*
X105898571Y-117867500D01*
X105970000Y-117938928D01*
X106041428Y-117974642D01*
X106184285Y-117974642D01*
X106255714Y-117938928D01*
X106112857Y-117224642D02*
X105934285Y-117260357D01*
X105755714Y-117367500D01*
X105648571Y-117546071D01*
X105612857Y-117724642D01*
X105648571Y-117903214D01*
X105755714Y-118081785D01*
X105934285Y-118188928D01*
X106112857Y-118224642D01*
X106291428Y-118188928D01*
X106470000Y-118081785D01*
X106577142Y-117903214D01*
X106612857Y-117724642D01*
X106577142Y-117546071D01*
X106470000Y-117367500D01*
X106291428Y-117260357D01*
X106112857Y-117224642D01*
X95380714Y-118963928D02*
X95487857Y-118999642D01*
X95523571Y-119035357D01*
X95559285Y-119106785D01*
X95559285Y-119213928D01*
X95523571Y-119285357D01*
X95487857Y-119321071D01*
X95416428Y-119356785D01*
X95130714Y-119356785D01*
X95130714Y-118606785D01*
X95380714Y-118606785D01*
X95452142Y-118642500D01*
X95487857Y-118678214D01*
X95523571Y-118749642D01*
X95523571Y-118821071D01*
X95487857Y-118892500D01*
X95452142Y-118928214D01*
X95380714Y-118963928D01*
X95130714Y-118963928D01*
X95809285Y-118856785D02*
X95987857Y-119356785D01*
X96166428Y-118856785D02*
X95987857Y-119356785D01*
X95916428Y-119535357D01*
X95880714Y-119571071D01*
X95809285Y-119606785D01*
X97237857Y-118606785D02*
X97237857Y-119142500D01*
X97202142Y-119249642D01*
X97130714Y-119321071D01*
X97023571Y-119356785D01*
X96952142Y-119356785D01*
X97702142Y-119356785D02*
X97630714Y-119321071D01*
X97595000Y-119285357D01*
X97559285Y-119213928D01*
X97559285Y-118999642D01*
X97595000Y-118928214D01*
X97630714Y-118892500D01*
X97702142Y-118856785D01*
X97809285Y-118856785D01*
X97880714Y-118892500D01*
X97916428Y-118928214D01*
X97952142Y-118999642D01*
X97952142Y-119213928D01*
X97916428Y-119285357D01*
X97880714Y-119321071D01*
X97809285Y-119356785D01*
X97702142Y-119356785D01*
X98273571Y-118856785D02*
X98273571Y-119356785D01*
X98273571Y-118928214D02*
X98309285Y-118892500D01*
X98380714Y-118856785D01*
X98487857Y-118856785D01*
X98559285Y-118892500D01*
X98595000Y-118963928D01*
X98595000Y-119356785D01*
X99273571Y-119356785D02*
X99273571Y-118963928D01*
X99237857Y-118892500D01*
X99166428Y-118856785D01*
X99023571Y-118856785D01*
X98952142Y-118892500D01*
X99273571Y-119321071D02*
X99202142Y-119356785D01*
X99023571Y-119356785D01*
X98952142Y-119321071D01*
X98916428Y-119249642D01*
X98916428Y-119178214D01*
X98952142Y-119106785D01*
X99023571Y-119071071D01*
X99202142Y-119071071D01*
X99273571Y-119035357D01*
X99523571Y-118856785D02*
X99809285Y-118856785D01*
X99630714Y-118606785D02*
X99630714Y-119249642D01*
X99666428Y-119321071D01*
X99737857Y-119356785D01*
X99809285Y-119356785D01*
X100059285Y-119356785D02*
X100059285Y-118606785D01*
X100380714Y-119356785D02*
X100380714Y-118963928D01*
X100345000Y-118892500D01*
X100273571Y-118856785D01*
X100166428Y-118856785D01*
X100095000Y-118892500D01*
X100059285Y-118928214D01*
X101059285Y-119356785D02*
X101059285Y-118963928D01*
X101023571Y-118892500D01*
X100952142Y-118856785D01*
X100809285Y-118856785D01*
X100737857Y-118892500D01*
X101059285Y-119321071D02*
X100987857Y-119356785D01*
X100809285Y-119356785D01*
X100737857Y-119321071D01*
X100702142Y-119249642D01*
X100702142Y-119178214D01*
X100737857Y-119106785D01*
X100809285Y-119071071D01*
X100987857Y-119071071D01*
X101059285Y-119035357D01*
X101416428Y-118856785D02*
X101416428Y-119356785D01*
X101416428Y-118928214D02*
X101452142Y-118892500D01*
X101523571Y-118856785D01*
X101630714Y-118856785D01*
X101702142Y-118892500D01*
X101737857Y-118963928D01*
X101737857Y-119356785D01*
X102595000Y-118606785D02*
X102773571Y-119356785D01*
X102916428Y-118821071D01*
X103059285Y-119356785D01*
X103237857Y-118606785D01*
X103523571Y-119285357D02*
X103559285Y-119321071D01*
X103523571Y-119356785D01*
X103487857Y-119321071D01*
X103523571Y-119285357D01*
X103523571Y-119356785D01*
X104452142Y-119356785D02*
X104452142Y-118606785D01*
X104702142Y-119142500D01*
X104952142Y-118606785D01*
X104952142Y-119356785D01*
X105630714Y-119356785D02*
X105630714Y-118963928D01*
X105595000Y-118892500D01*
X105523571Y-118856785D01*
X105380714Y-118856785D01*
X105309285Y-118892500D01*
X105630714Y-119321071D02*
X105559285Y-119356785D01*
X105380714Y-119356785D01*
X105309285Y-119321071D01*
X105273571Y-119249642D01*
X105273571Y-119178214D01*
X105309285Y-119106785D01*
X105380714Y-119071071D01*
X105559285Y-119071071D01*
X105630714Y-119035357D01*
X105987857Y-119356785D02*
X105987857Y-118856785D01*
X105987857Y-118999642D02*
X106023571Y-118928214D01*
X106059285Y-118892500D01*
X106130714Y-118856785D01*
X106202142Y-118856785D01*
X106452142Y-119356785D02*
X106452142Y-118606785D01*
X106523571Y-119071071D02*
X106737857Y-119356785D01*
X106737857Y-118856785D02*
X106452142Y-119142500D01*
X107023571Y-119321071D02*
X107095000Y-119356785D01*
X107237857Y-119356785D01*
X107309285Y-119321071D01*
X107345000Y-119249642D01*
X107345000Y-119213928D01*
X107309285Y-119142500D01*
X107237857Y-119106785D01*
X107130714Y-119106785D01*
X107059285Y-119071071D01*
X107023571Y-118999642D01*
X107023571Y-118963928D01*
X107059285Y-118892500D01*
X107130714Y-118856785D01*
X107237857Y-118856785D01*
X107309285Y-118892500D01*
X92684285Y-119881785D02*
X92684285Y-120060357D01*
X92505714Y-119988928D02*
X92684285Y-120060357D01*
X92862857Y-119988928D01*
X92577142Y-120203214D02*
X92684285Y-120060357D01*
X92791428Y-120203214D01*
X94148571Y-120560357D02*
X94112857Y-120596071D01*
X94005714Y-120631785D01*
X93934285Y-120631785D01*
X93827142Y-120596071D01*
X93755714Y-120524642D01*
X93720000Y-120453214D01*
X93684285Y-120310357D01*
X93684285Y-120203214D01*
X93720000Y-120060357D01*
X93755714Y-119988928D01*
X93827142Y-119917500D01*
X93934285Y-119881785D01*
X94005714Y-119881785D01*
X94112857Y-119917500D01*
X94148571Y-119953214D01*
X94577142Y-120631785D02*
X94505714Y-120596071D01*
X94470000Y-120560357D01*
X94434285Y-120488928D01*
X94434285Y-120274642D01*
X94470000Y-120203214D01*
X94505714Y-120167500D01*
X94577142Y-120131785D01*
X94684285Y-120131785D01*
X94755714Y-120167500D01*
X94791428Y-120203214D01*
X94827142Y-120274642D01*
X94827142Y-120488928D01*
X94791428Y-120560357D01*
X94755714Y-120596071D01*
X94684285Y-120631785D01*
X94577142Y-120631785D01*
X95148571Y-120131785D02*
X95148571Y-120881785D01*
X95148571Y-120167500D02*
X95220000Y-120131785D01*
X95362857Y-120131785D01*
X95434285Y-120167500D01*
X95470000Y-120203214D01*
X95505714Y-120274642D01*
X95505714Y-120488928D01*
X95470000Y-120560357D01*
X95434285Y-120596071D01*
X95362857Y-120631785D01*
X95220000Y-120631785D01*
X95148571Y-120596071D01*
X95755714Y-120131785D02*
X95934285Y-120631785D01*
X96112857Y-120131785D02*
X95934285Y-120631785D01*
X95862857Y-120810357D01*
X95827142Y-120846071D01*
X95755714Y-120881785D01*
X96398571Y-120631785D02*
X96398571Y-120131785D01*
X96398571Y-120274642D02*
X96434285Y-120203214D01*
X96470000Y-120167500D01*
X96541428Y-120131785D01*
X96612857Y-120131785D01*
X96862857Y-120631785D02*
X96862857Y-120131785D01*
X96862857Y-119881785D02*
X96827142Y-119917500D01*
X96862857Y-119953214D01*
X96898571Y-119917500D01*
X96862857Y-119881785D01*
X96862857Y-119953214D01*
X97541428Y-120131785D02*
X97541428Y-120738928D01*
X97505714Y-120810357D01*
X97470000Y-120846071D01*
X97398571Y-120881785D01*
X97291428Y-120881785D01*
X97220000Y-120846071D01*
X97541428Y-120596071D02*
X97470000Y-120631785D01*
X97327142Y-120631785D01*
X97255714Y-120596071D01*
X97220000Y-120560357D01*
X97184285Y-120488928D01*
X97184285Y-120274642D01*
X97220000Y-120203214D01*
X97255714Y-120167500D01*
X97327142Y-120131785D01*
X97470000Y-120131785D01*
X97541428Y-120167500D01*
X97898571Y-120631785D02*
X97898571Y-119881785D01*
X98220000Y-120631785D02*
X98220000Y-120238928D01*
X98184285Y-120167500D01*
X98112857Y-120131785D01*
X98005714Y-120131785D01*
X97934285Y-120167500D01*
X97898571Y-120203214D01*
X98470000Y-120131785D02*
X98755714Y-120131785D01*
X98577142Y-119881785D02*
X98577142Y-120524642D01*
X98612857Y-120596071D01*
X98684285Y-120631785D01*
X98755714Y-120631785D01*
X99577142Y-120631785D02*
X99577142Y-119881785D01*
X99577142Y-120167500D02*
X99648571Y-120131785D01*
X99791428Y-120131785D01*
X99862857Y-120167500D01*
X99898571Y-120203214D01*
X99934285Y-120274642D01*
X99934285Y-120488928D01*
X99898571Y-120560357D01*
X99862857Y-120596071D01*
X99791428Y-120631785D01*
X99648571Y-120631785D01*
X99577142Y-120596071D01*
X100184285Y-120131785D02*
X100362857Y-120631785D01*
X100541428Y-120131785D02*
X100362857Y-120631785D01*
X100291428Y-120810357D01*
X100255714Y-120846071D01*
X100184285Y-120881785D01*
X101398571Y-120631785D02*
X101398571Y-119881785D01*
X101577142Y-119881785D01*
X101684285Y-119917500D01*
X101755714Y-119988928D01*
X101791428Y-120060357D01*
X101827142Y-120203214D01*
X101827142Y-120310357D01*
X101791428Y-120453214D01*
X101755714Y-120524642D01*
X101684285Y-120596071D01*
X101577142Y-120631785D01*
X101398571Y-120631785D01*
X102470000Y-120631785D02*
X102470000Y-120238928D01*
X102434285Y-120167500D01*
X102362857Y-120131785D01*
X102220000Y-120131785D01*
X102148571Y-120167500D01*
X102470000Y-120596071D02*
X102398571Y-120631785D01*
X102220000Y-120631785D01*
X102148571Y-120596071D01*
X102112857Y-120524642D01*
X102112857Y-120453214D01*
X102148571Y-120381785D01*
X102220000Y-120346071D01*
X102398571Y-120346071D01*
X102470000Y-120310357D01*
X102827142Y-120131785D02*
X102827142Y-120631785D01*
X102827142Y-120203214D02*
X102862857Y-120167500D01*
X102934285Y-120131785D01*
X103041428Y-120131785D01*
X103112857Y-120167500D01*
X103148571Y-120238928D01*
X103148571Y-120631785D01*
X103505714Y-120631785D02*
X103505714Y-120131785D01*
X103505714Y-119881785D02*
X103470000Y-119917500D01*
X103505714Y-119953214D01*
X103541428Y-119917500D01*
X103505714Y-119881785D01*
X103505714Y-119953214D01*
X104148571Y-120596071D02*
X104077142Y-120631785D01*
X103934285Y-120631785D01*
X103862857Y-120596071D01*
X103827142Y-120524642D01*
X103827142Y-120238928D01*
X103862857Y-120167500D01*
X103934285Y-120131785D01*
X104077142Y-120131785D01*
X104148571Y-120167500D01*
X104184285Y-120238928D01*
X104184285Y-120310357D01*
X103827142Y-120381785D01*
X104612857Y-120631785D02*
X104541428Y-120596071D01*
X104505714Y-120524642D01*
X104505714Y-119881785D01*
X105827142Y-120631785D02*
X105470000Y-120631785D01*
X105470000Y-119881785D01*
X106077142Y-120560357D02*
X106112857Y-120596071D01*
X106077142Y-120631785D01*
X106041428Y-120596071D01*
X106077142Y-120560357D01*
X106077142Y-120631785D01*
X107005714Y-120631785D02*
X107005714Y-119881785D01*
X107255714Y-120417500D01*
X107505714Y-119881785D01*
X107505714Y-120631785D01*
X108184285Y-120631785D02*
X108184285Y-120238928D01*
X108148571Y-120167500D01*
X108077142Y-120131785D01*
X107934285Y-120131785D01*
X107862857Y-120167500D01*
X108184285Y-120596071D02*
X108112857Y-120631785D01*
X107934285Y-120631785D01*
X107862857Y-120596071D01*
X107827142Y-120524642D01*
X107827142Y-120453214D01*
X107862857Y-120381785D01*
X107934285Y-120346071D01*
X108112857Y-120346071D01*
X108184285Y-120310357D01*
X108541428Y-120631785D02*
X108541428Y-120131785D01*
X108541428Y-120274642D02*
X108577142Y-120203214D01*
X108612857Y-120167500D01*
X108684285Y-120131785D01*
X108755714Y-120131785D01*
X109005714Y-120631785D02*
X109005714Y-119881785D01*
X109077142Y-120346071D02*
X109291428Y-120631785D01*
X109291428Y-120131785D02*
X109005714Y-120417500D01*
X109577142Y-120596071D02*
X109648571Y-120631785D01*
X109791428Y-120631785D01*
X109862857Y-120596071D01*
X109898571Y-120524642D01*
X109898571Y-120488928D01*
X109862857Y-120417500D01*
X109791428Y-120381785D01*
X109684285Y-120381785D01*
X109612857Y-120346071D01*
X109577142Y-120274642D01*
X109577142Y-120238928D01*
X109612857Y-120167500D01*
X109684285Y-120131785D01*
X109791428Y-120131785D01*
X109862857Y-120167500D01*
X99226666Y-102107142D02*
X99226666Y-101630952D01*
X99512380Y-102202380D02*
X98512380Y-101869047D01*
X99512380Y-101535714D01*
X99512380Y-101202380D02*
X98845714Y-101202380D01*
X99036190Y-101202380D02*
X98940952Y-101154761D01*
X98893333Y-101107142D01*
X98845714Y-101011904D01*
X98845714Y-100916666D01*
X99512380Y-100154761D02*
X98512380Y-100154761D01*
X99464761Y-100154761D02*
X99512380Y-100250000D01*
X99512380Y-100440476D01*
X99464761Y-100535714D01*
X99417142Y-100583333D01*
X99321904Y-100630952D01*
X99036190Y-100630952D01*
X98940952Y-100583333D01*
X98893333Y-100535714D01*
X98845714Y-100440476D01*
X98845714Y-100250000D01*
X98893333Y-100154761D01*
X98845714Y-99250000D02*
X99512380Y-99250000D01*
X98845714Y-99678571D02*
X99369523Y-99678571D01*
X99464761Y-99630952D01*
X99512380Y-99535714D01*
X99512380Y-99392857D01*
X99464761Y-99297619D01*
X99417142Y-99250000D01*
X99512380Y-98773809D02*
X98845714Y-98773809D01*
X98512380Y-98773809D02*
X98560000Y-98821428D01*
X98607619Y-98773809D01*
X98560000Y-98726190D01*
X98512380Y-98773809D01*
X98607619Y-98773809D01*
X98845714Y-98297619D02*
X99512380Y-98297619D01*
X98940952Y-98297619D02*
X98893333Y-98250000D01*
X98845714Y-98154761D01*
X98845714Y-98011904D01*
X98893333Y-97916666D01*
X98988571Y-97869047D01*
X99512380Y-97869047D01*
X99512380Y-97250000D02*
X99464761Y-97345238D01*
X99417142Y-97392857D01*
X99321904Y-97440476D01*
X99036190Y-97440476D01*
X98940952Y-97392857D01*
X98893333Y-97345238D01*
X98845714Y-97250000D01*
X98845714Y-97107142D01*
X98893333Y-97011904D01*
X98940952Y-96964285D01*
X99036190Y-96916666D01*
X99321904Y-96916666D01*
X99417142Y-96964285D01*
X99464761Y-97011904D01*
X99512380Y-97107142D01*
X99512380Y-97250000D01*
X99512380Y-95726190D02*
X98512380Y-95726190D01*
X99512380Y-95154761D01*
X98512380Y-95154761D01*
X99512380Y-94250000D02*
X98988571Y-94250000D01*
X98893333Y-94297619D01*
X98845714Y-94392857D01*
X98845714Y-94583333D01*
X98893333Y-94678571D01*
X99464761Y-94250000D02*
X99512380Y-94345238D01*
X99512380Y-94583333D01*
X99464761Y-94678571D01*
X99369523Y-94726190D01*
X99274285Y-94726190D01*
X99179047Y-94678571D01*
X99131428Y-94583333D01*
X99131428Y-94345238D01*
X99083809Y-94250000D01*
X98845714Y-93773809D02*
X99512380Y-93773809D01*
X98940952Y-93773809D02*
X98893333Y-93726190D01*
X98845714Y-93630952D01*
X98845714Y-93488095D01*
X98893333Y-93392857D01*
X98988571Y-93345238D01*
X99512380Y-93345238D01*
X99512380Y-92726190D02*
X99464761Y-92821428D01*
X99417142Y-92869047D01*
X99321904Y-92916666D01*
X99036190Y-92916666D01*
X98940952Y-92869047D01*
X98893333Y-92821428D01*
X98845714Y-92726190D01*
X98845714Y-92583333D01*
X98893333Y-92488095D01*
X98940952Y-92440476D01*
X99036190Y-92392857D01*
X99321904Y-92392857D01*
X99417142Y-92440476D01*
X99464761Y-92488095D01*
X99512380Y-92583333D01*
X99512380Y-92726190D01*
X98512380Y-91345238D02*
X99512380Y-91011904D01*
X98512380Y-90678571D01*
X98512380Y-90440476D02*
X98512380Y-89821428D01*
X98893333Y-90154761D01*
X98893333Y-90011904D01*
X98940952Y-89916666D01*
X98988571Y-89869047D01*
X99083809Y-89821428D01*
X99321904Y-89821428D01*
X99417142Y-89869047D01*
X99464761Y-89916666D01*
X99512380Y-90011904D01*
X99512380Y-90297619D01*
X99464761Y-90392857D01*
X99417142Y-90440476D01*
X99417142Y-89392857D02*
X99464761Y-89345238D01*
X99512380Y-89392857D01*
X99464761Y-89440476D01*
X99417142Y-89392857D01*
X99512380Y-89392857D01*
X98512380Y-88726190D02*
X98512380Y-88630952D01*
X98560000Y-88535714D01*
X98607619Y-88488095D01*
X98702857Y-88440476D01*
X98893333Y-88392857D01*
X99131428Y-88392857D01*
X99321904Y-88440476D01*
X99417142Y-88488095D01*
X99464761Y-88535714D01*
X99512380Y-88630952D01*
X99512380Y-88726190D01*
X99464761Y-88821428D01*
X99417142Y-88869047D01*
X99321904Y-88916666D01*
X99131428Y-88964285D01*
X98893333Y-88964285D01*
X98702857Y-88916666D01*
X98607619Y-88869047D01*
X98560000Y-88821428D01*
X98512380Y-88726190D01*
X122392857Y-69439285D02*
X122857142Y-69439285D01*
X122607142Y-69725000D01*
X122714285Y-69725000D01*
X122785714Y-69760714D01*
X122821428Y-69796428D01*
X122857142Y-69867857D01*
X122857142Y-70046428D01*
X122821428Y-70117857D01*
X122785714Y-70153571D01*
X122714285Y-70189285D01*
X122500000Y-70189285D01*
X122428571Y-70153571D01*
X122392857Y-70117857D01*
X123178571Y-70117857D02*
X123214285Y-70153571D01*
X123178571Y-70189285D01*
X123142857Y-70153571D01*
X123178571Y-70117857D01*
X123178571Y-70189285D01*
X123464285Y-69439285D02*
X123928571Y-69439285D01*
X123678571Y-69725000D01*
X123785714Y-69725000D01*
X123857142Y-69760714D01*
X123892857Y-69796428D01*
X123928571Y-69867857D01*
X123928571Y-70046428D01*
X123892857Y-70117857D01*
X123857142Y-70153571D01*
X123785714Y-70189285D01*
X123571428Y-70189285D01*
X123500000Y-70153571D01*
X123464285Y-70117857D01*
X124142857Y-69439285D02*
X124392857Y-70189285D01*
X124642857Y-69439285D01*
X120078571Y-69475000D02*
X120007142Y-69439285D01*
X119900000Y-69439285D01*
X119792857Y-69475000D01*
X119721428Y-69546428D01*
X119685714Y-69617857D01*
X119650000Y-69760714D01*
X119650000Y-69867857D01*
X119685714Y-70010714D01*
X119721428Y-70082142D01*
X119792857Y-70153571D01*
X119900000Y-70189285D01*
X119971428Y-70189285D01*
X120078571Y-70153571D01*
X120114285Y-70117857D01*
X120114285Y-69867857D01*
X119971428Y-69867857D01*
X120435714Y-70189285D02*
X120435714Y-69439285D01*
X120864285Y-70189285D01*
X120864285Y-69439285D01*
X121221428Y-70189285D02*
X121221428Y-69439285D01*
X121400000Y-69439285D01*
X121507142Y-69475000D01*
X121578571Y-69546428D01*
X121614285Y-69617857D01*
X121650000Y-69760714D01*
X121650000Y-69867857D01*
X121614285Y-70010714D01*
X121578571Y-70082142D01*
X121507142Y-70153571D01*
X121400000Y-70189285D01*
X121221428Y-70189285D01*
X117392857Y-70189285D02*
X117321428Y-70153571D01*
X117285714Y-70117857D01*
X117250000Y-70046428D01*
X117250000Y-69832142D01*
X117285714Y-69760714D01*
X117321428Y-69725000D01*
X117392857Y-69689285D01*
X117500000Y-69689285D01*
X117571428Y-69725000D01*
X117607142Y-69760714D01*
X117642857Y-69832142D01*
X117642857Y-70046428D01*
X117607142Y-70117857D01*
X117571428Y-70153571D01*
X117500000Y-70189285D01*
X117392857Y-70189285D01*
X118285714Y-69689285D02*
X118285714Y-70189285D01*
X117964285Y-69689285D02*
X117964285Y-70082142D01*
X118000000Y-70153571D01*
X118071428Y-70189285D01*
X118178571Y-70189285D01*
X118250000Y-70153571D01*
X118285714Y-70117857D01*
X118535714Y-69689285D02*
X118821428Y-69689285D01*
X118642857Y-69439285D02*
X118642857Y-70082142D01*
X118678571Y-70153571D01*
X118750000Y-70189285D01*
X118821428Y-70189285D01*
D11*
X102870000Y-67310000D02*
X95250000Y-67310000D01*
X102870000Y-74930000D02*
X102870000Y-67310000D01*
X95250000Y-74930000D02*
X102870000Y-74930000D01*
X95250000Y-67310000D02*
X95250000Y-74930000D01*
X90170000Y-114300000D02*
X90170000Y-71120000D01*
X107950000Y-71120000D02*
X107950000Y-114300000D01*
X107950000Y-114300000D02*
X90170000Y-114300000D01*
X90170000Y-71120000D02*
X107950000Y-71120000D01*
X130250000Y-73770000D02*
X130250000Y-74620000D01*
X130250000Y-91210000D02*
X130250000Y-90360000D01*
X127630000Y-74620000D02*
X127630000Y-90360000D01*
X132870000Y-74620000D02*
X127630000Y-74620000D01*
X132870000Y-90360000D02*
X132870000Y-74620000D01*
X127630000Y-90360000D02*
X132870000Y-90360000D01*
X115630000Y-64710000D02*
X115630000Y-66040000D01*
X114300000Y-64710000D02*
X115630000Y-64710000D01*
X113030000Y-64710000D02*
X113030000Y-67370000D01*
X113030000Y-67370000D02*
X107890000Y-67370000D01*
X113030000Y-64710000D02*
X107890000Y-64710000D01*
X107890000Y-64710000D02*
X107890000Y-67370000D01*
X118840000Y-89000000D02*
X118840000Y-88670000D01*
X112300000Y-89000000D02*
X118840000Y-89000000D01*
X112300000Y-88670000D02*
X112300000Y-89000000D01*
X118840000Y-86260000D02*
X118840000Y-86590000D01*
X112300000Y-86260000D02*
X118840000Y-86260000D01*
X112300000Y-86590000D02*
X112300000Y-86260000D01*
X118840000Y-94020000D02*
X118840000Y-93690000D01*
X112300000Y-94020000D02*
X118840000Y-94020000D01*
X112300000Y-93690000D02*
X112300000Y-94020000D01*
X118840000Y-91280000D02*
X118840000Y-91610000D01*
X112300000Y-91280000D02*
X118840000Y-91280000D01*
X112300000Y-91610000D02*
X112300000Y-91280000D01*
X118840000Y-79020000D02*
X118840000Y-78690000D01*
X112300000Y-79020000D02*
X118840000Y-79020000D01*
X112300000Y-78690000D02*
X112300000Y-79020000D01*
X118840000Y-76280000D02*
X118840000Y-76610000D01*
X112300000Y-76280000D02*
X118840000Y-76280000D01*
X112300000Y-76610000D02*
X112300000Y-76280000D01*
X125870000Y-85820000D02*
X125540000Y-85820000D01*
X125870000Y-92360000D02*
X125870000Y-85820000D01*
X125540000Y-92360000D02*
X125870000Y-92360000D01*
X123130000Y-85820000D02*
X123460000Y-85820000D01*
X123130000Y-92360000D02*
X123130000Y-85820000D01*
X123460000Y-92360000D02*
X123130000Y-92360000D01*
X112170000Y-70780000D02*
X112170000Y-71110000D01*
X118710000Y-70780000D02*
X112170000Y-70780000D01*
X118710000Y-71110000D02*
X118710000Y-70780000D01*
X112170000Y-73520000D02*
X112170000Y-73190000D01*
X118710000Y-73520000D02*
X112170000Y-73520000D01*
X118710000Y-73190000D02*
X118710000Y-73520000D01*
X118840000Y-83920000D02*
X118840000Y-83590000D01*
X112300000Y-83920000D02*
X118840000Y-83920000D01*
X112300000Y-83590000D02*
X112300000Y-83920000D01*
X118840000Y-81180000D02*
X118840000Y-81510000D01*
X112300000Y-81180000D02*
X118840000Y-81180000D01*
X112300000Y-81510000D02*
X112300000Y-81180000D01*
X129391000Y-96110000D02*
X129391000Y-97620000D01*
X125690000Y-96110000D02*
X125690000Y-97620000D01*
X122420000Y-97620000D02*
X132660000Y-97620000D01*
X132660000Y-96110000D02*
X132660000Y-100751000D01*
X122420000Y-96110000D02*
X122420000Y-100751000D01*
X122420000Y-100751000D02*
X132660000Y-100751000D01*
X122420000Y-96110000D02*
X132660000Y-96110000D01*
X117391000Y-96110000D02*
X117391000Y-97620000D01*
X113690000Y-96110000D02*
X113690000Y-97620000D01*
X110420000Y-97620000D02*
X120660000Y-97620000D01*
X120660000Y-96110000D02*
X120660000Y-100751000D01*
X110420000Y-96110000D02*
X110420000Y-100751000D01*
X110420000Y-100751000D02*
X120660000Y-100751000D01*
X110420000Y-96110000D02*
X120660000Y-96110000D01*
D10*
X98250476Y-81732380D02*
X98250476Y-80732380D01*
X98583809Y-81446666D01*
X98917142Y-80732380D01*
X98917142Y-81732380D01*
X99917142Y-81732380D02*
X99345714Y-81732380D01*
X99631428Y-81732380D02*
X99631428Y-80732380D01*
X99536190Y-80875238D01*
X99440952Y-80970476D01*
X99345714Y-81018095D01*
X127082380Y-82656666D02*
X126606190Y-82990000D01*
X127082380Y-83228095D02*
X126082380Y-83228095D01*
X126082380Y-82847142D01*
X126130000Y-82751904D01*
X126177619Y-82704285D01*
X126272857Y-82656666D01*
X126415714Y-82656666D01*
X126510952Y-82704285D01*
X126558571Y-82751904D01*
X126606190Y-82847142D01*
X126606190Y-83228095D01*
X126082380Y-82323333D02*
X126082380Y-81656666D01*
X127082380Y-82085238D01*
X117082380Y-67016190D02*
X116082380Y-67016190D01*
X117082380Y-65968571D02*
X116606190Y-66301904D01*
X117082380Y-66540000D02*
X116082380Y-66540000D01*
X116082380Y-66159047D01*
X116130000Y-66063809D01*
X116177619Y-66016190D01*
X116272857Y-65968571D01*
X116415714Y-65968571D01*
X116510952Y-66016190D01*
X116558571Y-66063809D01*
X116606190Y-66159047D01*
X116606190Y-66540000D01*
X117082380Y-65016190D02*
X117082380Y-65587619D01*
X117082380Y-65301904D02*
X116082380Y-65301904D01*
X116225238Y-65397142D01*
X116320476Y-65492380D01*
X116368095Y-65587619D01*
X115403333Y-85712380D02*
X115070000Y-85236190D01*
X114831904Y-85712380D02*
X114831904Y-84712380D01*
X115212857Y-84712380D01*
X115308095Y-84760000D01*
X115355714Y-84807619D01*
X115403333Y-84902857D01*
X115403333Y-85045714D01*
X115355714Y-85140952D01*
X115308095Y-85188571D01*
X115212857Y-85236190D01*
X114831904Y-85236190D01*
X116260476Y-84712380D02*
X116070000Y-84712380D01*
X115974761Y-84760000D01*
X115927142Y-84807619D01*
X115831904Y-84950476D01*
X115784285Y-85140952D01*
X115784285Y-85521904D01*
X115831904Y-85617142D01*
X115879523Y-85664761D01*
X115974761Y-85712380D01*
X116165238Y-85712380D01*
X116260476Y-85664761D01*
X116308095Y-85617142D01*
X116355714Y-85521904D01*
X116355714Y-85283809D01*
X116308095Y-85188571D01*
X116260476Y-85140952D01*
X116165238Y-85093333D01*
X115974761Y-85093333D01*
X115879523Y-85140952D01*
X115831904Y-85188571D01*
X115784285Y-85283809D01*
X115403333Y-90732380D02*
X115070000Y-90256190D01*
X114831904Y-90732380D02*
X114831904Y-89732380D01*
X115212857Y-89732380D01*
X115308095Y-89780000D01*
X115355714Y-89827619D01*
X115403333Y-89922857D01*
X115403333Y-90065714D01*
X115355714Y-90160952D01*
X115308095Y-90208571D01*
X115212857Y-90256190D01*
X114831904Y-90256190D01*
X116308095Y-89732380D02*
X115831904Y-89732380D01*
X115784285Y-90208571D01*
X115831904Y-90160952D01*
X115927142Y-90113333D01*
X116165238Y-90113333D01*
X116260476Y-90160952D01*
X116308095Y-90208571D01*
X116355714Y-90303809D01*
X116355714Y-90541904D01*
X116308095Y-90637142D01*
X116260476Y-90684761D01*
X116165238Y-90732380D01*
X115927142Y-90732380D01*
X115831904Y-90684761D01*
X115784285Y-90637142D01*
X115403333Y-75732380D02*
X115070000Y-75256190D01*
X114831904Y-75732380D02*
X114831904Y-74732380D01*
X115212857Y-74732380D01*
X115308095Y-74780000D01*
X115355714Y-74827619D01*
X115403333Y-74922857D01*
X115403333Y-75065714D01*
X115355714Y-75160952D01*
X115308095Y-75208571D01*
X115212857Y-75256190D01*
X114831904Y-75256190D01*
X116260476Y-75065714D02*
X116260476Y-75732380D01*
X116022380Y-74684761D02*
X115784285Y-75399047D01*
X116403333Y-75399047D01*
X122582380Y-89256666D02*
X122106190Y-89590000D01*
X122582380Y-89828095D02*
X121582380Y-89828095D01*
X121582380Y-89447142D01*
X121630000Y-89351904D01*
X121677619Y-89304285D01*
X121772857Y-89256666D01*
X121915714Y-89256666D01*
X122010952Y-89304285D01*
X122058571Y-89351904D01*
X122106190Y-89447142D01*
X122106190Y-89828095D01*
X121582380Y-88923333D02*
X121582380Y-88304285D01*
X121963333Y-88637619D01*
X121963333Y-88494761D01*
X122010952Y-88399523D01*
X122058571Y-88351904D01*
X122153809Y-88304285D01*
X122391904Y-88304285D01*
X122487142Y-88351904D01*
X122534761Y-88399523D01*
X122582380Y-88494761D01*
X122582380Y-88780476D01*
X122534761Y-88875714D01*
X122487142Y-88923333D01*
X115333333Y-70102380D02*
X115000000Y-69626190D01*
X114761904Y-70102380D02*
X114761904Y-69102380D01*
X115142857Y-69102380D01*
X115238095Y-69150000D01*
X115285714Y-69197619D01*
X115333333Y-69292857D01*
X115333333Y-69435714D01*
X115285714Y-69530952D01*
X115238095Y-69578571D01*
X115142857Y-69626190D01*
X114761904Y-69626190D01*
X115714285Y-69197619D02*
X115761904Y-69150000D01*
X115857142Y-69102380D01*
X116095238Y-69102380D01*
X116190476Y-69150000D01*
X116238095Y-69197619D01*
X116285714Y-69292857D01*
X116285714Y-69388095D01*
X116238095Y-69530952D01*
X115666666Y-70102380D01*
X116285714Y-70102380D01*
X115403333Y-80632380D02*
X115070000Y-80156190D01*
X114831904Y-80632380D02*
X114831904Y-79632380D01*
X115212857Y-79632380D01*
X115308095Y-79680000D01*
X115355714Y-79727619D01*
X115403333Y-79822857D01*
X115403333Y-79965714D01*
X115355714Y-80060952D01*
X115308095Y-80108571D01*
X115212857Y-80156190D01*
X114831904Y-80156190D01*
X116355714Y-80632380D02*
X115784285Y-80632380D01*
X116070000Y-80632380D02*
X116070000Y-79632380D01*
X115974761Y-79775238D01*
X115879523Y-79870476D01*
X115784285Y-79918095D01*
X127444761Y-95657619D02*
X127349523Y-95610000D01*
X127254285Y-95514761D01*
X127111428Y-95371904D01*
X127016190Y-95324285D01*
X126920952Y-95324285D01*
X126968571Y-95562380D02*
X126873333Y-95514761D01*
X126778095Y-95419523D01*
X126730476Y-95229047D01*
X126730476Y-94895714D01*
X126778095Y-94705238D01*
X126873333Y-94610000D01*
X126968571Y-94562380D01*
X127159047Y-94562380D01*
X127254285Y-94610000D01*
X127349523Y-94705238D01*
X127397142Y-94895714D01*
X127397142Y-95229047D01*
X127349523Y-95419523D01*
X127254285Y-95514761D01*
X127159047Y-95562380D01*
X126968571Y-95562380D01*
X127778095Y-94657619D02*
X127825714Y-94610000D01*
X127920952Y-94562380D01*
X128159047Y-94562380D01*
X128254285Y-94610000D01*
X128301904Y-94657619D01*
X128349523Y-94752857D01*
X128349523Y-94848095D01*
X128301904Y-94990952D01*
X127730476Y-95562380D01*
X128349523Y-95562380D01*
X115444761Y-95657619D02*
X115349523Y-95610000D01*
X115254285Y-95514761D01*
X115111428Y-95371904D01*
X115016190Y-95324285D01*
X114920952Y-95324285D01*
X114968571Y-95562380D02*
X114873333Y-95514761D01*
X114778095Y-95419523D01*
X114730476Y-95229047D01*
X114730476Y-94895714D01*
X114778095Y-94705238D01*
X114873333Y-94610000D01*
X114968571Y-94562380D01*
X115159047Y-94562380D01*
X115254285Y-94610000D01*
X115349523Y-94705238D01*
X115397142Y-94895714D01*
X115397142Y-95229047D01*
X115349523Y-95419523D01*
X115254285Y-95514761D01*
X115159047Y-95562380D01*
X114968571Y-95562380D01*
X116349523Y-95562380D02*
X115778095Y-95562380D01*
X116063809Y-95562380D02*
X116063809Y-94562380D01*
X115968571Y-94705238D01*
X115873333Y-94800476D01*
X115778095Y-94848095D01*
X119191816Y-117068967D02*
X119326503Y-117001624D01*
X119494862Y-116833265D01*
X119528534Y-116732250D01*
X119528534Y-116664906D01*
X119494862Y-116563891D01*
X119427519Y-116496548D01*
X119326503Y-116462876D01*
X119259160Y-116462876D01*
X119158145Y-116496548D01*
X118989786Y-116597563D01*
X118888771Y-116631235D01*
X118821427Y-116631235D01*
X118720412Y-116597563D01*
X118653068Y-116530219D01*
X118619397Y-116429204D01*
X118619397Y-116361861D01*
X118653068Y-116260845D01*
X118821427Y-116092487D01*
X118956114Y-116025143D01*
X119932595Y-116395532D02*
X119225488Y-115688426D01*
X119966267Y-115014990D02*
X119865251Y-115048662D01*
X119764236Y-115149677D01*
X119696893Y-115284365D01*
X119696893Y-115419052D01*
X119730564Y-115520067D01*
X119831580Y-115688426D01*
X119932595Y-115789441D01*
X120100954Y-115890456D01*
X120201969Y-115924128D01*
X120336656Y-115924128D01*
X120471343Y-115856784D01*
X120538687Y-115789441D01*
X120606030Y-115654754D01*
X120606030Y-115587410D01*
X120370328Y-115351708D01*
X120235641Y-115486395D01*
X120707045Y-115082334D02*
X121245793Y-114543586D01*
X122222274Y-114105853D02*
X121818213Y-114509914D01*
X122020244Y-114307884D02*
X121313137Y-113600777D01*
X121346809Y-113769136D01*
X121346809Y-113903823D01*
X121313137Y-114004838D01*
X120243918Y-108178967D02*
X120378605Y-108111624D01*
X120546964Y-107943265D01*
X120580636Y-107842250D01*
X120580636Y-107774906D01*
X120546964Y-107673891D01*
X120479621Y-107606548D01*
X120378605Y-107572876D01*
X120311262Y-107572876D01*
X120210247Y-107606548D01*
X120041888Y-107707563D01*
X119940873Y-107741235D01*
X119873529Y-107741235D01*
X119772514Y-107707563D01*
X119705170Y-107640219D01*
X119671499Y-107539204D01*
X119671499Y-107471861D01*
X119705170Y-107370845D01*
X119873529Y-107202487D01*
X120008216Y-107135143D01*
X120984697Y-107505532D02*
X120277590Y-106798426D01*
X121018369Y-106124990D02*
X120917353Y-106158662D01*
X120816338Y-106259677D01*
X120748995Y-106394365D01*
X120748995Y-106529052D01*
X120782666Y-106630067D01*
X120883682Y-106798426D01*
X120984697Y-106899441D01*
X121153056Y-107000456D01*
X121254071Y-107034128D01*
X121388758Y-107034128D01*
X121523445Y-106966784D01*
X121590789Y-106899441D01*
X121658132Y-106764754D01*
X121658132Y-106697410D01*
X121422430Y-106461708D01*
X121287743Y-106596395D01*
X121759147Y-106192334D02*
X122297895Y-105653586D01*
X122297895Y-106192334D02*
X121759147Y-105653586D01*
X123274376Y-105215853D02*
X122870315Y-105619914D01*
X123072346Y-105417884D02*
X122365239Y-104710777D01*
X122398911Y-104879136D01*
X122398911Y-105013823D01*
X122365239Y-105114838D01*
X111386622Y-117321505D02*
X110679515Y-116614399D01*
X110948889Y-116345025D01*
X111049904Y-116311353D01*
X111117248Y-116311353D01*
X111218263Y-116345025D01*
X111319278Y-116446040D01*
X111352950Y-116547055D01*
X111352950Y-116614399D01*
X111319278Y-116715414D01*
X111049904Y-116984788D01*
X111319278Y-115974635D02*
X112194744Y-116513383D01*
X111824355Y-115873620D01*
X112464118Y-116244009D01*
X111925370Y-115368544D01*
X113305912Y-115402216D02*
X112733492Y-115301200D01*
X112901851Y-115806277D02*
X112194744Y-115099170D01*
X112464118Y-114829796D01*
X112565133Y-114796124D01*
X112632477Y-114796124D01*
X112733492Y-114829796D01*
X112834507Y-114930811D01*
X112868179Y-115031826D01*
X112868179Y-115099170D01*
X112834507Y-115200185D01*
X112565133Y-115469559D01*
X113339583Y-114829796D02*
X113878331Y-114291048D01*
X114854812Y-113853315D02*
X114450751Y-114257376D01*
X114652782Y-114055346D02*
X113945675Y-113348239D01*
X113979347Y-113516598D01*
X113979347Y-113651285D01*
X113945675Y-113752300D01*
X111912673Y-108431505D02*
X111205566Y-107724399D01*
X111474940Y-107455025D01*
X111575955Y-107421353D01*
X111643299Y-107421353D01*
X111744314Y-107455025D01*
X111845329Y-107556040D01*
X111879001Y-107657055D01*
X111879001Y-107724399D01*
X111845329Y-107825414D01*
X111575955Y-108094788D01*
X111845329Y-107084635D02*
X112720795Y-107623383D01*
X112350406Y-106983620D01*
X112990169Y-107354009D01*
X112451421Y-106478544D01*
X113831963Y-106512216D02*
X113259543Y-106411200D01*
X113427902Y-106916277D02*
X112720795Y-106209170D01*
X112990169Y-105939796D01*
X113091184Y-105906124D01*
X113158528Y-105906124D01*
X113259543Y-105939796D01*
X113360558Y-106040811D01*
X113394230Y-106141826D01*
X113394230Y-106209170D01*
X113360558Y-106310185D01*
X113091184Y-106579559D01*
X113865634Y-105939796D02*
X114404382Y-105401048D01*
X114404382Y-105939796D02*
X113865634Y-105401048D01*
X115380863Y-104963315D02*
X114976802Y-105367376D01*
X115178833Y-105165346D02*
X114471726Y-104458239D01*
X114505398Y-104626598D01*
X114505398Y-104761285D01*
X114471726Y-104862300D01*
X126681268Y-116378696D02*
X126815955Y-116244009D01*
X126916971Y-116210338D01*
X127051658Y-116210338D01*
X127220016Y-116311353D01*
X127455719Y-116547055D01*
X127556734Y-116715414D01*
X127556734Y-116850101D01*
X127523062Y-116951116D01*
X127388375Y-117085803D01*
X127287360Y-117119475D01*
X127152673Y-117119475D01*
X126984314Y-117018460D01*
X126748612Y-116782757D01*
X126647597Y-116614399D01*
X126647597Y-116479712D01*
X126681268Y-116378696D01*
X127287360Y-115772605D02*
X127859780Y-116345025D01*
X127960795Y-116378696D01*
X128028138Y-116378696D01*
X128129154Y-116345025D01*
X128263841Y-116210338D01*
X128297512Y-116109322D01*
X128297512Y-116041979D01*
X128263841Y-115940964D01*
X127691421Y-115368544D01*
X127927123Y-115132842D02*
X128331184Y-114728781D01*
X128836260Y-115637918D02*
X128129154Y-114930811D01*
X129004619Y-114930811D02*
X129543367Y-114392063D01*
X130519848Y-113954330D02*
X130115787Y-114358391D01*
X130317817Y-114156361D02*
X129610711Y-113449254D01*
X129644382Y-113617613D01*
X129644382Y-113752300D01*
X129610711Y-113853315D01*
X127207319Y-107488696D02*
X127342006Y-107354009D01*
X127443022Y-107320338D01*
X127577709Y-107320338D01*
X127746067Y-107421353D01*
X127981770Y-107657055D01*
X128082785Y-107825414D01*
X128082785Y-107960101D01*
X128049113Y-108061116D01*
X127914426Y-108195803D01*
X127813411Y-108229475D01*
X127678724Y-108229475D01*
X127510365Y-108128460D01*
X127274663Y-107892757D01*
X127173648Y-107724399D01*
X127173648Y-107589712D01*
X127207319Y-107488696D01*
X127813411Y-106882605D02*
X128385831Y-107455025D01*
X128486846Y-107488696D01*
X128554189Y-107488696D01*
X128655205Y-107455025D01*
X128789892Y-107320338D01*
X128823563Y-107219322D01*
X128823563Y-107151979D01*
X128789892Y-107050964D01*
X128217472Y-106478544D01*
X128453174Y-106242842D02*
X128857235Y-105838781D01*
X129362311Y-106747918D02*
X128655205Y-106040811D01*
X129530670Y-106040811D02*
X130069418Y-105502063D01*
X130069418Y-106040811D02*
X129530670Y-105502063D01*
X131045899Y-105064330D02*
X130641838Y-105468391D01*
X130843868Y-105266361D02*
X130136762Y-104559254D01*
X130170433Y-104727613D01*
X130170433Y-104862300D01*
X130136762Y-104963315D01*
M02*
