M48
; DRILL file {KiCad 5.1.5+dfsg1-2build2} date Sun 31 Jan 2021 11:58:19 AM CST
; FORMAT={-:-/ absolute / inch / decimal}
; #@! TF.CreationDate,2021-01-31T11:58:19-06:00
; #@! TF.GenerationSoftware,Kicad,Pcbnew,5.1.5+dfsg1-2build2
FMAT,2
INCH
T1C0.0295
T2C0.0300
T3C0.0315
T4C0.0394
T5C0.0433
T6C0.0472
T7C0.1181
%
G90
G05
T1
X6.2303Y-3.8386
X6.2803Y-3.7886
X6.3303Y-3.8386
T2
X4.8969Y-3.237
X4.8969Y-3.337
X4.8969Y-3.437
X4.8969Y-3.537
X4.8969Y-3.637
X4.8969Y-3.737
X4.8969Y-3.837
X4.8969Y-3.937
X4.8969Y-4.037
X4.8969Y-4.137
X4.8969Y-4.237
X4.8969Y-4.337
X4.8969Y-4.437
X4.8969Y-4.537
X4.8969Y-4.637
X5.4969Y-3.237
X5.4969Y-3.337
X5.4969Y-3.437
X5.4969Y-3.537
X5.4969Y-3.637
X5.4969Y-3.737
X5.4969Y-3.837
X5.4969Y-3.937
X5.4969Y-4.037
X5.4969Y-4.137
X5.4969Y-4.237
X5.4969Y-4.337
X5.4969Y-4.437
X5.4969Y-4.537
X5.4969Y-4.637
T3
X6.0728Y-4.1291
X6.0728Y-4.4291
X6.3878Y-3.0118
X6.5846Y-3.0118
X5.7185Y-3.0906
X5.7185Y-3.3906
X5.7185Y-3.9567
X6.0185Y-3.9567
X6.3878Y-4.1291
X6.3878Y-4.4291
X6.3878Y-3.2087
X6.5846Y-3.2087
X4.4882Y-4.2913
X4.5866Y-4.2913
X4.5177Y-3.7205
X4.6161Y-3.7205
X5.9744Y-3.4055
X6.0728Y-3.4055
X6.5846Y-4.1535
X6.8846Y-4.1535
X4.6161Y-3.0268
X4.6161Y-3.3268
X6.4028Y-3.4449
X6.7028Y-3.4449
X6.624Y-3.6567
X6.624Y-3.9567
T4
X5.7154Y-2.815
X5.8154Y-2.815
X5.9154Y-2.815
T5
X4.4882Y-4.7244
X4.5882Y-4.7244
X4.6882Y-4.7244
X6.8358Y-4.6654
X7.1358Y-4.6654
X6.7421Y-4.4291
X6.8421Y-4.4291
X6.9421Y-4.4291
T6
X5.7059Y-4.6654
X6.5059Y-4.6654
T7
X7.4902Y-2.815
X4.2224Y-4.9016
X7.4902Y-4.9016
X4.2224Y-2.815
T5
G00X5.9945Y-4.9409
M15
G01X6.0299Y-4.9409
M16
G05
G00X6.1945Y-4.9409
M15
G01X6.2299Y-4.9409
M16
G05
G00X4.989Y-4.9409
M15
G01X5.0244Y-4.9409
M16
G05
G00X5.189Y-4.9409
M15
G01X5.2244Y-4.9409
M16
G05
G00X5.522Y-4.9409
M15
G01X5.5575Y-4.9409
M16
G05
G00X5.722Y-4.9409
M15
G01X5.7575Y-4.9409
M16
G05
G00X6.9606Y-4.9409
M15
G01X6.9961Y-4.9409
M16
G05
G00X7.1606Y-4.9409
M15
G01X7.1961Y-4.9409
M16
G05
G00X4.5378Y-4.9409
M15
G01X4.5732Y-4.9409
M16
G05
G00X4.7378Y-4.9409
M15
G01X4.7732Y-4.9409
M16
G05
G00X6.4882Y-4.9409
M15
G01X6.5236Y-4.9409
M16
G05
G00X6.6882Y-4.9409
M15
G01X6.7236Y-4.9409
M16
G05
T0
M30
