G04 #@! TF.GenerationSoftware,KiCad,Pcbnew,5.1.5+dfsg1-2build2*
G04 #@! TF.CreationDate,2021-01-30T13:40:10-06:00*
G04 #@! TF.ProjectId,speaker-switcher-remote,73706561-6b65-4722-9d73-776974636865,rev?*
G04 #@! TF.SameCoordinates,Original*
G04 #@! TF.FileFunction,Other,Fab,Top*
%FSLAX46Y46*%
G04 Gerber Fmt 4.6, Leading zero omitted, Abs format (unit mm)*
G04 Created by KiCad (PCBNEW 5.1.5+dfsg1-2build2) date 2021-01-30 13:40:10*
%MOMM*%
%LPD*%
G04 APERTURE LIST*
%ADD10C,0.100000*%
%ADD11C,0.150000*%
G04 APERTURE END LIST*
D10*
X133250000Y-76636000D02*
X133250000Y-74096000D01*
X134500000Y-76636000D02*
G75*
G03X134500000Y-76636000I-1250000J0D01*
G01*
X157319139Y-85378500D02*
X157319139Y-86378500D01*
X156819139Y-85878500D02*
X157819139Y-85878500D01*
X166108000Y-88066000D02*
G75*
G03X166108000Y-88066000I-5000000J0D01*
G01*
X126584000Y-76890000D02*
X129124000Y-76890000D01*
X127834000Y-76890000D02*
G75*
G03X127834000Y-76890000I-1250000J0D01*
G01*
X133250000Y-68000000D02*
X133250000Y-70540000D01*
X134500000Y-68000000D02*
G75*
G03X134500000Y-68000000I-1250000J0D01*
G01*
X126250000Y-83000000D02*
X126250000Y-80460000D01*
X127500000Y-83000000D02*
G75*
G03X127500000Y-83000000I-1250000J0D01*
G01*
X164176000Y-101274000D02*
X164176000Y-103814000D01*
X165426000Y-101274000D02*
G75*
G03X165426000Y-101274000I-1250000J0D01*
G01*
X164176000Y-97464000D02*
X164176000Y-94924000D01*
X165426000Y-97464000D02*
G75*
G03X165426000Y-97464000I-1250000J0D01*
G01*
X159985000Y-100385000D02*
X159985000Y-97845000D01*
X161235000Y-100385000D02*
G75*
G03X161235000Y-100385000I-1250000J0D01*
G01*
X135003625Y-83983625D02*
G75*
G02X130770000Y-82230000I-1753625J1753625D01*
G01*
X135003625Y-80476375D02*
G75*
G03X130770000Y-82230000I-1753625J-1753625D01*
G01*
X135000000Y-84000000D02*
X135000000Y-80500000D01*
X166250000Y-117500000D02*
X162440000Y-117500000D01*
X163790000Y-117500000D02*
G75*
G03X163790000Y-117500000I-1350000J0D01*
G01*
X163580000Y-75386000D02*
X157580000Y-75386000D01*
X163580000Y-77886000D02*
X163580000Y-75386000D01*
X157580000Y-77886000D02*
X163580000Y-77886000D01*
X157580000Y-75386000D02*
X157580000Y-77886000D01*
X126461139Y-110312500D02*
X126461139Y-111312500D01*
X125961139Y-110812500D02*
X126961139Y-110812500D01*
X135250000Y-113000000D02*
G75*
G03X135250000Y-113000000I-5000000J0D01*
G01*
X126461139Y-97312500D02*
X126461139Y-98312500D01*
X125961139Y-97812500D02*
X126961139Y-97812500D01*
X135250000Y-100000000D02*
G75*
G03X135250000Y-100000000I-5000000J0D01*
G01*
X136930000Y-116000000D02*
X139340000Y-116000000D01*
X157250000Y-116000000D02*
X154840000Y-116000000D01*
X139340000Y-118500000D02*
X154840000Y-118500000D01*
X139340000Y-113500000D02*
X139340000Y-118500000D01*
X154840000Y-113500000D02*
X139340000Y-113500000D01*
X154840000Y-118500000D02*
X154840000Y-113500000D01*
X132390000Y-86850000D02*
X132390000Y-88120000D01*
X128690000Y-86850000D02*
X128690000Y-88120000D01*
X125540000Y-88120000D02*
X135540000Y-88120000D01*
X135540000Y-86850000D02*
X125540000Y-86850000D01*
X135540000Y-91250000D02*
X135540000Y-86850000D01*
X125540000Y-91250000D02*
X135540000Y-91250000D01*
X125540000Y-86850000D02*
X125540000Y-91250000D01*
X160675000Y-111790000D02*
X160675000Y-110520000D01*
X164375000Y-111790000D02*
X164375000Y-110520000D01*
X167525000Y-110520000D02*
X157525000Y-110520000D01*
X157525000Y-111790000D02*
X167525000Y-111790000D01*
X157525000Y-107390000D02*
X157525000Y-111790000D01*
X167525000Y-107390000D02*
X157525000Y-107390000D01*
X167525000Y-111790000D02*
X167525000Y-107390000D01*
X158980000Y-64865000D02*
X159615000Y-64230000D01*
X158980000Y-71850000D02*
X158980000Y-64865000D01*
X161520000Y-71850000D02*
X158980000Y-71850000D01*
X161520000Y-64230000D02*
X161520000Y-71850000D01*
X159615000Y-64230000D02*
X161520000Y-64230000D01*
D11*
X131332380Y-75532666D02*
X130856190Y-75866000D01*
X131332380Y-76104095D02*
X130332380Y-76104095D01*
X130332380Y-75723142D01*
X130380000Y-75627904D01*
X130427619Y-75580285D01*
X130522857Y-75532666D01*
X130665714Y-75532666D01*
X130760952Y-75580285D01*
X130808571Y-75627904D01*
X130856190Y-75723142D01*
X130856190Y-76104095D01*
X130760952Y-74961238D02*
X130713333Y-75056476D01*
X130665714Y-75104095D01*
X130570476Y-75151714D01*
X130522857Y-75151714D01*
X130427619Y-75104095D01*
X130380000Y-75056476D01*
X130332380Y-74961238D01*
X130332380Y-74770761D01*
X130380000Y-74675523D01*
X130427619Y-74627904D01*
X130522857Y-74580285D01*
X130570476Y-74580285D01*
X130665714Y-74627904D01*
X130713333Y-74675523D01*
X130760952Y-74770761D01*
X130760952Y-74961238D01*
X130808571Y-75056476D01*
X130856190Y-75104095D01*
X130951428Y-75151714D01*
X131141904Y-75151714D01*
X131237142Y-75104095D01*
X131284761Y-75056476D01*
X131332380Y-74961238D01*
X131332380Y-74770761D01*
X131284761Y-74675523D01*
X131237142Y-74627904D01*
X131141904Y-74580285D01*
X130951428Y-74580285D01*
X130856190Y-74627904D01*
X130808571Y-74675523D01*
X130760952Y-74770761D01*
X160941333Y-88423142D02*
X160893714Y-88470761D01*
X160750857Y-88518380D01*
X160655619Y-88518380D01*
X160512761Y-88470761D01*
X160417523Y-88375523D01*
X160369904Y-88280285D01*
X160322285Y-88089809D01*
X160322285Y-87946952D01*
X160369904Y-87756476D01*
X160417523Y-87661238D01*
X160512761Y-87566000D01*
X160655619Y-87518380D01*
X160750857Y-87518380D01*
X160893714Y-87566000D01*
X160941333Y-87613619D01*
X161274666Y-87518380D02*
X161893714Y-87518380D01*
X161560380Y-87899333D01*
X161703238Y-87899333D01*
X161798476Y-87946952D01*
X161846095Y-87994571D01*
X161893714Y-88089809D01*
X161893714Y-88327904D01*
X161846095Y-88423142D01*
X161798476Y-88470761D01*
X161703238Y-88518380D01*
X161417523Y-88518380D01*
X161322285Y-88470761D01*
X161274666Y-88423142D01*
X127211142Y-74972380D02*
X126877809Y-74496190D01*
X126639714Y-74972380D02*
X126639714Y-73972380D01*
X127020666Y-73972380D01*
X127115904Y-74020000D01*
X127163523Y-74067619D01*
X127211142Y-74162857D01*
X127211142Y-74305714D01*
X127163523Y-74400952D01*
X127115904Y-74448571D01*
X127020666Y-74496190D01*
X126639714Y-74496190D01*
X128163523Y-74972380D02*
X127592095Y-74972380D01*
X127877809Y-74972380D02*
X127877809Y-73972380D01*
X127782571Y-74115238D01*
X127687333Y-74210476D01*
X127592095Y-74258095D01*
X128782571Y-73972380D02*
X128877809Y-73972380D01*
X128973047Y-74020000D01*
X129020666Y-74067619D01*
X129068285Y-74162857D01*
X129115904Y-74353333D01*
X129115904Y-74591428D01*
X129068285Y-74781904D01*
X129020666Y-74877142D01*
X128973047Y-74924761D01*
X128877809Y-74972380D01*
X128782571Y-74972380D01*
X128687333Y-74924761D01*
X128639714Y-74877142D01*
X128592095Y-74781904D01*
X128544476Y-74591428D01*
X128544476Y-74353333D01*
X128592095Y-74162857D01*
X128639714Y-74067619D01*
X128687333Y-74020000D01*
X128782571Y-73972380D01*
X136072380Y-69436666D02*
X135596190Y-69770000D01*
X136072380Y-70008095D02*
X135072380Y-70008095D01*
X135072380Y-69627142D01*
X135120000Y-69531904D01*
X135167619Y-69484285D01*
X135262857Y-69436666D01*
X135405714Y-69436666D01*
X135500952Y-69484285D01*
X135548571Y-69531904D01*
X135596190Y-69627142D01*
X135596190Y-70008095D01*
X136072380Y-68960476D02*
X136072380Y-68770000D01*
X136024761Y-68674761D01*
X135977142Y-68627142D01*
X135834285Y-68531904D01*
X135643809Y-68484285D01*
X135262857Y-68484285D01*
X135167619Y-68531904D01*
X135120000Y-68579523D01*
X135072380Y-68674761D01*
X135072380Y-68865238D01*
X135120000Y-68960476D01*
X135167619Y-69008095D01*
X135262857Y-69055714D01*
X135500952Y-69055714D01*
X135596190Y-69008095D01*
X135643809Y-68960476D01*
X135691428Y-68865238D01*
X135691428Y-68674761D01*
X135643809Y-68579523D01*
X135596190Y-68531904D01*
X135500952Y-68484285D01*
X124332380Y-81896666D02*
X123856190Y-82230000D01*
X124332380Y-82468095D02*
X123332380Y-82468095D01*
X123332380Y-82087142D01*
X123380000Y-81991904D01*
X123427619Y-81944285D01*
X123522857Y-81896666D01*
X123665714Y-81896666D01*
X123760952Y-81944285D01*
X123808571Y-81991904D01*
X123856190Y-82087142D01*
X123856190Y-82468095D01*
X123332380Y-81039523D02*
X123332380Y-81230000D01*
X123380000Y-81325238D01*
X123427619Y-81372857D01*
X123570476Y-81468095D01*
X123760952Y-81515714D01*
X124141904Y-81515714D01*
X124237142Y-81468095D01*
X124284761Y-81420476D01*
X124332380Y-81325238D01*
X124332380Y-81134761D01*
X124284761Y-81039523D01*
X124237142Y-80991904D01*
X124141904Y-80944285D01*
X123903809Y-80944285D01*
X123808571Y-80991904D01*
X123760952Y-81039523D01*
X123713333Y-81134761D01*
X123713333Y-81325238D01*
X123760952Y-81420476D01*
X123808571Y-81468095D01*
X123903809Y-81515714D01*
X166998380Y-102710666D02*
X166522190Y-103044000D01*
X166998380Y-103282095D02*
X165998380Y-103282095D01*
X165998380Y-102901142D01*
X166046000Y-102805904D01*
X166093619Y-102758285D01*
X166188857Y-102710666D01*
X166331714Y-102710666D01*
X166426952Y-102758285D01*
X166474571Y-102805904D01*
X166522190Y-102901142D01*
X166522190Y-103282095D01*
X165998380Y-102377333D02*
X165998380Y-101758285D01*
X166379333Y-102091619D01*
X166379333Y-101948761D01*
X166426952Y-101853523D01*
X166474571Y-101805904D01*
X166569809Y-101758285D01*
X166807904Y-101758285D01*
X166903142Y-101805904D01*
X166950761Y-101853523D01*
X166998380Y-101948761D01*
X166998380Y-102234476D01*
X166950761Y-102329714D01*
X166903142Y-102377333D01*
X162258380Y-96360666D02*
X161782190Y-96694000D01*
X162258380Y-96932095D02*
X161258380Y-96932095D01*
X161258380Y-96551142D01*
X161306000Y-96455904D01*
X161353619Y-96408285D01*
X161448857Y-96360666D01*
X161591714Y-96360666D01*
X161686952Y-96408285D01*
X161734571Y-96455904D01*
X161782190Y-96551142D01*
X161782190Y-96932095D01*
X161353619Y-95979714D02*
X161306000Y-95932095D01*
X161258380Y-95836857D01*
X161258380Y-95598761D01*
X161306000Y-95503523D01*
X161353619Y-95455904D01*
X161448857Y-95408285D01*
X161544095Y-95408285D01*
X161686952Y-95455904D01*
X162258380Y-96027333D01*
X162258380Y-95408285D01*
X158067380Y-99281666D02*
X157591190Y-99615000D01*
X158067380Y-99853095D02*
X157067380Y-99853095D01*
X157067380Y-99472142D01*
X157115000Y-99376904D01*
X157162619Y-99329285D01*
X157257857Y-99281666D01*
X157400714Y-99281666D01*
X157495952Y-99329285D01*
X157543571Y-99376904D01*
X157591190Y-99472142D01*
X157591190Y-99853095D01*
X158067380Y-98329285D02*
X158067380Y-98900714D01*
X158067380Y-98615000D02*
X157067380Y-98615000D01*
X157210238Y-98710238D01*
X157305476Y-98805476D01*
X157353095Y-98900714D01*
X130237619Y-82325238D02*
X130190000Y-82420476D01*
X130094761Y-82515714D01*
X129951904Y-82658571D01*
X129904285Y-82753809D01*
X129904285Y-82849047D01*
X130142380Y-82801428D02*
X130094761Y-82896666D01*
X129999523Y-82991904D01*
X129809047Y-83039523D01*
X129475714Y-83039523D01*
X129285238Y-82991904D01*
X129190000Y-82896666D01*
X129142380Y-82801428D01*
X129142380Y-82610952D01*
X129190000Y-82515714D01*
X129285238Y-82420476D01*
X129475714Y-82372857D01*
X129809047Y-82372857D01*
X129999523Y-82420476D01*
X130094761Y-82515714D01*
X130142380Y-82610952D01*
X130142380Y-82801428D01*
X130142380Y-81420476D02*
X130142380Y-81991904D01*
X130142380Y-81706190D02*
X129142380Y-81706190D01*
X129285238Y-81801428D01*
X129380476Y-81896666D01*
X129428095Y-81991904D01*
X164188095Y-116852380D02*
X164188095Y-115852380D01*
X164759523Y-116852380D02*
X164330952Y-116280952D01*
X164759523Y-115852380D02*
X164188095Y-116423809D01*
X163606904Y-120703015D02*
X163606904Y-119703015D01*
X163845000Y-119703015D01*
X163987857Y-119750635D01*
X164083095Y-119845873D01*
X164130714Y-119941111D01*
X164178333Y-120131587D01*
X164178333Y-120274444D01*
X164130714Y-120464920D01*
X164083095Y-120560158D01*
X163987857Y-120655396D01*
X163845000Y-120703015D01*
X163606904Y-120703015D01*
X165130714Y-120703015D02*
X164559285Y-120703015D01*
X164845000Y-120703015D02*
X164845000Y-119703015D01*
X164749761Y-119845873D01*
X164654523Y-119941111D01*
X164559285Y-119988730D01*
X160413333Y-76993142D02*
X160365714Y-77040761D01*
X160222857Y-77088380D01*
X160127619Y-77088380D01*
X159984761Y-77040761D01*
X159889523Y-76945523D01*
X159841904Y-76850285D01*
X159794285Y-76659809D01*
X159794285Y-76516952D01*
X159841904Y-76326476D01*
X159889523Y-76231238D01*
X159984761Y-76136000D01*
X160127619Y-76088380D01*
X160222857Y-76088380D01*
X160365714Y-76136000D01*
X160413333Y-76183619D01*
X161270476Y-76421714D02*
X161270476Y-77088380D01*
X161032380Y-76040761D02*
X160794285Y-76755047D01*
X161413333Y-76755047D01*
X130083333Y-113357142D02*
X130035714Y-113404761D01*
X129892857Y-113452380D01*
X129797619Y-113452380D01*
X129654761Y-113404761D01*
X129559523Y-113309523D01*
X129511904Y-113214285D01*
X129464285Y-113023809D01*
X129464285Y-112880952D01*
X129511904Y-112690476D01*
X129559523Y-112595238D01*
X129654761Y-112500000D01*
X129797619Y-112452380D01*
X129892857Y-112452380D01*
X130035714Y-112500000D01*
X130083333Y-112547619D01*
X130464285Y-112547619D02*
X130511904Y-112500000D01*
X130607142Y-112452380D01*
X130845238Y-112452380D01*
X130940476Y-112500000D01*
X130988095Y-112547619D01*
X131035714Y-112642857D01*
X131035714Y-112738095D01*
X130988095Y-112880952D01*
X130416666Y-113452380D01*
X131035714Y-113452380D01*
X130083333Y-100357142D02*
X130035714Y-100404761D01*
X129892857Y-100452380D01*
X129797619Y-100452380D01*
X129654761Y-100404761D01*
X129559523Y-100309523D01*
X129511904Y-100214285D01*
X129464285Y-100023809D01*
X129464285Y-99880952D01*
X129511904Y-99690476D01*
X129559523Y-99595238D01*
X129654761Y-99500000D01*
X129797619Y-99452380D01*
X129892857Y-99452380D01*
X130035714Y-99500000D01*
X130083333Y-99547619D01*
X131035714Y-100452380D02*
X130464285Y-100452380D01*
X130750000Y-100452380D02*
X130750000Y-99452380D01*
X130654761Y-99595238D01*
X130559523Y-99690476D01*
X130464285Y-99738095D01*
X146923333Y-116452380D02*
X146590000Y-115976190D01*
X146351904Y-116452380D02*
X146351904Y-115452380D01*
X146732857Y-115452380D01*
X146828095Y-115500000D01*
X146875714Y-115547619D01*
X146923333Y-115642857D01*
X146923333Y-115785714D01*
X146875714Y-115880952D01*
X146828095Y-115928571D01*
X146732857Y-115976190D01*
X146351904Y-115976190D01*
X147256666Y-115452380D02*
X147923333Y-115452380D01*
X147494761Y-116452380D01*
X129778095Y-85182380D02*
X129778095Y-85991904D01*
X129825714Y-86087142D01*
X129873333Y-86134761D01*
X129968571Y-86182380D01*
X130159047Y-86182380D01*
X130254285Y-86134761D01*
X130301904Y-86087142D01*
X130349523Y-85991904D01*
X130349523Y-85182380D01*
X131349523Y-86182380D02*
X130778095Y-86182380D01*
X131063809Y-86182380D02*
X131063809Y-85182380D01*
X130968571Y-85325238D01*
X130873333Y-85420476D01*
X130778095Y-85468095D01*
X162429761Y-113457619D02*
X162334523Y-113410000D01*
X162239285Y-113314761D01*
X162096428Y-113171904D01*
X162001190Y-113124285D01*
X161905952Y-113124285D01*
X161953571Y-113362380D02*
X161858333Y-113314761D01*
X161763095Y-113219523D01*
X161715476Y-113029047D01*
X161715476Y-112695714D01*
X161763095Y-112505238D01*
X161858333Y-112410000D01*
X161953571Y-112362380D01*
X162144047Y-112362380D01*
X162239285Y-112410000D01*
X162334523Y-112505238D01*
X162382142Y-112695714D01*
X162382142Y-113029047D01*
X162334523Y-113219523D01*
X162239285Y-113314761D01*
X162144047Y-113362380D01*
X161953571Y-113362380D01*
X162763095Y-112457619D02*
X162810714Y-112410000D01*
X162905952Y-112362380D01*
X163144047Y-112362380D01*
X163239285Y-112410000D01*
X163286904Y-112457619D01*
X163334523Y-112552857D01*
X163334523Y-112648095D01*
X163286904Y-112790952D01*
X162715476Y-113362380D01*
X163334523Y-113362380D01*
X159797619Y-67063809D02*
X160797619Y-67063809D01*
X159797619Y-68111428D02*
X160273809Y-67778095D01*
X159797619Y-67540000D02*
X160797619Y-67540000D01*
X160797619Y-67920952D01*
X160750000Y-68016190D01*
X160702380Y-68063809D01*
X160607142Y-68111428D01*
X160464285Y-68111428D01*
X160369047Y-68063809D01*
X160321428Y-68016190D01*
X160273809Y-67920952D01*
X160273809Y-67540000D01*
X159797619Y-69063809D02*
X159797619Y-68492380D01*
X159797619Y-68778095D02*
X160797619Y-68778095D01*
X160654761Y-68682857D01*
X160559523Y-68587619D01*
X160511904Y-68492380D01*
X165216666Y-126952380D02*
X164883333Y-126476190D01*
X164645238Y-126952380D02*
X164645238Y-125952380D01*
X165026190Y-125952380D01*
X165121428Y-126000000D01*
X165169047Y-126047619D01*
X165216666Y-126142857D01*
X165216666Y-126285714D01*
X165169047Y-126380952D01*
X165121428Y-126428571D01*
X165026190Y-126476190D01*
X164645238Y-126476190D01*
X165645238Y-126428571D02*
X165978571Y-126428571D01*
X166121428Y-126952380D02*
X165645238Y-126952380D01*
X165645238Y-125952380D01*
X166121428Y-125952380D01*
X166883333Y-126428571D02*
X166550000Y-126428571D01*
X166550000Y-126952380D02*
X166550000Y-125952380D01*
X167026190Y-125952380D01*
X167550000Y-125952380D02*
X167550000Y-126190476D01*
X167311904Y-126095238D02*
X167550000Y-126190476D01*
X167788095Y-126095238D01*
X167407142Y-126380952D02*
X167550000Y-126190476D01*
X167692857Y-126380952D01*
X168311904Y-125952380D02*
X168311904Y-126190476D01*
X168073809Y-126095238D02*
X168311904Y-126190476D01*
X168550000Y-126095238D01*
X168169047Y-126380952D02*
X168311904Y-126190476D01*
X168454761Y-126380952D01*
X125216666Y-126952380D02*
X124883333Y-126476190D01*
X124645238Y-126952380D02*
X124645238Y-125952380D01*
X125026190Y-125952380D01*
X125121428Y-126000000D01*
X125169047Y-126047619D01*
X125216666Y-126142857D01*
X125216666Y-126285714D01*
X125169047Y-126380952D01*
X125121428Y-126428571D01*
X125026190Y-126476190D01*
X124645238Y-126476190D01*
X125645238Y-126428571D02*
X125978571Y-126428571D01*
X126121428Y-126952380D02*
X125645238Y-126952380D01*
X125645238Y-125952380D01*
X126121428Y-125952380D01*
X126883333Y-126428571D02*
X126550000Y-126428571D01*
X126550000Y-126952380D02*
X126550000Y-125952380D01*
X127026190Y-125952380D01*
X127550000Y-125952380D02*
X127550000Y-126190476D01*
X127311904Y-126095238D02*
X127550000Y-126190476D01*
X127788095Y-126095238D01*
X127407142Y-126380952D02*
X127550000Y-126190476D01*
X127692857Y-126380952D01*
X128311904Y-125952380D02*
X128311904Y-126190476D01*
X128073809Y-126095238D02*
X128311904Y-126190476D01*
X128550000Y-126095238D01*
X128169047Y-126380952D02*
X128311904Y-126190476D01*
X128454761Y-126380952D01*
X125216666Y-66952380D02*
X124883333Y-66476190D01*
X124645238Y-66952380D02*
X124645238Y-65952380D01*
X125026190Y-65952380D01*
X125121428Y-66000000D01*
X125169047Y-66047619D01*
X125216666Y-66142857D01*
X125216666Y-66285714D01*
X125169047Y-66380952D01*
X125121428Y-66428571D01*
X125026190Y-66476190D01*
X124645238Y-66476190D01*
X125645238Y-66428571D02*
X125978571Y-66428571D01*
X126121428Y-66952380D02*
X125645238Y-66952380D01*
X125645238Y-65952380D01*
X126121428Y-65952380D01*
X126883333Y-66428571D02*
X126550000Y-66428571D01*
X126550000Y-66952380D02*
X126550000Y-65952380D01*
X127026190Y-65952380D01*
X127550000Y-65952380D02*
X127550000Y-66190476D01*
X127311904Y-66095238D02*
X127550000Y-66190476D01*
X127788095Y-66095238D01*
X127407142Y-66380952D02*
X127550000Y-66190476D01*
X127692857Y-66380952D01*
X128311904Y-65952380D02*
X128311904Y-66190476D01*
X128073809Y-66095238D02*
X128311904Y-66190476D01*
X128550000Y-66095238D01*
X128169047Y-66380952D02*
X128311904Y-66190476D01*
X128454761Y-66380952D01*
X165416666Y-67452380D02*
X165083333Y-66976190D01*
X164845238Y-67452380D02*
X164845238Y-66452380D01*
X165226190Y-66452380D01*
X165321428Y-66500000D01*
X165369047Y-66547619D01*
X165416666Y-66642857D01*
X165416666Y-66785714D01*
X165369047Y-66880952D01*
X165321428Y-66928571D01*
X165226190Y-66976190D01*
X164845238Y-66976190D01*
X165845238Y-66928571D02*
X166178571Y-66928571D01*
X166321428Y-67452380D02*
X165845238Y-67452380D01*
X165845238Y-66452380D01*
X166321428Y-66452380D01*
X167083333Y-66928571D02*
X166750000Y-66928571D01*
X166750000Y-67452380D02*
X166750000Y-66452380D01*
X167226190Y-66452380D01*
X167750000Y-66452380D02*
X167750000Y-66690476D01*
X167511904Y-66595238D02*
X167750000Y-66690476D01*
X167988095Y-66595238D01*
X167607142Y-66880952D02*
X167750000Y-66690476D01*
X167892857Y-66880952D01*
X168511904Y-66452380D02*
X168511904Y-66690476D01*
X168273809Y-66595238D02*
X168511904Y-66690476D01*
X168750000Y-66595238D01*
X168369047Y-66880952D02*
X168511904Y-66690476D01*
X168654761Y-66880952D01*
M02*
