M48
; DRILL file {KiCad 5.1.5+dfsg1-2build2} date Sun 07 Mar 2021 12:48:18 PM CST
; FORMAT={-:-/ absolute / inch / decimal}
; #@! TF.CreationDate,2021-03-07T12:48:18-06:00
; #@! TF.GenerationSoftware,Kicad,Pcbnew,5.1.5+dfsg1-2build2
; #@! TF.FileFunction,Plated,1,2,PTH
FMAT,2
INCH
T1C0.0295
T2C0.0300
T3C0.0315
T4C0.0394
T5C0.0433
T6C0.0472
%
G90
G05
T1
X7.0551Y-4.3469
X7.065Y-4.4469
X7.115Y-4.3969
X6.1242Y-3.7469
X6.1321Y-3.8469
X6.19Y-3.7969
T2
X4.8969Y-3.237
X4.8969Y-3.337
X4.8969Y-3.437
X4.8969Y-3.537
X4.8969Y-3.637
X4.8969Y-3.737
X4.8969Y-3.837
X4.8969Y-3.937
X4.8969Y-4.037
X4.8969Y-4.137
X4.8969Y-4.237
X4.8969Y-4.337
X4.8969Y-4.437
X4.8969Y-4.537
X4.8969Y-4.637
X5.4969Y-3.237
X5.4969Y-3.337
X5.4969Y-3.437
X5.4969Y-3.537
X5.4969Y-3.637
X5.4969Y-3.737
X5.4969Y-3.837
X5.4969Y-3.937
X5.4969Y-4.037
X5.4969Y-4.137
X5.4969Y-4.237
X5.4969Y-4.337
X5.4969Y-4.437
X5.4969Y-4.537
X5.4969Y-4.637
T3
X6.815Y-3.6567
X6.815Y-3.9567
X5.9744Y-3.4055
X6.0728Y-3.4055
X6.624Y-3.6567
X6.624Y-3.9567
X5.7185Y-3.0906
X5.7185Y-3.3906
X6.537Y-4.3789
X6.837Y-4.3789
X6.5846Y-4.1535
X6.8846Y-4.1535
X6.44Y-3.6567
X6.44Y-3.9567
X6.3878Y-3.2087
X6.5846Y-3.2087
X4.4931Y-4.2219
X4.69Y-4.2219
X6.3878Y-3.0118
X6.5846Y-3.0118
X6.4028Y-3.4449
X6.7028Y-3.4449
X5.915Y-4.4469
X6.215Y-4.4469
X5.84Y-4.0469
X6.14Y-4.0469
X4.6161Y-3.0268
X4.6161Y-3.3268
X4.4882Y-4.4219
X4.685Y-4.4219
T4
X5.7154Y-2.815
X5.8154Y-2.815
X5.9154Y-2.815
X6.815Y-3.0969
X6.815Y-3.1953
T5
X5.915Y-4.2219
X6.015Y-4.2219
X6.115Y-4.2219
X4.4882Y-4.7244
X4.5882Y-4.7244
X4.6882Y-4.7244
X6.8358Y-4.6654
X7.1358Y-4.6654
T6
X5.783Y-4.6609
X6.583Y-4.6609
T5
G00X6.4882Y-4.9409
M15
G01X6.5236Y-4.9409
M16
G05
G00X6.6882Y-4.9409
M15
G01X6.7236Y-4.9409
M16
G05
G00X6.9606Y-4.9409
M15
G01X6.9961Y-4.9409
M16
G05
G00X7.1606Y-4.9409
M15
G01X7.1961Y-4.9409
M16
G05
G00X4.5378Y-4.9409
M15
G01X4.5732Y-4.9409
M16
G05
G00X4.7378Y-4.9409
M15
G01X4.7732Y-4.9409
M16
G05
G00X4.989Y-4.9409
M15
G01X5.0244Y-4.9409
M16
G05
G00X5.189Y-4.9409
M15
G01X5.2244Y-4.9409
M16
G05
G00X5.9945Y-4.9409
M15
G01X6.0299Y-4.9409
M16
G05
G00X6.1945Y-4.9409
M15
G01X6.2299Y-4.9409
M16
G05
G00X5.522Y-4.9409
M15
G01X5.5575Y-4.9409
M16
G05
G00X5.722Y-4.9409
M15
G01X5.7575Y-4.9409
M16
G05
T0
M30
